G04*
G04 #@! TF.GenerationSoftware,Altium Limited,Altium Designer,26.5.0 (11)*
G04*
G04 Layer_Color=8421504*
G04 Board_Origin=0|0*
%FSLAX25Y25*%
%MOIN*%
G70*
G04*
G04 #@! TF.SameCoordinates,58053D35-91EE-41BA-825B-EE90D053A553*
G04*
G04*
G04 #@! TF.FilePolarity,Positive*
G04*
G01*
G75*
%ADD16R,0.04331X0.01968*%
%ADD17R,0.05750X0.02200*%
%ADD18R,0.04331X0.05512*%
%ADD19R,0.05512X0.04331*%
%ADD20R,0.02362X0.03937*%
%ADD21R,0.05971X0.02971*%
%ADD22R,0.06693X0.07087*%
D16*
X399972Y304500D02*
D03*
X409028D02*
D03*
D17*
X268775Y338500D02*
D03*
X290225Y353500D02*
D03*
Y348500D02*
D03*
Y343500D02*
D03*
Y338500D02*
D03*
X268775Y343500D02*
D03*
Y348500D02*
D03*
Y353500D02*
D03*
D18*
X341626Y234500D02*
D03*
X281437Y221500D02*
D03*
X390874Y283500D02*
D03*
X401937Y220500D02*
D03*
X177000Y298000D02*
D03*
X391500Y262000D02*
D03*
X342437Y406500D02*
D03*
X372000Y248000D02*
D03*
X400563Y274000D02*
D03*
X408437D02*
D03*
X298063Y192500D02*
D03*
X305937D02*
D03*
X349500Y234500D02*
D03*
X273563Y221500D02*
D03*
X250063Y258500D02*
D03*
X257937D02*
D03*
X381937Y421000D02*
D03*
X374063D02*
D03*
X383000Y283500D02*
D03*
X214563Y277500D02*
D03*
X222437D02*
D03*
X372500Y265000D02*
D03*
X364626D02*
D03*
X250937Y279500D02*
D03*
X243063D02*
D03*
X380937Y219500D02*
D03*
X373063D02*
D03*
X394063Y220500D02*
D03*
X169126Y298000D02*
D03*
X383626Y262000D02*
D03*
X226437Y230000D02*
D03*
X218563D02*
D03*
X333937Y264500D02*
D03*
X326063D02*
D03*
X302000Y222500D02*
D03*
X309874D02*
D03*
X334563Y406500D02*
D03*
X364126Y248000D02*
D03*
D19*
X351000Y254063D02*
D03*
X351500Y288626D02*
D03*
X335000Y349563D02*
D03*
X351000Y261937D02*
D03*
X351500Y296500D02*
D03*
X387000Y387063D02*
D03*
Y394937D02*
D03*
X364000Y317374D02*
D03*
Y309500D02*
D03*
X335000Y357437D02*
D03*
X172000Y322563D02*
D03*
Y330437D02*
D03*
X191000Y237000D02*
D03*
Y229126D02*
D03*
X187000Y260437D02*
D03*
Y252563D02*
D03*
X214000Y390874D02*
D03*
Y383000D02*
D03*
X198000Y389500D02*
D03*
Y381626D02*
D03*
D20*
X307260Y254173D02*
D03*
Y265000D02*
D03*
X303520D02*
D03*
X311000Y254173D02*
D03*
X303520D02*
D03*
X311000Y265000D02*
D03*
D21*
X244178Y236919D02*
D03*
X251235Y240669D02*
D03*
Y233169D02*
D03*
D22*
X301642Y385358D02*
D03*
X319358D02*
D03*
Y417642D02*
D03*
X301642D02*
D03*
M02*
