M48
;Layer_Color=9474304
;FILE_FORMAT=2:5
INCH
;TYPE=PLATED
T01F00S00C0.01575
T02F00S00C0.03937
T03F00S00C0.04724
T04F00S00C0.05472
%
T01
X0333300Y0241000
X0333937Y0277547
X0364626Y0286500
X0365300Y0260600
X0380937Y0244963
X0408437Y0267700
X0311000Y0258100
X0297600Y0255600
X0278500Y0269500
X0274200Y0291800
X0300100Y0291900
X0248000Y0306500
X0244100Y0263600
X0171717Y0261483
X0177000Y0241000
X0262572Y0196572
X0278000Y0351878
X0295500Y0343500
X0235500Y0341700
X0246100Y0361900
X0221000
X0183300Y0335800
X0356000Y0334000
X0326800Y0383300
X0316358Y0403500
T02
X0377500Y0197500
X0317500Y0286500
X0290500Y0285500
X0265000Y0281500
X0248000Y0320000
X0342500Y0330000
X0361000Y0379500
X0402000Y0359500
T03
X0188500Y0422000
X0198500
T04
X0206000Y0301500
Y0311500
Y0321500
M30
