G04*
G04 #@! TF.GenerationSoftware,Altium Limited,Altium Designer,26.5.0 (11)*
G04*
G04 Layer_Physical_Order=1*
G04 Layer_Color=255*
G04 Board_Origin=0|0*
%FSLAX25Y25*%
%MOIN*%
G70*
G04*
G04 #@! TF.SameCoordinates,38DD681F-89FE-4423-B32E-655BD9D983AC*
G04*
G04*
G04 #@! TF.FilePolarity,Positive*
G04*
G01*
G75*
%ADD16R,0.04331X0.01968*%
%ADD17R,0.05750X0.02200*%
%ADD18R,0.04331X0.05512*%
%ADD19R,0.05512X0.04331*%
%ADD20R,0.02362X0.03937*%
%ADD22R,0.06693X0.07087*%
%ADD32C,0.07835*%
%ADD33R,0.07835X0.07835*%
%ADD35R,0.08600X0.02200*%
%ADD36R,0.05200X0.02200*%
%ADD37C,0.02000*%
%ADD38O,0.06693X0.07874*%
%ADD39C,0.05906*%
%ADD40R,0.06693X0.07874*%
%ADD41C,0.02559*%
G36*
X409528Y444837D02*
X410996Y444392D01*
X412350Y443668D01*
X413537Y442694D01*
X414511Y441508D01*
X415000Y440592D01*
Y309658D01*
X414538Y309467D01*
X404549Y319456D01*
Y355830D01*
X404734Y355937D01*
X405563Y356766D01*
X406149Y357781D01*
X406453Y358914D01*
Y360086D01*
X406149Y361219D01*
X405563Y362234D01*
X404734Y363063D01*
X403719Y363649D01*
X402586Y363953D01*
X401414D01*
X400281Y363649D01*
X399266Y363063D01*
X398437Y362234D01*
X398330Y362049D01*
X392556D01*
X389549Y365056D01*
Y383398D01*
X391256D01*
Y390728D01*
X384249D01*
Y391272D01*
X391256D01*
Y398602D01*
X389549D01*
Y426000D01*
X389355Y426975D01*
X388802Y427802D01*
X386602Y430002D01*
X385775Y430555D01*
X384800Y430749D01*
X378263D01*
X377288Y430555D01*
X376461Y430002D01*
X372261Y425802D01*
X371895Y425256D01*
X370398D01*
Y416744D01*
X377728D01*
Y423634D01*
X377772Y423663D01*
X378272Y423396D01*
Y416744D01*
X379388D01*
Y401493D01*
X361793Y383897D01*
X361586Y383953D01*
X360414D01*
X359281Y383649D01*
X358266Y383063D01*
X357437Y382234D01*
X356851Y381219D01*
X356614Y380335D01*
X356070Y380172D01*
X344986Y391256D01*
Y402244D01*
X346102D01*
Y410756D01*
X344986D01*
Y417263D01*
X344792Y418238D01*
X344239Y419065D01*
X337802Y425502D01*
X336976Y426055D01*
X336000Y426249D01*
X256000D01*
X255962Y426241D01*
X255925Y426248D01*
X202880Y424680D01*
X202733Y425035D01*
X201957Y426047D01*
X200944Y426824D01*
X199765Y427312D01*
X198500Y427479D01*
X197235Y427312D01*
X196056Y426824D01*
X195044Y426047D01*
X194267Y425035D01*
X193846Y424020D01*
X193347Y424120D01*
Y427437D01*
X183653D01*
Y416563D01*
X185951D01*
Y416000D01*
X186145Y415025D01*
X186698Y414198D01*
X191698Y409198D01*
X192525Y408645D01*
X193500Y408451D01*
X207744D01*
X216751Y399444D01*
Y394539D01*
X209744D01*
Y393423D01*
X207374D01*
X207191Y393387D01*
X207004Y393396D01*
X202634Y392756D01*
X202256Y393082D01*
Y393165D01*
X193744D01*
Y391998D01*
X193025Y391855D01*
X192198Y391302D01*
X190898Y390002D01*
X190345Y389176D01*
X190151Y388200D01*
Y334800D01*
X190345Y333824D01*
X190898Y332998D01*
X200815Y323080D01*
X200583Y322213D01*
Y321229D01*
X200083Y321022D01*
X188865Y332239D01*
X188038Y332792D01*
X187063Y332986D01*
X184985D01*
X184851Y333486D01*
X185007Y333576D01*
X185524Y334093D01*
X185890Y334727D01*
X186080Y335434D01*
Y336166D01*
X185890Y336873D01*
X185524Y337507D01*
X185007Y338024D01*
X184373Y338390D01*
X183666Y338580D01*
X182934D01*
X182227Y338390D01*
X182156Y338349D01*
X166000D01*
X165024Y338155D01*
X164198Y337602D01*
X162598Y336002D01*
X162045Y335175D01*
X161851Y334200D01*
Y236000D01*
X162045Y235024D01*
X162598Y234198D01*
X169472Y227324D01*
X170299Y226771D01*
X171274Y226577D01*
X186744D01*
Y225461D01*
X195256D01*
Y226577D01*
X205018D01*
X247398Y184198D01*
X248224Y183645D01*
X249200Y183451D01*
X303937D01*
X304912Y183645D01*
X305739Y184198D01*
X307739Y186198D01*
X308292Y187024D01*
X308486Y188000D01*
Y188244D01*
X309602D01*
Y196756D01*
X302272D01*
Y188549D01*
X301728D01*
Y196756D01*
X294398D01*
Y195049D01*
X265402D01*
X265210Y195381D01*
X265176Y195549D01*
X265352Y196206D01*
Y196938D01*
X265162Y197645D01*
X265121Y197716D01*
Y218951D01*
X269898D01*
Y217244D01*
X277228D01*
Y225756D01*
X269898D01*
Y224049D01*
X265121D01*
Y232400D01*
X274995D01*
X278888Y228507D01*
Y225756D01*
X277772D01*
Y217244D01*
X285102D01*
Y225756D01*
X283986D01*
Y229563D01*
X283792Y230539D01*
X283239Y231365D01*
X277802Y236802D01*
X277274Y237155D01*
X277244Y237304D01*
X277289Y237680D01*
X277313Y237730D01*
X277430Y237767D01*
X277704Y237998D01*
X278002Y238198D01*
X278081Y238316D01*
X278190Y238408D01*
X281425Y242451D01*
X283700D01*
Y237400D01*
Y232400D01*
X295300D01*
Y237400D01*
Y242400D01*
Y247451D01*
X300266D01*
X300425Y247345D01*
X301400Y247151D01*
X306000D01*
X306673Y247285D01*
X306919Y246824D01*
X300198Y240102D01*
X299645Y239276D01*
X299451Y238300D01*
Y226756D01*
X298335D01*
Y218244D01*
X305665D01*
Y226756D01*
X304549D01*
Y237244D01*
X317152Y249848D01*
X317705Y250675D01*
X317899Y251650D01*
Y260000D01*
X317705Y260976D01*
X317284Y261606D01*
X317415Y262114D01*
X317476Y262186D01*
X317605Y262225D01*
X317724Y262145D01*
X318700Y261951D01*
X322398D01*
Y260244D01*
X329728D01*
Y268756D01*
X322398D01*
Y267049D01*
X319633D01*
X319176Y267355D01*
X318200Y267549D01*
X313681D01*
Y268468D01*
X313549D01*
Y278944D01*
X316707Y282103D01*
X316914Y282047D01*
X318086D01*
X319219Y282351D01*
X320234Y282937D01*
X321063Y283766D01*
X321649Y284781D01*
X321953Y285914D01*
Y287086D01*
X321649Y288219D01*
X321238Y288931D01*
X321527Y289431D01*
X341290D01*
X343898Y286824D01*
X344724Y286271D01*
X345700Y286077D01*
X347244D01*
Y284961D01*
X353751D01*
Y265602D01*
X346744D01*
Y264486D01*
X346000D01*
X345024Y264292D01*
X344198Y263739D01*
X341518Y261060D01*
X337602Y261819D01*
Y268756D01*
X336486D01*
Y276403D01*
X336527Y276474D01*
X336717Y277181D01*
Y277913D01*
X336527Y278620D01*
X336161Y279254D01*
X335644Y279771D01*
X335010Y280137D01*
X334303Y280327D01*
X333571D01*
X332864Y280137D01*
X332230Y279771D01*
X331713Y279254D01*
X331347Y278620D01*
X331157Y277913D01*
Y277181D01*
X331347Y276474D01*
X331388Y276403D01*
Y268756D01*
X330272D01*
Y260244D01*
X331061D01*
X331301Y259999D01*
X331351Y259722D01*
X331352Y259440D01*
X331438Y259237D01*
X331477Y259020D01*
X331629Y258783D01*
X331737Y258524D01*
X331894Y258368D01*
X332014Y258182D01*
X332244Y258022D01*
X332444Y257824D01*
X332649Y257740D01*
X332830Y257614D01*
X333085Y257558D01*
X333109Y257508D01*
X333145Y257324D01*
X333320Y257063D01*
X333455Y256778D01*
X333594Y256653D01*
X333698Y256497D01*
X333960Y256323D01*
X334193Y256112D01*
X334369Y256049D01*
X334525Y255945D01*
X334834Y255883D01*
X335130Y255778D01*
X335317Y255787D01*
X335500Y255751D01*
X335565D01*
X335757Y255289D01*
X326196Y245708D01*
X308070Y227544D01*
X307794Y227131D01*
X307543Y226756D01*
X306209D01*
Y218244D01*
X313539D01*
Y225808D01*
X324989Y237282D01*
X325451Y237090D01*
Y229744D01*
X325645Y228769D01*
X326198Y227942D01*
X330198Y223942D01*
X331025Y223389D01*
X332000Y223195D01*
X357665D01*
X358641Y223389D01*
X359468Y223942D01*
X365289Y229763D01*
X365751Y229572D01*
Y198500D01*
X365945Y197524D01*
X366498Y196698D01*
X372998Y190198D01*
X373825Y189645D01*
X374800Y189451D01*
X384400D01*
X385375Y189645D01*
X386202Y190198D01*
X403739Y207735D01*
X404292Y208561D01*
X404486Y209537D01*
Y216244D01*
X405602D01*
Y224756D01*
X404486D01*
Y229700D01*
X404292Y230676D01*
X403739Y231502D01*
X394049Y241193D01*
Y257744D01*
X395165D01*
Y266256D01*
X394049D01*
Y279244D01*
X394539D01*
Y286735D01*
X409821Y302016D01*
X411451D01*
Y290756D01*
X398951Y278256D01*
X396898D01*
Y269744D01*
X404228D01*
Y275897D01*
X404272Y275926D01*
X404772Y275659D01*
Y269744D01*
X405888D01*
Y268844D01*
X405847Y268773D01*
X405657Y268066D01*
Y267334D01*
X405847Y266627D01*
X406213Y265993D01*
X406730Y265476D01*
X407364Y265110D01*
X408071Y264920D01*
X408803D01*
X409510Y265110D01*
X410144Y265476D01*
X410661Y265993D01*
X411027Y266627D01*
X411216Y267334D01*
Y268066D01*
X411027Y268773D01*
X410986Y268844D01*
Y269744D01*
X412102D01*
Y278256D01*
X406814D01*
X406623Y278718D01*
X414538Y286633D01*
X415000Y286442D01*
Y185144D01*
X414385Y183992D01*
X413411Y182806D01*
X412224Y181832D01*
X410871Y181108D01*
X409402Y180663D01*
X407964Y180521D01*
X407874Y180539D01*
X159843D01*
X159752Y180521D01*
X158315Y180663D01*
X156912Y181088D01*
X154539Y183461D01*
Y437157D01*
X154521Y437248D01*
X154663Y438685D01*
X155108Y440154D01*
X155832Y441508D01*
X156806Y442694D01*
X157992Y443668D01*
X159346Y444392D01*
X160815Y444837D01*
X162252Y444979D01*
X162343Y444961D01*
X408000D01*
X408090Y444979D01*
X409528Y444837D01*
D02*
G37*
G36*
X282884Y420689D02*
X280498Y418302D01*
X279945Y417476D01*
X279751Y416500D01*
Y354654D01*
X279251Y354365D01*
X279073Y354468D01*
X278366Y354658D01*
X277634D01*
X276927Y354468D01*
X276293Y354102D01*
X275776Y353585D01*
X275410Y352951D01*
X275389Y352872D01*
X273650Y351133D01*
X273150Y351252D01*
Y356100D01*
X266305D01*
X254702Y367702D01*
X253875Y368255D01*
X252900Y368449D01*
X236000D01*
X235024Y368255D01*
X234198Y367702D01*
X228698Y362202D01*
X228145Y361375D01*
X227951Y360400D01*
Y265519D01*
X224635Y262202D01*
X224082Y261375D01*
X223888Y260400D01*
Y234256D01*
X222772D01*
Y225744D01*
X230102D01*
Y234256D01*
X228986D01*
Y259344D01*
X232302Y262661D01*
X232451Y262883D01*
X232951Y262731D01*
Y217000D01*
X233145Y216024D01*
X233698Y215198D01*
X258198Y190698D01*
X259025Y190145D01*
X260000Y189951D01*
X294398D01*
Y188549D01*
X250256D01*
X207876Y230928D01*
X207049Y231481D01*
X206074Y231675D01*
X195256D01*
Y232791D01*
X186744D01*
Y231675D01*
X172330D01*
X166949Y237056D01*
Y261969D01*
X167449Y262146D01*
X169106Y260489D01*
X169127Y260410D01*
X169493Y259776D01*
X170010Y259259D01*
X170644Y258893D01*
X171351Y258703D01*
X172083D01*
X172790Y258893D01*
X173424Y259259D01*
X173941Y259776D01*
X173951Y259793D01*
X174451Y259659D01*
Y242144D01*
X174410Y242073D01*
X174221Y241366D01*
Y240634D01*
X174410Y239927D01*
X174776Y239293D01*
X175293Y238776D01*
X175927Y238410D01*
X176634Y238221D01*
X177366D01*
X178073Y238410D01*
X178707Y238776D01*
X179224Y239293D01*
X179590Y239927D01*
X179780Y240634D01*
Y240909D01*
X180280Y241116D01*
X186198Y235198D01*
X186744Y234832D01*
Y233335D01*
X195256D01*
Y240665D01*
X187940D01*
X184249Y244356D01*
Y248898D01*
X191256D01*
Y256228D01*
X184249D01*
Y256772D01*
X191256D01*
Y264102D01*
X182744D01*
Y262605D01*
X182198Y262239D01*
X180049Y260091D01*
X179549Y260298D01*
Y293744D01*
X180665D01*
Y302256D01*
X173335D01*
Y293744D01*
X174451D01*
Y263307D01*
X173951Y263173D01*
X173941Y263190D01*
X173424Y263707D01*
X172790Y264073D01*
X172711Y264094D01*
X171675Y265130D01*
Y293744D01*
X172791D01*
Y302256D01*
X171675D01*
Y318633D01*
X171940Y318898D01*
X176256D01*
Y326228D01*
X167744D01*
Y321973D01*
X167409Y321698D01*
X166949Y321877D01*
Y333144D01*
X167056Y333251D01*
X167744D01*
Y326772D01*
X176256D01*
Y327888D01*
X186007D01*
X200815Y313080D01*
X200583Y312213D01*
Y310787D01*
X200952Y309409D01*
X201665Y308174D01*
X202421Y307417D01*
X202214Y306917D01*
X200583D01*
Y296083D01*
X207812D01*
X212014Y291881D01*
Y281756D01*
X210898D01*
Y273244D01*
X212014D01*
Y255700D01*
X212208Y254725D01*
X212761Y253898D01*
X216014Y250644D01*
Y234256D01*
X214898D01*
Y225744D01*
X222228D01*
Y234256D01*
X221112D01*
Y251700D01*
X220918Y252676D01*
X220365Y253502D01*
X217112Y256756D01*
Y273244D01*
X218228D01*
Y281756D01*
X217112D01*
Y292937D01*
X216918Y293912D01*
X216365Y294739D01*
X211417Y299688D01*
Y306917D01*
X209786D01*
X209579Y307417D01*
X210335Y308174D01*
X211048Y309409D01*
X211417Y310787D01*
Y311771D01*
X211917Y311978D01*
X219888Y304007D01*
Y281756D01*
X218772D01*
Y273244D01*
X226102D01*
Y281756D01*
X224986D01*
Y305063D01*
X224792Y306038D01*
X224239Y306865D01*
X211185Y319920D01*
X211417Y320787D01*
Y322213D01*
X211048Y323591D01*
X210335Y324826D01*
X209326Y325835D01*
X208091Y326548D01*
X206713Y326917D01*
X205287D01*
X204420Y326685D01*
X195249Y335856D01*
Y377961D01*
X201335D01*
X218389Y360907D01*
X218410Y360827D01*
X218776Y360193D01*
X219293Y359676D01*
X219927Y359310D01*
X220634Y359120D01*
X221366D01*
X222073Y359310D01*
X222707Y359676D01*
X223224Y360193D01*
X223590Y360827D01*
X223780Y361534D01*
Y362266D01*
X223590Y362973D01*
X223224Y363607D01*
X222707Y364124D01*
X222073Y364490D01*
X221993Y364511D01*
X206640Y379865D01*
X206797Y380339D01*
X207560Y380451D01*
X209744D01*
Y379335D01*
X218256D01*
Y380451D01*
X218300D01*
X219275Y380645D01*
X220102Y381198D01*
X221102Y382198D01*
X221655Y383025D01*
X221849Y384000D01*
Y400500D01*
X221655Y401475D01*
X221102Y402302D01*
X210602Y412802D01*
X209775Y413355D01*
X208800Y413549D01*
X194556D01*
X192004Y416101D01*
X192195Y416563D01*
X193347D01*
Y419880D01*
X193846Y419980D01*
X194267Y418965D01*
X195044Y417953D01*
X196056Y417176D01*
X197235Y416688D01*
X198500Y416521D01*
X199765Y416688D01*
X200944Y417176D01*
X201957Y417953D01*
X202733Y418965D01*
X202989Y419583D01*
X256038Y421151D01*
X282693D01*
X282884Y420689D01*
D02*
G37*
G36*
X209744Y387209D02*
X216751D01*
Y386665D01*
X209744D01*
Y385549D01*
X207374D01*
X207191Y385513D01*
X207004Y385522D01*
X202634Y384881D01*
X202256Y385208D01*
Y385291D01*
X195249D01*
Y385835D01*
X202256D01*
Y387548D01*
X207560Y388325D01*
X209744D01*
Y387209D01*
D02*
G37*
G36*
X339888Y416207D02*
Y410756D01*
X338772D01*
Y402244D01*
X339888D01*
Y390200D01*
X340082Y389225D01*
X340350Y388824D01*
X340310Y388651D01*
X340251Y388528D01*
X340074Y388349D01*
X329300D01*
X328325Y388155D01*
X327498Y387602D01*
X325807Y385911D01*
X325727Y385890D01*
X325093Y385524D01*
X324705Y385136D01*
X324205Y385318D01*
Y390402D01*
X322723D01*
X322531Y390863D01*
X333912Y402244D01*
X338228D01*
Y410756D01*
X330898D01*
Y409049D01*
X325056D01*
X322006Y412099D01*
X322147Y412599D01*
X324205D01*
Y421151D01*
X334944D01*
X339888Y416207D01*
D02*
G37*
G36*
X296795Y412599D02*
X299093D01*
Y390402D01*
X296795D01*
Y380315D01*
X299093D01*
Y360198D01*
X295069Y356174D01*
X294600Y356100D01*
X294600Y356100D01*
X294600Y356100D01*
X285850D01*
Y350538D01*
X285498Y350302D01*
X285349Y350154D01*
X284849Y350361D01*
Y415444D01*
X290556Y421151D01*
X296795D01*
Y412599D01*
D02*
G37*
G36*
X379024Y393758D02*
X379325Y393513D01*
X379151Y392637D01*
Y361400D01*
X379345Y360424D01*
X379898Y359598D01*
X391951Y347544D01*
Y344944D01*
X391489Y344753D01*
X361672Y374570D01*
X361835Y375114D01*
X362719Y375351D01*
X363734Y375937D01*
X364563Y376766D01*
X365149Y377781D01*
X365453Y378914D01*
Y380086D01*
X365397Y380293D01*
X378913Y393808D01*
X379024Y393758D01*
D02*
G37*
G36*
X314512Y412599D02*
X316809D01*
Y411142D01*
X317003Y410166D01*
X317556Y409339D01*
X317899Y408996D01*
X317850Y408499D01*
X317556Y408302D01*
X315365Y406111D01*
X315285Y406090D01*
X314651Y405724D01*
X314134Y405207D01*
X313768Y404573D01*
X313579Y403866D01*
Y403134D01*
X313768Y402427D01*
X314134Y401793D01*
X314651Y401276D01*
X315285Y400910D01*
X315992Y400721D01*
X316724D01*
X317431Y400910D01*
X318065Y401276D01*
X318582Y401793D01*
X318948Y402427D01*
X318970Y402507D01*
X320414Y403951D01*
X327756D01*
X327947Y403489D01*
X317556Y393098D01*
X317003Y392271D01*
X316809Y391295D01*
Y390402D01*
X314512D01*
Y380315D01*
X324205D01*
Y381282D01*
X324705Y381465D01*
X325093Y381076D01*
X325727Y380710D01*
X326434Y380521D01*
X327166D01*
X327873Y380710D01*
X328507Y381076D01*
X329024Y381593D01*
X329390Y382227D01*
X329411Y382307D01*
X330356Y383251D01*
X338248D01*
X339325Y380079D01*
Y371826D01*
X339519Y370851D01*
X340072Y370024D01*
X352898Y357198D01*
X353725Y356645D01*
X354700Y356451D01*
X360775D01*
X361751Y356645D01*
X362577Y357198D01*
X363130Y358025D01*
X363324Y359000D01*
X363130Y359976D01*
X362577Y360802D01*
X361751Y361355D01*
X360775Y361549D01*
X355756D01*
X344423Y372882D01*
Y380500D01*
X344342Y380908D01*
X344288Y381320D01*
X342880Y385463D01*
X343305Y385727D01*
X388325Y340707D01*
Y287756D01*
X387209D01*
Y279244D01*
X388951D01*
Y266256D01*
X387835D01*
Y257744D01*
X388951D01*
Y240137D01*
X389145Y239161D01*
X389698Y238335D01*
X399388Y228644D01*
Y224756D01*
X398272D01*
Y216244D01*
X399388D01*
Y210593D01*
X383344Y194549D01*
X381515D01*
X381226Y195049D01*
X381649Y195781D01*
X381953Y196914D01*
Y198086D01*
X381649Y199219D01*
X381063Y200234D01*
X380234Y201063D01*
X379219Y201649D01*
X378086Y201953D01*
X376914D01*
X376707Y201897D01*
X375612Y202993D01*
Y215244D01*
X376728D01*
Y223756D01*
X375612D01*
Y230607D01*
X377926Y232921D01*
X378388Y232730D01*
Y223756D01*
X377272D01*
Y215244D01*
X384602D01*
Y216951D01*
X387000D01*
X387976Y217145D01*
X388802Y217698D01*
X389056Y217951D01*
X390398D01*
Y216244D01*
X397728D01*
Y224756D01*
X390398D01*
Y223049D01*
X388000D01*
X387024Y222855D01*
X386198Y222302D01*
X385944Y222049D01*
X384602D01*
Y223756D01*
X383486D01*
Y243819D01*
X383527Y243890D01*
X383717Y244597D01*
Y245329D01*
X383527Y246036D01*
X383161Y246670D01*
X382644Y247187D01*
X382010Y247553D01*
X381303Y247743D01*
X380571D01*
X380149Y247629D01*
X379649Y247970D01*
Y251900D01*
X379455Y252875D01*
X378902Y253702D01*
X375049Y257556D01*
Y259147D01*
X375435Y259464D01*
X375500Y259451D01*
X379961D01*
Y257744D01*
X387291D01*
Y266256D01*
X379961D01*
Y264549D01*
X376556D01*
X376165Y264939D01*
Y269256D01*
X368835D01*
Y260744D01*
X369951D01*
Y256942D01*
X369600Y256612D01*
X363293D01*
X360004Y259901D01*
X358849Y261056D01*
Y287326D01*
X358655Y288301D01*
X358102Y289128D01*
X356802Y290428D01*
X355976Y290981D01*
X355756Y291025D01*
Y292291D01*
X347244D01*
Y291203D01*
X346744Y291187D01*
X344148Y293782D01*
X343321Y294335D01*
X342346Y294529D01*
X321487D01*
X321296Y294991D01*
X333802Y307498D01*
X334355Y308325D01*
X334549Y309300D01*
Y345898D01*
X339256D01*
Y353228D01*
X330744D01*
Y351731D01*
X330198Y351365D01*
X329645Y350538D01*
X329451Y349563D01*
Y310356D01*
X318011Y298916D01*
X317549Y299107D01*
Y345784D01*
Y354888D01*
X330744D01*
Y353772D01*
X339256D01*
Y353772D01*
X339756Y353843D01*
X339951Y353694D01*
Y333670D01*
X339766Y333563D01*
X338937Y332734D01*
X338351Y331719D01*
X338047Y330586D01*
Y329414D01*
X338351Y328281D01*
X338937Y327266D01*
X339766Y326437D01*
X340781Y325851D01*
X341914Y325547D01*
X343086D01*
X344219Y325851D01*
X345234Y326437D01*
X346063Y327266D01*
X346649Y328281D01*
X346953Y329414D01*
Y330586D01*
X346649Y331719D01*
X346063Y332734D01*
X345234Y333563D01*
X345049Y333670D01*
Y354937D01*
X344855Y355912D01*
X344302Y356739D01*
X341802Y359239D01*
X340975Y359792D01*
X340000Y359986D01*
X339256D01*
Y361102D01*
X330744D01*
Y359986D01*
X316000D01*
X315024Y359792D01*
X314198Y359239D01*
X313198Y358239D01*
X312645Y357412D01*
X312451Y356437D01*
Y352591D01*
X311989Y352399D01*
X304191Y360198D01*
Y380315D01*
X306488D01*
Y390402D01*
X304191D01*
Y412599D01*
X306488D01*
Y421151D01*
X314512D01*
Y412599D01*
D02*
G37*
G36*
X390525Y357145D02*
X391500Y356951D01*
X398330D01*
X398437Y356766D01*
X399266Y355937D01*
X399451Y355830D01*
Y318400D01*
X399645Y317425D01*
X400198Y316598D01*
X409288Y307507D01*
X409042Y307046D01*
X409028Y307049D01*
X408700D01*
X408375Y306984D01*
X405362D01*
Y304767D01*
X404100Y303504D01*
X403638Y303696D01*
Y306984D01*
X400298D01*
X399972Y307049D01*
X397049D01*
Y348600D01*
X396855Y349575D01*
X396302Y350402D01*
X389429Y357276D01*
X389748Y357664D01*
X390525Y357145D01*
D02*
G37*
G36*
X263498Y351698D02*
X264324Y351145D01*
X264400Y351130D01*
Y345900D01*
Y340900D01*
Y335900D01*
X266226D01*
Y289925D01*
X266420Y288949D01*
X266973Y288123D01*
X269898Y285198D01*
X270725Y284645D01*
X271700Y284451D01*
X276000D01*
X276975Y284645D01*
X277802Y285198D01*
X279802Y287198D01*
X280355Y288024D01*
X280549Y289000D01*
Y344744D01*
X281065Y345260D01*
X281565Y345053D01*
Y291886D01*
X281759Y290911D01*
X282312Y290084D01*
X286103Y286293D01*
X286047Y286086D01*
Y284914D01*
X286103Y284707D01*
X277944Y276549D01*
X265590D01*
X265586Y277047D01*
X266719Y277351D01*
X267734Y277937D01*
X268563Y278766D01*
X269149Y279781D01*
X269453Y280914D01*
Y282086D01*
X269149Y283219D01*
X268563Y284234D01*
X267734Y285063D01*
X266719Y285649D01*
X265586Y285953D01*
X264414D01*
X263281Y285649D01*
X262266Y285063D01*
X261437Y284234D01*
X261330Y284049D01*
X258900D01*
X257925Y283855D01*
X257098Y283302D01*
X255844Y282049D01*
X254602D01*
Y283756D01*
X247272D01*
Y275244D01*
X248388D01*
Y272500D01*
X248582Y271525D01*
X249049Y270826D01*
X248660Y270508D01*
X245612Y273556D01*
Y275244D01*
X246728D01*
Y283756D01*
X245612D01*
Y304250D01*
X246112Y304457D01*
X246293Y304276D01*
X246927Y303910D01*
X247634Y303720D01*
X248366D01*
X249073Y303910D01*
X249707Y304276D01*
X250224Y304793D01*
X250590Y305427D01*
X250780Y306134D01*
Y306866D01*
X250590Y307573D01*
X250549Y307644D01*
Y316330D01*
X250734Y316437D01*
X251563Y317266D01*
X252149Y318281D01*
X252453Y319414D01*
Y320586D01*
X252149Y321719D01*
X251563Y322734D01*
X250734Y323563D01*
X249719Y324149D01*
X248586Y324453D01*
X247414D01*
X246281Y324149D01*
X245549Y323727D01*
X245049Y324015D01*
Y357244D01*
X247093Y359289D01*
X247173Y359310D01*
X247807Y359676D01*
X248324Y360193D01*
X248690Y360827D01*
X248880Y361534D01*
Y362266D01*
X248723Y362851D01*
X248982Y363351D01*
X251844D01*
X263498Y351698D01*
D02*
G37*
G36*
X394127Y302145D02*
X395102Y301951D01*
X399972D01*
X400298Y302016D01*
X401958D01*
X402149Y301554D01*
X393885Y293290D01*
X393423Y293481D01*
Y302085D01*
X393864Y302321D01*
X394127Y302145D01*
D02*
G37*
G36*
X312451Y344728D02*
Y298306D01*
X294498Y280352D01*
X293945Y279525D01*
X293751Y278550D01*
Y273056D01*
X293295Y272600D01*
X283700D01*
Y272339D01*
X282898Y271802D01*
X281569Y270474D01*
X281043Y270655D01*
X280724Y271207D01*
X280522Y271409D01*
X280585Y272053D01*
X280802Y272198D01*
X289707Y281103D01*
X289914Y281047D01*
X291086D01*
X292219Y281351D01*
X293234Y281937D01*
X294063Y282766D01*
X294649Y283781D01*
X294953Y284914D01*
Y286086D01*
X294649Y287219D01*
X294063Y288234D01*
X293234Y289063D01*
X292219Y289649D01*
X291086Y289953D01*
X289914D01*
X289707Y289897D01*
X286663Y292942D01*
Y335900D01*
X294600D01*
X294600Y335900D01*
Y335900D01*
X295069Y335826D01*
X297551Y333344D01*
Y293044D01*
X297510Y292973D01*
X297321Y292266D01*
Y291534D01*
X297510Y290827D01*
X297876Y290193D01*
X298393Y289676D01*
X299027Y289310D01*
X299734Y289121D01*
X300466D01*
X301173Y289310D01*
X301807Y289676D01*
X302324Y290193D01*
X302690Y290827D01*
X302880Y291534D01*
Y292266D01*
X302690Y292973D01*
X302649Y293044D01*
Y334400D01*
X302455Y335375D01*
X301902Y336202D01*
X297802Y340302D01*
X297208Y340699D01*
X297207Y341276D01*
X297724Y341793D01*
X298090Y342427D01*
X298280Y343134D01*
Y343866D01*
X298090Y344573D01*
X297724Y345207D01*
X297207Y345724D01*
X296573Y346090D01*
X295866Y346280D01*
X295134D01*
X294997Y346243D01*
X294600Y346547D01*
Y350951D01*
X296000D01*
X296975Y351145D01*
X297802Y351698D01*
X301642Y355537D01*
X312451Y344728D01*
D02*
G37*
G36*
X304711Y282702D02*
Y272049D01*
X300800D01*
X299825Y271855D01*
X299254Y271474D01*
X298804Y271775D01*
X298849Y272000D01*
Y277494D01*
X304249Y282894D01*
X304711Y282702D01*
D02*
G37*
G36*
X243429Y362994D02*
X243446Y362851D01*
X240698Y360102D01*
X240145Y359276D01*
X239951Y358300D01*
Y314500D01*
X240145Y313525D01*
X240514Y312972D01*
Y283756D01*
X239398D01*
Y275244D01*
X240514D01*
Y272500D01*
X240708Y271525D01*
X241261Y270698D01*
X245279Y266679D01*
X245020Y266231D01*
X244466Y266379D01*
X243734D01*
X243027Y266190D01*
X242393Y265824D01*
X241876Y265307D01*
X241510Y264673D01*
X241320Y263966D01*
Y263234D01*
X241510Y262527D01*
X241551Y262456D01*
Y239519D01*
X240078D01*
Y234319D01*
X247135D01*
Y230569D01*
X255335D01*
Y230620D01*
X257700D01*
X258676Y230814D01*
X259502Y231366D01*
X259523Y231387D01*
X260023Y231180D01*
Y221500D01*
Y197716D01*
X259982Y197645D01*
X259810Y197002D01*
X259366Y196762D01*
X259350Y196755D01*
X238049Y218056D01*
Y340556D01*
X238090Y340627D01*
X238280Y341334D01*
Y342066D01*
X238090Y342773D01*
X237724Y343407D01*
X237207Y343924D01*
X236573Y344290D01*
X235866Y344479D01*
X235134D01*
X234427Y344290D01*
X233793Y343924D01*
X233549Y343680D01*
X233049Y343887D01*
Y359344D01*
X237056Y363351D01*
X243218D01*
X243429Y362994D01*
D02*
G37*
G36*
X261437Y278766D02*
X262266Y277937D01*
X263281Y277351D01*
X264414Y277047D01*
X265096D01*
X265100Y276549D01*
X264124Y276355D01*
X263298Y275802D01*
X262298Y274802D01*
X261745Y273975D01*
X261551Y273000D01*
Y262756D01*
X260486D01*
Y265500D01*
X260292Y266476D01*
X259739Y267302D01*
X253486Y273556D01*
Y275244D01*
X254602D01*
Y276951D01*
X256900D01*
X257875Y277145D01*
X258702Y277698D01*
X259956Y278951D01*
X261330D01*
X261437Y278766D01*
D02*
G37*
G36*
X280151Y266057D02*
Y252549D01*
X276700D01*
Y257400D01*
Y262400D01*
Y263943D01*
X277211Y264045D01*
X278038Y264598D01*
X279689Y266249D01*
X280151Y266057D01*
D02*
G37*
G36*
X255388Y264444D02*
Y262756D01*
X254272D01*
Y254244D01*
X255388D01*
Y243747D01*
X255335Y243269D01*
X252612D01*
Y254244D01*
X253728D01*
Y262756D01*
X252612D01*
Y265500D01*
X252418Y266476D01*
X251951Y267174D01*
X252340Y267492D01*
X255388Y264444D01*
D02*
G37*
G36*
X368335Y249943D02*
Y243744D01*
X369451D01*
Y236656D01*
X367137Y234342D01*
X366675Y234533D01*
Y243744D01*
X367791D01*
Y249748D01*
X368291Y249979D01*
X368335Y249943D01*
D02*
G37*
G36*
X353751Y233966D02*
X353665Y233909D01*
X353165Y234176D01*
Y238756D01*
X352049D01*
Y244300D01*
X351855Y245275D01*
X351302Y246102D01*
X347469Y249936D01*
X347660Y250398D01*
X353751D01*
Y233966D01*
D02*
G37*
G36*
X339814Y251483D02*
Y251437D01*
X340008Y250462D01*
X340560Y249635D01*
X346951Y243244D01*
Y238756D01*
X345835D01*
Y231793D01*
X345291D01*
Y238756D01*
X339149D01*
X335911Y241993D01*
X335890Y242073D01*
X335524Y242707D01*
X335007Y243224D01*
X334373Y243590D01*
X333666Y243779D01*
X332934D01*
X332227Y243590D01*
X331670Y243268D01*
X331362Y243668D01*
X339352Y251674D01*
X339814Y251483D01*
D02*
G37*
G36*
X360461Y243744D02*
X361577D01*
Y233260D01*
X356769Y228452D01*
X356551Y228483D01*
X356374Y229013D01*
X358102Y230742D01*
X358655Y231569D01*
X358849Y232544D01*
Y251514D01*
X360461D01*
Y243744D01*
D02*
G37*
G36*
X331076Y239293D02*
X331593Y238776D01*
X332227Y238410D01*
X332307Y238389D01*
X337961Y232734D01*
Y230244D01*
X339537D01*
X339824Y229816D01*
X340884Y228755D01*
X340693Y228293D01*
X333056D01*
X330549Y230800D01*
Y239206D01*
X331049Y239340D01*
X331076Y239293D01*
D02*
G37*
%LPC*%
G36*
X356366Y336779D02*
X355634D01*
X354927Y336590D01*
X354293Y336224D01*
X353776Y335707D01*
X353410Y335073D01*
X353221Y334366D01*
Y333634D01*
X353410Y332927D01*
X353421Y332908D01*
X352548Y300165D01*
X347244D01*
Y292835D01*
X355756D01*
Y294093D01*
X355912Y294120D01*
X355942Y294138D01*
X355976Y294145D01*
X356361Y294403D01*
X356754Y294650D01*
X356774Y294678D01*
X356802Y294698D01*
X357060Y295083D01*
X357328Y295462D01*
X357336Y295496D01*
X357355Y295525D01*
X357446Y295980D01*
X357548Y296432D01*
X357841Y307400D01*
X358346Y307598D01*
X359025Y307145D01*
X359744Y307002D01*
Y305835D01*
X368256D01*
Y313165D01*
X360419D01*
X360390Y313209D01*
X360658Y313709D01*
X368256D01*
Y314825D01*
X376570D01*
X380451Y310944D01*
Y287756D01*
X379335D01*
Y279244D01*
X386665D01*
Y287756D01*
X385549D01*
Y312000D01*
X385355Y312976D01*
X384802Y313802D01*
X379428Y319176D01*
X378602Y319729D01*
X377626Y319923D01*
X368256D01*
Y321039D01*
X359744D01*
Y314068D01*
X359244Y313861D01*
X358549Y314556D01*
Y332856D01*
X358590Y332927D01*
X358780Y333634D01*
Y334366D01*
X358590Y335073D01*
X358224Y335707D01*
X357707Y336224D01*
X357073Y336590D01*
X356366Y336779D01*
D02*
G37*
G36*
X364992Y289280D02*
X364260D01*
X363553Y289090D01*
X362919Y288724D01*
X362402Y288207D01*
X362036Y287573D01*
X361846Y286866D01*
Y286134D01*
X362036Y285427D01*
X362077Y285356D01*
Y269256D01*
X360961D01*
Y260744D01*
X362182D01*
X362271Y260298D01*
X362659Y259718D01*
X362710Y259527D01*
X363076Y258893D01*
X363593Y258376D01*
X364227Y258010D01*
X364934Y257821D01*
X365666D01*
X366373Y258010D01*
X367007Y258376D01*
X367524Y258893D01*
X367890Y259527D01*
X368079Y260234D01*
Y260744D01*
X368291D01*
Y269256D01*
X367175D01*
Y285356D01*
X367216Y285427D01*
X367406Y286134D01*
Y286866D01*
X367216Y287573D01*
X366850Y288207D01*
X366333Y288724D01*
X365699Y289090D01*
X364992Y289280D01*
D02*
G37*
%LPD*%
D16*
X399972Y304500D02*
D03*
X409028D02*
D03*
D17*
X268775Y338500D02*
D03*
X290225Y353500D02*
D03*
Y348500D02*
D03*
Y343500D02*
D03*
Y338500D02*
D03*
X268775Y343500D02*
D03*
Y348500D02*
D03*
Y353500D02*
D03*
D18*
X341626Y234500D02*
D03*
X281437Y221500D02*
D03*
X390874Y283500D02*
D03*
X401937Y220500D02*
D03*
X177000Y298000D02*
D03*
X391500Y262000D02*
D03*
X342437Y406500D02*
D03*
X372000Y248000D02*
D03*
X400563Y274000D02*
D03*
X408437D02*
D03*
X298063Y192500D02*
D03*
X305937D02*
D03*
X349500Y234500D02*
D03*
X273563Y221500D02*
D03*
X250063Y258500D02*
D03*
X257937D02*
D03*
X381937Y421000D02*
D03*
X374063D02*
D03*
X383000Y283500D02*
D03*
X214563Y277500D02*
D03*
X222437D02*
D03*
X372500Y265000D02*
D03*
X364626D02*
D03*
X250937Y279500D02*
D03*
X243063D02*
D03*
X380937Y219500D02*
D03*
X373063D02*
D03*
X394063Y220500D02*
D03*
X169126Y298000D02*
D03*
X383626Y262000D02*
D03*
X226437Y230000D02*
D03*
X218563D02*
D03*
X333937Y264500D02*
D03*
X326063D02*
D03*
X302000Y222500D02*
D03*
X309874D02*
D03*
X334563Y406500D02*
D03*
X364126Y248000D02*
D03*
D19*
X351000Y254063D02*
D03*
X351500Y288626D02*
D03*
X335000Y349563D02*
D03*
X351000Y261937D02*
D03*
X351500Y296500D02*
D03*
X387000Y387063D02*
D03*
Y394937D02*
D03*
X364000Y317374D02*
D03*
Y309500D02*
D03*
X335000Y357437D02*
D03*
X172000Y322563D02*
D03*
Y330437D02*
D03*
X191000Y237000D02*
D03*
Y229126D02*
D03*
X187000Y260437D02*
D03*
Y252563D02*
D03*
X214000Y390874D02*
D03*
Y383000D02*
D03*
X198000Y389500D02*
D03*
Y381626D02*
D03*
D20*
X307260Y254173D02*
D03*
Y265000D02*
D03*
X303520D02*
D03*
X311000Y254173D02*
D03*
X303520D02*
D03*
X311000Y265000D02*
D03*
D22*
X301642Y385358D02*
D03*
X319358D02*
D03*
Y417642D02*
D03*
X301642D02*
D03*
D32*
X206000Y321500D02*
D03*
Y311500D02*
D03*
D33*
Y301500D02*
D03*
D35*
X289500Y265000D02*
D03*
Y260000D02*
D03*
Y250000D02*
D03*
Y245000D02*
D03*
X270900Y235000D02*
D03*
Y240000D02*
D03*
Y245000D02*
D03*
Y270000D02*
D03*
Y265000D02*
D03*
Y260000D02*
D03*
Y255000D02*
D03*
Y250000D02*
D03*
X289500Y235000D02*
D03*
Y240000D02*
D03*
Y255000D02*
D03*
Y270000D02*
D03*
D36*
X244178Y236919D02*
D03*
X251235Y240669D02*
D03*
Y233169D02*
D03*
D37*
X289500Y245000D02*
Y250000D01*
X342437Y390200D02*
Y406500D01*
Y390200D02*
X390874Y341763D01*
Y283500D02*
Y341763D01*
X289500Y250000D02*
X301100D01*
X301400Y249700D01*
X306000D01*
X307260Y250960D01*
Y254173D01*
Y254320D01*
X307220Y254360D02*
X307260Y254320D01*
X307220Y254360D02*
Y259500D01*
X307260Y259539D01*
Y265000D01*
X391500Y240137D02*
Y262000D01*
Y240137D02*
X401937Y229700D01*
Y220500D02*
Y229700D01*
X306000Y269500D02*
X307260Y268240D01*
X300800Y269500D02*
X306000D01*
X296300Y265000D02*
X300800Y269500D01*
X289500Y265000D02*
X296300D01*
X289500Y260000D02*
Y265000D01*
X401937Y209537D02*
Y220500D01*
X384400Y192000D02*
X401937Y209537D01*
X374800Y192000D02*
X384400D01*
X368300Y198500D02*
X374800Y192000D01*
X368300Y198500D02*
Y231900D01*
X372000Y235600D01*
Y248000D01*
Y251663D01*
X369600Y254063D02*
X372000Y251663D01*
X356300Y260000D02*
Y287326D01*
X355000Y288626D02*
X356300Y287326D01*
X351500Y288626D02*
X355000D01*
X270900Y235000D02*
Y240000D01*
Y245000D01*
Y235000D02*
X276000D01*
X281437Y229563D01*
Y221500D02*
Y229563D01*
X408700Y304500D02*
X409028D01*
X391500Y287300D02*
X408700Y304500D01*
X390874Y283500D02*
X391500Y282874D01*
Y262000D02*
Y282874D01*
X270900Y240000D02*
X276200D01*
X280200Y245000D01*
X289500D01*
X282300Y416500D02*
X289500Y423700D01*
X282300Y350100D02*
Y416500D01*
X278000Y345800D02*
X282300Y350100D01*
X278000Y289000D02*
Y345800D01*
X276000Y287000D02*
X278000Y289000D01*
X271700Y287000D02*
X276000D01*
X268775Y289925D02*
X271700Y287000D01*
X268775Y289925D02*
Y338500D01*
X198500Y422000D02*
X256000Y423700D01*
X336000D02*
X342437Y417263D01*
Y406500D02*
Y417263D01*
X332000Y349563D02*
X335000D01*
X314680Y291980D02*
X342346D01*
X345700Y288626D01*
X351500D01*
X362237Y254063D02*
X369600D01*
X356300Y256198D02*
X358201Y258099D01*
X353000Y229244D02*
X356300Y232544D01*
X341626Y231618D02*
Y232674D01*
Y234500D01*
X358201Y258099D02*
X362237Y254063D01*
X344000Y229244D02*
X353000D01*
X341626Y231618D02*
X344000Y229244D01*
X177000Y241000D02*
Y298000D01*
X369600Y254063D02*
X372000Y248000D01*
X351000Y254063D02*
X356300D01*
X333300Y241000D02*
X341626Y232674D01*
X307260Y265000D02*
Y268240D01*
Y284560D01*
X314680Y291980D01*
X332000Y309300D01*
X256000Y423700D02*
X289500D01*
X336000D01*
X332000Y309300D02*
Y349563D01*
X356300Y232544D02*
Y254063D01*
Y256198D01*
Y260000D02*
X358201Y258099D01*
X356300Y254063D02*
X362237D01*
X391500Y282874D02*
Y287300D01*
X274100Y265000D02*
X275500Y266400D01*
X270900Y265000D02*
X274100D01*
X278393Y269393D02*
X278500Y269500D01*
X275500Y266400D02*
X276236D01*
X278393Y268558D02*
Y269393D01*
X276236Y266400D02*
X278393Y268558D01*
X264100Y273000D02*
X265100Y274000D01*
X279000D01*
X264100Y262000D02*
Y273000D01*
X279000Y274000D02*
X290500Y285500D01*
X289500Y270000D02*
X294300D01*
X284700D02*
X289500D01*
X282700Y251172D02*
Y268000D01*
X284700Y270000D01*
X270900Y250000D02*
X281528D01*
X282700Y251172D01*
X315000Y345784D02*
Y356437D01*
Y297250D02*
Y345784D01*
X250063Y240669D02*
Y258500D01*
X244100Y236919D02*
Y263600D01*
X333937Y264500D02*
X335148Y259699D01*
X335500Y258300D01*
X335148Y259699D02*
X342363Y258300D01*
X333850Y259950D02*
X335148Y259699D01*
X309874Y225744D02*
X328000Y243907D01*
X324000Y406500D02*
X334563D01*
X319358D02*
X324000D01*
X262572Y196572D02*
Y221500D01*
X250063Y258500D02*
Y265500D01*
X243063Y272500D02*
X250063Y265500D01*
X243063Y272500D02*
Y279500D01*
X400563Y274000D02*
Y276263D01*
X414000Y289700D01*
Y306400D01*
X402000Y318400D02*
X414000Y306400D01*
X402000Y318400D02*
Y359500D01*
X351500Y296500D02*
X355000D01*
X356000Y334000D01*
X360000Y309500D02*
X364000D01*
X356000Y313500D02*
X360000Y309500D01*
X356000Y313500D02*
Y334000D01*
X260000Y192500D02*
X298063D01*
X235500Y217000D02*
X260000Y192500D01*
X235500Y217000D02*
Y341700D01*
X290225Y343500D02*
X295500D01*
X381937Y400437D02*
Y421000D01*
X361000Y379500D02*
X381937Y400437D01*
X268775Y343500D02*
X272000D01*
X274200Y341300D01*
Y291800D02*
Y341300D01*
X333937Y264500D02*
Y277547D01*
X300100Y291900D02*
Y334400D01*
X296000Y338500D02*
X300100Y334400D01*
X290225Y338500D02*
X296000D01*
X364126Y232205D02*
Y248000D01*
X357665Y225744D02*
X364126Y232205D01*
X332000Y225744D02*
X357665D01*
X328000Y229744D02*
X332000Y225744D01*
X328000Y229744D02*
Y243907D01*
X342363Y258300D01*
X346000Y261937D01*
X309874Y222500D02*
Y225744D01*
X335500Y258300D02*
X342363D01*
X333850Y259950D02*
X333937Y264500D01*
X265572Y255000D02*
X270900D01*
X262572Y252000D02*
X265572Y255000D01*
X316358Y403500D02*
X319358Y406500D01*
X262572Y221500D02*
Y252000D01*
Y221500D02*
X273563D01*
X319358Y385358D02*
Y391295D01*
X334563Y406500D01*
X408437Y267700D02*
Y274000D01*
X226437Y230000D02*
Y260400D01*
X230500Y264463D01*
Y360400D01*
X236000Y365900D01*
X252900D01*
X265300Y353500D01*
X268775D01*
X287300Y348500D02*
X290225D01*
X284114Y345314D02*
X287300Y348500D01*
X284114Y291886D02*
Y345314D01*
Y291886D02*
X290500Y285500D01*
X171274Y229126D02*
X191000D01*
X164400Y236000D02*
X171274Y229126D01*
X164400Y236000D02*
Y334200D01*
X166000Y335800D01*
X183300D01*
X274622Y348500D02*
X278000Y351878D01*
X268775Y348500D02*
X274622D01*
X198000Y381626D02*
X201274D01*
X221000Y361900D01*
X305937Y188000D02*
Y192500D01*
X303937Y186000D02*
X305937Y188000D01*
X249200Y186000D02*
X303937D01*
X206074Y229126D02*
X249200Y186000D01*
X191000Y229126D02*
X206074D01*
X294300Y270000D02*
X296300Y272000D01*
Y278550D02*
X315000Y297250D01*
X301642Y359142D02*
X315000Y345784D01*
X316000Y357437D02*
X335000D01*
X315000Y356437D02*
X316000Y357437D01*
X296300Y272000D02*
Y278550D01*
X384000Y394937D02*
X387000D01*
X381700Y392637D02*
X384000Y394937D01*
X381700Y361400D02*
Y392637D01*
Y361400D02*
X394500Y348600D01*
Y305102D02*
Y348600D01*
Y305102D02*
X395102Y304500D01*
X399972D01*
X301642Y359142D02*
Y385358D01*
X296000Y353500D02*
X301642Y359142D01*
X290225Y353500D02*
X296000D01*
X184000Y260437D02*
X187000D01*
X181700Y258137D02*
X184000Y260437D01*
X181700Y243300D02*
Y258137D01*
Y243300D02*
X188000Y237000D01*
X191000D01*
X214563Y255700D02*
Y277500D01*
Y255700D02*
X218563Y251700D01*
Y230000D02*
Y251700D01*
X250063Y240669D02*
X251235D01*
X243063Y279500D02*
Y313937D01*
X242500Y314500D02*
X243063Y313937D01*
X242500Y314500D02*
Y358300D01*
X246100Y361900D01*
X198000Y381626D02*
X207374Y383000D01*
X214000D01*
X391500Y359500D02*
X402000D01*
X387000Y364000D02*
X391500Y359500D01*
X387000Y364000D02*
Y387063D01*
X342500Y330000D02*
Y354937D01*
X340000Y357437D02*
X342500Y354937D01*
X335000Y357437D02*
X340000D01*
X214000Y383000D02*
X218300D01*
X219300Y384000D01*
Y400500D01*
X208800Y411000D02*
X219300Y400500D01*
X193500Y411000D02*
X208800D01*
X188500Y416000D02*
X193500Y411000D01*
X188500Y416000D02*
Y422000D01*
X301642Y385358D02*
Y417642D01*
X206000Y321500D02*
X222437Y305063D01*
Y277500D02*
Y305063D01*
X258900Y281500D02*
X265000D01*
X256900Y279500D02*
X258900Y281500D01*
X250937Y279500D02*
X256900D01*
X192700Y334800D02*
X206000Y321500D01*
X192700Y334800D02*
Y388200D01*
X194000Y389500D01*
X198000D01*
X250937Y272500D02*
Y279500D01*
Y272500D02*
X257937Y265500D01*
Y258500D02*
Y265500D01*
X198000Y389500D02*
X207374Y390874D01*
X214000D01*
X257937Y233406D02*
Y258500D01*
X257700Y233169D02*
X257937Y233406D01*
X251235Y233169D02*
X257700D01*
X214563Y277500D02*
Y292937D01*
X206000Y301500D02*
X214563Y292937D01*
X248000Y306500D02*
Y320000D01*
X244100Y236919D02*
X244178D01*
X372500Y265000D02*
X375500Y262000D01*
X383626D01*
X372500Y256500D02*
Y265000D01*
Y256500D02*
X377100Y251900D01*
Y235700D02*
Y251900D01*
X373063Y231663D02*
X377100Y235700D01*
X373063Y219500D02*
Y231663D01*
Y201937D02*
Y219500D01*
Y201937D02*
X377500Y197500D01*
X187063Y330437D02*
X206000Y311500D01*
X172000Y330437D02*
X187063D01*
X311000Y280000D02*
X317500Y286500D01*
X311000Y265000D02*
Y280000D01*
X364626Y265000D02*
Y286500D01*
X311000Y265000D02*
X318200D01*
X318700Y264500D01*
X326063D01*
X364626Y261274D02*
Y265000D01*
Y261274D02*
X365300Y260600D01*
X380937Y219500D02*
Y244963D01*
X311000Y263000D02*
Y265000D01*
Y263000D02*
X312000Y262000D01*
X313350D01*
X315350Y260000D01*
Y251650D02*
Y260000D01*
X302000Y238300D02*
X315350Y251650D01*
X302000Y222500D02*
Y238300D01*
X380937Y219500D02*
X387000D01*
X388000Y220500D01*
X394063D01*
X364000Y317374D02*
X377626D01*
X383000Y312000D01*
Y283500D02*
Y312000D01*
X349500Y234500D02*
Y244300D01*
X342363Y251437D02*
X349500Y244300D01*
X342363Y251437D02*
Y258300D01*
X346000Y261937D02*
X351000D01*
X169126Y298000D02*
Y319689D01*
X172000Y322563D01*
X169126Y264074D02*
Y298000D01*
Y264074D02*
X171717Y261483D01*
X311000Y254173D02*
Y258100D01*
X319358Y411142D02*
Y417642D01*
Y411142D02*
X324000Y406500D01*
X266100Y260000D02*
X270900D01*
X264100Y262000D02*
X266100Y260000D01*
X297600Y255600D02*
X303520Y261520D01*
Y265000D01*
X387000Y394937D02*
Y426000D01*
X384800Y428200D02*
X387000Y426000D01*
X378263Y428200D02*
X384800D01*
X374063Y424000D02*
X378263Y428200D01*
X374063Y421000D02*
Y424000D01*
X326800Y383300D02*
X329300Y385800D01*
X340074D01*
X341874Y380500D01*
Y371826D02*
Y380500D01*
Y371826D02*
X354700Y359000D01*
X360775D01*
D38*
X198500Y422000D02*
D03*
D39*
X290500Y285500D02*
D03*
X361000Y379500D02*
D03*
X265000Y281500D02*
D03*
X317500Y286500D02*
D03*
X248000Y320000D02*
D03*
X377500Y197500D02*
D03*
X342500Y330000D02*
D03*
X402000Y359500D02*
D03*
D40*
X188500Y422000D02*
D03*
D41*
X333300Y241000D02*
D03*
X177000D02*
D03*
X278500Y269500D02*
D03*
X356000Y334000D02*
D03*
X235500Y341700D02*
D03*
X274200Y291800D02*
D03*
X333937Y277547D02*
D03*
X300100Y291900D02*
D03*
X262572Y196572D02*
D03*
X316358Y403500D02*
D03*
X408437Y267700D02*
D03*
X183300Y335800D02*
D03*
X278000Y351878D02*
D03*
X221000Y361900D02*
D03*
X295500Y343500D02*
D03*
X246100Y361900D02*
D03*
X248000Y306500D02*
D03*
X244100Y263600D02*
D03*
X364626Y286500D02*
D03*
X365300Y260600D02*
D03*
X380937Y244963D02*
D03*
X171717Y261483D02*
D03*
X311000Y258100D02*
D03*
X297600Y255600D02*
D03*
X326800Y383300D02*
D03*
M02*
