G04*
G04 #@! TF.GenerationSoftware,Altium Limited,Altium Designer,26.5.0 (11)*
G04*
G04 Layer_Color=65535*
G04 Board_Origin=0|0*
%FSLAX25Y25*%
%MOIN*%
G70*
G04*
G04 #@! TF.SameCoordinates,38DD681F-89FE-4423-B32E-655BD9D983AC*
G04*
G04*
G04 #@! TF.FilePolarity,Positive*
G04*
G01*
G75*
%ADD10C,0.00600*%
%ADD11C,0.00787*%
%ADD12C,0.00984*%
%ADD13C,0.00394*%
%ADD14C,0.01000*%
%ADD15C,0.00300*%
G36*
X294800Y240750D02*
X295800D01*
Y239250D01*
X294800D01*
Y240750D01*
D02*
G37*
D10*
X279000Y272200D02*
G03*
X281400Y272200I1200J0D01*
G01*
X252935Y226019D02*
G03*
X252935Y226019I-500J0D01*
G01*
X275911Y232800D02*
X284489D01*
X275911Y272200D02*
X284489D01*
X271150Y356350D02*
X287850D01*
X271150Y335650D02*
X287850D01*
X244264Y230519D02*
Y234509D01*
Y230519D02*
X250764D01*
X244264Y239329D02*
Y243319D01*
X250764D01*
Y235579D02*
Y238259D01*
D11*
X295500Y285500D02*
G03*
X295500Y285500I-5000J0D01*
G01*
X302035Y379059D02*
G03*
X302035Y379059I-394J0D01*
G01*
X366000Y379500D02*
G03*
X366000Y379500I-5000J0D01*
G01*
X270000Y281500D02*
G03*
X270000Y281500I-5000J0D01*
G01*
X322500Y286500D02*
G03*
X322500Y286500I-5000J0D01*
G01*
X253000Y320000D02*
G03*
X253000Y320000I-5000J0D01*
G01*
X382500Y197500D02*
G03*
X382500Y197500I-5000J0D01*
G01*
X347500Y330000D02*
G03*
X347500Y330000I-5000J0D01*
G01*
X407000Y359500D02*
G03*
X407000Y359500I-5000J0D01*
G01*
X397807Y306961D02*
X407846D01*
X401154Y302039D02*
X407846D01*
X306248Y389689D02*
X314752D01*
X322311Y390161D02*
Y412839D01*
X306248Y413311D02*
X314752D01*
X298689Y390161D02*
Y412839D01*
X194583Y291421D02*
Y331579D01*
X213087Y291421D02*
Y331579D01*
X194583D02*
X213087D01*
X194583Y291421D02*
X213087D01*
X301157Y257618D02*
Y261457D01*
X313362Y257618D02*
Y266181D01*
D12*
X206492Y288864D02*
G03*
X206492Y288864I-492J0D01*
G01*
D13*
X411587Y270457D02*
Y277543D01*
X397413D02*
X411587D01*
X397413Y270457D02*
Y277543D01*
Y270457D02*
X411587D01*
X309087Y188957D02*
Y196043D01*
X294913D02*
X309087D01*
X294913Y188957D02*
Y196043D01*
Y188957D02*
X309087D01*
X352650Y230957D02*
Y238043D01*
X338476D02*
X352650D01*
X338476Y230957D02*
Y238043D01*
Y230957D02*
X352650D01*
X270413Y217957D02*
Y225043D01*
Y217957D02*
X284587D01*
Y225043D01*
X270413D02*
X284587D01*
X347457Y250913D02*
X354543D01*
Y265087D01*
X347457D02*
X354543D01*
X347457Y250913D02*
Y265087D01*
X355043Y285476D02*
Y299650D01*
X347957Y285476D02*
X355043D01*
X347957D02*
Y299650D01*
X355043D01*
X246913Y262043D02*
X261087D01*
Y254957D02*
Y262043D01*
X246913Y254957D02*
X261087D01*
X246913D02*
Y262043D01*
X383457Y398087D02*
X390543D01*
X383457Y383913D02*
Y398087D01*
Y383913D02*
X390543D01*
Y398087D01*
X370913Y417457D02*
Y424543D01*
Y417457D02*
X385087D01*
Y424543D01*
X370913D02*
X385087D01*
X360457Y306350D02*
X367543D01*
Y320524D01*
X360457D02*
X367543D01*
X360457Y306350D02*
Y320524D01*
X331457Y360587D02*
X338543D01*
X331457Y346413D02*
Y360587D01*
Y346413D02*
X338543D01*
Y360587D01*
X379850Y279957D02*
Y287043D01*
Y279957D02*
X394024D01*
Y287043D01*
X379850D02*
X394024D01*
X168457Y333587D02*
X175543D01*
X168457Y319413D02*
Y333587D01*
Y319413D02*
X175543D01*
Y333587D01*
X225587Y273957D02*
Y281043D01*
X211413D02*
X225587D01*
X211413Y273957D02*
Y281043D01*
Y273957D02*
X225587D01*
X361476Y261457D02*
Y268543D01*
Y261457D02*
X375650D01*
Y268543D01*
X361476D02*
X375650D01*
X187457Y225976D02*
X194543D01*
Y240150D01*
X187457D02*
X194543D01*
X187457Y225976D02*
Y240150D01*
X183457Y249413D02*
X190543D01*
Y263587D01*
X183457D02*
X190543D01*
X183457Y249413D02*
Y263587D01*
X239913Y275957D02*
Y283043D01*
Y275957D02*
X254087D01*
Y283043D01*
X239913D02*
X254087D01*
X369913Y215957D02*
Y223043D01*
Y215957D02*
X384087D01*
Y223043D01*
X369913D02*
X384087D01*
X390913Y216957D02*
Y224043D01*
Y216957D02*
X405087D01*
Y224043D01*
X390913D02*
X405087D01*
X165976Y294457D02*
Y301543D01*
Y294457D02*
X180150D01*
Y301543D01*
X165976D02*
X180150D01*
X210457Y379850D02*
X217543D01*
Y394024D01*
X210457D02*
X217543D01*
X210457Y379850D02*
Y394024D01*
X394650Y258457D02*
Y265543D01*
X380476D02*
X394650D01*
X380476Y258457D02*
Y265543D01*
Y258457D02*
X394650D01*
X215413Y226457D02*
Y233543D01*
Y226457D02*
X229587D01*
Y233543D01*
X215413D02*
X229587D01*
X194457Y378476D02*
X201543D01*
Y392650D01*
X194457D02*
X201543D01*
X194457Y378476D02*
Y392650D01*
X322913Y260957D02*
Y268043D01*
Y260957D02*
X337087D01*
Y268043D01*
X322913D02*
X337087D01*
X313024Y218957D02*
Y226043D01*
X298850D02*
X313024D01*
X298850Y218957D02*
Y226043D01*
Y218957D02*
X313024D01*
X345587Y402957D02*
Y410043D01*
X331413D02*
X345587D01*
X331413Y402957D02*
Y410043D01*
Y402957D02*
X345587D01*
X375150Y244457D02*
Y251543D01*
X360976D02*
X375150D01*
X360976Y244457D02*
Y251543D01*
Y244457D02*
X375150D01*
D14*
X182909Y429874D02*
X204091D01*
X182909Y409559D02*
Y432000D01*
X204091D01*
Y409559D02*
Y432000D01*
X182909Y409559D02*
X204091D01*
X286000Y301998D02*
Y297999D01*
X287999Y296000D01*
X289999Y297999D01*
Y301998D01*
X295997Y299999D02*
X292998D01*
X291998Y298999D01*
Y297000D01*
X292998Y296000D01*
X295997D01*
X298996D02*
X300995D01*
X301995Y297000D01*
Y298999D01*
X300995Y299999D01*
X298996D01*
X297996Y298999D01*
Y297000D01*
X298996Y296000D01*
X303994D02*
Y299999D01*
X304994D01*
X305994Y298999D01*
Y296000D01*
Y298999D01*
X306993Y299999D01*
X307993Y298999D01*
Y296000D01*
X309992Y294001D02*
Y299999D01*
X312991D01*
X313991Y298999D01*
Y297000D01*
X312991Y296000D01*
X309992D01*
X265600Y368698D02*
Y363700D01*
X266600Y362700D01*
X268599D01*
X269599Y363700D01*
Y368698D01*
X271598Y367698D02*
X272598Y368698D01*
X274597D01*
X275597Y367698D01*
Y366699D01*
X274597Y365699D01*
X273597D01*
X274597D01*
X275597Y364699D01*
Y363700D01*
X274597Y362700D01*
X272598D01*
X271598Y363700D01*
X280595Y362700D02*
Y368698D01*
X277596Y365699D01*
X281595D01*
X287593Y368698D02*
X283594D01*
Y365699D01*
X285594Y366699D01*
X286593D01*
X287593Y365699D01*
Y363700D01*
X286593Y362700D01*
X284594D01*
X283594Y363700D01*
X398200Y280700D02*
Y286698D01*
X401199D01*
X402199Y285698D01*
Y283699D01*
X401199Y282699D01*
X398200D01*
X400199D02*
X402199Y280700D01*
X408197D02*
X404198D01*
X408197Y284699D01*
Y285698D01*
X407197Y286698D01*
X405198D01*
X404198Y285698D01*
X410196D02*
X411196Y286698D01*
X413195D01*
X414195Y285698D01*
Y284699D01*
X413195Y283699D01*
X412195D01*
X413195D01*
X414195Y282699D01*
Y281700D01*
X413195Y280700D01*
X411196D01*
X410196Y281700D01*
X419193Y280700D02*
Y286698D01*
X416194Y283699D01*
X420193D01*
X295700Y199200D02*
Y205198D01*
X298699D01*
X299699Y204198D01*
Y202199D01*
X298699Y201199D01*
X295700D01*
X297699D02*
X299699Y199200D01*
X305697D02*
X301698D01*
X305697Y203199D01*
Y204198D01*
X304697Y205198D01*
X302698D01*
X301698Y204198D01*
X307696D02*
X308696Y205198D01*
X310695D01*
X311695Y204198D01*
Y203199D01*
X310695Y202199D01*
X309696D01*
X310695D01*
X311695Y201199D01*
Y200200D01*
X310695Y199200D01*
X308696D01*
X307696Y200200D01*
X316693Y199200D02*
Y205198D01*
X313694Y202199D01*
X317693D01*
X343299Y246198D02*
X342299Y247198D01*
X340300D01*
X339300Y246198D01*
Y242200D01*
X340300Y241200D01*
X342299D01*
X343299Y242200D01*
X345298Y246198D02*
X346298Y247198D01*
X348297D01*
X349297Y246198D01*
Y245199D01*
X347297Y243199D01*
Y242200D02*
Y241200D01*
X397600Y318098D02*
Y312100D01*
X400599D01*
X401599Y313100D01*
Y317098D01*
X400599Y318098D01*
X397600D01*
X406597Y312100D02*
Y318098D01*
X403598Y315099D01*
X407597D01*
X266300Y285198D02*
Y280200D01*
X267300Y279200D01*
X269299D01*
X270299Y280200D01*
Y285198D01*
X272298D02*
X276297D01*
Y284198D01*
X272298Y280200D01*
Y279200D01*
X240900Y253098D02*
Y248100D01*
X241900Y247100D01*
X243899D01*
X244899Y248100D01*
Y253098D01*
X246898Y252098D02*
X247898Y253098D01*
X249897D01*
X250897Y252098D01*
Y251099D01*
X248897Y249099D01*
Y248100D02*
Y247100D01*
X187399Y442498D02*
X186399Y443498D01*
X184400D01*
X183400Y442498D01*
Y438500D01*
X184400Y437500D01*
X186399D01*
X187399Y438500D01*
X192397Y443498D02*
X190398D01*
X189398Y442498D01*
Y438500D01*
X190398Y437500D01*
X192397D01*
X193397Y438500D01*
Y442498D01*
X192397Y443498D01*
X195396Y437500D02*
Y443498D01*
X199395Y437500D01*
Y443498D01*
X201394Y437500D02*
X203394D01*
X202394D01*
Y443498D01*
X201394Y442498D01*
X275199Y233198D02*
X274199Y234198D01*
X272200D01*
X271200Y233198D01*
Y229200D01*
X272200Y228200D01*
X274199D01*
X275199Y229200D01*
X277198Y233198D02*
X278198Y234198D01*
X280197D01*
X281197Y233198D01*
Y232199D01*
X280197Y231199D01*
X281197Y230199D01*
Y229200D01*
X280197Y228200D01*
X278198D01*
X277198Y229200D01*
Y230199D01*
X278198Y231199D01*
X277198Y232199D01*
Y233198D01*
X278198Y231199D02*
X280197D01*
X287195Y234198D02*
X285195Y233198D01*
X283196Y231199D01*
Y229200D01*
X284196Y228200D01*
X286195D01*
X287195Y229200D01*
Y230199D01*
X286195Y231199D01*
X283196D01*
X302199Y430298D02*
X301199Y431298D01*
X299200D01*
X298200Y430298D01*
Y429299D01*
X299200Y428299D01*
X301199D01*
X302199Y427299D01*
Y426300D01*
X301199Y425300D01*
X299200D01*
X298200Y426300D01*
X308197Y425300D02*
X304198D01*
X308197Y429299D01*
Y430298D01*
X307197Y431298D01*
X305198D01*
X304198Y430298D01*
X348300Y268300D02*
Y274298D01*
X351299D01*
X352299Y273298D01*
Y271299D01*
X351299Y270299D01*
X348300D01*
X350299D02*
X352299Y268300D01*
X358297D02*
X354298D01*
X358297Y272299D01*
Y273298D01*
X357297Y274298D01*
X355298D01*
X354298Y273298D01*
X364295Y268300D02*
X360296D01*
X364295Y272299D01*
Y273298D01*
X363295Y274298D01*
X361296D01*
X360296Y273298D01*
X352799Y307798D02*
X351799Y308798D01*
X349800D01*
X348800Y307798D01*
Y303800D01*
X349800Y302800D01*
X351799D01*
X352799Y303800D01*
X354798Y302800D02*
X356797D01*
X355798D01*
Y308798D01*
X354798Y307798D01*
X359796D02*
X360796Y308798D01*
X362795D01*
X363795Y307798D01*
Y303800D01*
X362795Y302800D01*
X360796D01*
X359796Y303800D01*
Y307798D01*
X247700Y265200D02*
Y271198D01*
X250699D01*
X251699Y270198D01*
Y268199D01*
X250699Y267199D01*
X247700D01*
X249699D02*
X251699Y265200D01*
X257697Y271198D02*
X253698D01*
Y268199D01*
X255697Y269199D01*
X256697D01*
X257697Y268199D01*
Y266200D01*
X256697Y265200D01*
X254698D01*
X253698Y266200D01*
X259696Y265200D02*
X261696D01*
X260696D01*
Y271198D01*
X259696Y270198D01*
X356500Y393998D02*
Y389999D01*
X358499Y388000D01*
X360499Y389999D01*
Y393998D01*
X362498Y391999D02*
Y388000D01*
Y389999D01*
X363498Y390999D01*
X364497Y391999D01*
X365497D01*
X371495Y388000D02*
X369496D01*
X368496Y389000D01*
Y390999D01*
X369496Y391999D01*
X371495D01*
X372495Y390999D01*
Y389999D01*
X368496D01*
X375494Y388000D02*
Y392998D01*
Y390999D01*
X374494D01*
X376494D01*
X375494D01*
Y392998D01*
X376494Y393998D01*
X313000Y300998D02*
Y296999D01*
X314999Y295000D01*
X316999Y296999D01*
Y300998D01*
X321997D02*
X319998D01*
X318998Y299998D01*
Y296000D01*
X319998Y295000D01*
X321997D01*
X322997Y296000D01*
Y299998D01*
X321997Y300998D01*
X243500Y334498D02*
Y330499D01*
X245499Y328500D01*
X247499Y330499D01*
Y334498D01*
X253497Y333498D02*
X252497Y334498D01*
X250498D01*
X249498Y333498D01*
Y329500D01*
X250498Y328500D01*
X252497D01*
X253497Y329500D01*
Y331499D01*
X251497D01*
X373000Y211998D02*
Y207999D01*
X374999Y206000D01*
X376999Y207999D01*
Y211998D01*
X382997D02*
X378998D01*
Y208999D01*
X380997D01*
X378998D01*
Y206000D01*
X397500Y373998D02*
Y369999D01*
X399499Y368000D01*
X401499Y369999D01*
Y373998D01*
X407497D02*
X403498D01*
Y368000D01*
X407497D01*
X403498Y370999D02*
X405497D01*
X260500Y295998D02*
Y291999D01*
X262499Y290000D01*
X264499Y291999D01*
Y295998D01*
X266498D02*
Y290000D01*
X269497D01*
X270497Y291000D01*
Y291999D01*
X269497Y292999D01*
X266498D01*
X269497D01*
X270497Y293999D01*
Y294998D01*
X269497Y295998D01*
X266498D01*
X301100Y276998D02*
Y272000D01*
X302100Y271000D01*
X304099D01*
X305099Y272000D01*
Y276998D01*
X311097D02*
X309097Y275998D01*
X307098Y273999D01*
Y272000D01*
X308098Y271000D01*
X310097D01*
X311097Y272000D01*
Y272999D01*
X310097Y273999D01*
X307098D01*
X169300Y336800D02*
Y342798D01*
X172299D01*
X173299Y341798D01*
Y339799D01*
X172299Y338799D01*
X169300D01*
X171299D02*
X173299Y336800D01*
X179297D02*
X175298D01*
X179297Y340799D01*
Y341798D01*
X178297Y342798D01*
X176298D01*
X175298Y341798D01*
X181296Y342798D02*
X185295D01*
Y341798D01*
X181296Y337800D01*
Y336800D01*
X332200Y413200D02*
Y419198D01*
X335199D01*
X336199Y418198D01*
Y416199D01*
X335199Y415199D01*
X332200D01*
X334199D02*
X336199Y413200D01*
X342197D02*
X338198D01*
X342197Y417199D01*
Y418198D01*
X341197Y419198D01*
X339198D01*
X338198Y418198D01*
X348195Y419198D02*
X346196Y418198D01*
X344196Y416199D01*
Y414200D01*
X345196Y413200D01*
X347195D01*
X348195Y414200D01*
Y415199D01*
X347195Y416199D01*
X344196D01*
X361800Y254700D02*
Y260698D01*
X364799D01*
X365799Y259698D01*
Y257699D01*
X364799Y256699D01*
X361800D01*
X363799D02*
X365799Y254700D01*
X371797D02*
X367798D01*
X371797Y258699D01*
Y259698D01*
X370797Y260698D01*
X368798D01*
X367798Y259698D01*
X376795Y254700D02*
Y260698D01*
X373796Y257699D01*
X377795D01*
X323700Y271200D02*
Y277198D01*
X326699D01*
X327699Y276198D01*
Y274199D01*
X326699Y273199D01*
X323700D01*
X325699D02*
X327699Y271200D01*
X333697D02*
X329698D01*
X333697Y275199D01*
Y276198D01*
X332697Y277198D01*
X330698D01*
X329698Y276198D01*
X335696D02*
X336696Y277198D01*
X338695D01*
X339695Y276198D01*
Y275199D01*
X338695Y274199D01*
X337696D01*
X338695D01*
X339695Y273199D01*
Y272200D01*
X338695Y271200D01*
X336696D01*
X335696Y272200D01*
X299700Y229200D02*
Y235198D01*
X302699D01*
X303699Y234198D01*
Y232199D01*
X302699Y231199D01*
X299700D01*
X301699D02*
X303699Y229200D01*
X309697Y235198D02*
X305698D01*
Y232199D01*
X307697Y233199D01*
X308697D01*
X309697Y232199D01*
Y230200D01*
X308697Y229200D01*
X306698D01*
X305698Y230200D01*
X311696Y234198D02*
X312696Y235198D01*
X314695D01*
X315695Y234198D01*
Y230200D01*
X314695Y229200D01*
X312696D01*
X311696Y230200D01*
Y234198D01*
X195300Y395800D02*
Y401798D01*
X198299D01*
X199299Y400798D01*
Y398799D01*
X198299Y397799D01*
X195300D01*
X197299D02*
X199299Y395800D01*
X205297D02*
X201298D01*
X205297Y399799D01*
Y400798D01*
X204297Y401798D01*
X202298D01*
X201298Y400798D01*
X207296D02*
X208296Y401798D01*
X210295D01*
X211295Y400798D01*
Y396800D01*
X210295Y395800D01*
X208296D01*
X207296Y396800D01*
Y400798D01*
X240700Y286200D02*
Y292198D01*
X243699D01*
X244699Y291198D01*
Y289199D01*
X243699Y288199D01*
X240700D01*
X242699D02*
X244699Y286200D01*
X246698D02*
X248697D01*
X247698D01*
Y292198D01*
X246698Y291198D01*
X255695Y286200D02*
X251696D01*
X255695Y290199D01*
Y291198D01*
X254696Y292198D01*
X252696D01*
X251696Y291198D01*
X370700Y226200D02*
Y232198D01*
X373699D01*
X374699Y231198D01*
Y229199D01*
X373699Y228199D01*
X370700D01*
X372699D02*
X374699Y226200D01*
X376698D02*
X378697D01*
X377698D01*
Y232198D01*
X376698Y231198D01*
X381696D02*
X382696Y232198D01*
X384696D01*
X385695Y231198D01*
Y227200D01*
X384696Y226200D01*
X382696D01*
X381696Y227200D01*
Y231198D01*
X381300Y268700D02*
Y274698D01*
X384299D01*
X385299Y273698D01*
Y271699D01*
X384299Y270699D01*
X381300D01*
X383299D02*
X385299Y268700D01*
X387298Y269700D02*
X388298Y268700D01*
X390297D01*
X391297Y269700D01*
Y273698D01*
X390297Y274698D01*
X388298D01*
X387298Y273698D01*
Y272699D01*
X388298Y271699D01*
X391297D01*
X184300Y266800D02*
Y272798D01*
X187299D01*
X188299Y271798D01*
Y269799D01*
X187299Y268799D01*
X184300D01*
X186299D02*
X188299Y266800D01*
X190298Y271798D02*
X191298Y272798D01*
X193297D01*
X194297Y271798D01*
Y270799D01*
X193297Y269799D01*
X194297Y268799D01*
Y267800D01*
X193297Y266800D01*
X191298D01*
X190298Y267800D01*
Y268799D01*
X191298Y269799D01*
X190298Y270799D01*
Y271798D01*
X191298Y269799D02*
X193297D01*
X216200Y236700D02*
Y242698D01*
X219199D01*
X220199Y241698D01*
Y239699D01*
X219199Y238699D01*
X216200D01*
X218199D02*
X220199Y236700D01*
X222198Y242698D02*
X226197D01*
Y241698D01*
X222198Y237700D01*
Y236700D01*
X212200Y284200D02*
Y290198D01*
X215199D01*
X216199Y289198D01*
Y287199D01*
X215199Y286199D01*
X212200D01*
X214199D02*
X216199Y284200D01*
X222197Y290198D02*
X220197Y289198D01*
X218198Y287199D01*
Y285200D01*
X219198Y284200D01*
X221197D01*
X222197Y285200D01*
Y286199D01*
X221197Y287199D01*
X218198D01*
X361300Y323700D02*
Y329698D01*
X364299D01*
X365299Y328698D01*
Y326699D01*
X364299Y325699D01*
X361300D01*
X363299D02*
X365299Y323700D01*
X370297D02*
Y329698D01*
X367298Y326699D01*
X371297D01*
X371700Y427700D02*
Y433698D01*
X374699D01*
X375699Y432698D01*
Y430699D01*
X374699Y429699D01*
X371700D01*
X373699D02*
X375699Y427700D01*
X377698Y432698D02*
X378698Y433698D01*
X380697D01*
X381697Y432698D01*
Y431699D01*
X380697Y430699D01*
X379697D01*
X380697D01*
X381697Y429699D01*
Y428700D01*
X380697Y427700D01*
X378698D01*
X377698Y428700D01*
X211300Y397200D02*
Y403198D01*
X214299D01*
X215299Y402198D01*
Y400199D01*
X214299Y399199D01*
X211300D01*
X213299D02*
X215299Y397200D01*
X221297D02*
X217298D01*
X221297Y401199D01*
Y402198D01*
X220297Y403198D01*
X218298D01*
X217298Y402198D01*
X384300Y401300D02*
Y407298D01*
X387299D01*
X388299Y406298D01*
Y404299D01*
X387299Y403299D01*
X384300D01*
X386299D02*
X388299Y401300D01*
X390298D02*
X392297D01*
X391298D01*
Y407298D01*
X390298Y406298D01*
X197399Y337700D02*
Y341698D01*
X196399Y342698D01*
X194400D01*
X193400Y341698D01*
Y337700D01*
X194400Y336700D01*
X196399D01*
X195399Y338699D02*
X197399Y336700D01*
X196399D02*
X197399Y337700D01*
X199398Y341698D02*
X200398Y342698D01*
X202397D01*
X203397Y341698D01*
Y340699D01*
X202397Y339699D01*
X201397D01*
X202397D01*
X203397Y338699D01*
Y337700D01*
X202397Y336700D01*
X200398D01*
X199398Y337700D01*
X170799Y309698D02*
X169799Y310698D01*
X167800D01*
X166800Y309698D01*
Y305700D01*
X167800Y304700D01*
X169799D01*
X170799Y305700D01*
X176797Y304700D02*
X172798D01*
X176797Y308699D01*
Y309698D01*
X175797Y310698D01*
X173798D01*
X172798Y309698D01*
X178796D02*
X179796Y310698D01*
X181795D01*
X182795Y309698D01*
Y305700D01*
X181795Y304700D01*
X179796D01*
X178796Y305700D01*
Y309698D01*
X184794D02*
X185794Y310698D01*
X187793D01*
X188793Y309698D01*
Y305700D01*
X187793Y304700D01*
X185794D01*
X184794Y305700D01*
Y309698D01*
X336299Y368798D02*
X335299Y369798D01*
X333300D01*
X332300Y368798D01*
Y364800D01*
X333300Y363800D01*
X335299D01*
X336299Y364800D01*
X342297Y363800D02*
X338298D01*
X342297Y367799D01*
Y368798D01*
X341297Y369798D01*
X339298D01*
X338298Y368798D01*
X344296D02*
X345296Y369798D01*
X347295D01*
X348295Y368798D01*
Y364800D01*
X347295Y363800D01*
X345296D01*
X344296Y364800D01*
Y368798D01*
X384699Y295198D02*
X383699Y296198D01*
X381700D01*
X380700Y295198D01*
Y291200D01*
X381700Y290200D01*
X383699D01*
X384699Y291200D01*
X390697Y296198D02*
X386698D01*
Y293199D01*
X388697Y294199D01*
X389697D01*
X390697Y293199D01*
Y291200D01*
X389697Y290200D01*
X387698D01*
X386698Y291200D01*
X366299Y276698D02*
X365299Y277698D01*
X363300D01*
X362300Y276698D01*
Y272700D01*
X363300Y271700D01*
X365299D01*
X366299Y272700D01*
X371297Y271700D02*
Y277698D01*
X368298Y274699D01*
X372297D01*
X395699Y232198D02*
X394699Y233198D01*
X392700D01*
X391700Y232198D01*
Y228200D01*
X392700Y227200D01*
X394699D01*
X395699Y228200D01*
X397698Y232198D02*
X398698Y233198D01*
X400697D01*
X401697Y232198D01*
Y231199D01*
X400697Y230199D01*
X399697D01*
X400697D01*
X401697Y229199D01*
Y228200D01*
X400697Y227200D01*
X398698D01*
X397698Y228200D01*
X192299Y248298D02*
X191299Y249298D01*
X189300D01*
X188300Y248298D01*
Y244300D01*
X189300Y243300D01*
X191299D01*
X192299Y244300D01*
X198297Y243300D02*
X194298D01*
X198297Y247299D01*
Y248298D01*
X197297Y249298D01*
X195298D01*
X194298Y248298D01*
X341999Y344498D02*
X338000D01*
Y341499D01*
X339999Y342499D01*
X340999D01*
X341999Y341499D01*
Y339500D01*
X340999Y338500D01*
X339000D01*
X338000Y339500D01*
X343998Y344498D02*
Y340499D01*
X345997Y338500D01*
X347997Y340499D01*
Y344498D01*
D15*
X271450Y250000D02*
Y254998D01*
X273949D01*
X274782Y254165D01*
Y252499D01*
X273949Y251666D01*
X271450D01*
X273116D02*
X274782Y250000D01*
X279781Y254998D02*
X276448D01*
Y250000D01*
X279781D01*
X276448Y252499D02*
X278115D01*
X284779Y254998D02*
X281447D01*
Y252499D01*
X283113D01*
X281447D01*
Y250000D01*
X286445Y254998D02*
Y250000D01*
X288944D01*
X289777Y250833D01*
Y254165D01*
X288944Y254998D01*
X286445D01*
X294776D02*
X291443D01*
Y250000D01*
X294776D01*
X291443Y252499D02*
X293110D01*
X299774Y254165D02*
X298941Y254998D01*
X297275D01*
X296442Y254165D01*
Y253332D01*
X297275Y252499D01*
X298941D01*
X299774Y251666D01*
Y250833D01*
X298941Y250000D01*
X297275D01*
X296442Y250833D01*
X268650Y275865D02*
X271982Y272533D01*
X268650D02*
X271982Y275865D01*
X268650Y274199D02*
X271982D01*
X270316Y272533D02*
Y275865D01*
X272700Y250000D02*
Y254998D01*
X275199D01*
X276032Y254165D01*
Y252499D01*
X275199Y251666D01*
X272700D01*
X274366D02*
X276032Y250000D01*
X280198D02*
X278531D01*
X277698Y250833D01*
Y252499D01*
X278531Y253332D01*
X280198D01*
X281031Y252499D01*
Y251666D01*
X277698D01*
X283530Y250000D02*
Y254165D01*
Y252499D01*
X282697D01*
X284363D01*
X283530D01*
Y254165D01*
X284363Y254998D01*
X286862D02*
Y250000D01*
X289361D01*
X290194Y250833D01*
Y254165D01*
X289361Y254998D01*
X286862D01*
X294360Y250000D02*
X292693D01*
X291861Y250833D01*
Y252499D01*
X292693Y253332D01*
X294360D01*
X295193Y252499D01*
Y251666D01*
X291861D01*
X296859Y250000D02*
X299358D01*
X300191Y250833D01*
X299358Y251666D01*
X297692D01*
X296859Y252499D01*
X297692Y253332D01*
X300191D01*
X266525Y359365D02*
X269857Y356033D01*
X266525D02*
X269857Y359365D01*
X266525Y357699D02*
X269857D01*
X268191Y356033D02*
Y359365D01*
X265750Y348498D02*
Y344333D01*
X266583Y343500D01*
X268249D01*
X269082Y344333D01*
Y348498D01*
X270748Y347665D02*
X271581Y348498D01*
X273248D01*
X274081Y347665D01*
Y346832D01*
X273248Y345999D01*
X272414D01*
X273248D01*
X274081Y345166D01*
Y344333D01*
X273248Y343500D01*
X271581D01*
X270748Y344333D01*
X278246Y343500D02*
Y348498D01*
X275747Y345999D01*
X279079D01*
X284077Y348498D02*
X280745D01*
Y345999D01*
X282411Y346832D01*
X283244D01*
X284077Y345999D01*
Y344333D01*
X283244Y343500D01*
X281578D01*
X280745Y344333D01*
X245016Y223169D02*
X249181D01*
X250014Y224002D01*
Y225668D01*
X249181Y226501D01*
X245016D01*
X245849Y228167D02*
X245016Y229000D01*
Y230666D01*
X245849Y231500D01*
X246682D01*
X248348Y229833D01*
X249181D02*
X250014D01*
X309758Y273337D02*
X305593D01*
X304760Y272504D01*
Y270837D01*
X305593Y270004D01*
X309758D01*
Y265006D02*
X308925Y266672D01*
X307259Y268338D01*
X305593D01*
X304760Y267505D01*
Y265839D01*
X305593Y265006D01*
X306426D01*
X307259Y265839D01*
Y268338D01*
M02*
