G04*
G04 #@! TF.GenerationSoftware,Altium Limited,Altium Designer,26.4.1 (12)*
G04*
G04 Layer_Color=16711935*
%FSLAX44Y44*%
%MOMM*%
G71*
G04*
G04 #@! TF.SameCoordinates,074BA2BC-7764-4BD4-AE0E-D95D70C0EDA2*
G04*
G04*
G04 #@! TF.FilePolarity,Positive*
G04*
G01*
G75*
%ADD10C,0.2000*%
%ADD13C,0.1000*%
%ADD15C,0.0762*%
%ADD41C,0.0254*%
%ADD42C,0.0000*%
%ADD43C,0.1270*%
D10*
X767170Y962810D02*
G03*
X767170Y962810I-1000J0D01*
G01*
D13*
X750570Y725170D02*
G03*
X750570Y725170I-12700J0D01*
G01*
X929640Y963930D02*
G03*
X929640Y963930I-12700J0D01*
G01*
X685800Y715010D02*
G03*
X685800Y715010I-12700J0D01*
G01*
X528240Y752094D02*
G03*
X528240Y752094I-5000J0D01*
G01*
X819150Y727710D02*
G03*
X819150Y727710I-12700J0D01*
G01*
X642620Y812800D02*
G03*
X642620Y812800I-12700J0D01*
G01*
X971550Y501650D02*
G03*
X971550Y501650I-12700J0D01*
G01*
X882650Y838200D02*
G03*
X882650Y838200I-12700J0D01*
G01*
X1033780Y913130D02*
G03*
X1033780Y913130I-12700J0D01*
G01*
X758670Y989810D02*
X818670D01*
Y1049810D01*
X758670D02*
X818670D01*
X758670Y989810D02*
Y1049810D01*
X540340Y740410D02*
Y842010D01*
X494640Y740410D02*
X540340D01*
X494640D02*
Y842010D01*
X540340D01*
D15*
X719455Y811526D02*
Y800946D01*
X721571Y798830D01*
X725803D01*
X727919Y800946D01*
Y811526D01*
X732151Y809410D02*
X734267Y811526D01*
X738499D01*
X740615Y809410D01*
Y807294D01*
X738499Y805178D01*
X736383D01*
X738499D01*
X740615Y803062D01*
Y800946D01*
X738499Y798830D01*
X734267D01*
X732151Y800946D01*
X751195Y798830D02*
Y811526D01*
X744847Y805178D01*
X753311D01*
X766007Y811526D02*
X757543D01*
Y805178D01*
X761775Y807294D01*
X763891D01*
X766007Y805178D01*
Y800946D01*
X763891Y798830D01*
X759659D01*
X757543Y800946D01*
X735076Y827317D02*
X743540Y818853D01*
X735076D02*
X743540Y827317D01*
X735076Y823085D02*
X743540D01*
X739308Y818853D02*
Y827317D01*
X689483Y635000D02*
Y647696D01*
X695831D01*
X697947Y645580D01*
Y641348D01*
X695831Y639232D01*
X689483D01*
X693715D02*
X697947Y635000D01*
X708527D02*
X704295D01*
X702179Y637116D01*
Y641348D01*
X704295Y643464D01*
X708527D01*
X710643Y641348D01*
Y639232D01*
X702179D01*
X716991Y635000D02*
Y645580D01*
Y641348D01*
X714875D01*
X719107D01*
X716991D01*
Y645580D01*
X719107Y647696D01*
X725455D02*
Y635000D01*
X731803D01*
X733919Y637116D01*
Y645580D01*
X731803Y647696D01*
X725455D01*
X744499Y635000D02*
X740266D01*
X738151Y637116D01*
Y641348D01*
X740266Y643464D01*
X744499D01*
X746615Y641348D01*
Y639232D01*
X738151D01*
X750846Y635000D02*
X757194D01*
X759310Y637116D01*
X757194Y639232D01*
X752962D01*
X750846Y641348D01*
X752962Y643464D01*
X759310D01*
X772006Y635000D02*
X763542D01*
X772006Y643464D01*
Y645580D01*
X769890Y647696D01*
X765658D01*
X763542Y645580D01*
X682371Y700698D02*
X690835Y692234D01*
X682371D02*
X690835Y700698D01*
X682371Y696466D02*
X690835D01*
X686603Y692234D02*
Y700698D01*
X622340Y566849D02*
X632920D01*
X635036Y568965D01*
Y573197D01*
X632920Y575313D01*
X622340D01*
X624456Y579545D02*
X622340Y581661D01*
Y585893D01*
X624456Y588009D01*
X626572D01*
X630804Y583777D01*
X632920D02*
X635036D01*
X786786Y694275D02*
X776206D01*
X774090Y692159D01*
Y687927D01*
X776206Y685811D01*
X786786D01*
Y673115D02*
X784670Y677347D01*
X780438Y681579D01*
X776206D01*
X774090Y679463D01*
Y675231D01*
X776206Y673115D01*
X778322D01*
X780438Y675231D01*
Y681579D01*
D41*
X751332Y830199D02*
G03*
X757428Y830199I3048J0D01*
G01*
X634401Y589328D02*
G03*
X634401Y589328I-1270J0D01*
G01*
X734441Y780161D02*
Y830199D01*
X774319D01*
Y780161D02*
Y830199D01*
X734441Y780161D02*
X774319D01*
Y826770D02*
X785368D01*
Y821690D02*
Y826770D01*
X774319Y821690D02*
X785368D01*
X774319D02*
Y826770D01*
Y814070D02*
X785368D01*
Y808990D02*
Y814070D01*
X774319Y808990D02*
X785368D01*
X774319D02*
Y814070D01*
Y801370D02*
X785368D01*
Y796290D02*
Y801370D01*
X774319Y796290D02*
X785368D01*
X774319D02*
Y801370D01*
Y788670D02*
X785368D01*
Y783590D02*
Y788670D01*
X774319Y783590D02*
X785368D01*
X774319D02*
Y788670D01*
X723392Y783590D02*
X734441D01*
X723392D02*
Y788670D01*
X734441D01*
Y783590D02*
Y788670D01*
X723392Y796290D02*
X734441D01*
X723392D02*
Y801370D01*
X734441D01*
Y796290D02*
Y801370D01*
X723392Y808990D02*
X734441D01*
X723392D02*
Y814070D01*
X734441D01*
Y808990D02*
Y814070D01*
X723392Y821690D02*
X734441D01*
X723392D02*
Y826770D01*
X734441D01*
Y821690D02*
Y826770D01*
X691769Y591312D02*
Y691388D01*
X731647D01*
Y591312D02*
Y691388D01*
X691769Y591312D02*
X731647D01*
Y688340D02*
X742696D01*
Y683260D02*
Y688340D01*
X731647Y683260D02*
X742696D01*
X731647D02*
Y688340D01*
Y675640D02*
X742696D01*
Y670560D02*
Y675640D01*
X731647Y670560D02*
X742696D01*
X731647D02*
Y675640D01*
Y662940D02*
X742696D01*
Y657860D02*
Y662940D01*
X731647Y657860D02*
X742696D01*
X731647D02*
Y662940D01*
Y650240D02*
X742696D01*
Y645160D02*
Y650240D01*
X731647Y645160D02*
X742696D01*
X731647D02*
Y650240D01*
Y637540D02*
X742696D01*
Y632460D02*
Y637540D01*
X731647Y632460D02*
X742696D01*
X731647D02*
Y637540D01*
Y624840D02*
X742696D01*
Y619760D02*
Y624840D01*
X731647Y619760D02*
X742696D01*
X731647D02*
Y624840D01*
Y612140D02*
X742696D01*
Y607060D02*
Y612140D01*
X731647Y607060D02*
X742696D01*
X731647D02*
Y612140D01*
Y599440D02*
X742696D01*
Y594360D02*
Y599440D01*
X731647Y594360D02*
X742696D01*
X731647D02*
Y599440D01*
X680720Y594360D02*
X691769D01*
X680720D02*
Y599440D01*
X691769D01*
Y594360D02*
Y599440D01*
X680720Y607060D02*
X691769D01*
X680720D02*
Y612140D01*
X691769D01*
Y607060D02*
Y612140D01*
X680720Y619760D02*
X691769D01*
X680720D02*
Y624840D01*
X691769D01*
Y619760D02*
Y624840D01*
X680720Y632460D02*
X691769D01*
X680720D02*
Y637540D01*
X691769D01*
Y632460D02*
Y637540D01*
X680720Y645160D02*
X691769D01*
X680720D02*
Y650240D01*
X691769D01*
Y645160D02*
Y650240D01*
X680720Y657860D02*
X691769D01*
X680720D02*
Y662940D01*
X691769D01*
Y657860D02*
Y662940D01*
X680720Y670560D02*
X691769D01*
X680720D02*
Y675640D01*
X691769D01*
Y670560D02*
Y675640D01*
X680720Y683260D02*
X691769D01*
X680720D02*
Y688340D01*
X691769D01*
Y683260D02*
Y688340D01*
X621701Y586788D02*
X635671D01*
X621701D02*
Y616760D01*
X635671D01*
Y586788D02*
Y616760D01*
X616186Y599234D02*
X621701D01*
X616186D02*
Y604314D01*
X621701D01*
Y599234D02*
Y604314D01*
X635671Y613839D02*
X641185D01*
Y608759D02*
Y613839D01*
X635671Y608759D02*
X641185D01*
X635671D02*
Y613839D01*
Y594789D02*
X641185D01*
Y589709D02*
Y594789D01*
X635671Y589709D02*
X641185D01*
X635671D02*
Y594789D01*
D42*
X708660Y691388D02*
G03*
X714756Y691388I3048J0D01*
G01*
D43*
X766451Y667357D02*
G03*
X765690Y666600I1J-762D01*
G01*
X789501Y665116D02*
G03*
X789501Y662576I0J-1270D01*
G01*
D02*
G03*
X789501Y665116I0J1270D01*
G01*
X765690Y652112D02*
G03*
X766451Y651355I762J5D01*
G01*
X794139D02*
G03*
X794900Y652112I-1J762D01*
G01*
Y666600D02*
G03*
X794139Y667357I-762J-5D01*
G01*
X791695Y647304D02*
Y648228D01*
Y648549D01*
Y651079D02*
Y651355D01*
X787946Y645132D02*
X791695D01*
X787946Y651355D02*
X791695D01*
X787946Y648228D02*
Y648549D01*
Y651079D02*
Y651355D01*
Y645132D02*
Y647304D01*
X791695Y645132D02*
Y647304D01*
Y648549D02*
Y651079D01*
X787946Y647304D02*
Y648228D01*
Y648549D02*
Y651079D01*
X782170Y647304D02*
Y648228D01*
Y648549D01*
Y651079D02*
Y651355D01*
X778421Y645132D02*
X782170D01*
X778421Y651355D02*
X782170D01*
X778421Y648228D02*
Y648549D01*
Y651079D02*
Y651355D01*
Y645132D02*
Y647304D01*
X782170Y645132D02*
Y647304D01*
Y648549D02*
Y651079D01*
X778421Y647304D02*
Y648228D01*
Y648549D02*
Y651079D01*
X772645Y647304D02*
Y648228D01*
Y648549D01*
Y651079D02*
Y651355D01*
X768896Y645132D02*
X772645D01*
X768896Y651355D02*
X772645D01*
X768896Y648228D02*
Y648549D01*
Y651079D02*
Y651355D01*
Y645132D02*
Y647304D01*
X772645Y645132D02*
Y647304D01*
Y648549D02*
Y651079D01*
X768896Y647304D02*
Y648228D01*
Y648549D02*
Y651079D01*
X787946Y670484D02*
Y671408D01*
Y670163D02*
Y670484D01*
Y667357D02*
Y667632D01*
Y673580D02*
X791695D01*
X787946Y667357D02*
X791695D01*
Y670163D02*
Y670484D01*
Y667357D02*
Y667632D01*
Y671408D02*
Y673580D01*
X787946Y671408D02*
Y673580D01*
Y667632D02*
Y670163D01*
X791695Y670484D02*
Y671408D01*
Y667632D02*
Y670163D01*
X778421Y670484D02*
Y671408D01*
Y670163D02*
Y670484D01*
Y667357D02*
Y667632D01*
Y673580D02*
X782170D01*
X778421Y667357D02*
X782170D01*
Y670163D02*
Y670484D01*
Y667357D02*
Y667632D01*
Y671408D02*
Y673580D01*
X778421Y671408D02*
Y673580D01*
Y667632D02*
Y670163D01*
X782170Y670484D02*
Y671408D01*
Y667632D02*
Y670163D01*
X768896Y670484D02*
Y671408D01*
Y670163D02*
Y670484D01*
Y667357D02*
Y667632D01*
Y673580D02*
X772645D01*
X768896Y667357D02*
X772645D01*
Y670163D02*
Y670484D01*
Y667357D02*
Y667632D01*
Y671408D02*
Y673580D01*
X768896Y671408D02*
Y673580D01*
Y667632D02*
Y670163D01*
X772645Y670484D02*
Y671408D01*
Y667632D02*
Y670163D01*
X765690Y652117D02*
Y666595D01*
Y666600D01*
X794900Y652112D02*
Y652117D01*
X765690Y652112D02*
Y652117D01*
X794900D02*
Y666595D01*
X766451Y667357D02*
X794139D01*
X794900Y666595D02*
Y666600D01*
X766451Y651355D02*
X794139D01*
M02*
