G04*
G04 #@! TF.GenerationSoftware,Altium Limited,Altium Designer,26.5.0 (11)*
G04*
G04 Layer_Color=8421504*
G04 Board_Origin=0|0*
%FSLAX25Y25*%
%MOIN*%
G70*
G04*
G04 #@! TF.SameCoordinates,45F7CA4D-C000-4621-8C22-E4E6617E212B*
G04*
G04*
G04 #@! TF.FilePolarity,Positive*
G04*
G01*
G75*
%ADD17R,0.04331X0.05512*%
%ADD18R,0.05971X0.02971*%
%ADD19R,0.05512X0.04331*%
%ADD20R,0.02362X0.05984*%
%ADD21R,0.15748X0.07874*%
%ADD22R,0.04331X0.01968*%
%ADD23R,0.02362X0.03937*%
%ADD24R,0.08600X0.02200*%
%ADD25R,0.07087X0.06693*%
D17*
X226000Y405000D02*
D03*
X218126D02*
D03*
X339000Y407500D02*
D03*
X346874D02*
D03*
X329437Y346000D02*
D03*
X321563D02*
D03*
X320937Y331000D02*
D03*
X313063D02*
D03*
X337563Y319000D02*
D03*
X345437D02*
D03*
X382437Y324000D02*
D03*
X374563D02*
D03*
X253000Y293500D02*
D03*
X260874D02*
D03*
X381937Y337000D02*
D03*
X318626Y389000D02*
D03*
X326500D02*
D03*
X374063Y337000D02*
D03*
X341437Y389000D02*
D03*
X333563D02*
D03*
D18*
X235221Y388250D02*
D03*
X228164Y392000D02*
D03*
X235221Y395750D02*
D03*
D19*
X249000Y408437D02*
D03*
Y400563D02*
D03*
X247500Y365437D02*
D03*
Y357563D02*
D03*
X258500Y365437D02*
D03*
Y357563D02*
D03*
X263500Y400937D02*
D03*
Y393063D02*
D03*
X272000Y401937D02*
D03*
Y394063D02*
D03*
X332000Y420063D02*
D03*
Y427937D02*
D03*
X375500Y425437D02*
D03*
Y417563D02*
D03*
X347000Y365626D02*
D03*
Y373500D02*
D03*
X349500Y308937D02*
D03*
Y301063D02*
D03*
X326500Y293563D02*
D03*
Y301437D02*
D03*
X349500Y420563D02*
D03*
Y428437D02*
D03*
X365000Y328063D02*
D03*
X330500Y324063D02*
D03*
X358000Y371437D02*
D03*
Y363563D02*
D03*
X300244Y331709D02*
D03*
Y323835D02*
D03*
X330500Y331937D02*
D03*
X214000Y357563D02*
D03*
X234000D02*
D03*
X365000Y335937D02*
D03*
X214000Y365437D02*
D03*
X234000D02*
D03*
D20*
X341500Y328713D02*
D03*
X346500D02*
D03*
Y350287D02*
D03*
X351500D02*
D03*
X356500D02*
D03*
Y328713D02*
D03*
X351500D02*
D03*
X341500Y350287D02*
D03*
D21*
X241976Y305500D02*
D03*
X214024D02*
D03*
D22*
X282972Y323500D02*
D03*
X292028D02*
D03*
D23*
X317740Y427500D02*
D03*
X314000D02*
D03*
X317740Y416673D02*
D03*
X314000D02*
D03*
X310260D02*
D03*
Y427500D02*
D03*
D24*
X303500Y412000D02*
D03*
Y407000D02*
D03*
Y392000D02*
D03*
Y397000D02*
D03*
Y402000D02*
D03*
X284900Y392000D02*
D03*
Y382000D02*
D03*
Y387000D02*
D03*
Y412000D02*
D03*
X303500Y417000D02*
D03*
X284900Y397000D02*
D03*
X303500Y387000D02*
D03*
Y382000D02*
D03*
X284900Y402000D02*
D03*
Y407000D02*
D03*
Y417000D02*
D03*
D25*
X307142Y370358D02*
D03*
X274858D02*
D03*
Y352642D02*
D03*
X307142D02*
D03*
M02*
