G04*
G04 #@! TF.GenerationSoftware,Altium Limited,Altium Designer,26.4.1 (12)*
G04*
G04 Layer_Color=128*
%FSLAX44Y44*%
%MOMM*%
G71*
G04*
G04 #@! TF.SameCoordinates,074BA2BC-7764-4BD4-AE0E-D95D70C0EDA2*
G04*
G04*
G04 #@! TF.FilePolarity,Positive*
G04*
G01*
G75*
%ADD43C,0.1270*%
D43*
X732870Y725170D02*
X742870D01*
X737870Y720170D02*
Y730170D01*
X498190Y1071880D02*
X510190D01*
X504190Y1065880D02*
Y1077880D01*
X472790Y1071880D02*
X484790D01*
X478790Y1065880D02*
Y1077880D01*
X911940Y963930D02*
X921940D01*
X916940Y958930D02*
Y968930D01*
X668100Y715010D02*
X678100D01*
X673100Y710010D02*
Y720010D01*
X516290Y816610D02*
X530190D01*
X523240Y809660D02*
Y823560D01*
X516290Y791210D02*
X530190D01*
X523240Y784260D02*
Y798160D01*
X516290Y765810D02*
X530190D01*
X523240Y758860D02*
Y772760D01*
X801450Y727710D02*
X811450D01*
X806450Y722710D02*
Y732710D01*
X624920Y812800D02*
X634920D01*
X629920Y807800D02*
Y817800D01*
X953850Y501650D02*
X963850D01*
X958850Y496650D02*
Y506650D01*
X864950Y838200D02*
X874950D01*
X869950Y833200D02*
Y843200D01*
X1016080Y913130D02*
X1026080D01*
X1021080Y908130D02*
Y918130D01*
X569500Y919226D02*
X573500D01*
X571500Y917226D02*
Y921226D01*
X623094Y919226D02*
X627094D01*
X625094Y917226D02*
Y921226D01*
X447580Y612140D02*
X451580D01*
X449580Y610140D02*
Y614140D01*
X844582Y612140D02*
X848582D01*
X846582Y610140D02*
Y614140D01*
X695230Y806450D02*
X699230D01*
X697230Y804450D02*
Y808450D01*
X463582Y852932D02*
X467582D01*
X465582Y850932D02*
Y854932D01*
X757460Y817880D02*
X761460D01*
X759460Y815880D02*
Y819880D01*
X752126Y622046D02*
X756126D01*
X754126Y620046D02*
Y624046D01*
X809170Y1024890D02*
X813170D01*
X811170Y1022890D02*
Y1026890D01*
X664934Y499294D02*
X668934D01*
X666934Y497294D02*
Y501294D01*
X618014Y669544D02*
X622014D01*
X620014Y667544D02*
Y671544D01*
X627920Y778510D02*
X631920D01*
X629920Y776510D02*
Y780510D01*
X902240Y861060D02*
X906240D01*
X904240Y859060D02*
Y863060D01*
X741657Y751641D02*
X745657D01*
X743657Y749641D02*
Y753641D01*
X924150Y727710D02*
X928150D01*
X926150Y725710D02*
Y729710D01*
X925862Y661924D02*
X929862D01*
X927862Y659924D02*
Y663924D01*
X965580Y622206D02*
X969580D01*
X967580Y620206D02*
Y624206D01*
X1020050Y794050D02*
X1024050D01*
X1022050Y792050D02*
Y796050D01*
X846200Y707644D02*
X850200D01*
X848200Y705644D02*
Y709644D01*
X760254Y768096D02*
X764254D01*
X762254Y766096D02*
Y770096D01*
X434162Y664166D02*
X438162D01*
X436162Y662166D02*
Y666166D01*
X787940Y655574D02*
X791940D01*
X789940Y653574D02*
Y657574D01*
X705136Y649224D02*
X709136D01*
X707136Y647224D02*
Y651224D01*
X753904Y649224D02*
X757904D01*
X755904Y647224D02*
Y651224D01*
X828072Y973582D02*
X832072D01*
X830072Y971582D02*
Y975582D01*
M02*
