G04*
G04 #@! TF.GenerationSoftware,Altium Limited,Altium Designer,26.4.1 (12)*
G04*
G04 Layer_Physical_Order=1*
G04 Layer_Color=255*
%FSLAX44Y44*%
%MOMM*%
G71*
G04*
G04 #@! TF.SameCoordinates,8E568F4E-7303-4B6D-9CB3-4D5EDEAC2D69*
G04*
G04*
G04 #@! TF.FilePolarity,Positive*
G04*
G01*
G75*
%ADD17R,1.1000X1.4000*%
%ADD19R,1.4000X1.1000*%
%ADD20R,0.6000X1.5200*%
%ADD21R,4.0000X2.0000*%
%ADD22R,1.1000X0.5000*%
%ADD23R,0.6000X1.0000*%
%ADD24R,2.1844X0.5588*%
%ADD25R,1.8000X1.7000*%
%ADD37C,1.9900*%
%ADD40R,1.9900X1.9900*%
%ADD43R,1.3208X0.5588*%
%ADD44C,0.5080*%
%ADD45C,1.0000*%
%ADD46C,0.7000*%
%ADD47C,1.5000*%
%ADD48O,1.6000X1.4500*%
%ADD49R,1.6000X1.4500*%
%ADD50O,2.0000X1.7000*%
%ADD51R,2.0000X1.7000*%
%ADD52C,0.6500*%
%ADD53C,1.2700*%
G36*
X1023079Y1101308D02*
X1026286Y1098676D01*
X1028918Y1095469D01*
X1029685Y1094034D01*
X1030408Y1091649D01*
X1030798Y1087687D01*
X1030765Y1087520D01*
Y738350D01*
X1030798Y738183D01*
X1030484Y734991D01*
X1028918Y732061D01*
X1026286Y728854D01*
X1023079Y726222D01*
X1019419Y724266D01*
X1015449Y723062D01*
X1011487Y722672D01*
X1011320Y722705D01*
X535540D01*
X535373Y722672D01*
X531411Y723062D01*
X527441Y724266D01*
X523781Y726222D01*
X520774Y728690D01*
Y762287D01*
X521080Y763430D01*
X566160D01*
Y788511D01*
X541715D01*
Y790615D01*
X541321Y792597D01*
X540198Y794277D01*
X535857Y798618D01*
X535940Y798930D01*
Y801270D01*
X535334Y803531D01*
X534164Y805559D01*
X532509Y807214D01*
X530481Y808384D01*
X528220Y808990D01*
X525880D01*
X523619Y808384D01*
X522044Y807475D01*
X520774Y808076D01*
Y1098198D01*
X521352Y1099279D01*
X521442Y1099388D01*
X522327Y1100114D01*
X634119Y1100392D01*
X1022983Y1101359D01*
X1023079Y1101308D01*
D02*
G37*
%LPC*%
G36*
X962874Y1096370D02*
X944524D01*
X942542Y1095975D01*
X940861Y1094853D01*
X938148Y1092140D01*
X898295D01*
X897270Y1092824D01*
Y1096270D01*
X890730D01*
Y1088230D01*
Y1080190D01*
X895717D01*
X896012Y1079895D01*
Y1076270D01*
X878190D01*
Y1072775D01*
X852820D01*
Y1075000D01*
X833740D01*
Y1058920D01*
X850412D01*
X850665Y1057650D01*
X849652Y1057231D01*
X848024Y1055602D01*
X847142Y1053474D01*
Y1051170D01*
X848024Y1049042D01*
X849652Y1047413D01*
X851126Y1046803D01*
X852365Y1045564D01*
X853020Y1044590D01*
X853020D01*
X853020Y1044590D01*
Y1026768D01*
X843749D01*
X826462Y1044055D01*
X821130Y1049387D01*
Y1061430D01*
X820735Y1063412D01*
X819613Y1065092D01*
X817932Y1066215D01*
X815950Y1066609D01*
X810140D01*
X808158Y1066215D01*
X807821Y1065990D01*
X807521D01*
X807520Y1065990D01*
X807019Y1065890D01*
X782520D01*
Y1064514D01*
X757428D01*
Y1064360D01*
X749413D01*
X738231Y1075543D01*
X736550Y1076665D01*
X734568Y1077059D01*
X687582D01*
X685599Y1076665D01*
X683919Y1075543D01*
X664859Y1056482D01*
X622805D01*
X622804Y1056482D01*
X620822Y1056088D01*
X619142Y1054965D01*
X614319Y1050143D01*
X613197Y1048462D01*
X612803Y1046480D01*
Y1024288D01*
X613197Y1022306D01*
X614319Y1020626D01*
X620575Y1014370D01*
X616589Y1010385D01*
X606606D01*
Y1010539D01*
X588318D01*
Y1001014D01*
X578367D01*
Y1008052D01*
X577973Y1010034D01*
X576850Y1011715D01*
X570578Y1017987D01*
X571064Y1019160D01*
X582080D01*
Y1026569D01*
X592243D01*
X593716Y1025958D01*
X596020D01*
X598148Y1026840D01*
X599776Y1028468D01*
X600658Y1030596D01*
Y1032900D01*
X599776Y1035028D01*
X598148Y1036656D01*
X597453Y1036944D01*
X597205Y1038190D01*
X617879Y1058864D01*
X620656Y1058120D01*
X623944D01*
X627121Y1058971D01*
X629969Y1060615D01*
X632295Y1062941D01*
X633939Y1065789D01*
X634790Y1068966D01*
Y1072254D01*
X633939Y1075431D01*
X632295Y1078279D01*
X629969Y1080604D01*
X627121Y1082249D01*
X623944Y1083100D01*
X620656D01*
X617479Y1082249D01*
X614631Y1080604D01*
X612305Y1078279D01*
X610661Y1075431D01*
X610257Y1073924D01*
X608943D01*
X608539Y1075431D01*
X606894Y1078279D01*
X604569Y1080604D01*
X601721Y1082249D01*
X598544Y1083100D01*
X595256D01*
X592079Y1082249D01*
X589231Y1080604D01*
X586906Y1078279D01*
X585261Y1075431D01*
X585260Y1075426D01*
X583990Y1075594D01*
Y1083100D01*
X559010D01*
Y1065445D01*
X550378Y1056813D01*
X549255Y1055132D01*
X548861Y1053150D01*
Y1038240D01*
X546000D01*
Y1019160D01*
X554755D01*
X568008Y1005907D01*
Y1000587D01*
X567396Y1000465D01*
X565715Y999342D01*
X555802Y989429D01*
X550893D01*
X550324Y990415D01*
X548455Y992284D01*
X546165Y993606D01*
X543612Y994290D01*
X540968D01*
X538415Y993606D01*
X536125Y992284D01*
X534256Y990415D01*
X532934Y988125D01*
X532250Y985572D01*
Y982928D01*
X532934Y980375D01*
X534256Y978085D01*
X536125Y976216D01*
X538415Y974894D01*
X540968Y974210D01*
X543612D01*
X546165Y974894D01*
X548455Y976216D01*
X550324Y978085D01*
X550893Y979071D01*
X557948D01*
X559930Y979465D01*
X561610Y980587D01*
X563115Y982093D01*
X564288Y981607D01*
Y961476D01*
X563678Y960002D01*
Y957698D01*
X564560Y955570D01*
X566188Y953941D01*
X568316Y953060D01*
X570620D01*
X572748Y953941D01*
X574376Y955570D01*
X575258Y957698D01*
Y960002D01*
X574647Y961476D01*
Y990346D01*
X586275D01*
X586954Y989076D01*
X586327Y988137D01*
X585932Y986155D01*
X586327Y984173D01*
X587449Y982493D01*
X588318Y981912D01*
Y980821D01*
X606606D01*
Y980975D01*
X614440D01*
X620174Y975241D01*
X619880Y974142D01*
Y971498D01*
X620564Y968945D01*
X621886Y966655D01*
X623755Y964786D01*
X624740Y964217D01*
Y952999D01*
X623865Y951688D01*
X623470Y949706D01*
Y936250D01*
X619110D01*
Y933390D01*
X603900D01*
Y936250D01*
X584820D01*
Y933390D01*
X553100D01*
Y936250D01*
X534020D01*
Y920170D01*
X553100D01*
Y923030D01*
X584820D01*
Y920170D01*
X603900D01*
Y923030D01*
X619110D01*
Y920170D01*
X638190D01*
Y923030D01*
X647050D01*
Y920170D01*
X666130D01*
Y934632D01*
X667400Y935675D01*
X668126Y935530D01*
X686600D01*
Y929670D01*
X689131D01*
X689617Y928496D01*
X674511Y913390D01*
X666130D01*
Y916250D01*
X647050D01*
Y913390D01*
X638190D01*
Y916250D01*
X619110D01*
Y909356D01*
X618812Y909127D01*
X608218Y898534D01*
X607045Y899020D01*
Y904630D01*
X606786Y906599D01*
X606026Y908433D01*
X604818Y910008D01*
X603900Y910712D01*
Y916250D01*
X584820D01*
Y913390D01*
X553100D01*
Y916250D01*
X534020D01*
Y900170D01*
X553100D01*
Y903030D01*
X584820D01*
Y900170D01*
X591835D01*
Y889882D01*
X591073Y888980D01*
X589091Y888585D01*
X587410Y887463D01*
X557780Y857832D01*
X556657Y856152D01*
X556263Y854169D01*
Y804666D01*
X556657Y802684D01*
X557780Y801004D01*
X562244Y796540D01*
X563924Y795417D01*
X565906Y795023D01*
X572219D01*
X574201Y795417D01*
X575881Y796540D01*
X602146Y822805D01*
X603269Y824485D01*
X603663Y826467D01*
Y826576D01*
X604836Y827062D01*
X657440Y774458D01*
Y755030D01*
X654580D01*
Y735950D01*
X670660D01*
Y747705D01*
X691205Y768251D01*
X701026D01*
Y762390D01*
X726106D01*
Y765825D01*
X780034D01*
X782002Y766084D01*
X783837Y766844D01*
X785412Y768052D01*
X803173Y785814D01*
X837692D01*
X840049Y786283D01*
X842047Y787617D01*
X843023Y789079D01*
X862932D01*
X864914Y789473D01*
X866594Y790595D01*
X876719Y800720D01*
X881878D01*
X882683Y799738D01*
X882551Y799071D01*
Y792740D01*
X878190D01*
Y776660D01*
X897270D01*
Y792740D01*
X892909D01*
Y796926D01*
X895823Y799839D01*
X896945Y801519D01*
X897340Y803502D01*
Y807939D01*
X898362Y808962D01*
X898362Y808962D01*
X899821Y810421D01*
X913739D01*
X914915Y809245D01*
X914520Y807772D01*
Y805128D01*
X915204Y802575D01*
X916526Y800285D01*
X918395Y798416D01*
X920685Y797094D01*
X923238Y796410D01*
X925882D01*
X928435Y797094D01*
X930725Y798416D01*
X932594Y800285D01*
X933916Y802575D01*
X934600Y805128D01*
Y807772D01*
X934507Y808118D01*
X937113Y810723D01*
X938235Y812404D01*
X938630Y814386D01*
Y815879D01*
X942177Y819426D01*
X943350Y818940D01*
Y813420D01*
X959430D01*
Y832500D01*
X955300D01*
Y846440D01*
X958160D01*
Y865520D01*
X942080D01*
Y846440D01*
X944940D01*
Y832500D01*
X943350D01*
Y831299D01*
X941545D01*
X939563Y830905D01*
X937910Y829800D01*
X937355Y829902D01*
X936640Y830199D01*
Y830280D01*
X930100D01*
Y825240D01*
X931681D01*
X932168Y824067D01*
X929788Y821687D01*
X928665Y820006D01*
X928270Y818024D01*
Y817060D01*
X927159Y816148D01*
X925882Y816490D01*
X923238D01*
X922514Y816296D01*
X919547Y819262D01*
X919547Y819262D01*
X919547Y819263D01*
X918878Y819709D01*
X917867Y820385D01*
X917867Y820385D01*
X917867Y820385D01*
X915884Y820780D01*
X915884Y820780D01*
X915884Y820780D01*
X911615D01*
X910909Y821836D01*
X911300Y822779D01*
Y825082D01*
X911050Y825686D01*
Y845070D01*
X904448D01*
X903915Y846340D01*
X904696Y848224D01*
Y850528D01*
X903814Y852656D01*
X902186Y854285D01*
X900058Y855166D01*
X897754D01*
X896281Y854556D01*
X886206D01*
X884224Y854161D01*
X882543Y853038D01*
X876448Y846943D01*
X875325Y845262D01*
X875286Y845070D01*
X874570D01*
Y824790D01*
X885650D01*
Y840752D01*
X886000Y841002D01*
X887270Y840349D01*
Y824790D01*
X887630D01*
Y812449D01*
X887375Y812066D01*
X886981Y810084D01*
Y806516D01*
X886720Y806342D01*
X885450Y807021D01*
Y819800D01*
X869370D01*
Y808021D01*
X866623Y805274D01*
X865450Y805760D01*
Y819800D01*
X849370D01*
X849267Y820120D01*
X839470D01*
X829930D01*
Y815142D01*
X829443Y815045D01*
X827762Y813923D01*
X821412Y807572D01*
X809349D01*
X792678Y824242D01*
X790998Y825365D01*
X789015Y825760D01*
X772160D01*
Y830580D01*
X753080D01*
Y826909D01*
X741790D01*
X740887Y826730D01*
X733710D01*
Y816650D01*
X741049D01*
X741750Y816510D01*
X741951Y816551D01*
X753080D01*
Y814500D01*
X772160D01*
Y815400D01*
X786870D01*
X802309Y799962D01*
X801589Y798885D01*
X800544Y799318D01*
X798576Y799577D01*
X796608Y799318D01*
X794773Y798558D01*
X793198Y797350D01*
X776884Y781035D01*
X726106D01*
Y784470D01*
X701026D01*
Y778609D01*
X689060D01*
X689060Y778609D01*
X687078Y778215D01*
X685397Y777093D01*
X685397Y777092D01*
X668973Y760668D01*
X667800Y761154D01*
Y776603D01*
X667405Y778586D01*
X666282Y780266D01*
X603663Y842885D01*
Y853495D01*
X607020D01*
X608988Y853754D01*
X610822Y854514D01*
X612397Y855723D01*
X613606Y857298D01*
X614366Y859132D01*
X614625Y861100D01*
X614366Y863068D01*
X613606Y864903D01*
X612397Y866478D01*
X610822Y867686D01*
X608988Y868446D01*
X608173Y868553D01*
X607474Y869765D01*
X607411Y869827D01*
X607897Y871001D01*
X610875D01*
X611861Y871197D01*
X612857Y871395D01*
X612857Y871395D01*
X612857Y871395D01*
X613807Y872030D01*
X614537Y872517D01*
X614538Y872518D01*
X614538Y872518D01*
X614538Y872518D01*
X616951Y874930D01*
X770698D01*
X772008Y874055D01*
X773990Y873661D01*
X773990Y873661D01*
X808730D01*
Y869300D01*
X811590D01*
Y858098D01*
X810980Y856624D01*
Y854320D01*
X811861Y852192D01*
X812504Y851550D01*
X811978Y850280D01*
X807140D01*
Y831200D01*
X823220D01*
Y835561D01*
X828040D01*
X829090Y835769D01*
X829930Y835080D01*
Y835080D01*
X849010D01*
Y851160D01*
X829930D01*
Y848202D01*
X828438Y847905D01*
X826758Y846783D01*
X825895Y845919D01*
X823220D01*
Y850280D01*
X821562D01*
X821036Y851550D01*
X821678Y852192D01*
X822560Y854320D01*
Y856624D01*
X821949Y858098D01*
Y869300D01*
X824810D01*
Y888380D01*
X808730D01*
Y884019D01*
X792681D01*
X791680Y884670D01*
Y906750D01*
X768600D01*
Y900890D01*
X739586D01*
X738112Y901500D01*
X735808D01*
X734335Y900890D01*
X709680D01*
Y906750D01*
X686600D01*
Y885290D01*
X618144D01*
X617658Y886463D01*
X629567Y898372D01*
X630776Y899947D01*
X630868Y900170D01*
X638190D01*
Y903030D01*
X647050D01*
Y900170D01*
X666130D01*
Y903030D01*
X676656D01*
X678638Y903425D01*
X680319Y904548D01*
X701802Y926031D01*
X702925Y927712D01*
X703315Y929670D01*
X709680D01*
Y935530D01*
X768600D01*
Y929670D01*
X791680D01*
Y951750D01*
X768600D01*
Y945889D01*
X709680D01*
Y951750D01*
X686600D01*
Y945889D01*
X670272D01*
X658976Y957185D01*
Y989391D01*
X659750Y990340D01*
X660246Y990340D01*
X666290D01*
Y998380D01*
Y1006420D01*
X660155D01*
X659750Y1006420D01*
X658737Y1007040D01*
X658581Y1007822D01*
X657458Y1009502D01*
X645869Y1021093D01*
X644188Y1022215D01*
X642206Y1022609D01*
X642000D01*
Y1025470D01*
X624125D01*
X623162Y1026433D01*
Y1029390D01*
X642000D01*
Y1032251D01*
X662950D01*
X664932Y1032645D01*
X666612Y1033767D01*
X670078Y1037233D01*
X674899D01*
X675385Y1036060D01*
X675369Y1036044D01*
X674488Y1033916D01*
Y1031612D01*
X675098Y1030138D01*
Y1028480D01*
X668316D01*
X667512Y1028640D01*
X665480D01*
X663498Y1028245D01*
X661817Y1027122D01*
X661348Y1026420D01*
X659750D01*
Y1010340D01*
X678830D01*
Y1015084D01*
X679812Y1015889D01*
X680560Y1015741D01*
X681340D01*
Y1012880D01*
X700420D01*
Y1018120D01*
X710184D01*
Y1015746D01*
X734982D01*
X735468Y1014573D01*
X734609Y1013714D01*
X710184D01*
Y1003046D01*
X737108D01*
Y1003301D01*
X738582Y1003595D01*
X740263Y1004717D01*
X747883Y1012337D01*
X749005Y1014018D01*
X749399Y1016000D01*
Y1044335D01*
X756158Y1051093D01*
X757428Y1050567D01*
Y1049480D01*
X784352D01*
Y1050810D01*
X810771D01*
Y1047242D01*
X811165Y1045260D01*
X812288Y1043579D01*
X819137Y1036730D01*
X836310Y1019557D01*
X836012Y1018059D01*
X834920Y1017607D01*
X833291Y1015978D01*
X833176Y1015698D01*
X843830D01*
X844305Y1016408D01*
X892810D01*
X894792Y1016803D01*
X896472Y1017925D01*
X916037Y1037490D01*
X924111D01*
X926093Y1037885D01*
X927773Y1039007D01*
X941295Y1052529D01*
X948590D01*
Y1034480D01*
X948310D01*
Y1014900D01*
X969390D01*
Y1034480D01*
X958950D01*
Y1052570D01*
X963310D01*
Y1067436D01*
X963310Y1068299D01*
X964402Y1068918D01*
X964540Y1068865D01*
X976524Y1056881D01*
X978204Y1055759D01*
X980186Y1055365D01*
X984552D01*
Y1060544D01*
Y1065723D01*
X982331D01*
X971030Y1077025D01*
Y1088214D01*
X970636Y1090196D01*
X969513Y1091877D01*
X966537Y1094853D01*
X964856Y1095975D01*
X962874Y1096370D01*
D02*
G37*
G36*
X852820Y1095000D02*
X833740D01*
Y1091585D01*
X812600D01*
Y1093390D01*
X800560D01*
Y1085850D01*
Y1078310D01*
X812600D01*
Y1081226D01*
X833740D01*
Y1078920D01*
X844629D01*
X845130Y1078820D01*
X845130Y1078820D01*
X845130Y1078820D01*
X849745D01*
X850188Y1078525D01*
X852170Y1078130D01*
X858865D01*
X859026Y1077851D01*
X860681Y1076196D01*
X862709Y1075026D01*
X864970Y1074420D01*
X867310D01*
X869571Y1075026D01*
X871599Y1076196D01*
X873254Y1077851D01*
X874424Y1079879D01*
X875030Y1082140D01*
Y1084480D01*
X874424Y1086741D01*
X873254Y1088769D01*
X871599Y1090424D01*
X869571Y1091594D01*
X867310Y1092200D01*
X864970D01*
X862709Y1091594D01*
X860681Y1090424D01*
X859026Y1088769D01*
X858865Y1088490D01*
X853905D01*
X853462Y1088785D01*
X852820Y1088913D01*
Y1095000D01*
D02*
G37*
G36*
X884730Y1096270D02*
X878190D01*
Y1091230D01*
X884730D01*
Y1096270D01*
D02*
G37*
G36*
X794560Y1093390D02*
X782520D01*
Y1085635D01*
X781564Y1084679D01*
X769275D01*
X769114Y1084959D01*
X767459Y1086614D01*
X765431Y1087784D01*
X763170Y1088390D01*
X760830D01*
X758569Y1087784D01*
X756541Y1086614D01*
X754886Y1084959D01*
X753716Y1082931D01*
X753110Y1080670D01*
Y1078330D01*
X753716Y1076069D01*
X754886Y1074041D01*
X756541Y1072386D01*
X758569Y1071216D01*
X760830Y1070610D01*
X763170D01*
X765431Y1071216D01*
X767459Y1072386D01*
X769114Y1074041D01*
X769275Y1074321D01*
X783710D01*
X785692Y1074715D01*
X787372Y1075837D01*
X789845Y1078310D01*
X794560D01*
Y1085850D01*
Y1093390D01*
D02*
G37*
G36*
X884730Y1085230D02*
X878190D01*
Y1080190D01*
X884730D01*
Y1085230D01*
D02*
G37*
G36*
X827738Y1076396D02*
Y1074372D01*
X829762D01*
X829647Y1074652D01*
X828018Y1076281D01*
X827738Y1076396D01*
D02*
G37*
G36*
X821738D02*
X821458Y1076281D01*
X819829Y1074652D01*
X819714Y1074372D01*
X821738D01*
Y1076396D01*
D02*
G37*
G36*
X829762Y1068372D02*
X827738D01*
Y1066348D01*
X828018Y1066463D01*
X829647Y1068092D01*
X829762Y1068372D01*
D02*
G37*
G36*
X821738D02*
X819714D01*
X819829Y1068092D01*
X821458Y1066463D01*
X821738Y1066348D01*
Y1068372D01*
D02*
G37*
G36*
X990552Y1065568D02*
Y1063544D01*
X992576D01*
X992460Y1063824D01*
X990832Y1065452D01*
X990552Y1065568D01*
D02*
G37*
G36*
X992576Y1057544D02*
X990552D01*
Y1055520D01*
X990832Y1055636D01*
X992460Y1057264D01*
X992576Y1057544D01*
D02*
G37*
G36*
X784352Y1043480D02*
X773890D01*
Y1041146D01*
X784352D01*
Y1043480D01*
D02*
G37*
G36*
X767890D02*
X757428D01*
Y1041146D01*
X767890D01*
Y1043480D01*
D02*
G37*
G36*
X784352Y1039114D02*
X773890D01*
Y1036780D01*
X784352D01*
Y1039114D01*
D02*
G37*
G36*
X767890D02*
X757428D01*
Y1036780D01*
X767890D01*
Y1039114D01*
D02*
G37*
G36*
X784352Y1030780D02*
X773890D01*
Y1028446D01*
X784352D01*
Y1030780D01*
D02*
G37*
G36*
X767890D02*
X757428D01*
Y1028446D01*
X767890D01*
Y1030780D01*
D02*
G37*
G36*
X784352Y1026414D02*
X773890D01*
Y1024080D01*
X784352D01*
Y1026414D01*
D02*
G37*
G36*
X767890D02*
X757428D01*
Y1024080D01*
X767890D01*
Y1026414D01*
D02*
G37*
G36*
X784352Y1018080D02*
X773890D01*
Y1015746D01*
X784352D01*
Y1018080D01*
D02*
G37*
G36*
X767890D02*
X757428D01*
Y1015746D01*
X767890D01*
Y1018080D01*
D02*
G37*
G36*
X784352Y1013714D02*
X773890D01*
Y1011380D01*
X784352D01*
Y1013714D01*
D02*
G37*
G36*
X767890D02*
X757428D01*
Y1011380D01*
X767890D01*
Y1013714D01*
D02*
G37*
G36*
X700420Y1008960D02*
X693880D01*
Y1003920D01*
X700420D01*
Y1008960D01*
D02*
G37*
G36*
X687880D02*
X681340D01*
Y1003920D01*
X687880D01*
Y1008960D01*
D02*
G37*
G36*
X784352Y1005380D02*
X773890D01*
Y1003046D01*
X784352D01*
Y1005380D01*
D02*
G37*
G36*
X767890D02*
X757428D01*
Y1003046D01*
X767890D01*
Y1005380D01*
D02*
G37*
G36*
X961850Y1009268D02*
Y1002690D01*
X968954D01*
X968151Y1004627D01*
X966582Y1006673D01*
X964537Y1008242D01*
X962156Y1009228D01*
X961850Y1009268D01*
D02*
G37*
G36*
X955850D02*
X955544Y1009228D01*
X953163Y1008242D01*
X951118Y1006673D01*
X949548Y1004627D01*
X948746Y1002690D01*
X955850D01*
Y1009268D01*
D02*
G37*
G36*
X672290Y1006420D02*
Y1001380D01*
X678830D01*
Y1006420D01*
X672290D01*
D02*
G37*
G36*
X784352Y1001014D02*
X773890D01*
Y998680D01*
X784352D01*
Y1001014D01*
D02*
G37*
G36*
X767890D02*
X757428D01*
Y998680D01*
X767890D01*
Y1001014D01*
D02*
G37*
G36*
X737108D02*
X726646D01*
Y998680D01*
X737108D01*
Y1001014D01*
D02*
G37*
G36*
X720646D02*
X710184D01*
Y998680D01*
X720646D01*
Y1001014D01*
D02*
G37*
G36*
X700420Y997920D02*
X693880D01*
Y992880D01*
X700420D01*
Y997920D01*
D02*
G37*
G36*
X687880D02*
X681340D01*
Y992880D01*
X687880D01*
Y997920D01*
D02*
G37*
G36*
X784352Y992680D02*
X773890D01*
Y990346D01*
X784352D01*
Y992680D01*
D02*
G37*
G36*
X767890D02*
X757428D01*
Y990346D01*
X767890D01*
Y992680D01*
D02*
G37*
G36*
X737108D02*
X726646D01*
Y990346D01*
X737108D01*
Y992680D01*
D02*
G37*
G36*
X720646D02*
X710184D01*
Y990346D01*
X720646D01*
Y992680D01*
D02*
G37*
G36*
X678830Y995380D02*
X672290D01*
Y990340D01*
X678830D01*
Y995380D01*
D02*
G37*
G36*
X968954Y996690D02*
X961850D01*
Y990112D01*
X962156Y990152D01*
X964537Y991139D01*
X966582Y992708D01*
X968151Y994753D01*
X968954Y996690D01*
D02*
G37*
G36*
X955850D02*
X948746D01*
X949548Y994753D01*
X951118Y992708D01*
X953163Y991139D01*
X955544Y990152D01*
X955850Y990112D01*
Y996690D01*
D02*
G37*
G36*
X737108Y988314D02*
X726646D01*
Y985980D01*
X737108D01*
Y988314D01*
D02*
G37*
G36*
X720646D02*
X710184D01*
Y985980D01*
X720646D01*
Y988314D01*
D02*
G37*
G36*
X784352D02*
X757428D01*
Y977646D01*
X784352D01*
Y988314D01*
D02*
G37*
G36*
X737108Y979980D02*
X726646D01*
Y977646D01*
X737108D01*
Y979980D01*
D02*
G37*
G36*
X720646D02*
X710184D01*
Y977646D01*
X720646D01*
Y979980D01*
D02*
G37*
G36*
X737108Y975614D02*
X726646D01*
Y973280D01*
X737108D01*
Y975614D01*
D02*
G37*
G36*
X720646D02*
X710184D01*
Y973280D01*
X720646D01*
Y975614D01*
D02*
G37*
G36*
X784352D02*
X757428D01*
Y964946D01*
X784352D01*
Y975614D01*
D02*
G37*
G36*
X737108Y967280D02*
X726646D01*
Y964946D01*
X737108D01*
Y967280D01*
D02*
G37*
G36*
X720646D02*
X710184D01*
Y964946D01*
X720646D01*
Y967280D01*
D02*
G37*
G36*
X843269Y1009698D02*
X833131D01*
X832571Y1008480D01*
X802640D01*
X800658Y1008085D01*
X798978Y1006963D01*
X793643Y1001628D01*
X792521Y999948D01*
X792126Y997966D01*
Y964056D01*
X792521Y962074D01*
X793643Y960394D01*
X818891Y935147D01*
Y904240D01*
X819285Y902258D01*
X820407Y900577D01*
X831335Y889650D01*
X830974Y888380D01*
X828730D01*
Y869300D01*
X844810D01*
Y885562D01*
X845983Y886048D01*
X862231Y869800D01*
Y845070D01*
X861870D01*
Y824790D01*
X872950D01*
Y845070D01*
X872589D01*
Y871946D01*
X872195Y873928D01*
X871072Y875608D01*
X868264Y878417D01*
X868750Y879590D01*
X872950D01*
Y886730D01*
X867410D01*
X861870D01*
Y886470D01*
X860697Y885984D01*
X852430Y894251D01*
Y978520D01*
X855290D01*
Y997600D01*
X856344Y998120D01*
X858156D01*
X859210Y997600D01*
X859210Y996851D01*
Y978520D01*
X862070D01*
Y961320D01*
X862465Y959338D01*
X863587Y957657D01*
X871840Y949405D01*
Y940650D01*
X889706D01*
X890569Y940650D01*
X891188Y939558D01*
X891134Y939419D01*
X888445Y936730D01*
X871840D01*
Y920650D01*
X890920D01*
Y924712D01*
X891393Y925028D01*
X901775Y935410D01*
X918860D01*
Y951490D01*
X905356D01*
Y953270D01*
X905966Y954744D01*
Y957048D01*
X905085Y959176D01*
X903456Y960805D01*
X901328Y961686D01*
X899024D01*
X896896Y960805D01*
X895267Y959176D01*
X894657Y957702D01*
X892093Y955138D01*
X890920Y955624D01*
Y956730D01*
X879165D01*
X872430Y963465D01*
Y978520D01*
X875290D01*
Y996851D01*
X875290Y997600D01*
X876344Y998120D01*
X902095D01*
X915722Y984493D01*
Y982590D01*
X916603Y980462D01*
X918232Y978833D01*
X919706Y978223D01*
X929754Y968175D01*
Y927173D01*
X927459Y924878D01*
X926231Y925446D01*
X925405Y927442D01*
X923776Y929071D01*
X921648Y929952D01*
X919344D01*
X918860Y930276D01*
Y931490D01*
X899780D01*
Y922735D01*
X889147Y912103D01*
X888025Y910422D01*
X887630Y908440D01*
Y899870D01*
X887270D01*
Y879590D01*
X898350D01*
Y899870D01*
X897990D01*
Y906295D01*
X907105Y915410D01*
X916332D01*
X916818Y914237D01*
X902451Y899870D01*
X899970D01*
Y879590D01*
X911050D01*
Y893819D01*
X938596Y921365D01*
X939719Y923045D01*
X940113Y925027D01*
Y970321D01*
X939719Y972303D01*
X938596Y973983D01*
X938596Y973983D01*
X927031Y985548D01*
X926562Y986681D01*
X926297Y988010D01*
X925174Y989690D01*
X907903Y1006963D01*
X906222Y1008085D01*
X904240Y1008480D01*
X843829D01*
X843269Y1009698D01*
D02*
G37*
G36*
X872950Y899870D02*
X870410D01*
Y892730D01*
X872950D01*
Y899870D01*
D02*
G37*
G36*
X864410D02*
X861870D01*
Y892730D01*
X864410D01*
Y899870D01*
D02*
G37*
G36*
X877982Y913922D02*
X875679D01*
X873551Y913041D01*
X871922Y911412D01*
X871040Y909284D01*
Y906981D01*
X871922Y904853D01*
X873551Y903224D01*
X874424Y902862D01*
X874930Y902355D01*
Y899870D01*
X874570D01*
Y879590D01*
X885650D01*
Y899870D01*
X885290D01*
Y904501D01*
X885094Y905486D01*
X884895Y906482D01*
X884895Y906482D01*
X884895Y906483D01*
X884358Y907287D01*
X883773Y908163D01*
X882598Y909338D01*
X881739Y911412D01*
X880110Y913041D01*
X877982Y913922D01*
D02*
G37*
G36*
X991822Y851606D02*
Y849582D01*
X993846D01*
X993730Y849862D01*
X992102Y851490D01*
X991822Y851606D01*
D02*
G37*
G36*
X985822D02*
X985542Y851490D01*
X983913Y849862D01*
X983798Y849582D01*
X985822D01*
Y851606D01*
D02*
G37*
G36*
X780932Y857960D02*
X778628D01*
X776500Y857078D01*
X774872Y855450D01*
X773990Y853322D01*
Y851018D01*
X774872Y848890D01*
X774872Y848889D01*
Y848589D01*
X774003Y847719D01*
X772160D01*
Y850580D01*
X753080D01*
Y834500D01*
X772160D01*
Y834500D01*
X773340Y834283D01*
Y834182D01*
X774222Y832054D01*
X775851Y830425D01*
X777979Y829544D01*
X780282D01*
X782410Y830425D01*
X784039Y832054D01*
X784920Y834182D01*
Y836486D01*
X784582Y837303D01*
Y839224D01*
X784725Y839945D01*
X787140D01*
Y831200D01*
X803220D01*
Y850280D01*
X792338D01*
X792220Y850304D01*
X786048D01*
X785570Y851018D01*
Y853322D01*
X784688Y855450D01*
X783060Y857078D01*
X780932Y857960D01*
D02*
G37*
G36*
X936640Y861320D02*
X917560D01*
Y845240D01*
X936640D01*
Y861320D01*
D02*
G37*
G36*
X993846Y843582D02*
X991822D01*
Y841558D01*
X992102Y841674D01*
X993730Y843302D01*
X993846Y843582D01*
D02*
G37*
G36*
X985822D02*
X983798D01*
X983913Y843302D01*
X985542Y841674D01*
X985822Y841558D01*
Y843582D01*
D02*
G37*
G36*
X936640Y841320D02*
X930100D01*
Y836280D01*
X936640D01*
Y841320D01*
D02*
G37*
G36*
X924100D02*
X917560D01*
Y836280D01*
X924100D01*
Y841320D01*
D02*
G37*
G36*
X849010Y831160D02*
X842470D01*
Y826120D01*
X849010D01*
Y831160D01*
D02*
G37*
G36*
X836470D02*
X829930D01*
Y826120D01*
X836470D01*
Y831160D01*
D02*
G37*
G36*
X924100Y830280D02*
X917560D01*
Y825240D01*
X924100D01*
Y830280D01*
D02*
G37*
G36*
X726790Y826730D02*
X721750D01*
Y824690D01*
X726790D01*
Y826730D01*
D02*
G37*
G36*
X715750D02*
X710710D01*
Y824690D01*
X715750D01*
Y826730D01*
D02*
G37*
G36*
X726790Y818690D02*
X721750D01*
Y816650D01*
X726790D01*
Y818690D01*
D02*
G37*
G36*
X715750D02*
X710710D01*
Y816650D01*
X715750D01*
Y818690D01*
D02*
G37*
G36*
X978160Y865520D02*
X962080D01*
Y846440D01*
X965575D01*
Y832500D01*
X963350D01*
Y813420D01*
X966926D01*
Y807020D01*
X966655Y806864D01*
X964786Y804995D01*
X963464Y802705D01*
X962780Y800152D01*
Y797508D01*
X963464Y794955D01*
X964786Y792665D01*
X966655Y790796D01*
X968945Y789474D01*
X971498Y788790D01*
X974142D01*
X976695Y789474D01*
X978985Y790796D01*
X980854Y792665D01*
X982176Y794955D01*
X982860Y797508D01*
Y800152D01*
X982176Y802705D01*
X980854Y804995D01*
X978985Y806864D01*
X977285Y807846D01*
Y813420D01*
X979430D01*
Y832500D01*
X975935D01*
Y846440D01*
X978160D01*
Y865520D01*
D02*
G37*
G36*
X637160Y788511D02*
X617620D01*
Y778970D01*
X637160D01*
Y788511D01*
D02*
G37*
G36*
X611620D02*
X592080D01*
Y778970D01*
X611620D01*
Y788511D01*
D02*
G37*
G36*
X838850Y773690D02*
X832310D01*
Y768650D01*
X838850D01*
Y773690D01*
D02*
G37*
G36*
X826310D02*
X819770D01*
Y768650D01*
X826310D01*
Y773690D01*
D02*
G37*
G36*
X897270Y772740D02*
X890730D01*
Y767700D01*
X897270D01*
Y772740D01*
D02*
G37*
G36*
X884730D02*
X878190D01*
Y767700D01*
X884730D01*
Y772740D01*
D02*
G37*
G36*
X637160Y772971D02*
X617620D01*
Y763430D01*
X637160D01*
Y772971D01*
D02*
G37*
G36*
X611620D02*
X592080D01*
Y763430D01*
X611620D01*
Y772971D01*
D02*
G37*
G36*
X838850Y762650D02*
X832310D01*
Y757610D01*
X838850D01*
Y762650D01*
D02*
G37*
G36*
X826310D02*
X819770D01*
Y757610D01*
X826310D01*
Y762650D01*
D02*
G37*
G36*
X897270Y761700D02*
X890730D01*
Y756660D01*
X897270D01*
Y761700D01*
D02*
G37*
G36*
X884730D02*
X878190D01*
Y756660D01*
X884730D01*
Y761700D01*
D02*
G37*
G36*
X959240Y934922D02*
X956936D01*
X954808Y934041D01*
X953179Y932412D01*
X952298Y930284D01*
Y927980D01*
X953179Y925852D01*
X954808Y924223D01*
X956283Y923613D01*
X959618Y920278D01*
X961298Y919155D01*
X963280Y918761D01*
X980005D01*
X984411Y914355D01*
Y897630D01*
X984805Y895648D01*
X985928Y893967D01*
X1014631Y865265D01*
Y783195D01*
X974485Y743049D01*
X883096D01*
X881794Y745305D01*
X879925Y747174D01*
X877635Y748496D01*
X875082Y749180D01*
X872438D01*
X869885Y748496D01*
X867595Y747174D01*
X865726Y745305D01*
X865157Y744320D01*
X839465D01*
X838850Y744935D01*
Y753690D01*
X819770D01*
Y737610D01*
X831525D01*
X833658Y735478D01*
X835338Y734355D01*
X837320Y733960D01*
X865157D01*
X865726Y732975D01*
X867595Y731106D01*
X869885Y729784D01*
X872438Y729100D01*
X875082D01*
X877635Y729784D01*
X879925Y731106D01*
X881509Y732691D01*
X976630D01*
X978612Y733085D01*
X980293Y734208D01*
X1013457Y767372D01*
X1014631Y766886D01*
Y763864D01*
X1014020Y762390D01*
Y760086D01*
X1014902Y757958D01*
X1016530Y756329D01*
X1018658Y755448D01*
X1020962D01*
X1023090Y756329D01*
X1024718Y757958D01*
X1025600Y760086D01*
Y762390D01*
X1024989Y763864D01*
Y781050D01*
Y867410D01*
X1024595Y869392D01*
X1023473Y871072D01*
X994770Y899775D01*
Y916501D01*
X994375Y918483D01*
X993253Y920163D01*
X985813Y927603D01*
X984133Y928726D01*
X982150Y929120D01*
X965426D01*
X963607Y930939D01*
X962997Y932412D01*
X961368Y934041D01*
X959240Y934922D01*
D02*
G37*
G36*
X716566Y758968D02*
Y751030D01*
X725773D01*
X724710Y753598D01*
X722940Y755904D01*
X720634Y757673D01*
X717948Y758786D01*
X716566Y758968D01*
D02*
G37*
G36*
X710566D02*
X709184Y758786D01*
X706499Y757673D01*
X704192Y755904D01*
X702423Y753598D01*
X701359Y751030D01*
X710566D01*
Y758968D01*
D02*
G37*
G36*
X650660Y755030D02*
X645620D01*
Y748490D01*
X650660D01*
Y755030D01*
D02*
G37*
G36*
X639620D02*
X634580D01*
Y748490D01*
X639620D01*
Y755030D01*
D02*
G37*
G36*
X725773Y745030D02*
X716566D01*
Y737092D01*
X717948Y737274D01*
X720634Y738387D01*
X722940Y740156D01*
X724710Y742462D01*
X725773Y745030D01*
D02*
G37*
G36*
X710566D02*
X701359D01*
X702423Y742462D01*
X704192Y740156D01*
X706499Y738387D01*
X709184Y737274D01*
X710566Y737092D01*
Y745030D01*
D02*
G37*
G36*
X650660Y742490D02*
X645620D01*
Y735950D01*
X650660D01*
Y742490D01*
D02*
G37*
G36*
X639620D02*
X634580D01*
Y735950D01*
X639620D01*
Y742490D01*
D02*
G37*
%LPD*%
G36*
X944230Y1081953D02*
Y1079895D01*
X936118Y1071783D01*
X930714D01*
X928732Y1071389D01*
X927051Y1070266D01*
X919692Y1062907D01*
X919380Y1062990D01*
X917040D01*
X914779Y1062384D01*
X912751Y1061214D01*
X911096Y1059559D01*
X909926Y1057531D01*
X909320Y1055270D01*
Y1052930D01*
X909926Y1050669D01*
X911096Y1048641D01*
X911223Y1048515D01*
X911057Y1046885D01*
X910229Y1046332D01*
X890665Y1026768D01*
X889100D01*
Y1032050D01*
X873020D01*
Y1026768D01*
X869100D01*
Y1037509D01*
X869200Y1038010D01*
Y1043875D01*
X885515Y1060190D01*
X893218D01*
X893704Y1059017D01*
X887617Y1052930D01*
X883920D01*
X881938Y1052535D01*
X880257Y1051413D01*
X880257Y1051412D01*
X877398Y1048552D01*
X876275Y1046872D01*
X875880Y1044890D01*
Y1044590D01*
X873020D01*
Y1038050D01*
X889100D01*
Y1042570D01*
X889762D01*
X891744Y1042965D01*
X893425Y1044088D01*
X904855Y1055518D01*
X905977Y1057198D01*
X906372Y1059180D01*
Y1081780D01*
X940294D01*
X942276Y1082175D01*
X942960Y1082632D01*
X944230Y1081953D01*
D02*
G37*
G36*
X695688Y1065431D02*
X693799Y1064924D01*
X691771Y1063754D01*
X690116Y1062099D01*
X688946Y1060071D01*
X688340Y1057810D01*
Y1055470D01*
X688946Y1053209D01*
X690116Y1051181D01*
X691771Y1049526D01*
X691864Y1049473D01*
X691524Y1048203D01*
X689732D01*
X688258Y1047592D01*
X672414D01*
X671889Y1048862D01*
X689727Y1066701D01*
X695521D01*
X695688Y1065431D01*
D02*
G37*
G36*
X733436Y1065687D02*
X732950Y1064514D01*
X710184D01*
Y1053846D01*
X737108D01*
Y1060356D01*
X738281Y1060842D01*
X743605Y1055518D01*
X744168Y1055142D01*
X744293Y1053878D01*
X740557Y1050143D01*
X739435Y1048462D01*
X739041Y1046480D01*
Y1018287D01*
X738304Y1017694D01*
X737108Y1018218D01*
Y1026414D01*
X717533D01*
X716738Y1027295D01*
X717111Y1028446D01*
X737108D01*
Y1039114D01*
X710184D01*
Y1038960D01*
X701661D01*
X696403Y1044218D01*
X695792Y1045692D01*
X694679Y1046805D01*
X695337Y1047944D01*
X696060Y1047750D01*
X698400D01*
X698712Y1047833D01*
X703727Y1042818D01*
X705408Y1041695D01*
X707390Y1041301D01*
X710184D01*
Y1041146D01*
X737108D01*
Y1051814D01*
X710184D01*
X710184Y1051814D01*
Y1051814D01*
X710184Y1051814D01*
X709051Y1052144D01*
X706037Y1055158D01*
X706120Y1055470D01*
Y1057810D01*
X705514Y1060071D01*
X704344Y1062099D01*
X702689Y1063754D01*
X700661Y1064924D01*
X698772Y1065431D01*
X698939Y1066701D01*
X732423D01*
X733436Y1065687D01*
D02*
G37*
G36*
X585261Y1065789D02*
X586906Y1062941D01*
X589231Y1060615D01*
X592079Y1058971D01*
X595256Y1058120D01*
X598544D01*
X601474Y1058905D01*
X602043Y1058247D01*
X602218Y1057853D01*
X582705Y1038340D01*
X577000D01*
X576498Y1038240D01*
X566000D01*
Y1024224D01*
X564827Y1023738D01*
X562080Y1026485D01*
Y1038240D01*
X559220D01*
Y1051005D01*
X566335Y1058120D01*
X583990D01*
Y1065626D01*
X585260Y1065794D01*
X585261Y1065789D01*
D02*
G37*
G36*
X648616Y1003695D02*
Y955040D01*
X649011Y953058D01*
X650134Y951377D01*
X663991Y937520D01*
X663465Y936250D01*
X647050D01*
Y933390D01*
X638190D01*
Y936250D01*
X633829D01*
Y947683D01*
X634705Y948994D01*
X635099Y950976D01*
X635099Y950976D01*
Y964217D01*
X636085Y964786D01*
X637954Y966655D01*
X639276Y968945D01*
X639960Y971498D01*
Y974142D01*
X639276Y976695D01*
X637954Y978985D01*
X636085Y980854D01*
X633795Y982176D01*
X631242Y982860D01*
X628598D01*
X627499Y982566D01*
X620247Y989818D01*
X618567Y990940D01*
X616585Y991335D01*
X606606D01*
Y991489D01*
X588682D01*
Y999871D01*
X606606D01*
Y1000025D01*
X618735D01*
X620717Y1000420D01*
X622397Y1001543D01*
X630245Y1009390D01*
X642000D01*
Y1009390D01*
X642651Y1009660D01*
X648616Y1003695D01*
D02*
G37*
G36*
X768600Y885290D02*
X709680D01*
Y890531D01*
X734335D01*
X735808Y889920D01*
X738112D01*
X739586Y890531D01*
X768600D01*
Y885290D01*
D02*
G37*
G36*
X589400Y862366D02*
Y862278D01*
X590084Y859725D01*
X591406Y857435D01*
X593275Y855566D01*
X593304Y855549D01*
Y840740D01*
Y828613D01*
X570073Y805382D01*
X568052D01*
X566622Y806812D01*
Y827848D01*
X567892Y828188D01*
X568196Y827661D01*
X569851Y826006D01*
X571879Y824836D01*
X574140Y824230D01*
X576480D01*
X578741Y824836D01*
X580769Y826006D01*
X582424Y827661D01*
X583594Y829689D01*
X584200Y831950D01*
Y834290D01*
X583594Y836551D01*
X582424Y838579D01*
X580769Y840234D01*
X578741Y841404D01*
X577949Y841616D01*
Y852575D01*
X588227Y862852D01*
X589400Y862366D01*
D02*
G37*
G36*
X821270Y997600D02*
Y978520D01*
X837350D01*
Y982880D01*
X839210D01*
Y978520D01*
X842070D01*
Y895037D01*
X840800Y894652D01*
X840433Y895202D01*
X829249Y906385D01*
Y937292D01*
X828855Y939275D01*
X827732Y940955D01*
X802486Y966202D01*
Y978520D01*
X804398D01*
X804525Y977884D01*
X805648Y976204D01*
X821251Y960600D01*
X821861Y959126D01*
X823490Y957497D01*
X825618Y956616D01*
X827922D01*
X830050Y957497D01*
X831678Y959126D01*
X832560Y961254D01*
Y963558D01*
X831678Y965686D01*
X830050Y967315D01*
X828576Y967925D01*
X817350Y979151D01*
Y997600D01*
X818404Y998120D01*
X820216D01*
X821270Y997600D01*
D02*
G37*
D17*
X574040Y1028700D02*
D03*
X554040D02*
D03*
X861060Y1035050D02*
D03*
X881060D02*
D03*
X836770Y878840D02*
D03*
X816770D02*
D03*
X815180Y840740D02*
D03*
X795180D02*
D03*
X857410Y810260D02*
D03*
X877410D02*
D03*
X971390Y822960D02*
D03*
X951390D02*
D03*
X642620Y745490D02*
D03*
X662620D02*
D03*
X970120Y855980D02*
D03*
X809310Y988060D02*
D03*
X829310D02*
D03*
X950120Y855980D02*
D03*
X867250Y988060D02*
D03*
X847250D02*
D03*
D19*
X632460Y1037430D02*
D03*
Y1017430D02*
D03*
X628650Y928210D02*
D03*
Y908210D02*
D03*
X656590Y928210D02*
D03*
Y908210D02*
D03*
X669290Y1018380D02*
D03*
Y998380D02*
D03*
X690880Y1020920D02*
D03*
Y1000920D02*
D03*
X843280Y1066960D02*
D03*
Y1086960D02*
D03*
X953770Y1080610D02*
D03*
Y1060610D02*
D03*
X881380Y928690D02*
D03*
Y948690D02*
D03*
X887730Y784700D02*
D03*
Y764700D02*
D03*
X829310Y745650D02*
D03*
Y765650D02*
D03*
X887730Y1068230D02*
D03*
Y1088230D02*
D03*
X927100Y833280D02*
D03*
X839470Y823120D02*
D03*
X909320Y943450D02*
D03*
Y923450D02*
D03*
X762620Y842540D02*
D03*
Y822540D02*
D03*
X839470Y843120D02*
D03*
X543560Y908210D02*
D03*
X594360D02*
D03*
X927100Y853280D02*
D03*
X543560Y928210D02*
D03*
X594360D02*
D03*
D20*
X867410Y834930D02*
D03*
X880110D02*
D03*
Y889730D02*
D03*
X892810D02*
D03*
X905510D02*
D03*
Y834930D02*
D03*
X892810D02*
D03*
X867410Y889730D02*
D03*
D21*
X614620Y775971D02*
D03*
X543620D02*
D03*
D22*
X718750Y821690D02*
D03*
X741750D02*
D03*
D23*
X807060Y1085850D02*
D03*
X797560D02*
D03*
X807060Y1058350D02*
D03*
X797560D02*
D03*
X788060D02*
D03*
Y1085850D02*
D03*
D24*
X770890Y1046480D02*
D03*
Y1033780D02*
D03*
Y995680D02*
D03*
Y1008380D02*
D03*
Y1021080D02*
D03*
X723646Y995680D02*
D03*
Y970280D02*
D03*
Y982980D02*
D03*
Y1046480D02*
D03*
X770890Y1059180D02*
D03*
X723646Y1008380D02*
D03*
X770890Y982980D02*
D03*
Y970280D02*
D03*
X723646Y1021080D02*
D03*
Y1033780D02*
D03*
Y1059180D02*
D03*
D25*
X780140Y940710D02*
D03*
X698140D02*
D03*
Y895710D02*
D03*
X780140D02*
D03*
D37*
X596900Y1070610D02*
D03*
X622300D02*
D03*
D40*
X571500D02*
D03*
D43*
X597462Y986155D02*
D03*
X579538Y995680D02*
D03*
X597462Y1005205D02*
D03*
D44*
X761810Y821730D02*
X762620Y822540D01*
X741790Y821730D02*
X761810D01*
X741750Y821690D02*
X741790Y821730D01*
X762620Y820580D02*
X789015D01*
X829310Y745650D02*
X830810D01*
X837320Y739140D01*
X873760D01*
X598483Y840740D02*
X662620Y776603D01*
Y745490D02*
Y776603D01*
X598483Y840740D02*
Y861100D01*
X662620Y746990D02*
X689060Y773430D01*
X713566D01*
X779780Y841124D02*
Y846171D01*
X792220Y843700D02*
Y845124D01*
Y843700D02*
X795180Y840740D01*
X879880Y948690D02*
X881380D01*
X867250Y961320D02*
X879880Y948690D01*
X867250Y961320D02*
Y988060D01*
X598483Y861100D02*
Y862643D01*
X867410Y834930D02*
Y871946D01*
X847250Y892106D02*
X867410Y871946D01*
X847250Y892106D02*
Y988060D01*
X873760Y737870D02*
X976630D01*
X779018Y835446D02*
X779402Y835830D01*
X573188Y995680D02*
Y1008052D01*
X947160Y826120D02*
X950120Y829080D01*
X667512Y1023300D02*
X678180D01*
X680278D02*
X713298D01*
X665480Y1018380D02*
Y1023460D01*
X900176Y943450D02*
Y955896D01*
Y942340D02*
Y943450D01*
X574040Y1031748D02*
X575588D01*
X780052Y845933D02*
Y851898D01*
X779402Y835830D02*
Y840746D01*
X536535Y783055D02*
X543620Y775971D01*
X536535Y783055D02*
Y790615D01*
X527050Y800100D02*
X536535Y790615D01*
X572770Y840732D02*
Y854721D01*
X594229Y876180D01*
X572219Y800203D02*
X598483Y826467D01*
X565906Y800203D02*
X572219D01*
X598483Y826467D02*
Y840740D01*
Y862643D02*
X599440Y863600D01*
X594229Y876180D02*
X610875D01*
X614805Y880110D01*
X772720D01*
X773990Y878840D01*
X816770D01*
X561443Y804666D02*
Y854169D01*
Y804666D02*
X565906Y800203D01*
X561443Y854169D02*
X591073Y883800D01*
X596980D01*
X599440Y886260D01*
X624190Y905250D02*
X627150Y908210D01*
X624190Y903750D02*
Y905250D01*
X627150Y908210D02*
X628650D01*
X802640Y1003300D02*
X904240D01*
X797306Y964056D02*
X824070Y937292D01*
X797306Y964056D02*
Y997966D01*
X802640Y1003300D01*
X807060Y1058350D02*
Y1060350D01*
X810140Y1061430D02*
X815950D01*
Y1047242D02*
X822800Y1040392D01*
X815950Y1047242D02*
Y1061430D01*
X841604Y1021588D02*
X892810D01*
X807060Y1060350D02*
X807520Y1060810D01*
X809520D02*
X810140Y1061430D01*
X807520Y1060810D02*
X809520D01*
X822800Y1040392D02*
X841604Y1021588D01*
X921512Y983742D02*
X934933Y970321D01*
X921512Y983742D02*
Y986028D01*
X904240Y1003300D02*
X921512Y986028D01*
X933450Y814386D02*
Y818024D01*
X892810Y810734D02*
Y834930D01*
X915884Y815600D02*
X924560Y806924D01*
X933450Y818024D02*
X941545Y826120D01*
X947160D01*
X897676Y815600D02*
X915884D01*
X924560Y806450D02*
Y806924D01*
Y806450D02*
X925514D01*
X933450Y814386D01*
X809310Y979866D02*
X826770Y962406D01*
X809310Y979866D02*
Y988060D01*
X918210Y1054100D02*
X930714Y1066604D01*
X938264D01*
X952270Y1080610D01*
X953770D01*
X965850Y1074880D02*
Y1088214D01*
X913892Y1042670D02*
X924111D01*
X939150Y1057709D01*
X950869D02*
X953770Y1060610D01*
X939150Y1057709D02*
X950869D01*
X965850Y1074880D02*
X980186Y1060544D01*
X892810Y1021588D02*
X913892Y1042670D01*
X940294Y1086960D02*
X944524Y1091190D01*
X962874D02*
X965850Y1088214D01*
X944524Y1091190D02*
X962874D01*
X896272Y1086960D02*
X940294D01*
X842725Y1086405D02*
X845130Y1084000D01*
X851480D01*
X852170Y1083310D01*
X866140D01*
X807520Y1086405D02*
X842725D01*
X807060Y1085945D02*
X807520Y1086405D01*
X807060Y1085850D02*
Y1085945D01*
X971390Y822960D02*
X972105Y822245D01*
X970755Y823595D02*
X971390Y822960D01*
X972105Y799545D02*
Y822245D01*
Y799545D02*
X972820Y798830D01*
X970755Y823595D02*
Y855345D01*
X970120Y855980D02*
X970755Y855345D01*
X829310Y988060D02*
X843788D01*
X816770Y855472D02*
Y878840D01*
X980186Y1060544D02*
X987552D01*
X887730Y1088230D02*
X895002D01*
X896272Y1086960D01*
X886230Y1088230D02*
X887730D01*
X901192Y1059180D02*
Y1082040D01*
X896272Y1086960D02*
X901192Y1082040D01*
X889762Y1047750D02*
X901192Y1059180D01*
X883920Y1047750D02*
X889762D01*
X881060Y1044890D02*
X883920Y1047750D01*
X881060Y1035050D02*
Y1044890D01*
X680278Y1023300D02*
Y1032764D01*
X678180Y1023300D02*
X680560Y1020920D01*
X678180Y1023300D02*
X680278D01*
X680560Y1020920D02*
X690880D01*
X953770Y1029400D02*
Y1060610D01*
Y1029400D02*
X958480Y1024690D01*
X958850D01*
X881380Y948690D02*
X892970D01*
X900176Y955896D01*
X907820Y923450D02*
X909320D01*
X892810Y908440D02*
X907820Y923450D01*
X892810Y889730D02*
Y908440D01*
X779780Y852170D02*
X780052Y851898D01*
Y845933D02*
X780861Y845124D01*
X779402Y840746D02*
X779780Y841124D01*
X976630Y737870D02*
X1019810Y781050D01*
Y761238D02*
Y781050D01*
X762620Y842540D02*
X776148D01*
X795180Y840740D02*
Y842164D01*
X792220Y845124D02*
X795180Y842164D01*
X780861Y845124D02*
X792220D01*
X776148Y842540D02*
X779780Y846171D01*
X910032Y924162D02*
X920496D01*
X909320Y923450D02*
X910032Y924162D01*
X989590Y897630D02*
Y916501D01*
X1019810Y781050D02*
Y867410D01*
X989590Y897630D02*
X1019810Y867410D01*
X963280Y923940D02*
X982150D01*
X989590Y916501D01*
X958089Y929132D02*
X963280Y923940D01*
X958088Y929132D02*
X958089D01*
X789015Y820580D02*
X807203Y802392D01*
X905510Y823930D02*
Y834930D01*
X815180Y840740D02*
X828040D01*
X830420Y843120D01*
X839470D01*
X697230Y1056640D02*
X707390Y1046480D01*
X723646D01*
X783710Y1079500D02*
X788060Y1083850D01*
X762000Y1079500D02*
X783710D01*
X788060Y1083850D02*
Y1085850D01*
X734568Y1071880D02*
X747268Y1059180D01*
X687582Y1071880D02*
X734568D01*
X667004Y1051302D02*
X687582Y1071880D01*
X690884Y1042412D02*
X699516Y1033780D01*
X617982Y1046480D02*
X622804Y1051302D01*
X699516Y1033780D02*
X723646D01*
X667932Y1042412D02*
X690884D01*
X622804Y1051302D02*
X667004D01*
X617982Y1024288D02*
Y1046480D01*
X747268Y1059180D02*
X756920D01*
X770890D01*
X744220Y1046480D02*
X756920Y1059180D01*
X892810Y810734D02*
X894700Y812624D01*
X892160Y803502D02*
Y810084D01*
X894700Y812624D02*
X897676Y815600D01*
X887730Y799071D02*
X892160Y803502D01*
Y810084D02*
X892810Y810734D01*
X950120Y828040D02*
Y829080D01*
Y828040D02*
X951390Y826770D01*
X950120Y829080D02*
Y855980D01*
X951390Y822960D02*
Y826770D01*
X887730Y784700D02*
Y799071D01*
X744220Y1016000D02*
Y1046480D01*
X698140Y940710D02*
X780140D01*
X698140Y929694D02*
Y940710D01*
X668126D02*
X698140D01*
X676656Y908210D02*
X698140Y929694D01*
X877410Y808736D02*
Y810260D01*
X839978Y794258D02*
X862932D01*
X877410Y808736D01*
X837692Y791972D02*
X839978Y794258D01*
X632460Y1017430D02*
X642206D01*
X630960D02*
X632460D01*
X624840D02*
X630960D01*
X618735Y1005205D02*
X630960Y1017430D01*
X653796Y955040D02*
X668126Y940710D01*
X653796Y955040D02*
Y1005840D01*
X656590Y908210D02*
X676656D01*
X642206Y1017430D02*
X653796Y1005840D01*
X628650Y908210D02*
X656590D01*
X617982Y1024288D02*
X624840Y1017430D01*
X597462Y1005205D02*
X618735D01*
X543560Y908210D02*
X594360D01*
X595860D01*
X599440Y904630D01*
X554040Y1027200D02*
X573188Y1008052D01*
X569378Y995680D02*
X569468D01*
X554040Y1028700D02*
Y1053150D01*
X569468Y958850D02*
Y995680D01*
X557948Y984250D02*
X569378Y995680D01*
X554040Y1027200D02*
Y1028700D01*
X569468Y995680D02*
X573188D01*
X880110Y843280D02*
X886206Y849376D01*
X880110Y834930D02*
Y843280D01*
X886206Y849376D02*
X898906D01*
X632460Y1037430D02*
X662950D01*
X667932Y1042412D01*
X905510Y895604D02*
X934933Y925027D01*
Y970321D01*
X900176Y942340D02*
X901380D01*
X887730Y928690D02*
X901380Y942340D01*
X881380Y928690D02*
X887730D01*
X905510Y889730D02*
Y895604D01*
X876830Y907781D02*
Y908132D01*
Y907781D02*
X880110Y904501D01*
Y889730D02*
Y904501D01*
X736600Y1008380D02*
X744220Y1016000D01*
X723646Y1008380D02*
X736600D01*
X665480Y1018380D02*
X669290D01*
X667512Y1023300D02*
Y1023460D01*
X665480D02*
X667512D01*
X575588Y1031748D02*
X594868D01*
X575588D02*
X577000Y1033160D01*
X574040Y1030200D02*
X575588Y1031748D01*
X597462Y986155D02*
X616585D01*
X591112D02*
X597462D01*
X574040Y1030200D02*
Y1031748D01*
X900176Y943450D02*
X909320D01*
X616585Y986155D02*
X629920Y972820D01*
X698140Y895710D02*
X736960D01*
X831425Y810260D02*
X857410D01*
X823557Y802392D02*
X831425Y810260D01*
X807203Y802392D02*
X823557D01*
X861060Y1035050D02*
Y1044194D01*
X852932Y1052322D02*
X861060Y1044194D01*
X543560Y928210D02*
X594360D01*
X629920Y950976D02*
Y972820D01*
X628650Y949706D02*
X629920Y950976D01*
X628650Y928210D02*
Y949706D01*
X594360Y928210D02*
X628650D01*
X656590D01*
X824070Y904240D02*
Y937292D01*
Y904240D02*
X836770Y891540D01*
Y878840D02*
Y891540D01*
X736960Y895710D02*
X780140D01*
X885595Y1067595D02*
X886230Y1068230D01*
X864020Y1046020D02*
X885595Y1067595D01*
X887095D01*
X843915D02*
X885595D01*
X887095D02*
X887730Y1068230D01*
X861060Y1035050D02*
X864020Y1038010D01*
Y1046020D01*
X886230Y1068230D02*
X887730D01*
X843280Y1066960D02*
X843915Y1067595D01*
X574040Y1028700D02*
Y1030200D01*
X577000Y1033160D02*
X584850D01*
X622300Y1070610D01*
X554040Y1053150D02*
X571500Y1070610D01*
X542290Y984250D02*
X557948D01*
X715518Y1021080D02*
X723646D01*
X713298Y1023300D02*
X715518Y1021080D01*
D45*
X713566Y773430D02*
X780034D01*
X599440Y863600D02*
X600793D01*
X603293Y861100D02*
X607020D01*
X600793Y863600D02*
X603293Y861100D01*
X606700Y886260D02*
X624190Y903750D01*
X599440Y886260D02*
Y904630D01*
Y886260D02*
X606700D01*
X780034Y773430D02*
X798576Y791972D01*
D46*
X837692D01*
D47*
X924560Y806450D02*
D03*
X972820Y798830D02*
D03*
X873760Y739140D02*
D03*
X599440Y863600D02*
D03*
X629920Y972820D02*
D03*
X542290Y984250D02*
D03*
D48*
X958850Y999690D02*
D03*
D49*
Y1024690D02*
D03*
D50*
X713566Y748030D02*
D03*
D51*
Y773430D02*
D03*
D52*
X779130Y835334D02*
D03*
X826770Y962406D02*
D03*
X816770Y855472D02*
D03*
X987552Y1060544D02*
D03*
X988822Y846582D02*
D03*
X824738Y1071372D02*
D03*
X838200Y1012698D02*
D03*
X680278Y1032764D02*
D03*
X779780Y852170D02*
D03*
X1019810Y761238D02*
D03*
X958088Y929132D02*
D03*
X920496Y924162D02*
D03*
X905510Y823930D02*
D03*
X690884Y1042412D02*
D03*
X898906Y849376D02*
D03*
X876830Y908132D02*
D03*
X736960Y895710D02*
D03*
X852932Y1052322D02*
D03*
X921512Y983742D02*
D03*
X594868Y1031748D02*
D03*
X569468Y958850D02*
D03*
X900176Y955896D02*
D03*
D53*
X527050Y800100D02*
D03*
X575310Y833120D02*
D03*
X918210Y1054100D02*
D03*
X866140Y1083310D02*
D03*
X697230Y1056640D02*
D03*
X762000Y1079500D02*
D03*
M02*
