G04*
G04 #@! TF.GenerationSoftware,Altium Limited,Altium Designer,26.4.1 (12)*
G04*
G04 Layer_Color=16711935*
%FSLAX44Y44*%
%MOMM*%
G71*
G04*
G04 #@! TF.SameCoordinates,8E568F4E-7303-4B6D-9CB3-4D5EDEAC2D69*
G04*
G04*
G04 #@! TF.FilePolarity,Negative*
G04*
G01*
G75*
%ADD34C,1.7032*%
%ADD35O,1.8032X1.6532*%
%ADD36R,1.8032X1.6532*%
%ADD37C,1.9900*%
%ADD38O,2.2032X1.9032*%
%ADD39R,2.2032X1.9032*%
%ADD40R,1.9900X1.9900*%
%ADD41C,0.8532*%
%ADD42C,1.4732*%
D34*
X924560Y806450D02*
D03*
X972820Y798830D02*
D03*
X873760Y739140D02*
D03*
X599440Y863600D02*
D03*
X629920Y972820D02*
D03*
X542290Y984250D02*
D03*
D35*
X958850Y999690D02*
D03*
D36*
Y1024690D02*
D03*
D37*
X596900Y1070610D02*
D03*
X622300D02*
D03*
D38*
X713566Y748030D02*
D03*
D39*
Y773430D02*
D03*
D40*
X571500Y1070610D02*
D03*
D41*
X779130Y835334D02*
D03*
X826770Y962406D02*
D03*
X816770Y855472D02*
D03*
X987552Y1060544D02*
D03*
X988822Y846582D02*
D03*
X824738Y1071372D02*
D03*
X838200Y1012698D02*
D03*
X680278Y1032764D02*
D03*
X779780Y852170D02*
D03*
X1019810Y761238D02*
D03*
X958088Y929132D02*
D03*
X920496Y924162D02*
D03*
X905510Y823930D02*
D03*
X690884Y1042412D02*
D03*
X898906Y849376D02*
D03*
X876830Y908132D02*
D03*
X736960Y895710D02*
D03*
X852932Y1052322D02*
D03*
X921512Y983742D02*
D03*
X594868Y1031748D02*
D03*
X569468Y958850D02*
D03*
X900176Y955896D02*
D03*
D42*
X527050Y800100D02*
D03*
X575310Y833120D02*
D03*
X918210Y1054100D02*
D03*
X866140Y1083310D02*
D03*
X697230Y1056640D02*
D03*
X762000Y1079500D02*
D03*
M02*
