G04*
G04 #@! TF.GenerationSoftware,Altium Limited,Altium Designer,26.5.0 (11)*
G04*
G04 Layer_Color=8388736*
G04 Board_Origin=0|0*
%FSLAX25Y25*%
%MOIN*%
G70*
G04*
G04 #@! TF.SameCoordinates,45F7CA4D-C000-4621-8C22-E4E6617E212B*
G04*
G04*
G04 #@! TF.FilePolarity,Negative*
G04*
G01*
G75*
%ADD21R,0.15748X0.07874*%
%ADD23R,0.02362X0.03937*%
%ADD26R,0.05131X0.06312*%
%ADD27R,0.06000X0.03000*%
%ADD28R,0.06312X0.05131*%
%ADD29R,0.03162X0.06784*%
%ADD30R,0.05135X0.06317*%
%ADD31R,0.05131X0.02769*%
%ADD32R,0.09400X0.03000*%
%ADD33R,0.07890X0.07496*%
%ADD34C,0.06706*%
%ADD35O,0.07099X0.06509*%
%ADD36R,0.07099X0.06509*%
%ADD37C,0.07835*%
%ADD38O,0.08674X0.07493*%
%ADD39R,0.08674X0.07493*%
%ADD40R,0.07835X0.07835*%
%ADD41C,0.03359*%
%ADD42C,0.05800*%
D21*
X241976Y305500D02*
D03*
X214024D02*
D03*
D23*
X317740Y427500D02*
D03*
X314000D02*
D03*
X317740Y416673D02*
D03*
X314000D02*
D03*
X310260D02*
D03*
Y427500D02*
D03*
D26*
X226000Y405000D02*
D03*
X218126D02*
D03*
X339000Y407500D02*
D03*
X346874D02*
D03*
X329437Y346000D02*
D03*
X321563D02*
D03*
X320937Y331000D02*
D03*
X313063D02*
D03*
X337563Y319000D02*
D03*
X345437D02*
D03*
X382437Y324000D02*
D03*
X374563D02*
D03*
X253000Y293500D02*
D03*
X381937Y337000D02*
D03*
X318626Y389000D02*
D03*
X326500D02*
D03*
X374063Y337000D02*
D03*
X341437Y389000D02*
D03*
X333563D02*
D03*
D27*
X235221Y388250D02*
D03*
X228164Y392000D02*
D03*
X235221Y395750D02*
D03*
D28*
X249000Y408437D02*
D03*
Y400563D02*
D03*
X247500Y365437D02*
D03*
Y357563D02*
D03*
X258500Y365437D02*
D03*
Y357563D02*
D03*
X263500Y400937D02*
D03*
Y393063D02*
D03*
X272000Y401937D02*
D03*
Y394063D02*
D03*
X332000Y420063D02*
D03*
Y427937D02*
D03*
X375500Y425437D02*
D03*
Y417563D02*
D03*
X347000Y365626D02*
D03*
Y373500D02*
D03*
X349500Y308937D02*
D03*
Y301063D02*
D03*
X326500Y293563D02*
D03*
Y301437D02*
D03*
X349500Y420563D02*
D03*
Y428437D02*
D03*
X365000Y328063D02*
D03*
X330500Y324063D02*
D03*
X358000Y371437D02*
D03*
Y363563D02*
D03*
X300244Y331709D02*
D03*
Y323835D02*
D03*
X330500Y331937D02*
D03*
X214000Y357563D02*
D03*
X234000D02*
D03*
X365000Y335937D02*
D03*
X214000Y365437D02*
D03*
X234000D02*
D03*
D29*
X341500Y328713D02*
D03*
X346500D02*
D03*
Y350287D02*
D03*
X351500D02*
D03*
X356500D02*
D03*
Y328713D02*
D03*
X351500D02*
D03*
X341500Y350287D02*
D03*
D30*
X260874Y293500D02*
D03*
D31*
X282972Y323500D02*
D03*
X292028D02*
D03*
D32*
X303500Y412000D02*
D03*
Y407000D02*
D03*
Y392000D02*
D03*
Y397000D02*
D03*
Y402000D02*
D03*
X284900Y392000D02*
D03*
Y382000D02*
D03*
Y387000D02*
D03*
Y412000D02*
D03*
X303500Y417000D02*
D03*
X284900Y397000D02*
D03*
X303500Y387000D02*
D03*
Y382000D02*
D03*
X284900Y402000D02*
D03*
Y407000D02*
D03*
Y417000D02*
D03*
D33*
X307142Y370358D02*
D03*
X274858D02*
D03*
Y352642D02*
D03*
X307142D02*
D03*
D34*
X364000Y317500D02*
D03*
X383000Y314500D02*
D03*
X344000Y291000D02*
D03*
X236000Y340000D02*
D03*
X248000Y383000D02*
D03*
X213500Y387500D02*
D03*
D35*
X377500Y393579D02*
D03*
D36*
Y403421D02*
D03*
D37*
X235000Y421500D02*
D03*
X245000D02*
D03*
D38*
X280932Y294500D02*
D03*
D39*
Y304500D02*
D03*
D40*
X225000Y421500D02*
D03*
D41*
X306744Y328872D02*
D03*
X325500Y378900D02*
D03*
X321563Y336800D02*
D03*
X388800Y417537D02*
D03*
X389300Y333300D02*
D03*
X324700Y421800D02*
D03*
X330000Y398700D02*
D03*
X267826Y406600D02*
D03*
X307000Y335500D02*
D03*
X377200Y365800D02*
D03*
X362400Y363843D02*
D03*
X356500Y324382D02*
D03*
X272001Y410399D02*
D03*
X353900Y334400D02*
D03*
X345209Y357532D02*
D03*
X290142Y352642D02*
D03*
X335800Y414300D02*
D03*
X362800Y387300D02*
D03*
X234200Y406200D02*
D03*
X224200Y377500D02*
D03*
X354400Y376337D02*
D03*
D42*
X207500Y315000D02*
D03*
X226500Y328000D02*
D03*
X361500Y415000D02*
D03*
X341000Y426500D02*
D03*
X274500Y416000D02*
D03*
X300000Y425000D02*
D03*
M02*
