G04*
G04 #@! TF.GenerationSoftware,Altium Limited,Altium Designer,26.4.1 (12)*
G04*
G04 Layer_Physical_Order=2*
G04 Layer_Color=16711680*
%FSLAX44Y44*%
%MOMM*%
G71*
G04*
G04 #@! TF.SameCoordinates,8E568F4E-7303-4B6D-9CB3-4D5EDEAC2D69*
G04*
G04*
G04 #@! TF.FilePolarity,Positive*
G04*
G01*
G75*
%ADD37C,1.9900*%
%ADD40R,1.9900X1.9900*%
%ADD44C,0.5080*%
%ADD47C,1.5000*%
%ADD48O,1.6000X1.4500*%
%ADD49R,1.6000X1.4500*%
%ADD50O,2.0000X1.7000*%
%ADD51R,2.0000X1.7000*%
%ADD52C,0.6500*%
%ADD53C,1.2700*%
G36*
X1015449Y1104468D02*
X1019419Y1103264D01*
X1023079Y1101308D01*
X1026286Y1098676D01*
X1028918Y1095469D01*
X1029685Y1094034D01*
X1030408Y1091649D01*
X1030798Y1087687D01*
X1030765Y1087520D01*
Y738350D01*
X1030798Y738183D01*
X1030484Y734991D01*
X1028918Y732061D01*
X1026286Y728854D01*
X1023079Y726222D01*
X1019419Y724266D01*
X1015449Y723062D01*
X1011487Y722672D01*
X1011320Y722705D01*
X535540D01*
X535373Y722672D01*
X531411Y723062D01*
X527441Y724266D01*
X523781Y726222D01*
X520574Y728854D01*
X519377Y730312D01*
X518192Y734221D01*
X517802Y738183D01*
X517835Y738350D01*
Y795741D01*
X519105Y796082D01*
X519936Y794641D01*
X521591Y792986D01*
X523619Y791816D01*
X525880Y791210D01*
X528220D01*
X530481Y791816D01*
X532509Y792986D01*
X534164Y794641D01*
X534782Y795713D01*
X543082D01*
X545064Y796107D01*
X546744Y797230D01*
X564748Y815234D01*
X573828Y824313D01*
X574140Y824230D01*
X576480D01*
X578741Y824836D01*
X580769Y826006D01*
X582424Y827661D01*
X583594Y829689D01*
X584200Y831950D01*
Y834290D01*
X583594Y836551D01*
X582424Y838579D01*
X580769Y840234D01*
X578741Y841404D01*
X576480Y842010D01*
X574140D01*
X571879Y841404D01*
X569851Y840234D01*
X568196Y838579D01*
X567536Y837434D01*
X566265Y837775D01*
Y936304D01*
X567439Y936790D01*
X623464Y880766D01*
X625144Y879643D01*
X627126Y879249D01*
X830467D01*
X841434Y868281D01*
X833805Y860651D01*
X819396D01*
X817922Y861262D01*
X815618D01*
X813490Y860380D01*
X811861Y858752D01*
X810980Y856624D01*
Y854320D01*
X811861Y852192D01*
X813490Y850564D01*
X815618Y849682D01*
X817922D01*
X819396Y850293D01*
X835951D01*
X837933Y850687D01*
X839613Y851809D01*
X848759Y860956D01*
X857906Y851810D01*
X857906Y851809D01*
X859586Y850687D01*
X861568Y850293D01*
X873901D01*
X885006Y839187D01*
X884506Y838020D01*
X784959Y840377D01*
Y849545D01*
X785570Y851018D01*
Y853322D01*
X784688Y855450D01*
X783060Y857078D01*
X780932Y857960D01*
X778628D01*
X776500Y857078D01*
X774872Y855450D01*
X773990Y853322D01*
Y851018D01*
X774601Y849545D01*
Y838992D01*
X774222Y838614D01*
X773340Y836486D01*
Y834182D01*
X774222Y832054D01*
X775851Y830425D01*
X777979Y829544D01*
X780282D01*
X781610Y830094D01*
X876848Y827839D01*
X876833Y826569D01*
X867029D01*
X867029Y826569D01*
X867029Y826569D01*
X866142Y826393D01*
X865047Y826175D01*
X865047Y826175D01*
X865047Y826175D01*
X864371Y825723D01*
X863366Y825052D01*
X863366Y825052D01*
X863366Y825052D01*
X859342Y821028D01*
X825536D01*
X821264Y825301D01*
X821264Y825301D01*
X821264Y825301D01*
X820259Y825972D01*
X819584Y826423D01*
X819583Y826423D01*
X819583Y826423D01*
X818488Y826641D01*
X817601Y826818D01*
X817601Y826818D01*
X817601Y826818D01*
X761774D01*
X759792Y826423D01*
X758112Y825301D01*
X717364Y784553D01*
X717309Y784470D01*
X701026D01*
Y762390D01*
X726106D01*
Y778645D01*
X763920Y816459D01*
X815456D01*
X819728Y812186D01*
X819728Y812186D01*
X819728Y812186D01*
X820732Y811515D01*
X821408Y811063D01*
X821408Y811063D01*
X821409Y811063D01*
X822504Y810845D01*
X823391Y810668D01*
X823391Y810668D01*
X823391Y810668D01*
X861488D01*
X861488Y810668D01*
X861488Y810668D01*
X862375Y810845D01*
X863470Y811063D01*
X863470Y811063D01*
X863470Y811063D01*
X864146Y811515D01*
X865150Y812186D01*
X865150Y812186D01*
X865150Y812186D01*
X869174Y816210D01*
X892170D01*
X892650Y816306D01*
X893139Y816302D01*
X903865Y818344D01*
X904358Y818140D01*
X906662D01*
X908790Y819022D01*
X910418Y820650D01*
X911300Y822779D01*
Y823316D01*
X912413Y823927D01*
X922398Y817580D01*
X922188Y816208D01*
X920685Y815806D01*
X918395Y814484D01*
X916526Y812615D01*
X915204Y810325D01*
X914520Y807772D01*
Y805128D01*
X915204Y802575D01*
X916526Y800285D01*
X918395Y798416D01*
X920685Y797094D01*
X923238Y796410D01*
X924452D01*
X925034Y795140D01*
X901387Y767742D01*
X900063Y766417D01*
X898000D01*
X897019Y766223D01*
X896035Y766031D01*
X892405Y764542D01*
X892397Y764537D01*
X892388Y764535D01*
X891556Y763979D01*
X890721Y763426D01*
X890716Y763418D01*
X890708Y763412D01*
X876181Y748886D01*
X875082Y749180D01*
X872438D01*
X869885Y748496D01*
X867595Y747174D01*
X865726Y745305D01*
X864404Y743015D01*
X863720Y740462D01*
Y737818D01*
X864404Y735265D01*
X865726Y732975D01*
X867595Y731106D01*
X869885Y729784D01*
X872438Y729100D01*
X875082D01*
X877635Y729784D01*
X879925Y731106D01*
X881794Y732975D01*
X883116Y735265D01*
X883800Y737818D01*
Y740462D01*
X884815Y741581D01*
X1005332D01*
X1007314Y741975D01*
X1008995Y743098D01*
X1021616Y755719D01*
X1023090Y756329D01*
X1024718Y757958D01*
X1025600Y760086D01*
Y762390D01*
X1024718Y764518D01*
X1023090Y766146D01*
X1020962Y767028D01*
X1018658D01*
X1016530Y766146D01*
X1014902Y764518D01*
X1014291Y763044D01*
X1003187Y751939D01*
X895544D01*
X895058Y753113D01*
X897297Y755352D01*
X899020Y756059D01*
X902208D01*
X904190Y756453D01*
X905871Y757576D01*
X908846Y760551D01*
X908953Y760711D01*
X909105Y760830D01*
X941061Y797855D01*
X941468Y798572D01*
X941925Y799257D01*
X941963Y799446D01*
X942058Y799613D01*
X942159Y800431D01*
X942320Y801239D01*
Y811661D01*
X942320Y811661D01*
X941925Y813643D01*
X940803Y815323D01*
X933434Y822693D01*
X932961Y823008D01*
X932550Y823401D01*
X914942Y834595D01*
X915296Y835815D01*
X928511D01*
X963074Y801251D01*
X962780Y800152D01*
Y797508D01*
X963464Y794955D01*
X964786Y792665D01*
X966655Y790796D01*
X968945Y789474D01*
X971498Y788790D01*
X974142D01*
X976695Y789474D01*
X978985Y790796D01*
X980854Y792665D01*
X982176Y794955D01*
X982860Y797508D01*
Y800152D01*
X982176Y802705D01*
X980854Y804995D01*
X978985Y806864D01*
X976695Y808186D01*
X974142Y808870D01*
X971498D01*
X970399Y808576D01*
X934318Y844657D01*
X932638Y845779D01*
X930656Y846173D01*
X904989D01*
X904284Y847230D01*
X904696Y848224D01*
Y850528D01*
X904085Y852001D01*
Y951617D01*
X905085Y952616D01*
X905966Y954744D01*
Y957048D01*
X905085Y959176D01*
X903456Y960805D01*
X902513Y961195D01*
X902265Y962441D01*
X904464Y964639D01*
X919369D01*
X921351Y965033D01*
X923032Y966156D01*
X933505Y976629D01*
X933505Y976629D01*
X934627Y978309D01*
X935022Y980292D01*
X935022Y980292D01*
Y1010349D01*
X934843Y1011246D01*
X934627Y1012331D01*
X934627Y1012331D01*
X933505Y1014012D01*
X923390Y1024126D01*
Y1046825D01*
X923669Y1046986D01*
X925324Y1048641D01*
X926494Y1050669D01*
X927100Y1052930D01*
Y1055270D01*
X926494Y1057531D01*
X925324Y1059559D01*
X923669Y1061214D01*
X921641Y1062384D01*
X919380Y1062990D01*
X917040D01*
X914779Y1062384D01*
X912751Y1061214D01*
X911096Y1059559D01*
X910935Y1059279D01*
X897495D01*
X874947Y1081828D01*
X875030Y1082140D01*
Y1084480D01*
X874424Y1086741D01*
X873254Y1088769D01*
X871599Y1090424D01*
X869571Y1091594D01*
X867310Y1092200D01*
X864970D01*
X862709Y1091594D01*
X860681Y1090424D01*
X859026Y1088769D01*
X857856Y1086741D01*
X857250Y1084480D01*
Y1082140D01*
X857856Y1079879D01*
X859026Y1077851D01*
X860681Y1076196D01*
X862709Y1075026D01*
X864970Y1074420D01*
X867310D01*
X867622Y1074503D01*
X891687Y1050437D01*
X893368Y1049315D01*
X895350Y1048921D01*
X895350Y1048921D01*
X910935D01*
X911096Y1048641D01*
X912751Y1046986D01*
X913030Y1046825D01*
Y1021981D01*
X913425Y1019999D01*
X913425Y1019998D01*
X914548Y1018318D01*
X924663Y1008204D01*
Y989847D01*
X923607Y989141D01*
X923318Y989261D01*
X858451Y1054128D01*
X857840Y1055602D01*
X856212Y1057231D01*
X854084Y1058112D01*
X851780D01*
X849652Y1057231D01*
X848024Y1055602D01*
X847142Y1053474D01*
Y1051170D01*
X848024Y1049042D01*
X849652Y1047413D01*
X851126Y1046803D01*
X915993Y981936D01*
X916603Y980462D01*
X918232Y978833D01*
X919175Y978443D01*
X919423Y977197D01*
X917224Y974998D01*
X902319D01*
X902319Y974998D01*
X900337Y974604D01*
X900337Y974604D01*
X898656Y973481D01*
X898656Y973481D01*
X887624Y962449D01*
X887624Y962449D01*
X886952Y961444D01*
X886501Y960769D01*
X886501Y960769D01*
X886501Y960769D01*
X886226Y959385D01*
X884931Y959385D01*
X884895Y959562D01*
X883773Y961243D01*
X839280Y1005735D01*
X839742Y1007069D01*
X841480Y1007790D01*
X843109Y1009418D01*
X843224Y1009698D01*
X838200D01*
Y1015698D01*
X843224D01*
X843109Y1015978D01*
X841480Y1017607D01*
X840006Y1018217D01*
X829918Y1028305D01*
Y1068372D01*
X819558D01*
Y1027253D01*
X818288Y1026727D01*
X798936Y1046078D01*
X797256Y1047201D01*
X795274Y1047596D01*
X701885D01*
X701544Y1048866D01*
X702689Y1049526D01*
X704344Y1051181D01*
X705514Y1053209D01*
X706120Y1055470D01*
Y1057810D01*
X706037Y1058122D01*
X722235Y1074321D01*
X754725D01*
X754886Y1074041D01*
X756541Y1072386D01*
X758569Y1071216D01*
X760830Y1070610D01*
X763170D01*
X765431Y1071216D01*
X767459Y1072386D01*
X769114Y1074041D01*
X770284Y1076069D01*
X770890Y1078330D01*
Y1080670D01*
X770284Y1082931D01*
X769114Y1084959D01*
X767459Y1086614D01*
X765431Y1087784D01*
X763170Y1088390D01*
X760830D01*
X758569Y1087784D01*
X756541Y1086614D01*
X754886Y1084959D01*
X754725Y1084679D01*
X720090D01*
X718108Y1084285D01*
X716428Y1083163D01*
X698712Y1065447D01*
X698400Y1065530D01*
X696060D01*
X693799Y1064924D01*
X691771Y1063754D01*
X690116Y1062099D01*
X688946Y1060071D01*
X688340Y1057810D01*
Y1055470D01*
X688946Y1053209D01*
X690116Y1051181D01*
X691771Y1049526D01*
X691864Y1049473D01*
X691524Y1048203D01*
X689732D01*
X687604Y1047321D01*
X685975Y1045692D01*
X685094Y1043564D01*
Y1041261D01*
X685975Y1039133D01*
X685991Y1039117D01*
X685505Y1037943D01*
X682904D01*
X681430Y1038554D01*
X679126D01*
X676998Y1037673D01*
X675369Y1036044D01*
X674488Y1033916D01*
Y1031612D01*
X675369Y1029484D01*
X676998Y1027856D01*
X679126Y1026974D01*
X681430D01*
X682904Y1027585D01*
X776001D01*
X831243Y972343D01*
Y967781D01*
X830069Y967295D01*
X830050Y967315D01*
X827922Y968196D01*
X825618D01*
X823490Y967315D01*
X821861Y965686D01*
X821251Y964212D01*
X821069Y964029D01*
X637124D01*
X636598Y965300D01*
X637954Y966655D01*
X639276Y968945D01*
X639960Y971498D01*
Y974142D01*
X639276Y976695D01*
X637954Y978985D01*
X636085Y980854D01*
X633795Y982176D01*
X631242Y982860D01*
X628598D01*
X626045Y982176D01*
X623755Y980854D01*
X621886Y978985D01*
X621660Y978593D01*
X620192Y978443D01*
X600047Y998587D01*
Y1029122D01*
X600658Y1030596D01*
Y1032900D01*
X599776Y1035028D01*
X598148Y1036656D01*
X596020Y1037538D01*
X593716D01*
X591588Y1036656D01*
X589959Y1035028D01*
X589078Y1032900D01*
Y1030596D01*
X589688Y1029122D01*
Y996442D01*
X590083Y994460D01*
X591205Y992779D01*
X614827Y969157D01*
X616508Y968035D01*
X618490Y967641D01*
X618490Y967641D01*
X621317D01*
X621886Y966655D01*
X623242Y965300D01*
X622716Y964029D01*
X572094D01*
X570620Y964640D01*
X568316D01*
X567322Y964228D01*
X566265Y964933D01*
Y1016141D01*
X600563Y1050437D01*
X601685Y1052118D01*
X602080Y1054100D01*
Y1059178D01*
X604569Y1060615D01*
X606894Y1062941D01*
X608539Y1065789D01*
X608943Y1067296D01*
X610257D01*
X610661Y1065789D01*
X612305Y1062941D01*
X614631Y1060615D01*
X617479Y1058971D01*
X620656Y1058120D01*
X623944D01*
X627121Y1058971D01*
X629969Y1060615D01*
X632295Y1062941D01*
X633939Y1065789D01*
X634790Y1068966D01*
Y1072254D01*
X633939Y1075431D01*
X632295Y1078279D01*
X629969Y1080604D01*
X627121Y1082249D01*
X623944Y1083100D01*
X620656D01*
X617479Y1082249D01*
X614631Y1080604D01*
X612305Y1078279D01*
X610661Y1075431D01*
X610257Y1073924D01*
X608943D01*
X608539Y1075431D01*
X606894Y1078279D01*
X604569Y1080604D01*
X601721Y1082249D01*
X598544Y1083100D01*
X595256D01*
X592079Y1082249D01*
X589231Y1080604D01*
X586906Y1078279D01*
X585261Y1075431D01*
X585260Y1075426D01*
X583990Y1075594D01*
Y1083100D01*
X559010D01*
Y1058120D01*
X583990D01*
Y1065626D01*
X585260Y1065794D01*
X585261Y1065789D01*
X586906Y1062941D01*
X588842Y1061005D01*
X589053Y1059419D01*
X557424Y1027791D01*
X556301Y1026110D01*
X555906Y1024128D01*
Y1018286D01*
Y950468D01*
Y821041D01*
X540937Y806071D01*
X533651D01*
X532509Y807214D01*
X530481Y808384D01*
X528220Y808990D01*
X525880D01*
X523619Y808384D01*
X521591Y807214D01*
X519936Y805559D01*
X519105Y804118D01*
X517835Y804459D01*
Y1087520D01*
X517802Y1087687D01*
X518192Y1091649D01*
X519396Y1095619D01*
X521352Y1099279D01*
X521442Y1099388D01*
X523781Y1101308D01*
X527441Y1103264D01*
X531411Y1104468D01*
X535373Y1104858D01*
X535540Y1104825D01*
X1011320D01*
X1011487Y1104858D01*
X1015449Y1104468D01*
D02*
G37*
G36*
X821982Y952497D02*
X770375Y900890D01*
X739586D01*
X738112Y901500D01*
X735808D01*
X733680Y900619D01*
X732052Y898990D01*
X731170Y896862D01*
Y894558D01*
X732052Y892430D01*
X733605Y890878D01*
X733573Y890508D01*
X733245Y889607D01*
X629271D01*
X567089Y951789D01*
X567128Y952178D01*
X568316Y953060D01*
X570620D01*
X572094Y953671D01*
X821496D01*
X821982Y952497D01*
D02*
G37*
G36*
X874930Y955435D02*
Y936834D01*
X873168Y935070D01*
X872583Y934195D01*
X872045Y933391D01*
X872045Y933390D01*
X872045Y933390D01*
X871847Y932394D01*
X871651Y931408D01*
Y910758D01*
X871040Y909284D01*
Y906981D01*
X871922Y904853D01*
X873551Y903224D01*
X874493Y902833D01*
X874741Y901588D01*
X848759Y875606D01*
X836274Y888091D01*
X834594Y889213D01*
X832612Y889607D01*
X774389D01*
X774264Y890878D01*
X774502Y890925D01*
X776183Y892048D01*
X840085Y955949D01*
X841207Y957630D01*
X841601Y959612D01*
Y974489D01*
X841207Y976471D01*
X840085Y978151D01*
X782269Y1035966D01*
X782795Y1037236D01*
X793129D01*
X874930Y955435D01*
D02*
G37*
G36*
X893727Y904264D02*
Y852001D01*
X893116Y850528D01*
Y848224D01*
X892234Y847036D01*
X891845Y846997D01*
X879708Y859135D01*
X878028Y860257D01*
X876046Y860651D01*
X863713D01*
X856084Y868281D01*
X892553Y904750D01*
X893727Y904264D01*
D02*
G37*
%LPC*%
G36*
X827738Y1076396D02*
Y1074372D01*
X829762D01*
X829647Y1074652D01*
X828018Y1076281D01*
X827738Y1076396D01*
D02*
G37*
G36*
X821738D02*
X821458Y1076281D01*
X819829Y1074652D01*
X819714Y1074372D01*
X821738D01*
Y1076396D01*
D02*
G37*
G36*
X969390Y1034480D02*
X948310D01*
Y1014900D01*
X969390D01*
Y1034480D01*
D02*
G37*
G36*
X961850Y1009268D02*
Y1002690D01*
X968954D01*
X968151Y1004627D01*
X966582Y1006673D01*
X964537Y1008242D01*
X962156Y1009228D01*
X961850Y1009268D01*
D02*
G37*
G36*
X955850D02*
X955544Y1009228D01*
X953163Y1008242D01*
X951118Y1006673D01*
X949548Y1004627D01*
X948746Y1002690D01*
X955850D01*
Y1009268D01*
D02*
G37*
G36*
X968954Y996690D02*
X961850D01*
Y990112D01*
X962156Y990152D01*
X964537Y991139D01*
X966582Y992708D01*
X968151Y994753D01*
X968954Y996690D01*
D02*
G37*
G36*
X955850D02*
X948746D01*
X949548Y994753D01*
X951118Y992708D01*
X953163Y991139D01*
X955544Y990152D01*
X955850Y990112D01*
Y996690D01*
D02*
G37*
G36*
X543612Y994290D02*
X540968D01*
X538415Y993606D01*
X536125Y992284D01*
X534256Y990415D01*
X532934Y988125D01*
X532250Y985572D01*
Y982928D01*
X532934Y980375D01*
X534256Y978085D01*
X536125Y976216D01*
X538415Y974894D01*
X540968Y974210D01*
X543612D01*
X546165Y974894D01*
X548455Y976216D01*
X550324Y978085D01*
X551646Y980375D01*
X552330Y982928D01*
Y985572D01*
X551646Y988125D01*
X550324Y990415D01*
X548455Y992284D01*
X546165Y993606D01*
X543612Y994290D01*
D02*
G37*
G36*
X959240Y934922D02*
X956936D01*
X955462Y934312D01*
X925466D01*
X923484Y933917D01*
X921803Y932794D01*
X918690Y929681D01*
X917216Y929071D01*
X915587Y927442D01*
X914706Y925314D01*
Y923010D01*
X915587Y920882D01*
X917216Y919254D01*
X919344Y918372D01*
X921648D01*
X923776Y919254D01*
X925405Y920882D01*
X926015Y922356D01*
X927611Y923952D01*
X955462D01*
X956936Y923342D01*
X959240D01*
X961368Y924223D01*
X962997Y925852D01*
X963878Y927980D01*
Y930284D01*
X962997Y932412D01*
X961368Y934041D01*
X959240Y934922D01*
D02*
G37*
G36*
X600762Y873640D02*
X598118D01*
X595565Y872956D01*
X593275Y871634D01*
X591406Y869765D01*
X590084Y867475D01*
X589400Y864922D01*
Y862278D01*
X590084Y859725D01*
X591406Y857435D01*
X593275Y855566D01*
X595565Y854244D01*
X598118Y853560D01*
X600762D01*
X603315Y854244D01*
X605605Y855566D01*
X607474Y857435D01*
X608796Y859725D01*
X609480Y862278D01*
Y864922D01*
X608796Y867475D01*
X607474Y869765D01*
X605605Y871634D01*
X603315Y872956D01*
X600762Y873640D01*
D02*
G37*
G36*
X988822Y1070804D02*
X986840Y1070409D01*
X985160Y1069286D01*
X984037Y1067606D01*
X983643Y1065624D01*
Y1064823D01*
X982644Y1063824D01*
X982528Y1063544D01*
X987552D01*
Y1057544D01*
X982528D01*
X982644Y1057264D01*
X983643Y1056265D01*
Y849582D01*
X994001D01*
Y1065624D01*
X993607Y1067606D01*
X992485Y1069286D01*
X990804Y1070409D01*
X988822Y1070804D01*
D02*
G37*
G36*
X993846Y843582D02*
X991822D01*
Y841558D01*
X992102Y841674D01*
X993730Y843302D01*
X993846Y843582D01*
D02*
G37*
G36*
X985822D02*
X983798D01*
X983913Y843302D01*
X985542Y841674D01*
X985822Y841558D01*
Y843582D01*
D02*
G37*
G36*
X716566Y758968D02*
Y751030D01*
X725773D01*
X724710Y753598D01*
X722940Y755904D01*
X720634Y757673D01*
X717948Y758786D01*
X716566Y758968D01*
D02*
G37*
G36*
X710566D02*
X709184Y758786D01*
X706499Y757673D01*
X704192Y755904D01*
X702423Y753598D01*
X701359Y751030D01*
X710566D01*
Y758968D01*
D02*
G37*
G36*
X725773Y745030D02*
X716566D01*
Y737092D01*
X717948Y737274D01*
X720634Y738387D01*
X722940Y740156D01*
X724710Y742462D01*
X725773Y745030D01*
D02*
G37*
G36*
X710566D02*
X701359D01*
X702423Y742462D01*
X704192Y740156D01*
X706499Y738387D01*
X709184Y737274D01*
X710566Y737092D01*
Y745030D01*
D02*
G37*
%LPD*%
D37*
X596900Y1070610D02*
D03*
X622300D02*
D03*
D40*
X571500D02*
D03*
D44*
X988822Y846582D02*
Y1065624D01*
X832612Y884428D02*
X861568Y855472D01*
X835951D02*
X891286Y910807D01*
X816770Y855472D02*
X835951D01*
X891286Y910807D02*
Y958786D01*
X902319Y969819D01*
X919369D01*
X929842Y980292D01*
Y1010349D01*
X918210Y1021981D02*
X929842Y1010349D01*
X918210Y1021981D02*
Y1054100D01*
X561086Y818896D02*
X575310Y833120D01*
X898906Y849376D02*
Y954786D01*
X779130Y835334D02*
X779780Y835984D01*
X779130Y835334D02*
X908960Y832260D01*
X543082Y800892D02*
X561086Y818896D01*
X527842Y800892D02*
X543082D01*
X527050Y800100D02*
X527842Y800892D01*
X561086Y818896D02*
Y950468D01*
Y1024128D02*
X596900Y1059942D01*
X561086Y1018286D02*
Y1024128D01*
X772520Y895710D02*
X836422Y959612D01*
Y974489D01*
X736960Y895710D02*
X772520D01*
X569468Y958850D02*
X823214D01*
X826770Y962406D01*
X778147Y1032764D02*
X836422Y974489D01*
X881380Y746760D02*
X894370Y759750D01*
X881380Y746760D02*
X1005332D01*
X873760Y739140D02*
X881380Y746760D01*
X1005332D02*
X1019810Y761238D01*
X898000D02*
X902208D01*
X894370Y759750D02*
X898000Y761238D01*
X715066Y773430D02*
X721026Y779390D01*
Y780890D02*
X761774Y821638D01*
X713566Y773430D02*
X715066D01*
X761774Y821638D02*
X817601D01*
X721026Y779390D02*
Y780890D01*
X895350Y1054100D02*
X918210D01*
X866140Y1083310D02*
X895350Y1054100D01*
X596900Y1059942D02*
Y1070610D01*
Y1054100D02*
Y1059942D01*
X861568Y855472D02*
X876046D01*
X930656Y840994D02*
X972820Y798830D01*
X876046Y855472D02*
X890524Y840994D01*
X930656D01*
X561086Y1018286D02*
X596900Y1054100D01*
X561086Y950468D02*
Y1018286D01*
X627126Y884428D02*
X832612D01*
X561086Y950468D02*
X627126Y884428D01*
X824738Y1026160D02*
X838200Y1012698D01*
X824738Y1026160D02*
Y1071372D01*
X779780Y835984D02*
Y852170D01*
X908960Y832260D02*
X929771Y819030D01*
X937140Y801239D02*
Y811661D01*
X929771Y819030D02*
X937140Y811661D01*
X905184Y764214D02*
X937140Y801239D01*
X902208Y761238D02*
X905184Y764214D01*
X925466Y929132D02*
X958088D01*
X920496Y924162D02*
X925466Y929132D01*
X892170Y821390D02*
X905510Y823930D01*
X817601Y821638D02*
X823391Y815848D01*
X867029Y821390D02*
X892170D01*
X720090Y1079500D02*
X762000D01*
X697230Y1056640D02*
X720090Y1079500D01*
X690887Y1042416D02*
X795274D01*
X680278Y1032764D02*
X778147D01*
X690884Y1042412D02*
X690887Y1042416D01*
X876830Y908132D02*
Y931408D01*
X880110Y934688D01*
X795274Y1042416D02*
X880110Y957580D01*
Y934688D02*
Y957580D01*
X823391Y815848D02*
X861488D01*
X867029Y821390D01*
X852932Y1052322D02*
X921512Y983742D01*
X618490Y972820D02*
X629920D01*
X594868Y996442D02*
X618490Y972820D01*
X594868Y996442D02*
Y1031748D01*
D47*
X924560Y806450D02*
D03*
X972820Y798830D02*
D03*
X873760Y739140D02*
D03*
X599440Y863600D02*
D03*
X629920Y972820D02*
D03*
X542290Y984250D02*
D03*
D48*
X958850Y999690D02*
D03*
D49*
Y1024690D02*
D03*
D50*
X713566Y748030D02*
D03*
D51*
Y773430D02*
D03*
D52*
X779130Y835334D02*
D03*
X826770Y962406D02*
D03*
X816770Y855472D02*
D03*
X987552Y1060544D02*
D03*
X988822Y846582D02*
D03*
X824738Y1071372D02*
D03*
X838200Y1012698D02*
D03*
X680278Y1032764D02*
D03*
X779780Y852170D02*
D03*
X1019810Y761238D02*
D03*
X958088Y929132D02*
D03*
X920496Y924162D02*
D03*
X905510Y823930D02*
D03*
X690884Y1042412D02*
D03*
X898906Y849376D02*
D03*
X876830Y908132D02*
D03*
X736960Y895710D02*
D03*
X852932Y1052322D02*
D03*
X921512Y983742D02*
D03*
X594868Y1031748D02*
D03*
X569468Y958850D02*
D03*
X900176Y955896D02*
D03*
D53*
X527050Y800100D02*
D03*
X575310Y833120D02*
D03*
X918210Y1054100D02*
D03*
X866140Y1083310D02*
D03*
X697230Y1056640D02*
D03*
X762000Y1079500D02*
D03*
M02*
