G04*
G04 #@! TF.GenerationSoftware,Altium Limited,Altium Designer,26.5.0 (11)*
G04*
G04 Layer_Physical_Order=2*
G04 Layer_Color=16711680*
G04 Board_Origin=0|0*
%FSLAX25Y25*%
%MOIN*%
G70*
G04*
G04 #@! TF.SameCoordinates,A3810AA2-BE36-4E54-B971-4CCF84F77904*
G04*
G04*
G04 #@! TF.FilePolarity,Positive*
G04*
G01*
G75*
%ADD29C,0.07835*%
%ADD30R,0.07835X0.07835*%
%ADD34C,0.02000*%
%ADD35O,0.07874X0.06693*%
%ADD36R,0.07874X0.06693*%
%ADD37C,0.05906*%
%ADD38R,0.05100X0.05100*%
%ADD39C,0.05100*%
%ADD40C,0.06299*%
%ADD41R,0.06299X0.06299*%
%ADD42C,0.02559*%
G36*
X409528Y444837D02*
X410996Y444392D01*
X412350Y443668D01*
X413500Y442725D01*
Y182914D01*
X413411Y182806D01*
X412224Y181832D01*
X410871Y181108D01*
X409402Y180663D01*
X408365Y180561D01*
X407874Y180539D01*
Y180539D01*
X219568D01*
X219416Y181039D01*
X220102Y181498D01*
X223055Y184450D01*
X224033D01*
X225063Y184726D01*
X225987Y185259D01*
X226741Y186013D01*
X227274Y186937D01*
X227550Y187967D01*
Y189033D01*
X227274Y190063D01*
X226741Y190987D01*
X225987Y191741D01*
X225063Y192274D01*
X224033Y192550D01*
X222967D01*
X221937Y192274D01*
X221013Y191741D01*
X220259Y190987D01*
X219726Y190063D01*
X219450Y189033D01*
Y188055D01*
X217597Y186202D01*
X217439Y186223D01*
X217173Y186762D01*
X217274Y186937D01*
X217550Y187967D01*
Y189033D01*
X217274Y190063D01*
X216741Y190987D01*
X215987Y191741D01*
X215063Y192274D01*
X214033Y192550D01*
X213055D01*
X190800Y214805D01*
X191107Y215205D01*
X191937Y214726D01*
X192967Y214450D01*
X194033D01*
X195063Y214726D01*
X195987Y215259D01*
X196741Y216013D01*
X197274Y216937D01*
X197550Y217967D01*
Y219033D01*
X197274Y220063D01*
X196741Y220987D01*
X195987Y221741D01*
X195063Y222274D01*
X194033Y222550D01*
X192967D01*
X191937Y222274D01*
X191013Y221741D01*
X190259Y220987D01*
X189726Y220063D01*
X189450Y219033D01*
Y217967D01*
X189726Y216937D01*
X190205Y216107D01*
X189805Y215800D01*
X173302Y232302D01*
X170449Y235156D01*
Y258460D01*
X170949Y258811D01*
X171351Y258703D01*
X172083D01*
X172790Y258893D01*
X172861Y258934D01*
X306561D01*
X308389Y257107D01*
X308410Y257027D01*
X308776Y256393D01*
X309293Y255876D01*
X309927Y255510D01*
X310634Y255321D01*
X311366D01*
X312073Y255510D01*
X312707Y255876D01*
X313224Y256393D01*
X313590Y257027D01*
X313779Y257734D01*
Y258466D01*
X313590Y259173D01*
X313224Y259807D01*
X312707Y260324D01*
X312073Y260690D01*
X311993Y260711D01*
X309420Y263285D01*
X308593Y263838D01*
X307617Y264032D01*
X172861D01*
X172790Y264073D01*
X172083Y264262D01*
X171351D01*
X170949Y264155D01*
X170449Y264505D01*
Y338644D01*
X212556Y380751D01*
X325656D01*
X325727Y380710D01*
X326434Y380521D01*
X327166D01*
X327873Y380710D01*
X328507Y381076D01*
X329024Y381593D01*
X329390Y382227D01*
X329579Y382934D01*
Y383666D01*
X329390Y384373D01*
X329024Y385007D01*
X328507Y385524D01*
X327873Y385890D01*
X327166Y386080D01*
X326434D01*
X325727Y385890D01*
X325656Y385849D01*
X211500D01*
X210952Y385740D01*
X210705Y386201D01*
X225456Y400951D01*
X318256D01*
X318327Y400910D01*
X319034Y400721D01*
X319766D01*
X320473Y400910D01*
X321107Y401276D01*
X321624Y401793D01*
X321990Y402427D01*
X322180Y403134D01*
Y403866D01*
X321990Y404573D01*
X321624Y405207D01*
X321107Y405724D01*
X320473Y406090D01*
X319766Y406280D01*
X319034D01*
X318327Y406090D01*
X318256Y406049D01*
X224400D01*
X223425Y405855D01*
X222598Y405302D01*
X160698Y343402D01*
X160145Y342576D01*
X159951Y341600D01*
Y220000D01*
X160145Y219024D01*
X160698Y218198D01*
X165513Y213383D01*
X166340Y212830D01*
X167315Y212636D01*
X180809D01*
X183051Y210394D01*
Y185700D01*
X183245Y184724D01*
X183798Y183898D01*
X186198Y181498D01*
X186884Y181039D01*
X186732Y180539D01*
X160339D01*
X159843Y180539D01*
X159351Y180561D01*
X158315Y180663D01*
X156846Y181108D01*
X155492Y181832D01*
X154539Y182614D01*
Y436661D01*
X154539Y437157D01*
X154561Y437649D01*
X154663Y438685D01*
X155108Y440154D01*
X155832Y441508D01*
X156806Y442694D01*
X157992Y443668D01*
X159346Y444392D01*
X160815Y444837D01*
X161851Y444939D01*
X162343Y444961D01*
X162343Y444961D01*
X162343D01*
X162841Y444961D01*
X408000D01*
X408090Y444979D01*
X409528Y444837D01*
D02*
G37*
G36*
X180199Y218196D02*
X180008Y217734D01*
X168371D01*
X165049Y221056D01*
Y226485D01*
X165549Y226774D01*
X166281Y226351D01*
X167414Y226047D01*
X168586D01*
X169719Y226351D01*
X170734Y226937D01*
X171096Y227299D01*
X180199Y218196D01*
D02*
G37*
G36*
X206200Y192195D02*
X205893Y191795D01*
X205063Y192274D01*
X204033Y192550D01*
X202967D01*
X201937Y192274D01*
X201013Y191741D01*
X200259Y190987D01*
X199726Y190063D01*
X199450Y189033D01*
Y187967D01*
X199726Y186937D01*
X200065Y186349D01*
X199777Y185849D01*
X197550D01*
Y192550D01*
X189450D01*
Y186105D01*
X188950Y185955D01*
X188149Y186756D01*
Y209593D01*
X188611Y209784D01*
X206200Y192195D01*
D02*
G37*
%LPC*%
G36*
X402586Y363953D02*
X401414D01*
X400281Y363649D01*
X399266Y363063D01*
X398437Y362234D01*
X397851Y361219D01*
X397547Y360086D01*
Y358914D01*
X397603Y358707D01*
X371444Y332549D01*
X346170D01*
X346063Y332734D01*
X345234Y333563D01*
X344219Y334149D01*
X343086Y334453D01*
X341914D01*
X340781Y334149D01*
X339766Y333563D01*
X338937Y332734D01*
X338830Y332549D01*
X238256D01*
X228311Y342493D01*
X228290Y342573D01*
X227924Y343207D01*
X227407Y343724D01*
X226773Y344090D01*
X226066Y344280D01*
X225334D01*
X224627Y344090D01*
X223993Y343724D01*
X223476Y343207D01*
X223110Y342573D01*
X222920Y341866D01*
Y341134D01*
X223110Y340427D01*
X223476Y339793D01*
X223993Y339276D01*
X224627Y338910D01*
X224707Y338889D01*
X235398Y328198D01*
X239089Y324507D01*
X239110Y324427D01*
X239476Y323793D01*
X239993Y323276D01*
X240627Y322910D01*
X241334Y322721D01*
X242066D01*
X242773Y322910D01*
X243407Y323276D01*
X243924Y323793D01*
X244290Y324427D01*
X244479Y325134D01*
Y325866D01*
X244290Y326573D01*
X244072Y326951D01*
X244360Y327451D01*
X338830D01*
X338937Y327266D01*
X339766Y326437D01*
X340781Y325851D01*
X341914Y325547D01*
X343086D01*
X344219Y325851D01*
X345234Y326437D01*
X346063Y327266D01*
X346170Y327451D01*
X372500D01*
X373476Y327645D01*
X374302Y328198D01*
X401207Y355103D01*
X401414Y355047D01*
X402586D01*
X403719Y355351D01*
X404734Y355937D01*
X405563Y356766D01*
X406149Y357781D01*
X406453Y358914D01*
Y360086D01*
X406149Y361219D01*
X405563Y362234D01*
X404734Y363063D01*
X403719Y363649D01*
X402586Y363953D01*
D02*
G37*
G36*
X361586Y383953D02*
X360414D01*
X359281Y383649D01*
X358266Y383063D01*
X357437Y382234D01*
X356851Y381219D01*
X356547Y380086D01*
Y378914D01*
X356851Y377781D01*
X357437Y376766D01*
X358266Y375937D01*
X359281Y375351D01*
X360414Y375047D01*
X361586D01*
X361793Y375103D01*
X365351Y371544D01*
Y355144D01*
X365310Y355073D01*
X365121Y354366D01*
Y353634D01*
X365310Y352927D01*
X365676Y352293D01*
X366193Y351776D01*
X366827Y351410D01*
X367534Y351220D01*
X368266D01*
X368973Y351410D01*
X369607Y351776D01*
X370124Y352293D01*
X370490Y352927D01*
X370679Y353634D01*
Y354366D01*
X370490Y355073D01*
X370449Y355144D01*
Y372600D01*
X370255Y373575D01*
X369702Y374402D01*
X365397Y378707D01*
X365453Y378914D01*
Y380086D01*
X365149Y381219D01*
X364563Y382234D01*
X363734Y383063D01*
X362719Y383649D01*
X361586Y383953D01*
D02*
G37*
G36*
X248586Y324453D02*
X247414D01*
X246281Y324149D01*
X245266Y323563D01*
X244437Y322734D01*
X243851Y321719D01*
X243547Y320586D01*
Y319414D01*
X243851Y318281D01*
X244437Y317266D01*
X245266Y316437D01*
X246281Y315851D01*
X247414Y315547D01*
X248586D01*
X249719Y315851D01*
X250734Y316437D01*
X251563Y317266D01*
X252149Y318281D01*
X252453Y319414D01*
Y320586D01*
X252149Y321719D01*
X251563Y322734D01*
X250734Y323563D01*
X249719Y324149D01*
X248586Y324453D01*
D02*
G37*
G36*
X362766Y324679D02*
X362034D01*
X361327Y324490D01*
X360693Y324124D01*
X360176Y323607D01*
X359810Y322973D01*
X359620Y322266D01*
Y321534D01*
X359810Y320827D01*
X360176Y320193D01*
X360693Y319676D01*
X361327Y319310D01*
X361407Y319289D01*
X380389Y300307D01*
X380410Y300227D01*
X380776Y299593D01*
X381293Y299076D01*
X381927Y298710D01*
X382634Y298520D01*
X383366D01*
X384073Y298710D01*
X384707Y299076D01*
X385224Y299593D01*
X385590Y300227D01*
X385780Y300934D01*
Y301666D01*
X385590Y302373D01*
X385224Y303007D01*
X384707Y303524D01*
X384073Y303890D01*
X383993Y303911D01*
X365011Y322893D01*
X364990Y322973D01*
X364624Y323607D01*
X364107Y324124D01*
X363473Y324490D01*
X362766Y324679D01*
D02*
G37*
G36*
X178766Y330780D02*
X178034D01*
X177327Y330590D01*
X176693Y330224D01*
X176176Y329707D01*
X175810Y329073D01*
X175620Y328366D01*
Y327634D01*
X175810Y326927D01*
X176176Y326293D01*
X176693Y325776D01*
X177327Y325410D01*
X178034Y325220D01*
X178766D01*
X179473Y325410D01*
X179544Y325451D01*
X201637D01*
X201828Y324989D01*
X201665Y324826D01*
X200952Y323591D01*
X200583Y322213D01*
Y320787D01*
X200815Y319920D01*
X197698Y316802D01*
X197145Y315975D01*
X196951Y315000D01*
Y294900D01*
X197145Y293924D01*
X197698Y293098D01*
X199298Y291498D01*
X200125Y290945D01*
X201100Y290751D01*
X251000D01*
X251975Y290945D01*
X252802Y291498D01*
X258334Y297029D01*
X258887Y297856D01*
X259029Y298573D01*
X259386Y298779D01*
X260252Y299645D01*
X260864Y300705D01*
X261181Y301888D01*
Y303112D01*
X260864Y304295D01*
X260252Y305355D01*
X259386Y306221D01*
X258326Y306833D01*
X257144Y307150D01*
X255920D01*
X254737Y306833D01*
X253677Y306221D01*
X252811Y305355D01*
X252298Y304467D01*
X252274Y304458D01*
X251774D01*
X251749Y304467D01*
X251236Y305355D01*
X250371Y306221D01*
X249310Y306833D01*
X248128Y307150D01*
X246904D01*
X245721Y306833D01*
X244661Y306221D01*
X243795Y305355D01*
X243650Y305103D01*
X243150Y305237D01*
Y307150D01*
X233850D01*
Y299349D01*
X211756D01*
X211417Y299688D01*
Y306917D01*
X209786D01*
X209579Y307417D01*
X210335Y308174D01*
X210784Y308951D01*
X291444D01*
X313103Y287293D01*
X313047Y287086D01*
Y286365D01*
X312547Y286157D01*
X306011Y292693D01*
X305990Y292773D01*
X305624Y293407D01*
X305107Y293924D01*
X304473Y294290D01*
X303766Y294479D01*
X303034D01*
X302327Y294290D01*
X301693Y293924D01*
X301176Y293407D01*
X300810Y292773D01*
X300621Y292066D01*
Y291334D01*
X300810Y290627D01*
X301176Y289993D01*
X301693Y289476D01*
X302327Y289110D01*
X302407Y289089D01*
X374951Y216544D01*
Y201170D01*
X374766Y201063D01*
X373937Y200234D01*
X373830Y200049D01*
X360944D01*
X360873Y200090D01*
X360166Y200279D01*
X359434D01*
X358727Y200090D01*
X358093Y199724D01*
X357576Y199207D01*
X357210Y198573D01*
X357020Y197866D01*
Y197134D01*
X357210Y196427D01*
X357576Y195793D01*
X358093Y195276D01*
X358727Y194910D01*
X359434Y194720D01*
X360166D01*
X360873Y194910D01*
X360944Y194951D01*
X373830D01*
X373937Y194766D01*
X374766Y193937D01*
X375781Y193351D01*
X376914Y193047D01*
X378086D01*
X379219Y193351D01*
X380234Y193937D01*
X381063Y194766D01*
X381649Y195781D01*
X381953Y196914D01*
Y198086D01*
X381649Y199219D01*
X381063Y200234D01*
X380234Y201063D01*
X380049Y201170D01*
Y217600D01*
X379855Y218576D01*
X379302Y219402D01*
X317158Y281547D01*
X317365Y282047D01*
X318086D01*
X319219Y282351D01*
X320234Y282937D01*
X321063Y283766D01*
X321170Y283951D01*
X346996D01*
X362015Y268933D01*
X362036Y268853D01*
X362402Y268219D01*
X362919Y267702D01*
X363553Y267336D01*
X364260Y267146D01*
X364992D01*
X365699Y267336D01*
X366333Y267702D01*
X366850Y268219D01*
X367216Y268853D01*
X367406Y269560D01*
Y270292D01*
X367216Y270999D01*
X366850Y271633D01*
X366333Y272150D01*
X365699Y272516D01*
X365619Y272537D01*
X349854Y288302D01*
X349027Y288855D01*
X348052Y289049D01*
X321170D01*
X321063Y289234D01*
X320234Y290063D01*
X319219Y290649D01*
X318086Y290953D01*
X316914D01*
X316707Y290897D01*
X294302Y313302D01*
X293476Y313855D01*
X292500Y314049D01*
X212807D01*
X212616Y314511D01*
X214302Y316198D01*
X214855Y317024D01*
X215049Y318000D01*
Y326000D01*
X214855Y326975D01*
X214302Y327802D01*
X212302Y329802D01*
X211475Y330355D01*
X210500Y330549D01*
X179544D01*
X179473Y330590D01*
X178766Y330780D01*
D02*
G37*
G36*
X265586Y285953D02*
X264414D01*
X263281Y285649D01*
X262266Y285063D01*
X261437Y284234D01*
X260851Y283219D01*
X260547Y282086D01*
Y280914D01*
X260851Y279781D01*
X261437Y278766D01*
X262266Y277937D01*
X263281Y277351D01*
X264414Y277047D01*
X265586D01*
X266719Y277351D01*
X267734Y277937D01*
X268563Y278766D01*
X269149Y279781D01*
X269453Y280914D01*
Y282086D01*
X269149Y283219D01*
X268563Y284234D01*
X267734Y285063D01*
X266719Y285649D01*
X265586Y285953D01*
D02*
G37*
G36*
X365666Y263380D02*
X364934D01*
X364227Y263190D01*
X363593Y262824D01*
X363076Y262307D01*
X362710Y261673D01*
X362521Y260966D01*
Y260234D01*
X362710Y259527D01*
X363076Y258893D01*
X363593Y258376D01*
X364227Y258010D01*
X364307Y257989D01*
X378326Y243970D01*
X378347Y243890D01*
X378713Y243256D01*
X379230Y242739D01*
X379864Y242373D01*
X380571Y242183D01*
X381303D01*
X382010Y242373D01*
X382644Y242739D01*
X383161Y243256D01*
X383527Y243890D01*
X383717Y244597D01*
Y245329D01*
X383527Y246036D01*
X383161Y246670D01*
X382644Y247187D01*
X382010Y247553D01*
X381930Y247574D01*
X367911Y261593D01*
X367890Y261673D01*
X367524Y262307D01*
X367007Y262824D01*
X366373Y263190D01*
X365666Y263380D01*
D02*
G37*
G36*
X207400Y257149D02*
X186000D01*
X185024Y256955D01*
X184198Y256402D01*
X183645Y255575D01*
X183451Y254600D01*
X183645Y253625D01*
X184198Y252798D01*
X197798Y239198D01*
X198625Y238645D01*
X199600Y238451D01*
X219944D01*
X236884Y221511D01*
X236693Y221049D01*
X235971D01*
X235680Y221341D01*
X234870Y221808D01*
X234681Y221859D01*
Y218500D01*
X232319D01*
Y221859D01*
X232130Y221808D01*
X231320Y221341D01*
X230659Y220680D01*
X230192Y219870D01*
X229950Y218967D01*
Y218555D01*
X227670Y216275D01*
X227484Y216300D01*
X227218Y216839D01*
X227274Y216937D01*
X227550Y217967D01*
Y219033D01*
X227274Y220063D01*
X226741Y220987D01*
X225987Y221741D01*
X225063Y222274D01*
X224033Y222550D01*
X222967D01*
X221937Y222274D01*
X221013Y221741D01*
X220259Y220987D01*
X219726Y220063D01*
X219450Y219033D01*
Y217967D01*
X219726Y216937D01*
X219782Y216839D01*
X219516Y216300D01*
X219330Y216275D01*
X217050Y218555D01*
Y218967D01*
X216808Y219870D01*
X216341Y220680D01*
X215680Y221341D01*
X214870Y221808D01*
X214681Y221859D01*
Y218500D01*
X212319D01*
Y221859D01*
X212130Y221808D01*
X211320Y221341D01*
X211029Y221049D01*
X205972D01*
X205680Y221341D01*
X204870Y221808D01*
X204681Y221859D01*
Y218500D01*
Y215141D01*
X204870Y215192D01*
X205680Y215659D01*
X205972Y215951D01*
X211029D01*
X211320Y215659D01*
X212130Y215192D01*
X213033Y214950D01*
X213445D01*
X216798Y211598D01*
X217624Y211045D01*
X218600Y210851D01*
X228400D01*
X229376Y211045D01*
X230202Y211598D01*
X233555Y214950D01*
X233967D01*
X234870Y215192D01*
X235680Y215659D01*
X235971Y215951D01*
X241028D01*
X241320Y215659D01*
X242130Y215192D01*
X242319Y215141D01*
Y218500D01*
X243500D01*
Y219681D01*
X246859D01*
X246808Y219870D01*
X246341Y220680D01*
X245680Y221341D01*
X244870Y221808D01*
X243967Y222050D01*
X243555D01*
X227616Y237989D01*
X227807Y238451D01*
X338837D01*
X339812Y238645D01*
X340639Y239198D01*
X341192Y240024D01*
X341386Y241000D01*
X341192Y241975D01*
X340639Y242802D01*
X339812Y243355D01*
X338837Y243549D01*
X222056D01*
X209202Y256402D01*
X208376Y256955D01*
X207400Y257149D01*
D02*
G37*
G36*
X202319Y221859D02*
X202130Y221808D01*
X201320Y221341D01*
X200659Y220680D01*
X200192Y219870D01*
X200141Y219681D01*
X202319D01*
Y221859D01*
D02*
G37*
G36*
X246859Y217319D02*
X244681D01*
Y215141D01*
X244870Y215192D01*
X245680Y215659D01*
X246341Y216320D01*
X246808Y217130D01*
X246859Y217319D01*
D02*
G37*
G36*
X202319D02*
X200141D01*
X200192Y217130D01*
X200659Y216320D01*
X201320Y215659D01*
X202130Y215192D01*
X202319Y215141D01*
Y217319D01*
D02*
G37*
G36*
X264033Y222550D02*
X262967D01*
X261937Y222274D01*
X261013Y221741D01*
X260259Y220987D01*
X259726Y220063D01*
X259450Y219033D01*
Y217967D01*
X259726Y216937D01*
X260259Y216013D01*
X261013Y215259D01*
X261937Y214726D01*
X262967Y214450D01*
X264033D01*
X265063Y214726D01*
X265987Y215259D01*
X266741Y216013D01*
X267274Y216937D01*
X267550Y217967D01*
Y219033D01*
X267274Y220063D01*
X266741Y220987D01*
X265987Y221741D01*
X265063Y222274D01*
X264033Y222550D01*
D02*
G37*
G36*
X254033D02*
X252967D01*
X251937Y222274D01*
X251013Y221741D01*
X250259Y220987D01*
X249726Y220063D01*
X249450Y219033D01*
Y217967D01*
X249726Y216937D01*
X250259Y216013D01*
X251013Y215259D01*
X251937Y214726D01*
X252967Y214450D01*
X254033D01*
X255063Y214726D01*
X255987Y215259D01*
X256741Y216013D01*
X257274Y216937D01*
X257550Y217967D01*
Y219033D01*
X257274Y220063D01*
X256741Y220987D01*
X255987Y221741D01*
X255063Y222274D01*
X254033Y222550D01*
D02*
G37*
G36*
X291086Y216453D02*
X289914D01*
X288781Y216149D01*
X287766Y215563D01*
X286937Y214734D01*
X286351Y213719D01*
X286047Y212586D01*
Y211414D01*
X286351Y210281D01*
X286937Y209266D01*
X287766Y208437D01*
X288781Y207851D01*
X289914Y207547D01*
X291086D01*
X292219Y207851D01*
X293234Y208437D01*
X294063Y209266D01*
X294649Y210281D01*
X294953Y211414D01*
Y212586D01*
X294649Y213719D01*
X294063Y214734D01*
X293234Y215563D01*
X292219Y216149D01*
X291086Y216453D01*
D02*
G37*
G36*
X174937Y207347D02*
X164063D01*
Y197653D01*
X174937D01*
Y207347D01*
D02*
G37*
G36*
X170681Y196806D02*
Y193681D01*
X174306D01*
X173887Y194692D01*
X173190Y195600D01*
X172283Y196297D01*
X171225Y196735D01*
X170681Y196806D01*
D02*
G37*
G36*
X168319D02*
X167775Y196735D01*
X166718Y196297D01*
X165810Y195600D01*
X165113Y194692D01*
X164694Y193681D01*
X168319D01*
Y196806D01*
D02*
G37*
G36*
X264681Y191859D02*
Y189681D01*
X266859D01*
X266808Y189870D01*
X266341Y190680D01*
X265680Y191341D01*
X264870Y191808D01*
X264681Y191859D01*
D02*
G37*
G36*
X242319D02*
X242130Y191808D01*
X241320Y191341D01*
X240659Y190680D01*
X240192Y189870D01*
X240141Y189681D01*
X242319D01*
Y191859D01*
D02*
G37*
G36*
X174306Y191319D02*
X170681D01*
Y188194D01*
X171225Y188265D01*
X172283Y188703D01*
X173190Y189400D01*
X173887Y190308D01*
X174306Y191319D01*
D02*
G37*
G36*
X168319D02*
X164694D01*
X165113Y190308D01*
X165810Y189400D01*
X166718Y188703D01*
X167775Y188265D01*
X168319Y188194D01*
Y191319D01*
D02*
G37*
G36*
X266859Y187319D02*
X264681D01*
Y185141D01*
X264870Y185192D01*
X265680Y185659D01*
X266341Y186320D01*
X266808Y187130D01*
X266859Y187319D01*
D02*
G37*
G36*
X254681Y191859D02*
Y188500D01*
Y185141D01*
X254870Y185192D01*
X255680Y185659D01*
X255972Y185951D01*
X261029D01*
X261320Y185659D01*
X262130Y185192D01*
X262319Y185141D01*
Y188500D01*
Y191859D01*
X262130Y191808D01*
X261320Y191341D01*
X261029Y191049D01*
X255972D01*
X255680Y191341D01*
X254870Y191808D01*
X254681Y191859D01*
D02*
G37*
G36*
X244681D02*
Y188500D01*
Y185141D01*
X244870Y185192D01*
X245680Y185659D01*
X245971Y185951D01*
X251028D01*
X251320Y185659D01*
X252130Y185192D01*
X252319Y185141D01*
Y188500D01*
Y191859D01*
X252130Y191808D01*
X251320Y191341D01*
X251028Y191049D01*
X245971D01*
X245680Y191341D01*
X244870Y191808D01*
X244681Y191859D01*
D02*
G37*
G36*
X242319Y187319D02*
X240141D01*
X240192Y187130D01*
X240659Y186320D01*
X241320Y185659D01*
X242130Y185192D01*
X242319Y185141D01*
Y187319D01*
D02*
G37*
G36*
X234033Y192550D02*
X232967D01*
X231937Y192274D01*
X231013Y191741D01*
X230259Y190987D01*
X229726Y190063D01*
X229450Y189033D01*
Y187967D01*
X229726Y186937D01*
X230259Y186013D01*
X231013Y185259D01*
X231937Y184726D01*
X232967Y184450D01*
X234033D01*
X235063Y184726D01*
X235987Y185259D01*
X236741Y186013D01*
X237274Y186937D01*
X237550Y187967D01*
Y189033D01*
X237274Y190063D01*
X236741Y190987D01*
X235987Y191741D01*
X235063Y192274D01*
X234033Y192550D01*
D02*
G37*
%LPD*%
G36*
X214384Y244011D02*
X214193Y243549D01*
X200656D01*
X192616Y251589D01*
X192807Y252051D01*
X206344D01*
X214384Y244011D01*
D02*
G37*
D29*
X206000Y321500D02*
D03*
Y311500D02*
D03*
D30*
Y301500D02*
D03*
D34*
X237200Y330000D02*
X241700Y325500D01*
X221000Y241000D02*
X338837D01*
X199600D02*
X221000D01*
X243500Y218500D01*
X207400Y254600D02*
X221000Y241000D01*
X167900Y234100D02*
X171500Y230500D01*
X186000Y254600D02*
X207400D01*
X213500Y218500D02*
X218600Y213400D01*
X228400D01*
X233500Y218500D01*
X365300Y260600D02*
X380937Y244963D01*
X317500Y286500D02*
X348052D01*
X364626Y269926D01*
X206000Y311500D02*
X212500Y318000D01*
Y326000D01*
X210500Y328000D02*
X212500Y326000D01*
X178400Y328000D02*
X210500D01*
X256532Y298832D02*
Y302500D01*
X251000Y293300D02*
X256532Y298832D01*
X201100Y293300D02*
X251000D01*
X199500Y294900D02*
X201100Y293300D01*
X199500Y294900D02*
Y315000D01*
X206000Y321500D01*
X186000Y254600D02*
X199600Y241000D01*
X237200Y330000D02*
X342500D01*
X225700Y341500D02*
X237200Y330000D01*
X167900Y234100D02*
Y339700D01*
X211500Y383300D01*
X326800D01*
X224400Y403500D02*
X319400D01*
X162500Y341600D02*
X224400Y403500D01*
X162500Y220000D02*
Y341600D01*
Y220000D02*
X167315Y215185D01*
X181865D01*
X185600Y211450D01*
Y185700D02*
Y211450D01*
Y185700D02*
X188000Y183300D01*
X218300D01*
X223500Y188500D01*
X206000Y311500D02*
X292500D01*
X317500Y286500D01*
X359800Y197500D02*
X377500D01*
X171500Y230500D02*
X213500Y188500D01*
X168000Y230500D02*
X171500D01*
X243500Y188500D02*
X253500D01*
X263500D01*
X233500Y218500D02*
X243500D01*
X203500D02*
X213500D01*
X342500Y330000D02*
X372500D01*
X402000Y359500D01*
X367900Y354000D02*
Y372600D01*
X361000Y379500D02*
X367900Y372600D01*
X206000Y301500D02*
X210700Y296800D01*
X246316D01*
X247516Y298000D01*
Y302500D01*
X377500Y197500D02*
Y217600D01*
X303400Y291700D02*
X377500Y217600D01*
X362400Y321900D02*
X383000Y301300D01*
X171717Y261483D02*
X307617D01*
X311000Y258100D01*
D35*
X169500Y192500D02*
D03*
D36*
Y202500D02*
D03*
D37*
X290500Y212000D02*
D03*
X168000Y230500D02*
D03*
X361000Y379500D02*
D03*
X265000Y281500D02*
D03*
X317500Y286500D02*
D03*
X248000Y320000D02*
D03*
X377500Y197500D02*
D03*
X342500Y330000D02*
D03*
X402000Y359500D02*
D03*
D38*
X193500Y188500D02*
D03*
D39*
X203500D02*
D03*
X213500D02*
D03*
X223500D02*
D03*
X233500D02*
D03*
X243500D02*
D03*
X253500D02*
D03*
X263500D02*
D03*
Y218500D02*
D03*
X253500D02*
D03*
X243500D02*
D03*
X233500D02*
D03*
X223500D02*
D03*
X213500D02*
D03*
X203500D02*
D03*
X193500D02*
D03*
D40*
X256532Y302500D02*
D03*
X247516D02*
D03*
D41*
X238500D02*
D03*
D42*
X241700Y325500D02*
D03*
X225700Y341500D02*
D03*
X186000Y254600D02*
D03*
X365300Y260600D02*
D03*
X380937Y244963D02*
D03*
X364626Y269926D02*
D03*
X178400Y328000D02*
D03*
X338837Y241000D02*
D03*
X326800Y383300D02*
D03*
X319400Y403500D02*
D03*
X359800Y197500D02*
D03*
X367900Y354000D02*
D03*
X303400Y291700D02*
D03*
X362400Y321900D02*
D03*
X383000Y301300D02*
D03*
X171717Y261483D02*
D03*
X311000Y258100D02*
D03*
M02*
