G04*
G04 #@! TF.GenerationSoftware,Altium Limited,Altium Designer,26.4.1 (12)*
G04*
G04 Layer_Color=2752767*
%FSLAX44Y44*%
%MOMM*%
G71*
G04*
G04 #@! TF.SameCoordinates,074BA2BC-7764-4BD4-AE0E-D95D70C0EDA2*
G04*
G04*
G04 #@! TF.FilePolarity,Positive*
G04*
G01*
G75*
%ADD43C,0.1270*%
%ADD45C,0.1693*%
D43*
X732790Y720090D02*
X735330Y725170D01*
X732790Y730250D01*
X737870Y727710D01*
X742950Y730250D01*
X740410Y725170D01*
X742950Y720090D01*
X737870Y722630D01*
X732790Y720090D01*
X504190Y1066800D02*
X506730Y1069340D01*
X509270D01*
X506730Y1071880D01*
X509270Y1074420D01*
X506730D01*
X504190Y1076960D01*
X501650Y1074420D01*
X499110D01*
X501650Y1071880D01*
X499110Y1069340D01*
X501650D01*
X504190Y1066800D01*
X478790D02*
X481330Y1069340D01*
X483870D01*
X481330Y1071880D01*
X483870Y1074420D01*
X481330D01*
X478790Y1076960D01*
X476250Y1074420D01*
X473710D01*
X476250Y1071880D01*
X473710Y1069340D01*
X476250D01*
X478790Y1066800D01*
X911860Y958850D02*
X914400Y963930D01*
X911860Y969010D01*
X916940Y966470D01*
X922020Y969010D01*
X919480Y963930D01*
X922020Y958850D01*
X916940Y961390D01*
X911860Y958850D01*
X668020Y709930D02*
X670560Y715010D01*
X668020Y720090D01*
X673100Y717550D01*
X678180Y720090D01*
X675640Y715010D01*
X678180Y709930D01*
X673100Y712470D01*
X668020Y709930D01*
X523240Y811530D02*
X518160Y821690D01*
X528320D01*
X523240Y811530D01*
Y786130D02*
X518160Y796290D01*
X528320D01*
X523240Y786130D01*
Y760730D02*
X518160Y770890D01*
X528320D01*
X523240Y760730D01*
X801370Y722630D02*
X803910Y727710D01*
X801370Y732790D01*
X806450Y730250D01*
X811530Y732790D01*
X808990Y727710D01*
X811530Y722630D01*
X806450Y725170D01*
X801370Y722630D01*
X624840Y807720D02*
X627380Y812800D01*
X624840Y817880D01*
X629920Y815340D01*
X635000Y817880D01*
X632460Y812800D01*
X635000Y807720D01*
X629920Y810260D01*
X624840Y807720D01*
X953770Y496570D02*
X956310Y501650D01*
X953770Y506730D01*
X958850Y504190D01*
X963930Y506730D01*
X961390Y501650D01*
X963930Y496570D01*
X958850Y499110D01*
X953770Y496570D01*
X864870Y833120D02*
X867410Y838200D01*
X864870Y843280D01*
X869950Y840740D01*
X875030Y843280D01*
X872490Y838200D01*
X875030Y833120D01*
X869950Y835660D01*
X864870Y833120D01*
X1016000Y908050D02*
X1018540Y913130D01*
X1016000Y918210D01*
X1021080Y915670D01*
X1026160Y918210D01*
X1023620Y913130D01*
X1026160Y908050D01*
X1021080Y910590D01*
X1016000Y908050D01*
D45*
X576580Y919226D02*
G03*
X576580Y919226I-5080J0D01*
G01*
X630174D02*
G03*
X630174Y919226I-5080J0D01*
G01*
X454660Y612140D02*
G03*
X454660Y612140I-5080J0D01*
G01*
X851662D02*
G03*
X851662Y612140I-5080J0D01*
G01*
X702310Y806450D02*
G03*
X702310Y806450I-5080J0D01*
G01*
X470662Y852932D02*
G03*
X470662Y852932I-5080J0D01*
G01*
X764540Y817880D02*
G03*
X764540Y817880I-5080J0D01*
G01*
X759206Y622046D02*
G03*
X759206Y622046I-5080J0D01*
G01*
X816250Y1024890D02*
G03*
X816250Y1024890I-5080J0D01*
G01*
X672014Y499294D02*
G03*
X672014Y499294I-5080J0D01*
G01*
X625094Y669544D02*
G03*
X625094Y669544I-5080J0D01*
G01*
X635000Y778510D02*
G03*
X635000Y778510I-5080J0D01*
G01*
X909320Y861060D02*
G03*
X909320Y861060I-5080J0D01*
G01*
X748737Y751641D02*
G03*
X748737Y751641I-5080J0D01*
G01*
X931230Y727710D02*
G03*
X931230Y727710I-5080J0D01*
G01*
X932942Y661924D02*
G03*
X932942Y661924I-5080J0D01*
G01*
X972660Y622206D02*
G03*
X972660Y622206I-5080J0D01*
G01*
X1027130Y794050D02*
G03*
X1027130Y794050I-5080J0D01*
G01*
X853280Y707644D02*
G03*
X853280Y707644I-5080J0D01*
G01*
X767334Y768096D02*
G03*
X767334Y768096I-5080J0D01*
G01*
X441242Y664166D02*
G03*
X441242Y664166I-5080J0D01*
G01*
X795020Y655574D02*
G03*
X795020Y655574I-5080J0D01*
G01*
X712216Y649224D02*
G03*
X712216Y649224I-5080J0D01*
G01*
X760984D02*
G03*
X760984Y649224I-5080J0D01*
G01*
X835152Y973582D02*
G03*
X835152Y973582I-5080J0D01*
G01*
M02*
