M48
;Layer_Color=9474304
;FILE_FORMAT=4:4
METRIC,LZ
;TYPE=PLATED
T01F00S00C0.4000
T02F00S00C0.7112
T03F00S00C0.8000
T04F00S00C1.0000
T05F00S00C1.2000
T06F00S00C1.3900
%
T01
X0101981Y00761238
X0077913Y00835334
X0077978Y0085217
X0073696Y0089571
X00690884Y01042412
X00680278Y01032764
X00594868Y01031748
X00569468Y0095885
X0082677Y00962406
X008382Y01012698
X00852932Y01052322
X00824738Y01071372
X00987552Y01060544
X00921512Y00983742
X00900176Y00955896
X00920496Y00924162
X00958088Y00929132
X0087683Y00908132
X00898906Y00849376
X0090551Y0082393
X00988822Y00846582
X0081677Y00855472
T02
X0052705Y008001
X0057531Y0083312
X0069723Y0105664
X00762Y010795
X0086614Y0108331
X0091821Y010541
T03
X0095885Y0099969
Y0102469
T04
X0087376Y0073914
X0059944Y008636
X0062992Y0097282
X0054229Y0098425
X0092456Y0080645
X0097282Y0079883
T05
X00713566Y0074803
Y0077343
T06
X005715Y0107061
X005969
X006223
M30
