M48
;Layer_Color=9474304
;FILE_FORMAT=2:5
INCH
;TYPE=PLATED
T01F00S00C0.01575
T02F00S00C0.02800
T03F00S00C0.03150
T04F00S00C0.03937
T05F00S00C0.04724
T06F00S00C0.05472
%
T01
X0401500Y0299700
X0306744Y0328872
X0307000Y0335500
X0290142Y0352642
X0272001Y0410399
X0267826Y0406600
X0234200Y0406200
X0224200Y0377500
X0325500Y0378900
X0330000Y0398700
X0335800Y0414300
X0324700Y0421800
X0388800Y0417537
X0362800Y0387300
X0354400Y0376337
X0362400Y0363843
X0377200Y0365800
X0345209Y0357532
X0353900Y0334400
X0356500Y0324382
X0389300Y0333300
X0321563Y0336800
T02
X0207500Y0315000
X0226500Y0328000
X0274500Y0416000
X0300000Y0425000
X0341000Y0426500
X0361500Y0415000
T03
X0377500Y0393579
Y0403421
T04
X0344000Y0291000
X0236000Y0340000
X0248000Y0383000
X0213500Y0387500
X0364000Y0317500
X0383000Y0314500
T05
X0280932Y0294500
Y0304500
T06
X0225000Y0421500
X0235000
X0245000
M30
