G04*
G04 #@! TF.GenerationSoftware,Altium Limited,Altium Designer,26.5.0 (11)*
G04*
G04 Layer_Color=16711935*
G04 Board_Origin=0|0*
%FSLAX25Y25*%
%MOIN*%
G70*
G04*
G04 #@! TF.SameCoordinates,45F7CA4D-C000-4621-8C22-E4E6617E212B*
G04*
G04*
G04 #@! TF.FilePolarity,Negative*
G04*
G01*
G75*
%ADD34C,0.06706*%
%ADD35O,0.07099X0.06509*%
%ADD36R,0.07099X0.06509*%
%ADD37C,0.07835*%
%ADD38O,0.08674X0.07493*%
%ADD39R,0.08674X0.07493*%
%ADD40R,0.07835X0.07835*%
%ADD41C,0.03359*%
%ADD42C,0.05800*%
D34*
X364000Y317500D02*
D03*
X383000Y314500D02*
D03*
X344000Y291000D02*
D03*
X236000Y340000D02*
D03*
X248000Y383000D02*
D03*
X213500Y387500D02*
D03*
D35*
X377500Y393579D02*
D03*
D36*
Y403421D02*
D03*
D37*
X235000Y421500D02*
D03*
X245000D02*
D03*
D38*
X280932Y294500D02*
D03*
D39*
Y304500D02*
D03*
D40*
X225000Y421500D02*
D03*
D41*
X306744Y328872D02*
D03*
X325500Y378900D02*
D03*
X321563Y336800D02*
D03*
X388800Y417537D02*
D03*
X389300Y333300D02*
D03*
X324700Y421800D02*
D03*
X330000Y398700D02*
D03*
X267826Y406600D02*
D03*
X307000Y335500D02*
D03*
X401500Y299700D02*
D03*
X377200Y365800D02*
D03*
X362400Y363843D02*
D03*
X356500Y324382D02*
D03*
X272001Y410399D02*
D03*
X353900Y334400D02*
D03*
X345209Y357532D02*
D03*
X290142Y352642D02*
D03*
X335800Y414300D02*
D03*
X362800Y387300D02*
D03*
X234200Y406200D02*
D03*
X224200Y377500D02*
D03*
X354400Y376337D02*
D03*
D42*
X207500Y315000D02*
D03*
X226500Y328000D02*
D03*
X361500Y415000D02*
D03*
X341000Y426500D02*
D03*
X274500Y416000D02*
D03*
X300000Y425000D02*
D03*
M02*
