G04*
G04 #@! TF.GenerationSoftware,Altium Limited,Altium Designer,26.5.0 (11)*
G04*
G04 Layer_Physical_Order=2*
G04 Layer_Color=16711680*
G04 Board_Origin=0|0*
%FSLAX25Y25*%
%MOIN*%
G70*
G04*
G04 #@! TF.SameCoordinates,45F7CA4D-C000-4621-8C22-E4E6617E212B*
G04*
G04*
G04 #@! TF.FilePolarity,Positive*
G04*
G01*
G75*
%ADD37C,0.07835*%
%ADD40R,0.07835X0.07835*%
%ADD44C,0.02000*%
%ADD47C,0.05906*%
%ADD48O,0.06299X0.05709*%
%ADD49R,0.06299X0.05709*%
%ADD50O,0.07874X0.06693*%
%ADD51R,0.07874X0.06693*%
%ADD52C,0.02559*%
%ADD53C,0.05000*%
G36*
X399783Y434830D02*
X401346Y434356D01*
X402787Y433586D01*
X404049Y432549D01*
X405086Y431287D01*
X405388Y430722D01*
X405673Y429783D01*
X405826Y428223D01*
X405813Y428158D01*
Y290689D01*
X405826Y290623D01*
X405702Y289367D01*
X405086Y288213D01*
X404049Y286950D01*
X402787Y285914D01*
X401346Y285144D01*
X399783Y284670D01*
X398223Y284516D01*
X398158Y284529D01*
X210842D01*
X210777Y284516D01*
X209217Y284670D01*
X207654Y285144D01*
X206213Y285914D01*
X204950Y286950D01*
X204479Y287525D01*
X204012Y289063D01*
X203859Y290623D01*
X203872Y290689D01*
Y313284D01*
X204372Y313418D01*
X204699Y312851D01*
X205351Y312199D01*
X206149Y311738D01*
X207039Y311500D01*
X207961D01*
X208851Y311738D01*
X209649Y312199D01*
X210301Y312851D01*
X210544Y313273D01*
X213812D01*
X214592Y313428D01*
X215254Y313870D01*
X222342Y320958D01*
X225917Y324533D01*
X226039Y324500D01*
X226961D01*
X227851Y324739D01*
X228649Y325199D01*
X229301Y325851D01*
X229762Y326649D01*
X230000Y327539D01*
Y328461D01*
X229762Y329351D01*
X229301Y330149D01*
X228649Y330801D01*
X227851Y331261D01*
X226961Y331500D01*
X226039D01*
X225149Y331261D01*
X224351Y330801D01*
X223699Y330149D01*
X223439Y329698D01*
X222939Y329833D01*
Y368624D01*
X223401Y368815D01*
X245458Y346758D01*
X246120Y346316D01*
X246900Y346161D01*
X326955D01*
X331273Y341843D01*
X328270Y338839D01*
X322597D01*
X322016Y339079D01*
X321110D01*
X320272Y338733D01*
X319631Y338091D01*
X319284Y337253D01*
Y336347D01*
X319631Y335509D01*
X320272Y334868D01*
X321110Y334521D01*
X322016D01*
X322597Y334761D01*
X329114D01*
X329895Y334916D01*
X330556Y335358D01*
X334157Y338959D01*
X337758Y335358D01*
X337758Y335358D01*
X338420Y334916D01*
X339200Y334761D01*
X344055D01*
X348427Y330389D01*
X348231Y329929D01*
X309039Y330857D01*
Y334466D01*
X309279Y335047D01*
Y335953D01*
X308932Y336791D01*
X308291Y337433D01*
X307453Y337779D01*
X306547D01*
X305709Y337433D01*
X305067Y336791D01*
X304720Y335953D01*
Y335047D01*
X304961Y334466D01*
Y330312D01*
X304812Y330163D01*
X304465Y329325D01*
Y328418D01*
X304812Y327580D01*
X305453Y326939D01*
X306291Y326592D01*
X307198D01*
X307721Y326809D01*
X345216Y325921D01*
X345210Y325421D01*
X341350D01*
X341350Y325421D01*
X341350Y325421D01*
X341001Y325352D01*
X340570Y325266D01*
X340570Y325266D01*
X340569Y325266D01*
X340303Y325088D01*
X339908Y324824D01*
X339908Y324824D01*
X339908Y324824D01*
X338324Y323239D01*
X325014D01*
X323332Y324921D01*
X323332Y324921D01*
X323332Y324921D01*
X322937Y325186D01*
X322671Y325363D01*
X322671Y325363D01*
X322671Y325364D01*
X322239Y325449D01*
X321890Y325519D01*
X321890Y325519D01*
X321890Y325519D01*
X299911D01*
X299131Y325364D01*
X298469Y324921D01*
X282427Y308879D01*
X282405Y308846D01*
X275995D01*
Y300153D01*
X285869D01*
Y306553D01*
X300756Y321440D01*
X321045D01*
X322728Y319758D01*
X322728Y319758D01*
X322728Y319758D01*
X323123Y319494D01*
X323389Y319316D01*
X323389Y319316D01*
X323389Y319316D01*
X323820Y319230D01*
X324169Y319161D01*
X324170Y319161D01*
X324170Y319161D01*
X339168D01*
X339168Y319161D01*
X339169Y319161D01*
X339518Y319230D01*
X339949Y319316D01*
X339949Y319316D01*
X339949Y319316D01*
X340215Y319494D01*
X340610Y319758D01*
X340610Y319758D01*
X340610Y319758D01*
X342195Y321343D01*
X351248D01*
X351437Y321380D01*
X351630Y321379D01*
X355853Y322183D01*
X356047Y322102D01*
X356953D01*
X357791Y322449D01*
X358433Y323091D01*
X358780Y323929D01*
Y324140D01*
X359218Y324381D01*
X363149Y321882D01*
X363066Y321342D01*
X362474Y321183D01*
X361573Y320663D01*
X360837Y319927D01*
X360317Y319026D01*
X360047Y318020D01*
Y316980D01*
X360317Y315974D01*
X360837Y315073D01*
X361573Y314337D01*
X362474Y313817D01*
X363480Y313547D01*
X363958D01*
X364187Y313047D01*
X354877Y302261D01*
X354355Y301739D01*
X353543D01*
X353157Y301662D01*
X352770Y301587D01*
X351341Y301001D01*
X351338Y300999D01*
X351334Y300998D01*
X351006Y300779D01*
X350678Y300561D01*
X350675Y300558D01*
X350672Y300556D01*
X344953Y294837D01*
X344520Y294953D01*
X343480D01*
X342474Y294683D01*
X341573Y294163D01*
X340837Y293427D01*
X340317Y292526D01*
X340047Y291520D01*
Y290480D01*
X340317Y289474D01*
X340837Y288573D01*
X341573Y287837D01*
X342474Y287317D01*
X343480Y287047D01*
X344520D01*
X345526Y287317D01*
X346427Y287837D01*
X347163Y288573D01*
X347683Y289474D01*
X347953Y290480D01*
Y291520D01*
X348352Y291961D01*
X395800D01*
X396580Y292116D01*
X397242Y292558D01*
X402211Y297527D01*
X402791Y297767D01*
X403433Y298409D01*
X403780Y299247D01*
Y300153D01*
X403433Y300991D01*
X402791Y301632D01*
X401953Y301979D01*
X401047D01*
X400209Y301632D01*
X399568Y300991D01*
X399327Y300411D01*
X394955Y296039D01*
X352576D01*
X352385Y296501D01*
X353267Y297383D01*
X353945Y297661D01*
X355200D01*
X355980Y297816D01*
X356642Y298258D01*
X357814Y299430D01*
X357856Y299493D01*
X357915Y299539D01*
X370497Y314116D01*
X370656Y314399D01*
X370837Y314668D01*
X370851Y314742D01*
X370889Y314808D01*
X370929Y315130D01*
X370992Y315449D01*
Y319551D01*
X370992Y319552D01*
X370837Y320332D01*
X370395Y320993D01*
X367494Y323895D01*
X367307Y324019D01*
X367146Y324174D01*
X360213Y328581D01*
X360353Y329061D01*
X365555D01*
X379163Y315453D01*
X379047Y315020D01*
Y313980D01*
X379317Y312974D01*
X379837Y312073D01*
X380573Y311337D01*
X381474Y310817D01*
X382480Y310547D01*
X383520D01*
X384526Y310817D01*
X385427Y311337D01*
X386163Y312073D01*
X386683Y312974D01*
X386953Y313980D01*
Y315020D01*
X386683Y316026D01*
X386163Y316927D01*
X385427Y317663D01*
X384526Y318183D01*
X383520Y318453D01*
X382480D01*
X382047Y318337D01*
X367842Y332542D01*
X367180Y332984D01*
X366400Y333139D01*
X356295D01*
X356017Y333555D01*
X356179Y333947D01*
Y334853D01*
X355939Y335434D01*
Y374652D01*
X356332Y375046D01*
X356680Y375884D01*
Y376790D01*
X356332Y377628D01*
X355691Y378270D01*
X355320Y378423D01*
X355223Y378914D01*
X356088Y379779D01*
X361956D01*
X362737Y379934D01*
X363398Y380377D01*
X367522Y384500D01*
X367522Y384500D01*
X367964Y385161D01*
X368119Y385942D01*
X368119Y385942D01*
Y397775D01*
X368049Y398128D01*
X367964Y398556D01*
X367964Y398556D01*
X367522Y399217D01*
X363539Y403199D01*
Y412136D01*
X363649Y412199D01*
X364301Y412851D01*
X364761Y413649D01*
X365000Y414539D01*
Y415461D01*
X364761Y416351D01*
X364301Y417149D01*
X363649Y417801D01*
X362851Y418261D01*
X361961Y418500D01*
X361039D01*
X360149Y418261D01*
X359351Y417801D01*
X358699Y417149D01*
X358636Y417039D01*
X353345D01*
X344467Y425917D01*
X344500Y426039D01*
Y426961D01*
X344262Y427851D01*
X343801Y428649D01*
X343149Y429301D01*
X342351Y429762D01*
X341461Y430000D01*
X340539D01*
X339649Y429762D01*
X338851Y429301D01*
X338199Y428649D01*
X337738Y427851D01*
X337500Y426961D01*
Y426039D01*
X337738Y425149D01*
X338199Y424351D01*
X338851Y423699D01*
X339649Y423239D01*
X340539Y423000D01*
X341461D01*
X341583Y423033D01*
X351058Y413558D01*
X351720Y413116D01*
X352500Y412961D01*
X352500Y412961D01*
X358636D01*
X358699Y412851D01*
X359351Y412199D01*
X359461Y412136D01*
Y402355D01*
X359616Y401574D01*
X359616Y401574D01*
X360058Y400913D01*
X364040Y396931D01*
Y389703D01*
X363625Y389426D01*
X363511Y389473D01*
X337973Y415011D01*
X337733Y415591D01*
X337091Y416232D01*
X336253Y416579D01*
X335347D01*
X334509Y416232D01*
X333868Y415591D01*
X333521Y414753D01*
Y413847D01*
X333868Y413009D01*
X334509Y412367D01*
X335089Y412127D01*
X360627Y386589D01*
X360868Y386009D01*
X361509Y385367D01*
X361880Y385214D01*
X361978Y384723D01*
X361112Y383858D01*
X355244D01*
X355244Y383858D01*
X354463Y383702D01*
X354463Y383702D01*
X353802Y383260D01*
X353802Y383260D01*
X349458Y378917D01*
X349458Y378917D01*
X349194Y378521D01*
X349016Y378255D01*
X349016Y378255D01*
X349016Y378255D01*
X348908Y377711D01*
X348398Y377711D01*
X348384Y377780D01*
X347942Y378442D01*
X330425Y395958D01*
X330607Y396484D01*
X331291Y396767D01*
X331932Y397409D01*
X331978Y397519D01*
X330000D01*
Y399881D01*
X331978D01*
X331932Y399991D01*
X331291Y400632D01*
X330711Y400873D01*
X326739Y404845D01*
Y420619D01*
X322661D01*
Y404430D01*
X322161Y404223D01*
X314542Y411842D01*
X313880Y412284D01*
X313100Y412439D01*
X276332D01*
X276199Y412939D01*
X276649Y413199D01*
X277301Y413851D01*
X277762Y414649D01*
X278000Y415539D01*
Y416461D01*
X277967Y416583D01*
X284345Y422961D01*
X297136D01*
X297199Y422851D01*
X297851Y422199D01*
X298649Y421738D01*
X299539Y421500D01*
X300461D01*
X301351Y421738D01*
X302149Y422199D01*
X302801Y422851D01*
X303261Y423649D01*
X303500Y424539D01*
Y425461D01*
X303261Y426351D01*
X302801Y427149D01*
X302149Y427801D01*
X301351Y428262D01*
X300461Y428500D01*
X299539D01*
X298649Y428262D01*
X297851Y427801D01*
X297199Y427149D01*
X297136Y427039D01*
X283500D01*
X282720Y426884D01*
X282058Y426442D01*
X275083Y419467D01*
X274961Y419500D01*
X274039D01*
X273149Y419262D01*
X272351Y418801D01*
X271699Y418149D01*
X271238Y417351D01*
X271000Y416461D01*
Y415539D01*
X271238Y414649D01*
X271699Y413851D01*
X272351Y413199D01*
X272388Y413178D01*
X272254Y412678D01*
X271548D01*
X270710Y412331D01*
X270069Y411690D01*
X269722Y410852D01*
Y409945D01*
X270069Y409107D01*
X270075Y409101D01*
X269884Y408639D01*
X268860D01*
X268279Y408880D01*
X267373D01*
X266535Y408532D01*
X265894Y407891D01*
X265546Y407053D01*
Y406147D01*
X265894Y405309D01*
X266535Y404668D01*
X267373Y404320D01*
X268279D01*
X268860Y404561D01*
X305512D01*
X327261Y382812D01*
Y381016D01*
X326799Y380825D01*
X326791Y380833D01*
X325953Y381179D01*
X325047D01*
X324209Y380833D01*
X323568Y380191D01*
X323327Y379611D01*
X323255Y379539D01*
X250836D01*
X250629Y380039D01*
X251163Y380573D01*
X251683Y381474D01*
X251953Y382480D01*
Y383520D01*
X251683Y384526D01*
X251163Y385427D01*
X250427Y386163D01*
X249526Y386683D01*
X248520Y386953D01*
X247480D01*
X246474Y386683D01*
X245573Y386163D01*
X244837Y385427D01*
X244748Y385273D01*
X244170Y385214D01*
X236239Y393145D01*
Y405166D01*
X236479Y405747D01*
Y406653D01*
X236133Y407491D01*
X235491Y408133D01*
X234653Y408479D01*
X233747D01*
X232909Y408133D01*
X232267Y407491D01*
X231921Y406653D01*
Y405747D01*
X232161Y405166D01*
Y392300D01*
X232316Y391520D01*
X232758Y390858D01*
X242058Y381558D01*
X242720Y381116D01*
X243500Y380961D01*
X243500Y380961D01*
X244613D01*
X244837Y380573D01*
X245371Y380039D01*
X245164Y379539D01*
X225234D01*
X224653Y379780D01*
X223747D01*
X223355Y379617D01*
X222939Y379895D01*
Y400055D01*
X236442Y413558D01*
X236884Y414220D01*
X237039Y415000D01*
Y416999D01*
X238019Y417565D01*
X238935Y418481D01*
X239582Y419602D01*
X239741Y420195D01*
X240259D01*
X240418Y419602D01*
X241065Y418481D01*
X241981Y417565D01*
X243102Y416918D01*
X244353Y416583D01*
X245647D01*
X246898Y416918D01*
X248019Y417565D01*
X248935Y418481D01*
X249582Y419602D01*
X249917Y420853D01*
Y422147D01*
X249582Y423398D01*
X248935Y424519D01*
X248019Y425435D01*
X246898Y426082D01*
X245647Y426417D01*
X244353D01*
X243102Y426082D01*
X241981Y425435D01*
X241065Y424519D01*
X240418Y423398D01*
X240259Y422805D01*
X239741D01*
X239582Y423398D01*
X238935Y424519D01*
X238019Y425435D01*
X236898Y426082D01*
X235647Y426417D01*
X234353D01*
X233102Y426082D01*
X231981Y425435D01*
X231065Y424519D01*
X230418Y423398D01*
X230417Y423396D01*
X229917Y423462D01*
Y426417D01*
X220083D01*
Y416583D01*
X229917D01*
Y419538D01*
X230417Y419604D01*
X230418Y419602D01*
X231065Y418481D01*
X231827Y417718D01*
X231910Y417094D01*
X219458Y404642D01*
X219016Y403980D01*
X218861Y403200D01*
Y400900D01*
Y374200D01*
Y323245D01*
X212967Y317351D01*
X210099D01*
X209649Y317801D01*
X208851Y318262D01*
X207961Y318500D01*
X207039D01*
X206149Y318262D01*
X205351Y317801D01*
X204699Y317149D01*
X204372Y316582D01*
X203872Y316716D01*
Y428158D01*
X203859Y428223D01*
X204012Y429783D01*
X204487Y431346D01*
X205257Y432787D01*
X205292Y432830D01*
X206213Y433586D01*
X207654Y434356D01*
X209217Y434830D01*
X210777Y434984D01*
X210842Y434971D01*
X398158D01*
X398223Y434984D01*
X399783Y434830D01*
D02*
G37*
G36*
X323615Y374999D02*
X303297Y354681D01*
X291176D01*
X290595Y354921D01*
X289688D01*
X288851Y354574D01*
X288209Y353933D01*
X287862Y353095D01*
Y352188D01*
X288209Y351351D01*
X288821Y350739D01*
X288808Y350594D01*
X288679Y350239D01*
X247745D01*
X223264Y374720D01*
X223279Y374873D01*
X223747Y375220D01*
X224653D01*
X225234Y375461D01*
X323424D01*
X323615Y374999D01*
D02*
G37*
G36*
X344461Y376155D02*
Y368832D01*
X343767Y368138D01*
X343536Y367793D01*
X343325Y367477D01*
X343325Y367477D01*
X343325Y367476D01*
X343247Y367084D01*
X343170Y366696D01*
Y358566D01*
X342929Y357986D01*
Y357079D01*
X343276Y356241D01*
X343917Y355600D01*
X344289Y355446D01*
X344386Y354956D01*
X334157Y344727D01*
X329242Y349642D01*
X328580Y350084D01*
X327800Y350239D01*
X304878D01*
X304828Y350739D01*
X304922Y350758D01*
X305584Y351200D01*
X330742Y376358D01*
X331184Y377020D01*
X331339Y377800D01*
Y383657D01*
X331184Y384437D01*
X330742Y385099D01*
X307980Y407861D01*
X308187Y408361D01*
X312255D01*
X344461Y376155D01*
D02*
G37*
G36*
X351861Y356009D02*
Y335434D01*
X351621Y334853D01*
Y333947D01*
X351273Y333479D01*
X351120Y333464D01*
X346342Y338242D01*
X345680Y338684D01*
X344900Y338839D01*
X340045D01*
X337041Y341843D01*
X351399Y356201D01*
X351861Y356009D01*
D02*
G37*
%LPC*%
G36*
X325881Y423778D02*
Y422981D01*
X326678D01*
X326632Y423091D01*
X325991Y423733D01*
X325881Y423778D01*
D02*
G37*
G36*
X323519D02*
X323409Y423733D01*
X322767Y423091D01*
X322722Y422981D01*
X323519D01*
Y423778D01*
D02*
G37*
G36*
X381650Y407275D02*
X373350D01*
Y399567D01*
X381650D01*
Y407275D01*
D02*
G37*
G36*
X378681Y397350D02*
Y394760D01*
X381478D01*
X381162Y395523D01*
X380544Y396328D01*
X379739Y396946D01*
X378801Y397334D01*
X378681Y397350D01*
D02*
G37*
G36*
X376319D02*
X376199Y397334D01*
X375261Y396946D01*
X374456Y396328D01*
X373838Y395523D01*
X373522Y394760D01*
X376319D01*
Y397350D01*
D02*
G37*
G36*
X381478Y392398D02*
X378681D01*
Y389808D01*
X378801Y389824D01*
X379739Y390212D01*
X380544Y390830D01*
X381162Y391635D01*
X381478Y392398D01*
D02*
G37*
G36*
X376319D02*
X373522D01*
X373838Y391635D01*
X374456Y390830D01*
X375261Y390212D01*
X376199Y389824D01*
X376319Y389808D01*
Y392398D01*
D02*
G37*
G36*
X214020Y391453D02*
X212980D01*
X211974Y391183D01*
X211073Y390663D01*
X210337Y389927D01*
X209817Y389026D01*
X209547Y388020D01*
Y386980D01*
X209817Y385974D01*
X210337Y385073D01*
X211073Y384337D01*
X211974Y383817D01*
X212980Y383547D01*
X214020D01*
X215026Y383817D01*
X215927Y384337D01*
X216663Y385073D01*
X217183Y385974D01*
X217453Y386980D01*
Y388020D01*
X217183Y389026D01*
X216663Y389927D01*
X215927Y390663D01*
X215026Y391183D01*
X214020Y391453D01*
D02*
G37*
G36*
X377653Y368079D02*
X376747D01*
X376166Y367839D01*
X364357D01*
X363576Y367684D01*
X362915Y367242D01*
X361689Y366016D01*
X361109Y365776D01*
X360468Y365135D01*
X360121Y364297D01*
Y363390D01*
X360468Y362552D01*
X361109Y361911D01*
X361947Y361564D01*
X362853D01*
X363691Y361911D01*
X364333Y362552D01*
X364573Y363132D01*
X365201Y363761D01*
X376166D01*
X376747Y363521D01*
X377653D01*
X378491Y363867D01*
X379133Y364509D01*
X379480Y365347D01*
Y366253D01*
X379133Y367091D01*
X378491Y367733D01*
X377653Y368079D01*
D02*
G37*
G36*
X236520Y343953D02*
X235480D01*
X234474Y343683D01*
X233573Y343163D01*
X232837Y342427D01*
X232317Y341526D01*
X232047Y340520D01*
Y339480D01*
X232317Y338474D01*
X232837Y337573D01*
X233573Y336837D01*
X234474Y336317D01*
X235480Y336047D01*
X236520D01*
X237526Y336317D01*
X238427Y336837D01*
X239163Y337573D01*
X239683Y338474D01*
X239953Y339480D01*
Y340520D01*
X239683Y341526D01*
X239163Y342427D01*
X238427Y343163D01*
X237526Y343683D01*
X236520Y343953D01*
D02*
G37*
G36*
X389300Y421576D02*
X388520Y421421D01*
X387858Y420979D01*
X387416Y420317D01*
X387261Y419537D01*
Y419222D01*
X386867Y418828D01*
X386822Y418718D01*
X388800D01*
Y416356D01*
X386822D01*
X386867Y416246D01*
X387261Y415852D01*
Y334481D01*
X391339D01*
Y419537D01*
X391184Y420317D01*
X390742Y420979D01*
X390080Y421421D01*
X389300Y421576D01*
D02*
G37*
G36*
X391278Y332119D02*
X390481D01*
Y331322D01*
X390591Y331367D01*
X391232Y332009D01*
X391278Y332119D01*
D02*
G37*
G36*
X388119D02*
X387322D01*
X387368Y332009D01*
X388009Y331367D01*
X388119Y331322D01*
Y332119D01*
D02*
G37*
G36*
X282113Y298806D02*
Y295681D01*
X285737D01*
X285319Y296692D01*
X284622Y297600D01*
X283714Y298297D01*
X282657Y298735D01*
X282113Y298806D01*
D02*
G37*
G36*
X279750D02*
X279206Y298735D01*
X278149Y298297D01*
X277241Y297600D01*
X276544Y296692D01*
X276126Y295681D01*
X279750D01*
Y298806D01*
D02*
G37*
G36*
X285737Y293319D02*
X282113D01*
Y290194D01*
X282657Y290265D01*
X283714Y290703D01*
X284622Y291400D01*
X285319Y292308D01*
X285737Y293319D01*
D02*
G37*
G36*
X279750D02*
X276126D01*
X276544Y292308D01*
X277241Y291400D01*
X278149Y290703D01*
X279206Y290265D01*
X279750Y290194D01*
Y293319D01*
D02*
G37*
%LPD*%
D37*
X235000Y421500D02*
D03*
X245000D02*
D03*
D40*
X225000D02*
D03*
D44*
X389300Y333300D02*
Y419537D01*
X327800Y348200D02*
X339200Y336800D01*
X329114D02*
X350900Y358586D01*
X321563Y336800D02*
X329114D01*
X350900Y358586D02*
Y377475D01*
X355244Y381818D01*
X361956D01*
X366080Y385942D01*
Y397775D01*
X361500Y402355D02*
X366080Y397775D01*
X361500Y402355D02*
Y415000D01*
X220900Y322400D02*
X226500Y328000D01*
X353900Y334400D02*
Y375900D01*
X306744Y328872D02*
X307000Y329127D01*
X306744Y328872D02*
X357858Y327661D01*
X213812Y315312D02*
X220900Y322400D01*
X207812Y315312D02*
X213812D01*
X207500Y315000D02*
X207812Y315312D01*
X220900Y322400D02*
Y374200D01*
Y403200D02*
X235000Y417300D01*
X220900Y400900D02*
Y403200D01*
X304142Y352642D02*
X329300Y377800D01*
Y383657D01*
X290142Y352642D02*
X304142D01*
X224200Y377500D02*
X324100D01*
X325500Y378900D01*
X306357Y406600D02*
X329300Y383657D01*
X347000Y294000D02*
X352114Y299114D01*
X347000Y294000D02*
X395800D01*
X344000Y291000D02*
X347000Y294000D01*
X395800D02*
X401500Y299700D01*
X353543D02*
X355200D01*
X352114Y299114D02*
X353543Y299700D01*
X281522Y304500D02*
X283869Y306846D01*
Y307437D02*
X299911Y323480D01*
X280932Y304500D02*
X281522D01*
X299911Y323480D02*
X321890D01*
X283869Y306846D02*
Y307437D01*
X352500Y415000D02*
X361500D01*
X341000Y426500D02*
X352500Y415000D01*
X235000Y417300D02*
Y421500D01*
Y415000D02*
Y417300D01*
X339200Y336800D02*
X344900D01*
X366400Y331100D02*
X383000Y314500D01*
X344900Y336800D02*
X350600Y331100D01*
X366400D01*
X220900Y400900D02*
X235000Y415000D01*
X220900Y374200D02*
Y400900D01*
X246900Y348200D02*
X327800D01*
X220900Y374200D02*
X246900Y348200D01*
X324700Y404000D02*
X330000Y398700D01*
X324700Y404000D02*
Y421800D01*
X307000Y329127D02*
Y335500D01*
X357858Y327661D02*
X366052Y322453D01*
X368953Y315449D02*
Y319552D01*
X366052Y322453D02*
X368953Y319552D01*
X356372Y300872D02*
X368953Y315449D01*
X355200Y299700D02*
X356372Y300872D01*
X364357Y365800D02*
X377200D01*
X362400Y363843D02*
X364357Y365800D01*
X351248Y323382D02*
X356500Y324382D01*
X321890Y323480D02*
X324170Y321200D01*
X341350Y323382D02*
X351248D01*
X283500Y425000D02*
X300000D01*
X274500Y416000D02*
X283500Y425000D01*
X272003Y410400D02*
X313100D01*
X267826Y406600D02*
X306357D01*
X272001Y410399D02*
X272003Y410400D01*
X345209Y357532D02*
Y366696D01*
X346500Y367988D01*
X313100Y410400D02*
X346500Y377000D01*
Y367988D02*
Y377000D01*
X324170Y321200D02*
X339168D01*
X341350Y323382D01*
X335800Y414300D02*
X362800Y387300D01*
X243500Y383000D02*
X248000D01*
X234200Y392300D02*
X243500Y383000D01*
X234200Y392300D02*
Y406200D01*
D47*
X364000Y317500D02*
D03*
X383000Y314500D02*
D03*
X344000Y291000D02*
D03*
X236000Y340000D02*
D03*
X248000Y383000D02*
D03*
X213500Y387500D02*
D03*
D48*
X377500Y393579D02*
D03*
D49*
Y403421D02*
D03*
D50*
X280932Y294500D02*
D03*
D51*
Y304500D02*
D03*
D52*
X306744Y328872D02*
D03*
X325500Y378900D02*
D03*
X321563Y336800D02*
D03*
X388800Y417537D02*
D03*
X389300Y333300D02*
D03*
X324700Y421800D02*
D03*
X330000Y398700D02*
D03*
X267826Y406600D02*
D03*
X307000Y335500D02*
D03*
X401500Y299700D02*
D03*
X377200Y365800D02*
D03*
X362400Y363843D02*
D03*
X356500Y324382D02*
D03*
X272001Y410399D02*
D03*
X353900Y334400D02*
D03*
X345209Y357532D02*
D03*
X290142Y352642D02*
D03*
X335800Y414300D02*
D03*
X362800Y387300D02*
D03*
X234200Y406200D02*
D03*
X224200Y377500D02*
D03*
X354400Y376337D02*
D03*
D53*
X207500Y315000D02*
D03*
X226500Y328000D02*
D03*
X361500Y415000D02*
D03*
X341000Y426500D02*
D03*
X274500Y416000D02*
D03*
X300000Y425000D02*
D03*
M02*
