G04*
G04 #@! TF.GenerationSoftware,Altium Limited,Altium Designer,26.5.0 (11)*
G04*
G04 Layer_Physical_Order=1*
G04 Layer_Color=255*
G04 Board_Origin=0|0*
%FSLAX25Y25*%
%MOIN*%
G70*
G04*
G04 #@! TF.SameCoordinates,45F7CA4D-C000-4621-8C22-E4E6617E212B*
G04*
G04*
G04 #@! TF.FilePolarity,Positive*
G04*
G01*
G75*
%ADD17R,0.04331X0.05512*%
%ADD19R,0.05512X0.04331*%
%ADD20R,0.02362X0.05984*%
%ADD21R,0.15748X0.07874*%
%ADD22R,0.04331X0.01968*%
%ADD23R,0.02362X0.03937*%
%ADD24R,0.08600X0.02200*%
%ADD25R,0.07087X0.06693*%
%ADD37C,0.07835*%
%ADD40R,0.07835X0.07835*%
%ADD43R,0.05200X0.02200*%
%ADD44C,0.02000*%
%ADD45C,0.03937*%
%ADD46C,0.02756*%
%ADD47C,0.05906*%
%ADD48O,0.06299X0.05709*%
%ADD49R,0.06299X0.05709*%
%ADD50O,0.07874X0.06693*%
%ADD51R,0.07874X0.06693*%
%ADD52C,0.02559*%
%ADD53C,0.05000*%
G36*
X402787Y433586D02*
X404049Y432549D01*
X405086Y431287D01*
X405388Y430722D01*
X405673Y429783D01*
X405826Y428223D01*
X405813Y428158D01*
Y290689D01*
X405826Y290623D01*
X405702Y289367D01*
X405086Y288213D01*
X404049Y286950D01*
X402787Y285914D01*
X401346Y285144D01*
X399783Y284670D01*
X398223Y284516D01*
X398158Y284529D01*
X210842D01*
X210777Y284516D01*
X209217Y284670D01*
X207654Y285144D01*
X206213Y285914D01*
X205029Y286886D01*
Y300113D01*
X205150Y300563D01*
X222898D01*
Y310437D01*
X213274D01*
Y311266D01*
X213118Y312046D01*
X212676Y312707D01*
X210967Y314417D01*
X211000Y314539D01*
Y315461D01*
X210761Y316351D01*
X210301Y317149D01*
X209649Y317801D01*
X208851Y318262D01*
X207961Y318500D01*
X207039D01*
X206149Y318262D01*
X205529Y317904D01*
X205029Y318140D01*
Y432361D01*
X205257Y432787D01*
X205292Y432830D01*
X205641Y433116D01*
X249653Y433225D01*
X402749Y433606D01*
X402787Y433586D01*
D02*
G37*
%LPC*%
G36*
X379084Y431642D02*
X371860D01*
X371079Y431486D01*
X370418Y431044D01*
X369350Y429976D01*
X353659D01*
X353256Y430246D01*
Y431602D01*
X350681D01*
Y428437D01*
Y425272D01*
X352644D01*
X352761Y425155D01*
Y423728D01*
X345744D01*
Y422352D01*
X335756D01*
Y423228D01*
X328244D01*
Y416898D01*
X334808D01*
X334908Y416398D01*
X334509Y416232D01*
X333868Y415591D01*
X333521Y414753D01*
Y413847D01*
X333868Y413009D01*
X334509Y412367D01*
X335089Y412127D01*
X335577Y411639D01*
X335835Y411256D01*
X335835D01*
X335835Y411256D01*
Y404239D01*
X332185D01*
X325379Y411045D01*
X323279Y413145D01*
Y417886D01*
X323124Y418666D01*
X322682Y419328D01*
X322021Y419770D01*
X321240Y419925D01*
X318953D01*
X318172Y419770D01*
X318040Y419681D01*
X317921D01*
X317921Y419681D01*
X317724Y419642D01*
X308079D01*
Y419100D01*
X298200D01*
Y419039D01*
X295045D01*
X290642Y423442D01*
X289980Y423884D01*
X289200Y424039D01*
X270701D01*
X269921Y423884D01*
X269260Y423442D01*
X261755Y415938D01*
X245199D01*
X245199Y415938D01*
X244418Y415783D01*
X243757Y415341D01*
X241858Y413442D01*
X241416Y412780D01*
X241261Y412000D01*
Y403263D01*
X241416Y402483D01*
X241858Y401821D01*
X244321Y399358D01*
X242752Y397789D01*
X238821D01*
Y397850D01*
X231621D01*
Y394100D01*
X227704D01*
Y396871D01*
X227548Y397651D01*
X227106Y398313D01*
X224637Y400782D01*
X224828Y401244D01*
X229165D01*
Y404161D01*
X233166D01*
X233747Y403921D01*
X234653D01*
X235491Y404268D01*
X236133Y404909D01*
X236479Y405747D01*
Y406653D01*
X236133Y407491D01*
X235491Y408133D01*
X235218Y408246D01*
X235120Y408736D01*
X243259Y416876D01*
X244353Y416583D01*
X245647D01*
X246898Y416918D01*
X248019Y417565D01*
X248935Y418481D01*
X249582Y419602D01*
X249917Y420853D01*
Y422147D01*
X249582Y423398D01*
X248935Y424519D01*
X248019Y425435D01*
X246898Y426082D01*
X245647Y426417D01*
X244353D01*
X243102Y426082D01*
X241981Y425435D01*
X241065Y424519D01*
X240418Y423398D01*
X240259Y422805D01*
X239741D01*
X239582Y423398D01*
X238935Y424519D01*
X238019Y425435D01*
X236898Y426082D01*
X235647Y426417D01*
X234353D01*
X233102Y426082D01*
X231981Y425435D01*
X231065Y424519D01*
X230418Y423398D01*
X230417Y423396D01*
X229917Y423462D01*
Y426417D01*
X220083D01*
Y419466D01*
X216684Y416068D01*
X216242Y415406D01*
X216087Y414626D01*
Y408756D01*
X214961D01*
Y401244D01*
X218408D01*
X223625Y396026D01*
Y393932D01*
X223384Y393884D01*
X222723Y393442D01*
X218820Y389539D01*
X216887D01*
X216663Y389927D01*
X215927Y390663D01*
X215026Y391183D01*
X214020Y391453D01*
X212980D01*
X211974Y391183D01*
X211073Y390663D01*
X210337Y389927D01*
X209817Y389026D01*
X209547Y388020D01*
Y386980D01*
X209817Y385974D01*
X210337Y385073D01*
X211073Y384337D01*
X211974Y383817D01*
X212980Y383547D01*
X214020D01*
X215026Y383817D01*
X215927Y384337D01*
X216663Y385073D01*
X216887Y385461D01*
X219664D01*
X220445Y385616D01*
X221106Y386058D01*
X221699Y386651D01*
X222161Y386459D01*
Y378534D01*
X221920Y377953D01*
Y377047D01*
X222268Y376209D01*
X222909Y375568D01*
X223747Y375220D01*
X224653D01*
X225491Y375568D01*
X226132Y376209D01*
X226480Y377047D01*
Y377953D01*
X226239Y378534D01*
Y389900D01*
X230817D01*
X231084Y389400D01*
X230837Y389030D01*
X230682Y388250D01*
X230837Y387470D01*
X231279Y386808D01*
X231621Y386580D01*
Y386150D01*
X238821D01*
Y386211D01*
X241905D01*
X244163Y383953D01*
X244047Y383520D01*
Y382480D01*
X244317Y381474D01*
X244837Y380573D01*
X245573Y379837D01*
X245961Y379613D01*
Y375196D01*
X245616Y374680D01*
X245461Y373900D01*
Y368602D01*
X243744D01*
Y367476D01*
X237756D01*
Y368602D01*
X230244D01*
Y367476D01*
X217756D01*
Y368602D01*
X210244D01*
Y362272D01*
X217756D01*
Y363398D01*
X230244D01*
Y362272D01*
X237756D01*
Y363398D01*
X243744D01*
Y362272D01*
X251256D01*
Y363398D01*
X254744D01*
Y362272D01*
X262256D01*
Y367966D01*
X262756Y368376D01*
X263042Y368319D01*
X270315D01*
Y366012D01*
X271312D01*
X271503Y365550D01*
X265555Y359602D01*
X262256D01*
Y360728D01*
X254744D01*
Y359602D01*
X251256D01*
Y360728D01*
X243744D01*
Y358014D01*
X243627Y357924D01*
X239456Y353753D01*
X238994Y353945D01*
Y356154D01*
X238892Y356928D01*
X238593Y357651D01*
X238117Y358271D01*
X237756Y358548D01*
Y360728D01*
X230244D01*
Y359602D01*
X217756D01*
Y360728D01*
X210244D01*
Y354398D01*
X217756D01*
Y355524D01*
X230244D01*
Y354398D01*
X233006D01*
Y350347D01*
X232706Y349992D01*
X231925Y349837D01*
X231264Y349395D01*
X219599Y337729D01*
X219156Y337068D01*
X219001Y336287D01*
Y316798D01*
X219156Y316017D01*
X219599Y315356D01*
X221356Y313598D01*
X222017Y313156D01*
X222798Y313001D01*
X225283D01*
X226063Y313156D01*
X226725Y313598D01*
X237065Y323939D01*
X237507Y324600D01*
X237663Y325381D01*
Y325424D01*
X238124Y325615D01*
X258835Y304905D01*
Y297256D01*
X257709D01*
Y289744D01*
X264039D01*
Y294372D01*
X272128Y302461D01*
X275995D01*
Y300153D01*
X285869D01*
Y301506D01*
X307100D01*
X307875Y301608D01*
X308597Y301907D01*
X309217Y302383D01*
X316210Y309376D01*
X329800D01*
X330728Y309560D01*
X331514Y310086D01*
X331899Y310661D01*
X339737D01*
X340517Y310816D01*
X341179Y311258D01*
X345165Y315244D01*
X347196D01*
X347513Y314858D01*
X347461Y314595D01*
Y312102D01*
X345744D01*
Y305772D01*
X353256D01*
Y312102D01*
X351539D01*
Y313750D01*
X352686Y314897D01*
X353128Y315559D01*
X353283Y316339D01*
Y318086D01*
X353686Y318489D01*
X353686Y318489D01*
X354260Y319063D01*
X359740D01*
X360203Y318600D01*
X360047Y318020D01*
Y316980D01*
X360317Y315974D01*
X360837Y315073D01*
X361573Y314337D01*
X362474Y313817D01*
X363480Y313547D01*
X364520D01*
X365526Y313817D01*
X366427Y314337D01*
X367163Y315073D01*
X367683Y315974D01*
X367953Y316980D01*
Y318020D01*
X367916Y318157D01*
X368942Y319182D01*
X369384Y319844D01*
X369539Y320624D01*
Y321212D01*
X370936Y322609D01*
X371398Y322417D01*
Y320244D01*
X377728D01*
Y327756D01*
X376102D01*
Y333244D01*
X377228D01*
Y340756D01*
X370898D01*
Y333244D01*
X372024D01*
Y327756D01*
X371398D01*
Y327283D01*
X370687D01*
X369907Y327128D01*
X369256Y326693D01*
X369038Y326733D01*
X368756Y326850D01*
Y326882D01*
X366181D01*
Y324898D01*
X366804D01*
X366995Y324436D01*
X366058Y323499D01*
X365616Y322837D01*
X365461Y322057D01*
Y321677D01*
X365023Y321318D01*
X364520Y321453D01*
X363480D01*
X363194Y321376D01*
X362026Y322544D01*
X362026Y322544D01*
X362026Y322544D01*
X361763Y322720D01*
X361365Y322986D01*
X361365Y322986D01*
X361365Y322986D01*
X360584Y323142D01*
X360584Y323142D01*
X360584Y323142D01*
X358904D01*
X358626Y323557D01*
X358780Y323929D01*
Y324835D01*
X358681Y325073D01*
Y332705D01*
X356082D01*
X355872Y333205D01*
X356179Y333947D01*
Y334853D01*
X355833Y335691D01*
X355191Y336333D01*
X354353Y336680D01*
X353447D01*
X352866Y336439D01*
X348900D01*
X348120Y336284D01*
X347458Y335842D01*
X345058Y333442D01*
X344616Y332780D01*
X344601Y332705D01*
X344319D01*
Y324721D01*
X348681D01*
Y331005D01*
X348819Y331103D01*
X349319Y330846D01*
Y324721D01*
X349461D01*
Y319862D01*
X349360Y319711D01*
X349205Y318931D01*
Y317526D01*
X349102Y317458D01*
X348602Y317725D01*
Y322756D01*
X342272D01*
Y318119D01*
X341190Y317037D01*
X340728Y317229D01*
Y322756D01*
X334398D01*
X334357Y322882D01*
X330500D01*
X326744D01*
Y320922D01*
X326552Y320884D01*
X325891Y320442D01*
X323390Y317942D01*
X318641D01*
X312078Y324505D01*
X311416Y324947D01*
X310636Y325102D01*
X304000D01*
Y327000D01*
X296488D01*
Y325555D01*
X292043D01*
X291688Y325484D01*
X288862D01*
Y321516D01*
X291751D01*
X292028Y321461D01*
X292107Y321477D01*
X296488D01*
Y320669D01*
X304000D01*
Y321024D01*
X309791D01*
X315870Y314946D01*
X315586Y314522D01*
X315175Y314692D01*
X314400Y314794D01*
X313625Y314692D01*
X312903Y314393D01*
X312283Y313917D01*
X305860Y307494D01*
X285869D01*
Y308846D01*
X275995D01*
Y306539D01*
X271284D01*
X271283Y306539D01*
X270503Y306384D01*
X269842Y305942D01*
X269842Y305942D01*
X263375Y299476D01*
X262913Y299667D01*
Y305749D01*
X262758Y306530D01*
X262316Y307191D01*
X237663Y331845D01*
Y336022D01*
X238984D01*
X239759Y336124D01*
X240481Y336423D01*
X241101Y336899D01*
X241577Y337519D01*
X241876Y338241D01*
X241978Y339016D01*
X241876Y339791D01*
X241577Y340513D01*
X241101Y341133D01*
X240481Y341609D01*
X239759Y341908D01*
X239438Y341950D01*
X239163Y342427D01*
X239138Y342452D01*
X239330Y342914D01*
X240502D01*
X240890Y342991D01*
X241282Y343069D01*
X241282Y343069D01*
X241282Y343069D01*
X241656Y343319D01*
X241944Y343511D01*
X241944Y343511D01*
X241944Y343511D01*
X241944Y343511D01*
X242894Y344461D01*
X303424D01*
X303940Y344116D01*
X304721Y343961D01*
X304721Y343961D01*
X318398D01*
Y342244D01*
X319524D01*
Y337834D01*
X319284Y337253D01*
Y336347D01*
X319631Y335509D01*
X319883Y335256D01*
X319676Y334756D01*
X317772D01*
Y327244D01*
X324102D01*
Y328961D01*
X326000D01*
X326413Y329043D01*
X326744Y328772D01*
Y328772D01*
X334256D01*
Y335102D01*
X326744D01*
Y333938D01*
X326157Y333821D01*
X325495Y333379D01*
X325155Y333039D01*
X324102D01*
Y334756D01*
X323450D01*
X323243Y335256D01*
X323496Y335509D01*
X323843Y336347D01*
Y337253D01*
X323602Y337834D01*
Y342244D01*
X324728D01*
Y349756D01*
X318398D01*
Y348039D01*
X312079D01*
X311685Y348295D01*
Y356988D01*
X302599D01*
Y354681D01*
X291176D01*
X290595Y354921D01*
X289688D01*
X289108Y354681D01*
X279401D01*
Y356988D01*
X270315D01*
Y348539D01*
X243364D01*
X243172Y349001D01*
X247861Y353690D01*
X248337Y354310D01*
X248373Y354398D01*
X251256D01*
Y355524D01*
X254744D01*
Y354398D01*
X262256D01*
Y355524D01*
X266400D01*
X267180Y355679D01*
X267842Y356121D01*
X276300Y364579D01*
X276742Y365241D01*
X276895Y366012D01*
X279401D01*
Y368319D01*
X302599D01*
Y366012D01*
X311685D01*
Y374705D01*
X302599D01*
Y372397D01*
X279401D01*
Y374705D01*
X270315D01*
Y372397D01*
X263886D01*
X259439Y376845D01*
Y389524D01*
X259744Y389898D01*
X259939Y389898D01*
X262319D01*
Y393063D01*
Y396228D01*
X259904D01*
X259744Y396228D01*
X259345Y396473D01*
X259284Y396780D01*
X258842Y397442D01*
X254279Y402005D01*
X253617Y402447D01*
X252837Y402602D01*
X252756D01*
Y403728D01*
X245719D01*
X245339Y404108D01*
Y405272D01*
X252756D01*
Y406398D01*
X261004D01*
X261784Y406553D01*
X262446Y406995D01*
X263810Y408359D01*
X265708D01*
X265900Y407898D01*
X265894Y407891D01*
X265546Y407053D01*
Y406147D01*
X265787Y405566D01*
Y404913D01*
X263117D01*
X262800Y404976D01*
X262000D01*
X261220Y404821D01*
X260558Y404379D01*
X260373Y404102D01*
X259744D01*
Y397772D01*
X267256D01*
Y399639D01*
X267642Y399956D01*
X267937Y399898D01*
X268244D01*
Y398772D01*
X275756D01*
Y400835D01*
X279600D01*
Y399900D01*
X289363D01*
X289554Y399438D01*
X289216Y399100D01*
X279600D01*
Y394900D01*
X290200D01*
Y395001D01*
X290780Y395116D01*
X291442Y395558D01*
X294442Y398558D01*
X294884Y399220D01*
X295039Y400000D01*
Y411155D01*
X297700Y413816D01*
X298200Y413609D01*
Y413181D01*
X308800D01*
Y413705D01*
X319201D01*
Y412300D01*
X319356Y411520D01*
X319798Y410858D01*
X322495Y408161D01*
X329256Y401400D01*
X329139Y400811D01*
X328709Y400632D01*
X328067Y399991D01*
X328022Y399881D01*
X332217D01*
X332403Y400161D01*
X351500D01*
X352280Y400316D01*
X352942Y400758D01*
X360645Y408461D01*
X363823D01*
X364604Y408616D01*
X365265Y409058D01*
X370589Y414382D01*
X373461D01*
Y407275D01*
X373350D01*
Y399567D01*
X381650D01*
Y407275D01*
X377539D01*
Y414398D01*
X379256D01*
Y420250D01*
X379256Y420590D01*
X379686Y420834D01*
X379740Y420813D01*
X384458Y416095D01*
X385120Y415653D01*
X385900Y415498D01*
X387619D01*
Y417537D01*
Y419576D01*
X386745D01*
X382295Y424026D01*
Y428431D01*
X382140Y429211D01*
X381698Y429873D01*
X380526Y431044D01*
X379865Y431486D01*
X379084Y431642D01*
D02*
G37*
G36*
X335756Y431102D02*
X328244D01*
Y429758D01*
X319921D01*
Y430469D01*
X315181D01*
Y427500D01*
Y424532D01*
X319921D01*
Y425679D01*
X328244D01*
Y424772D01*
X332531D01*
X332728Y424732D01*
X332728Y424732D01*
X332728Y424732D01*
X334545D01*
X334720Y424616D01*
X335500Y424461D01*
X338136D01*
X338199Y424351D01*
X338851Y423699D01*
X339649Y423239D01*
X340539Y423000D01*
X341461D01*
X342351Y423239D01*
X343149Y423699D01*
X343801Y424351D01*
X344262Y425149D01*
X344500Y426039D01*
Y426961D01*
X344262Y427851D01*
X343801Y428649D01*
X343149Y429301D01*
X342351Y429762D01*
X341461Y430000D01*
X340539D01*
X339649Y429762D01*
X338851Y429301D01*
X338199Y428649D01*
X338136Y428539D01*
X336183D01*
X336009Y428656D01*
X335756Y428706D01*
Y431102D01*
D02*
G37*
G36*
X348319Y431602D02*
X345744D01*
Y429618D01*
X348319D01*
Y431602D01*
D02*
G37*
G36*
X312819Y430469D02*
X308079D01*
Y427415D01*
X307702Y427039D01*
X302864D01*
X302801Y427149D01*
X302149Y427801D01*
X301351Y428262D01*
X300461Y428500D01*
X299539D01*
X298649Y428262D01*
X297851Y427801D01*
X297199Y427149D01*
X296739Y426351D01*
X296500Y425461D01*
Y424539D01*
X296739Y423649D01*
X297199Y422851D01*
X297851Y422199D01*
X298649Y421738D01*
X299539Y421500D01*
X300461D01*
X301351Y421738D01*
X302149Y422199D01*
X302801Y422851D01*
X302864Y422961D01*
X308547D01*
X309328Y423116D01*
X309989Y423558D01*
X310963Y424532D01*
X312819D01*
Y427500D01*
Y430469D01*
D02*
G37*
G36*
X348319Y427256D02*
X345744D01*
Y425272D01*
X348319D01*
Y427256D01*
D02*
G37*
G36*
X325881Y423778D02*
Y422981D01*
X326678D01*
X326632Y423091D01*
X325991Y423733D01*
X325881Y423778D01*
D02*
G37*
G36*
X323519D02*
X323409Y423733D01*
X322767Y423091D01*
X322722Y422981D01*
X323519D01*
Y423778D01*
D02*
G37*
G36*
X326678Y420619D02*
X325881D01*
Y419822D01*
X325991Y419868D01*
X326632Y420509D01*
X326678Y420619D01*
D02*
G37*
G36*
X323519D02*
X322722D01*
X322767Y420509D01*
X323409Y419868D01*
X323519Y419822D01*
Y420619D01*
D02*
G37*
G36*
X389981Y419515D02*
Y418718D01*
X390778D01*
X390733Y418828D01*
X390091Y419469D01*
X389981Y419515D01*
D02*
G37*
G36*
X390778Y416356D02*
X389981D01*
Y415559D01*
X390091Y415604D01*
X390733Y416246D01*
X390778Y416356D01*
D02*
G37*
G36*
X308800Y410819D02*
X304681D01*
Y409900D01*
X308800D01*
Y410819D01*
D02*
G37*
G36*
X302319D02*
X298200D01*
Y409900D01*
X302319D01*
Y410819D01*
D02*
G37*
G36*
X308800Y409100D02*
X304681D01*
Y408181D01*
X308800D01*
Y409100D01*
D02*
G37*
G36*
X302319D02*
X298200D01*
Y408181D01*
X302319D01*
Y409100D01*
D02*
G37*
G36*
X308800Y405819D02*
X304681D01*
Y404900D01*
X308800D01*
Y405819D01*
D02*
G37*
G36*
X302319D02*
X298200D01*
Y404900D01*
X302319D01*
Y405819D01*
D02*
G37*
G36*
X308800Y404100D02*
X304681D01*
Y403181D01*
X308800D01*
Y404100D01*
D02*
G37*
G36*
X302319D02*
X298200D01*
Y403181D01*
X302319D01*
Y404100D01*
D02*
G37*
G36*
X308800Y400819D02*
X304681D01*
Y399900D01*
X308800D01*
Y400819D01*
D02*
G37*
G36*
X302319D02*
X298200D01*
Y399900D01*
X302319D01*
Y400819D01*
D02*
G37*
G36*
X308800Y399100D02*
X304681D01*
Y398181D01*
X308800D01*
Y399100D01*
D02*
G37*
G36*
X302319D02*
X298200D01*
Y398181D01*
X302319D01*
Y399100D01*
D02*
G37*
G36*
X275756Y397228D02*
X273181D01*
Y395244D01*
X275756D01*
Y397228D01*
D02*
G37*
G36*
X270819D02*
X268244D01*
Y395244D01*
X270819D01*
Y397228D01*
D02*
G37*
G36*
X308800Y395819D02*
X304681D01*
Y394900D01*
X308800D01*
Y395819D01*
D02*
G37*
G36*
X302319D02*
X298200D01*
Y394900D01*
X302319D01*
Y395819D01*
D02*
G37*
G36*
X378681Y397350D02*
Y394760D01*
X381478D01*
X381162Y395523D01*
X380544Y396328D01*
X379739Y396946D01*
X378801Y397334D01*
X378681Y397350D01*
D02*
G37*
G36*
X376319D02*
X376199Y397334D01*
X375261Y396946D01*
X374456Y396328D01*
X373838Y395523D01*
X373522Y394760D01*
X376319D01*
Y397350D01*
D02*
G37*
G36*
X264681Y396228D02*
Y394244D01*
X267256D01*
Y396228D01*
X264681D01*
D02*
G37*
G36*
X308800Y394100D02*
X304681D01*
Y393181D01*
X308800D01*
Y394100D01*
D02*
G37*
G36*
X302319D02*
X298200D01*
Y393181D01*
X302319D01*
Y394100D01*
D02*
G37*
G36*
X290200D02*
X286081D01*
Y393181D01*
X290200D01*
Y394100D01*
D02*
G37*
G36*
X283719D02*
X279600D01*
Y393181D01*
X283719D01*
Y394100D01*
D02*
G37*
G36*
X275756Y392882D02*
X273181D01*
Y390898D01*
X275756D01*
Y392882D01*
D02*
G37*
G36*
X270819D02*
X268244D01*
Y390898D01*
X270819D01*
Y392882D01*
D02*
G37*
G36*
X308800Y390819D02*
X304681D01*
Y389900D01*
X308800D01*
Y390819D01*
D02*
G37*
G36*
X302319D02*
X298200D01*
Y389900D01*
X302319D01*
Y390819D01*
D02*
G37*
G36*
X290200D02*
X286081D01*
Y389900D01*
X290200D01*
Y390819D01*
D02*
G37*
G36*
X283719D02*
X279600D01*
Y389900D01*
X283719D01*
Y390819D01*
D02*
G37*
G36*
X267256Y391882D02*
X264681D01*
Y389898D01*
X267256D01*
Y391882D01*
D02*
G37*
G36*
X381478Y392398D02*
X378681D01*
Y389808D01*
X378801Y389824D01*
X379739Y390212D01*
X380544Y390830D01*
X381162Y391635D01*
X381478Y392398D01*
D02*
G37*
G36*
X376319D02*
X373522D01*
X373838Y391635D01*
X374456Y390830D01*
X375261Y390212D01*
X376199Y389824D01*
X376319Y389808D01*
Y392398D01*
D02*
G37*
G36*
X290200Y389100D02*
X286081D01*
Y388181D01*
X290200D01*
Y389100D01*
D02*
G37*
G36*
X283719D02*
X279600D01*
Y388181D01*
X283719D01*
Y389100D01*
D02*
G37*
G36*
X308800D02*
X298200D01*
Y384900D01*
X308800D01*
Y389100D01*
D02*
G37*
G36*
X290200Y385819D02*
X286081D01*
Y384900D01*
X290200D01*
Y385819D01*
D02*
G37*
G36*
X283719D02*
X279600D01*
Y384900D01*
X283719D01*
Y385819D01*
D02*
G37*
G36*
X290200Y384100D02*
X286081D01*
Y383181D01*
X290200D01*
Y384100D01*
D02*
G37*
G36*
X283719D02*
X279600D01*
Y383181D01*
X283719D01*
Y384100D01*
D02*
G37*
G36*
X308800D02*
X298200D01*
Y379900D01*
X308800D01*
Y384100D01*
D02*
G37*
G36*
X290200Y380819D02*
X286081D01*
Y379900D01*
X290200D01*
Y380819D01*
D02*
G37*
G36*
X283719D02*
X279600D01*
Y379900D01*
X283719D01*
Y380819D01*
D02*
G37*
G36*
X331996Y397519D02*
X328004D01*
X327784Y397039D01*
X316000D01*
X315220Y396884D01*
X314558Y396442D01*
X312458Y394342D01*
X312016Y393680D01*
X311861Y392900D01*
Y379550D01*
X312016Y378769D01*
X312458Y378108D01*
X322398Y368168D01*
Y356000D01*
X322553Y355220D01*
X322995Y354558D01*
X327297Y350256D01*
X327155Y349756D01*
X326272D01*
Y342244D01*
X332602D01*
Y348646D01*
X333064Y348838D01*
X339461Y342441D01*
Y332705D01*
X339319D01*
Y324721D01*
X343681D01*
Y332705D01*
X343539D01*
Y343286D01*
X343384Y344066D01*
X342942Y344728D01*
X341836Y345833D01*
X342028Y346295D01*
X343681D01*
Y349106D01*
X341500D01*
X339319D01*
Y349004D01*
X338857Y348813D01*
X335602Y352067D01*
Y385244D01*
X336728D01*
Y392756D01*
X337143Y392961D01*
X337857D01*
X338272Y392756D01*
X338272Y392461D01*
Y385244D01*
X339398D01*
Y378472D01*
X339553Y377692D01*
X339995Y377030D01*
X343244Y373781D01*
Y370335D01*
X350278D01*
X350618Y370335D01*
X350861Y369905D01*
X350840Y369850D01*
X349781Y368791D01*
X343244D01*
Y362461D01*
X350756D01*
Y364060D01*
X350942Y364184D01*
X355030Y368272D01*
X361756D01*
Y374602D01*
X356439D01*
Y375303D01*
X356680Y375884D01*
Y376790D01*
X356332Y377628D01*
X355691Y378270D01*
X354853Y378616D01*
X353947D01*
X353109Y378270D01*
X352467Y377628D01*
X352227Y377048D01*
X351218Y376039D01*
X350756Y376230D01*
Y376665D01*
X346128D01*
X343476Y379317D01*
Y385244D01*
X344602D01*
Y392461D01*
X344602Y392756D01*
X345018Y392961D01*
X355155D01*
X360521Y387596D01*
Y386847D01*
X360868Y386009D01*
X361509Y385367D01*
X362089Y385127D01*
X366045Y381171D01*
Y365029D01*
X365142Y364125D01*
X364658Y364349D01*
X364333Y365135D01*
X363691Y365776D01*
X362853Y366123D01*
X361947D01*
X361756Y366250D01*
Y366728D01*
X354244D01*
Y363281D01*
X350058Y359096D01*
X349616Y358434D01*
X349461Y357654D01*
Y354279D01*
X349319D01*
Y346295D01*
X353681D01*
Y354279D01*
X353539D01*
Y356809D01*
X357128Y360398D01*
X360760D01*
X360952Y359936D01*
X355296Y354279D01*
X354319D01*
Y346295D01*
X358681D01*
Y351897D01*
X369526Y362742D01*
X369968Y363404D01*
X370123Y364184D01*
Y382016D01*
X369968Y382796D01*
X369526Y383458D01*
X369526Y383458D01*
X364973Y388011D01*
X364788Y388457D01*
X364684Y388980D01*
X364242Y389642D01*
X357442Y396442D01*
X356780Y396884D01*
X356000Y397039D01*
X332216D01*
X331996Y397519D01*
D02*
G37*
G36*
X343681Y354279D02*
X342681D01*
Y351468D01*
X343681D01*
Y354279D01*
D02*
G37*
G36*
X340319D02*
X339319D01*
Y351468D01*
X340319D01*
Y354279D01*
D02*
G37*
G36*
X345662Y359812D02*
X344755D01*
X343917Y359465D01*
X343276Y358824D01*
X342929Y357986D01*
Y357079D01*
X343276Y356241D01*
X343917Y355600D01*
X344261Y355457D01*
X344461Y355258D01*
Y354279D01*
X344319D01*
Y346295D01*
X348681D01*
Y354279D01*
X348539D01*
Y356103D01*
X348462Y356491D01*
X348384Y356883D01*
X348384Y356883D01*
X348384Y356883D01*
X348172Y357200D01*
X347942Y357544D01*
X347480Y358007D01*
X347141Y358824D01*
X346500Y359465D01*
X345662Y359812D01*
D02*
G37*
G36*
X390481Y335278D02*
Y334481D01*
X391278D01*
X391232Y334591D01*
X390591Y335232D01*
X390481Y335278D01*
D02*
G37*
G36*
X388119D02*
X388009Y335232D01*
X387368Y334591D01*
X387322Y334481D01*
X388119D01*
Y335278D01*
D02*
G37*
G36*
X307453Y337779D02*
X306547D01*
X305709Y337433D01*
X305067Y336791D01*
X304720Y335953D01*
Y335047D01*
X305067Y334209D01*
X305068Y334208D01*
Y334090D01*
X304726Y333748D01*
X304000D01*
Y334874D01*
X296488D01*
Y328543D01*
X304000D01*
Y328543D01*
X304465Y328458D01*
Y328418D01*
X304812Y327580D01*
X305453Y326939D01*
X306291Y326592D01*
X307198D01*
X308035Y326939D01*
X308677Y327580D01*
X309024Y328418D01*
Y329325D01*
X308890Y329647D01*
Y330403D01*
X308947Y330687D01*
X309898D01*
Y327244D01*
X316228D01*
Y334756D01*
X311944D01*
X311898Y334765D01*
X309468D01*
X309279Y335047D01*
Y335953D01*
X308932Y336791D01*
X308291Y337433D01*
X307453Y337779D01*
D02*
G37*
G36*
X368756Y339102D02*
X361244D01*
Y332772D01*
X368756D01*
Y339102D01*
D02*
G37*
G36*
X391278Y332119D02*
X390481D01*
Y331322D01*
X390591Y331367D01*
X391232Y332009D01*
X391278Y332119D01*
D02*
G37*
G36*
X388119D02*
X387322D01*
X387368Y332009D01*
X388009Y331367D01*
X388119Y331322D01*
Y332119D01*
D02*
G37*
G36*
X368756Y331228D02*
X366181D01*
Y329244D01*
X368756D01*
Y331228D01*
D02*
G37*
G36*
X363819D02*
X361244D01*
Y329244D01*
X363819D01*
Y331228D01*
D02*
G37*
G36*
X334256Y327228D02*
X331681D01*
Y325244D01*
X334256D01*
Y327228D01*
D02*
G37*
G36*
X329319D02*
X326744D01*
Y325244D01*
X329319D01*
Y327228D01*
D02*
G37*
G36*
X363819Y326882D02*
X361244D01*
Y324898D01*
X363819D01*
Y326882D01*
D02*
G37*
G36*
X286138Y325484D02*
X284154D01*
Y324681D01*
X286138D01*
Y325484D01*
D02*
G37*
G36*
X281791D02*
X279807D01*
Y324681D01*
X281791D01*
Y325484D01*
D02*
G37*
G36*
X286138Y322319D02*
X284154D01*
Y321516D01*
X286138D01*
Y322319D01*
D02*
G37*
G36*
X281791D02*
X279807D01*
Y321516D01*
X281791D01*
Y322319D01*
D02*
G37*
G36*
X385102Y340756D02*
X378772D01*
Y333244D01*
X380148D01*
Y327756D01*
X379272D01*
Y320244D01*
X380679D01*
Y317724D01*
X380573Y317663D01*
X379837Y316927D01*
X379317Y316026D01*
X379047Y315020D01*
Y313980D01*
X379317Y312974D01*
X379837Y312073D01*
X380573Y311337D01*
X381474Y310817D01*
X382480Y310547D01*
X383520D01*
X384526Y310817D01*
X385427Y311337D01*
X386163Y312073D01*
X386683Y312974D01*
X386953Y313980D01*
Y315020D01*
X386683Y316026D01*
X386163Y316927D01*
X385427Y317663D01*
X384758Y318049D01*
Y320244D01*
X385602D01*
Y327756D01*
X384226D01*
Y333244D01*
X385102D01*
Y340756D01*
D02*
G37*
G36*
X250850Y310437D02*
X243158D01*
Y306681D01*
X250850D01*
Y310437D01*
D02*
G37*
G36*
X240795D02*
X233102D01*
Y306681D01*
X240795D01*
Y310437D01*
D02*
G37*
G36*
X330256Y304602D02*
X327681D01*
Y302618D01*
X330256D01*
Y304602D01*
D02*
G37*
G36*
X325319D02*
X322744D01*
Y302618D01*
X325319D01*
Y304602D01*
D02*
G37*
G36*
X353256Y304228D02*
X350681D01*
Y302244D01*
X353256D01*
Y304228D01*
D02*
G37*
G36*
X348319D02*
X345744D01*
Y302244D01*
X348319D01*
Y304228D01*
D02*
G37*
G36*
X250850Y304319D02*
X243158D01*
Y300563D01*
X250850D01*
Y304319D01*
D02*
G37*
G36*
X240795D02*
X233102D01*
Y300563D01*
X240795D01*
Y304319D01*
D02*
G37*
G36*
X330256Y300256D02*
X327681D01*
Y298272D01*
X330256D01*
Y300256D01*
D02*
G37*
G36*
X325319D02*
X322744D01*
Y298272D01*
X325319D01*
Y300256D01*
D02*
G37*
G36*
X353256Y299882D02*
X350681D01*
Y297898D01*
X353256D01*
Y299882D01*
D02*
G37*
G36*
X348319D02*
X345744D01*
Y297898D01*
X348319D01*
Y299882D01*
D02*
G37*
G36*
X377653Y368079D02*
X376747D01*
X375909Y367733D01*
X375268Y367091D01*
X374921Y366253D01*
Y365347D01*
X375268Y364509D01*
X375909Y363867D01*
X376489Y363627D01*
X377802Y362314D01*
X378464Y361872D01*
X379244Y361717D01*
X385829D01*
X387563Y359982D01*
Y353398D01*
X387718Y352617D01*
X388160Y351956D01*
X399461Y340655D01*
Y308345D01*
X383655Y292539D01*
X347676D01*
X347163Y293427D01*
X346427Y294163D01*
X345526Y294683D01*
X344520Y294953D01*
X343480D01*
X342474Y294683D01*
X341573Y294163D01*
X340837Y293427D01*
X340613Y293039D01*
X330498D01*
X330256Y293282D01*
Y296728D01*
X322744D01*
Y290398D01*
X327372D01*
X328212Y289558D01*
X328873Y289116D01*
X329654Y288961D01*
X340613D01*
X340837Y288573D01*
X341573Y287837D01*
X342474Y287317D01*
X343480Y287047D01*
X344520D01*
X345526Y287317D01*
X346427Y287837D01*
X347051Y288461D01*
X384500D01*
X385280Y288616D01*
X385942Y289058D01*
X398999Y302115D01*
X399461Y301924D01*
Y300734D01*
X399220Y300153D01*
Y299247D01*
X399568Y298409D01*
X400209Y297767D01*
X401047Y297421D01*
X401953D01*
X402791Y297767D01*
X403433Y298409D01*
X403780Y299247D01*
Y300153D01*
X403539Y300734D01*
Y307500D01*
Y341500D01*
X403384Y342280D01*
X402942Y342942D01*
X391642Y354242D01*
Y360827D01*
X391486Y361607D01*
X391044Y362269D01*
X388115Y365198D01*
X387454Y365640D01*
X386673Y365795D01*
X380089D01*
X379373Y366511D01*
X379133Y367091D01*
X378491Y367733D01*
X377653Y368079D01*
D02*
G37*
G36*
X282113Y298806D02*
Y295681D01*
X285737D01*
X285319Y296692D01*
X284622Y297600D01*
X283714Y298297D01*
X282657Y298735D01*
X282113Y298806D01*
D02*
G37*
G36*
X279750D02*
X279206Y298735D01*
X278149Y298297D01*
X277241Y297600D01*
X276544Y296692D01*
X276126Y295681D01*
X279750D01*
Y298806D01*
D02*
G37*
G36*
X256165Y297256D02*
X254181D01*
Y294681D01*
X256165D01*
Y297256D01*
D02*
G37*
G36*
X251819D02*
X249835D01*
Y294681D01*
X251819D01*
Y297256D01*
D02*
G37*
G36*
X285737Y293319D02*
X282113D01*
Y290194D01*
X282657Y290265D01*
X283714Y290703D01*
X284622Y291400D01*
X285319Y292308D01*
X285737Y293319D01*
D02*
G37*
G36*
X279750D02*
X276126D01*
X276544Y292308D01*
X277241Y291400D01*
X278149Y290703D01*
X279206Y290265D01*
X279750Y290194D01*
Y293319D01*
D02*
G37*
G36*
X256165Y292319D02*
X254181D01*
Y289744D01*
X256165D01*
Y292319D01*
D02*
G37*
G36*
X251819D02*
X249835D01*
Y289744D01*
X251819D01*
Y292319D01*
D02*
G37*
%LPD*%
G36*
X371744Y425966D02*
Y425155D01*
X368550Y421962D01*
X366423D01*
X365642Y421807D01*
X364981Y421365D01*
X362083Y418467D01*
X361961Y418500D01*
X361039D01*
X360149Y418261D01*
X359351Y417801D01*
X358699Y417149D01*
X358239Y416351D01*
X358000Y415461D01*
Y414539D01*
X358239Y413649D01*
X358699Y412851D01*
X358749Y412801D01*
X358684Y412159D01*
X358358Y411942D01*
X350655Y404239D01*
X350039D01*
Y406319D01*
X343709D01*
Y404239D01*
X342165D01*
Y408468D01*
X342205Y408665D01*
Y410974D01*
X348628Y417398D01*
X351660D01*
X351852Y416936D01*
X349455Y414539D01*
X348000D01*
X347220Y414384D01*
X346558Y413942D01*
X346558Y413942D01*
X345432Y412816D01*
X344990Y412154D01*
X344835Y411374D01*
Y411256D01*
X343709D01*
Y408681D01*
X350039D01*
Y410461D01*
X350300D01*
X351080Y410616D01*
X351742Y411058D01*
X356242Y415558D01*
X356684Y416220D01*
X356839Y417000D01*
Y425898D01*
X370194D01*
X370975Y426053D01*
X371244Y426233D01*
X371744Y425966D01*
D02*
G37*
G36*
X273893Y419461D02*
X273149Y419262D01*
X272351Y418801D01*
X271699Y418149D01*
X271238Y417351D01*
X271000Y416461D01*
Y415539D01*
X271238Y414649D01*
X271699Y413851D01*
X272351Y413199D01*
X272388Y413178D01*
X272254Y412678D01*
X271548D01*
X270968Y412438D01*
X264730D01*
X264523Y412938D01*
X271546Y419961D01*
X273827D01*
X273893Y419461D01*
D02*
G37*
G36*
X288754Y419562D02*
X288563Y419100D01*
X279600D01*
Y414900D01*
X290200D01*
Y417463D01*
X290662Y417654D01*
X292758Y415558D01*
X292980Y415410D01*
X293029Y414913D01*
X291558Y413442D01*
X291116Y412780D01*
X290961Y412000D01*
Y400900D01*
X290671Y400667D01*
X290200Y400873D01*
Y404100D01*
X282493D01*
X282180Y404447D01*
X282327Y404900D01*
X290200D01*
Y409100D01*
X279600D01*
Y409039D01*
X276245D01*
X274174Y411110D01*
X273934Y411690D01*
X273496Y412128D01*
X273755Y412576D01*
X274039Y412500D01*
X274961D01*
X275083Y412533D01*
X277058Y410558D01*
X277720Y410116D01*
X278500Y409961D01*
X279600D01*
Y409900D01*
X290200D01*
Y414100D01*
X279600D01*
X279600Y414100D01*
Y414100D01*
X279600Y414100D01*
X279154Y414230D01*
X277967Y415417D01*
X278000Y415539D01*
Y416461D01*
X277762Y417351D01*
X277301Y418149D01*
X276649Y418801D01*
X275851Y419262D01*
X275107Y419461D01*
X275173Y419961D01*
X288355D01*
X288754Y419562D01*
D02*
G37*
G36*
X230418Y419602D02*
X231065Y418481D01*
X231981Y417565D01*
X233102Y416918D01*
X234353Y416583D01*
X235647D01*
X236801Y416892D01*
X237025Y416633D01*
X237094Y416478D01*
X229411Y408795D01*
X227165D01*
X226968Y408756D01*
X222835D01*
Y403238D01*
X222373Y403047D01*
X221291Y404128D01*
Y408756D01*
X220165D01*
Y413781D01*
X222967Y416583D01*
X229917D01*
Y419538D01*
X230417Y419604D01*
X230418Y419602D01*
D02*
G37*
G36*
X255361Y395155D02*
Y376000D01*
X255516Y375220D01*
X255958Y374558D01*
X261414Y369102D01*
X261207Y368602D01*
X254744D01*
Y367476D01*
X251256D01*
Y368602D01*
X249539D01*
Y373104D01*
X249884Y373620D01*
X250039Y374400D01*
X250039Y374400D01*
Y379613D01*
X250427Y379837D01*
X251163Y380573D01*
X251683Y381474D01*
X251953Y382480D01*
Y383520D01*
X251683Y384526D01*
X251163Y385427D01*
X250427Y386163D01*
X249526Y386683D01*
X248520Y386953D01*
X247480D01*
X247047Y386837D01*
X244192Y389692D01*
X243530Y390134D01*
X242750Y390289D01*
X238821D01*
Y390350D01*
X231764D01*
Y393650D01*
X238821D01*
Y393711D01*
X243596D01*
X244377Y393866D01*
X245038Y394308D01*
X248128Y397398D01*
X252756D01*
Y397398D01*
X253012Y397504D01*
X255361Y395155D01*
D02*
G37*
G36*
X302599Y348539D02*
X279401D01*
Y350603D01*
X289108D01*
X289688Y350362D01*
X290595D01*
X291176Y350603D01*
X302599D01*
Y348539D01*
D02*
G37*
G36*
X232047Y339514D02*
Y339480D01*
X232317Y338474D01*
X232837Y337573D01*
X233573Y336837D01*
X233584Y336830D01*
Y331000D01*
Y326225D01*
X224438Y317080D01*
X223642D01*
X223080Y317642D01*
Y325924D01*
X223580Y326058D01*
X223699Y325851D01*
X224351Y325199D01*
X225149Y324739D01*
X226039Y324500D01*
X226961D01*
X227851Y324739D01*
X228649Y325199D01*
X229301Y325851D01*
X229762Y326649D01*
X230000Y327539D01*
Y328461D01*
X229762Y329351D01*
X229301Y330149D01*
X228649Y330801D01*
X227851Y331261D01*
X227539Y331345D01*
Y335660D01*
X231585Y339706D01*
X232047Y339514D01*
D02*
G37*
G36*
X323335Y392756D02*
Y385244D01*
X329665D01*
Y386961D01*
X330398D01*
Y385244D01*
X331524D01*
Y352377D01*
X331024Y352225D01*
X330879Y352442D01*
X326476Y356845D01*
Y369013D01*
X326321Y369793D01*
X325879Y370455D01*
X315939Y380395D01*
Y385244D01*
X316692D01*
X316742Y384994D01*
X317184Y384332D01*
X323327Y378189D01*
X323568Y377609D01*
X324209Y376968D01*
X325047Y376621D01*
X325953D01*
X326791Y376968D01*
X327432Y377609D01*
X327780Y378447D01*
Y379353D01*
X327432Y380191D01*
X326791Y380833D01*
X326211Y381073D01*
X321791Y385492D01*
Y392756D01*
X322206Y392961D01*
X322920D01*
X323335Y392756D01*
D02*
G37*
D17*
X226000Y405000D02*
D03*
X218126D02*
D03*
X339000Y407500D02*
D03*
X346874D02*
D03*
X329437Y346000D02*
D03*
X321563D02*
D03*
X320937Y331000D02*
D03*
X313063D02*
D03*
X337563Y319000D02*
D03*
X345437D02*
D03*
X382437Y324000D02*
D03*
X374563D02*
D03*
X253000Y293500D02*
D03*
X260874D02*
D03*
X381937Y337000D02*
D03*
X318626Y389000D02*
D03*
X326500D02*
D03*
X374063Y337000D02*
D03*
X341437Y389000D02*
D03*
X333563D02*
D03*
D19*
X249000Y408437D02*
D03*
Y400563D02*
D03*
X247500Y365437D02*
D03*
Y357563D02*
D03*
X258500Y365437D02*
D03*
Y357563D02*
D03*
X263500Y400937D02*
D03*
Y393063D02*
D03*
X272000Y401937D02*
D03*
Y394063D02*
D03*
X332000Y420063D02*
D03*
Y427937D02*
D03*
X375500Y425437D02*
D03*
Y417563D02*
D03*
X347000Y365626D02*
D03*
Y373500D02*
D03*
X349500Y308937D02*
D03*
Y301063D02*
D03*
X326500Y293563D02*
D03*
Y301437D02*
D03*
X349500Y420563D02*
D03*
Y428437D02*
D03*
X365000Y328063D02*
D03*
X330500Y324063D02*
D03*
X358000Y371437D02*
D03*
Y363563D02*
D03*
X300244Y331709D02*
D03*
Y323835D02*
D03*
X330500Y331937D02*
D03*
X214000Y357563D02*
D03*
X234000D02*
D03*
X365000Y335937D02*
D03*
X214000Y365437D02*
D03*
X234000D02*
D03*
D20*
X341500Y328713D02*
D03*
X346500D02*
D03*
Y350287D02*
D03*
X351500D02*
D03*
X356500D02*
D03*
Y328713D02*
D03*
X351500D02*
D03*
X341500Y350287D02*
D03*
D21*
X241976Y305500D02*
D03*
X214024D02*
D03*
D22*
X282972Y323500D02*
D03*
X292028D02*
D03*
D23*
X317740Y427500D02*
D03*
X314000D02*
D03*
X317740Y416673D02*
D03*
X314000D02*
D03*
X310260D02*
D03*
Y427500D02*
D03*
D24*
X303500Y412000D02*
D03*
Y407000D02*
D03*
Y392000D02*
D03*
Y397000D02*
D03*
Y402000D02*
D03*
X284900Y392000D02*
D03*
Y382000D02*
D03*
Y387000D02*
D03*
Y412000D02*
D03*
X303500Y417000D02*
D03*
X284900Y397000D02*
D03*
X303500Y387000D02*
D03*
Y382000D02*
D03*
X284900Y402000D02*
D03*
Y407000D02*
D03*
Y417000D02*
D03*
D25*
X307142Y370358D02*
D03*
X274858D02*
D03*
Y352642D02*
D03*
X307142D02*
D03*
D37*
X235000Y421500D02*
D03*
X245000D02*
D03*
D40*
X225000D02*
D03*
D43*
X235221Y388250D02*
D03*
X228164Y392000D02*
D03*
X235221Y395750D02*
D03*
D44*
X299925Y323516D02*
X300244Y323835D01*
X292043Y323516D02*
X299925D01*
X292028Y323500D02*
X292043Y323516D01*
X300244Y323063D02*
X310636D01*
X326500Y293563D02*
X327091D01*
X329654Y291000D01*
X344000D01*
X235623Y331000D02*
X260874Y305749D01*
Y293500D02*
Y305749D01*
X235623Y331000D02*
Y339016D01*
X260874Y294091D02*
X271283Y304500D01*
X280932D01*
X307000Y331151D02*
Y333138D01*
X311898Y332165D02*
Y332726D01*
Y332165D02*
X313063Y331000D01*
X346410Y373500D02*
X347000D01*
X341437Y378472D02*
X346410Y373500D01*
X341437Y378472D02*
Y389000D01*
X235623Y339016D02*
Y339623D01*
X341500Y328713D02*
Y343286D01*
X333563Y351223D02*
X341500Y343286D01*
X333563Y351223D02*
Y389000D01*
X344000Y290500D02*
X384500D01*
X306700Y328916D02*
X306851Y329067D01*
X225664Y392000D02*
Y396871D01*
X372898Y325244D02*
X374063Y326409D01*
X262800Y402874D02*
X267000D01*
X267826D02*
X280826D01*
X262000Y400937D02*
Y402937D01*
X354400Y371437D02*
Y376337D01*
Y371000D02*
Y371437D01*
X226000Y406200D02*
X226609D01*
X307107Y333044D02*
Y335393D01*
X306851Y329067D02*
Y331002D01*
X211234Y308289D02*
X214024Y305500D01*
X211234Y308289D02*
Y311266D01*
X207500Y315000D02*
X211234Y311266D01*
X225500Y330997D02*
Y336504D01*
X233949Y344953D01*
X225283Y315040D02*
X235623Y325381D01*
X222798Y315040D02*
X225283D01*
X235623Y325381D02*
Y331000D01*
Y339623D02*
X236000Y340000D01*
X233949Y344953D02*
X240502D01*
X242049Y346500D01*
X304221D01*
X304721Y346000D01*
X321563D01*
X221040Y316798D02*
Y336287D01*
Y316798D02*
X222798Y315040D01*
X221040Y336287D02*
X232706Y347953D01*
X235031D01*
X236000Y348921D01*
X245744Y356398D02*
X246909Y357563D01*
X245744Y355807D02*
Y356398D01*
X246909Y357563D02*
X247500D01*
X316000Y395000D02*
X356000D01*
X313900Y379550D02*
X324437Y369013D01*
X313900Y379550D02*
Y392900D01*
X316000Y395000D01*
X317740Y416673D02*
Y417461D01*
X318953Y417886D02*
X321240D01*
Y412300D02*
X323937Y409603D01*
X321240Y412300D02*
Y417886D01*
X331340Y402200D02*
X351500D01*
X317740Y417461D02*
X317921Y417642D01*
X318709D02*
X318953Y417886D01*
X317921Y417642D02*
X318709D01*
X323937Y409603D02*
X331340Y402200D01*
X362800Y387300D02*
X368084Y382016D01*
X362800Y387300D02*
Y388200D01*
X356000Y395000D02*
X362800Y388200D01*
X367500Y320624D02*
Y322057D01*
X351500Y319187D02*
Y328713D01*
X360584Y321102D02*
X364000Y317687D01*
X367500Y322057D02*
X370687Y325244D01*
X372898D01*
X353416Y321102D02*
X360584D01*
X364000Y317500D02*
Y317687D01*
Y317500D02*
X364376D01*
X367500Y320624D01*
X318626Y385774D02*
X325500Y378900D01*
X318626Y385774D02*
Y389000D01*
X361500Y415000D02*
X366423Y419923D01*
X369395D01*
X374909Y425437D01*
X375500D01*
X380256Y423181D02*
Y428431D01*
X359800Y410500D02*
X363823D01*
X369744Y416421D01*
X374358D02*
X375500Y417563D01*
X369744Y416421D02*
X374358D01*
X380256Y423181D02*
X385900Y417537D01*
X351500Y402200D02*
X359800Y410500D01*
X370194Y427937D02*
X371860Y429602D01*
X379084D02*
X380256Y428431D01*
X371860Y429602D02*
X379084D01*
X352863Y427937D02*
X370194D01*
X331782Y427719D02*
X332728Y426772D01*
X335228D01*
X335500Y426500D01*
X341000D01*
X317921Y427719D02*
X331782D01*
X317740Y427537D02*
X317921Y427719D01*
X317740Y427500D02*
Y427537D01*
X382437Y324000D02*
X382719Y323719D01*
X382187Y324250D02*
X382437Y324000D01*
X382719Y314782D02*
Y323719D01*
Y314782D02*
X383000Y314500D01*
X382187Y324250D02*
Y336750D01*
X381937Y337000D02*
X382187Y336750D01*
X326500Y389000D02*
X332200D01*
X321563Y336800D02*
Y346000D01*
X385900Y417537D02*
X388800D01*
X349500Y428437D02*
X352363D01*
X352863Y427937D01*
X348909Y428437D02*
X349500D01*
X354800Y417000D02*
Y426000D01*
X352863Y427937D02*
X354800Y426000D01*
X350300Y412500D02*
X354800Y417000D01*
X348000Y412500D02*
X350300D01*
X346874Y411374D02*
X348000Y412500D01*
X346874Y407500D02*
Y411374D01*
X267826Y402874D02*
Y406600D01*
X267000Y402874D02*
X267937Y401937D01*
X267000Y402874D02*
X267826D01*
X267937Y401937D02*
X272000D01*
X375500Y405276D02*
Y417563D01*
Y405276D02*
X377354Y403421D01*
X377500D01*
X347000Y373500D02*
X351563D01*
X354400Y376337D01*
X357409Y363563D02*
X358000D01*
X351500Y357654D02*
X357409Y363563D01*
X351500Y350287D02*
Y357654D01*
X307000Y335500D02*
X307107Y335393D01*
Y333044D02*
X307425Y332726D01*
X306851Y331002D02*
X307000Y331151D01*
X384500Y290500D02*
X401500Y307500D01*
Y299700D02*
Y307500D01*
X300244Y331709D02*
X305570D01*
X313063Y331000D02*
Y331561D01*
X311898Y332726D02*
X313063Y331561D01*
X307425Y332726D02*
X311898D01*
X305570Y331709D02*
X307000Y333138D01*
X358280Y363843D02*
X362400D01*
X358000Y363563D02*
X358280Y363843D01*
X389602Y353398D02*
Y360827D01*
X401500Y307500D02*
Y341500D01*
X389602Y353398D02*
X401500Y341500D01*
X379244Y363756D02*
X386673D01*
X389602Y360827D01*
X377200Y365800D02*
X379244Y363756D01*
X377200Y365800D02*
X377200D01*
X310636Y323063D02*
X317797Y315902D01*
X356500Y324382D02*
Y328713D01*
X320937Y331000D02*
X326000D01*
X326937Y331937D01*
X330500D01*
X274500Y416000D02*
X278500Y412000D01*
X284900D01*
X308547Y425000D02*
X310260Y426713D01*
X300000Y425000D02*
X308547D01*
X310260Y426713D02*
Y427500D01*
X289200Y422000D02*
X294200Y417000D01*
X270701Y422000D02*
X289200D01*
X262600Y413899D02*
X270701Y422000D01*
X272001Y410399D02*
X275400Y407000D01*
X243300Y412000D02*
X245199Y413899D01*
X275400Y407000D02*
X284900D01*
X262965Y410399D02*
X272001D01*
X245199Y413899D02*
X262600D01*
X243300Y403263D02*
Y412000D01*
X294200Y417000D02*
X298000D01*
X303500D01*
X293000Y412000D02*
X298000Y417000D01*
X351500Y319187D02*
X352244Y319931D01*
X351244Y316339D02*
Y318931D01*
X352244Y319931D02*
X353416Y321102D01*
X349500Y314595D02*
X351244Y316339D01*
Y318931D02*
X351500Y319187D01*
X374063Y326000D02*
Y326409D01*
Y326000D02*
X374563Y325500D01*
X374063Y326409D02*
Y337000D01*
X374563Y324000D02*
Y325500D01*
X349500Y308937D02*
Y314595D01*
X293000Y400000D02*
Y412000D01*
X274858Y370358D02*
X307142D01*
X274858Y366021D02*
Y370358D01*
X263042D02*
X274858D01*
X266400Y357563D02*
X274858Y366021D01*
X345437Y318400D02*
Y319000D01*
X330700Y312700D02*
X339737D01*
X345437Y318400D01*
X329800Y311800D02*
X330700Y312700D01*
X249000Y400563D02*
X252837D01*
X248409D02*
X249000D01*
X246000D02*
X248409D01*
X243596Y395750D02*
X248409Y400563D01*
X257400Y376000D02*
X263042Y370358D01*
X257400Y376000D02*
Y396000D01*
X258500Y357563D02*
X266400D01*
X252837Y400563D02*
X257400Y396000D01*
X247500Y357563D02*
X258500D01*
X243300Y403263D02*
X246000Y400563D01*
X235221Y395750D02*
X243596D01*
X214000Y357563D02*
X234000D01*
X234591D01*
X236000Y356154D01*
X218126Y404409D02*
X225664Y396871D01*
X224164Y392000D02*
X224200D01*
X218126Y405000D02*
Y414626D01*
X224200Y377500D02*
Y392000D01*
X219664Y387500D02*
X224164Y392000D01*
X218126Y404409D02*
Y405000D01*
X224200Y392000D02*
X225664D01*
X346500Y332000D02*
X348900Y334400D01*
X346500Y328713D02*
Y332000D01*
X348900Y334400D02*
X353900D01*
X249000Y408437D02*
X261004D01*
X262965Y410399D01*
X356500Y352600D02*
X368084Y364184D01*
Y382016D01*
X354400Y371000D02*
X354874D01*
X349500Y365626D02*
X354874Y371000D01*
X347000Y365626D02*
X349500D01*
X356500Y350287D02*
Y352600D01*
X345209Y357394D02*
Y357532D01*
Y357394D02*
X346500Y356103D01*
Y350287D02*
Y356103D01*
X290000Y397000D02*
X293000Y400000D01*
X284900Y397000D02*
X290000D01*
X262000Y400937D02*
X263500D01*
X262800Y402874D02*
Y402937D01*
X262000D02*
X262800D01*
X226609Y406200D02*
X234200D01*
X226609D02*
X227165Y406756D01*
X226000Y405591D02*
X226609Y406200D01*
X235221Y388250D02*
X242750D01*
X232721D02*
X235221D01*
X226000Y405591D02*
Y406200D01*
X354400Y371437D02*
X358000D01*
X242750Y388250D02*
X248000Y383000D01*
X274858Y352642D02*
X290142D01*
X327333Y319000D02*
X337563D01*
X324235Y315902D02*
X327333Y319000D01*
X317797Y315902D02*
X324235D01*
X339000Y407500D02*
Y411100D01*
X335800Y414300D02*
X339000Y411100D01*
X214000Y365437D02*
X234000D01*
X248000Y374400D02*
Y383000D01*
X247500Y373900D02*
X248000Y374400D01*
X247500Y365437D02*
Y373900D01*
X234000Y365437D02*
X247500D01*
X258500D01*
X324437Y356000D02*
Y369013D01*
Y356000D02*
X329437Y351000D01*
Y346000D02*
Y351000D01*
X290142Y352642D02*
X307142D01*
X348659Y420313D02*
X348909Y420563D01*
X340165Y411819D02*
X348659Y420313D01*
X349250D01*
X332250D02*
X348659D01*
X349250D02*
X349500Y420563D01*
X339000Y407500D02*
X340165Y408665D01*
Y411819D01*
X348909Y420563D02*
X349500D01*
X332000Y420063D02*
X332250Y420313D01*
X226000Y405000D02*
Y405591D01*
X227165Y406756D02*
X230256D01*
X245000Y421500D01*
X218126Y414626D02*
X225000Y421500D01*
X213500Y387500D02*
X219664D01*
X281700Y402000D02*
X284900D01*
X280826Y402874D02*
X281700Y402000D01*
D45*
X280932Y304500D02*
X307100D01*
X236000Y340000D02*
X236533D01*
X237517Y339016D02*
X238984D01*
X236533Y340000D02*
X237517Y339016D01*
X238858Y348921D02*
X245744Y355807D01*
X236000Y348921D02*
Y356154D01*
Y348921D02*
X238858D01*
X307100Y304500D02*
X314400Y311800D01*
D46*
X329800D01*
D47*
X364000Y317500D02*
D03*
X383000Y314500D02*
D03*
X344000Y291000D02*
D03*
X236000Y340000D02*
D03*
X248000Y383000D02*
D03*
X213500Y387500D02*
D03*
D48*
X377500Y393579D02*
D03*
D49*
Y403421D02*
D03*
D50*
X280932Y294500D02*
D03*
D51*
Y304500D02*
D03*
D52*
X306744Y328872D02*
D03*
X325500Y378900D02*
D03*
X321563Y336800D02*
D03*
X388800Y417537D02*
D03*
X389300Y333300D02*
D03*
X324700Y421800D02*
D03*
X330000Y398700D02*
D03*
X267826Y406600D02*
D03*
X307000Y335500D02*
D03*
X401500Y299700D02*
D03*
X377200Y365800D02*
D03*
X362400Y363843D02*
D03*
X356500Y324382D02*
D03*
X272001Y410399D02*
D03*
X353900Y334400D02*
D03*
X345209Y357532D02*
D03*
X290142Y352642D02*
D03*
X335800Y414300D02*
D03*
X362800Y387300D02*
D03*
X234200Y406200D02*
D03*
X224200Y377500D02*
D03*
X354400Y376337D02*
D03*
D53*
X207500Y315000D02*
D03*
X226500Y328000D02*
D03*
X361500Y415000D02*
D03*
X341000Y426500D02*
D03*
X274500Y416000D02*
D03*
X300000Y425000D02*
D03*
M02*
