G04*
G04 #@! TF.GenerationSoftware,Altium Limited,Altium Designer,26.4.1 (12)*
G04*
G04 Layer_Color=32768*
%FSLAX44Y44*%
%MOMM*%
G71*
G04*
G04 #@! TF.SameCoordinates,074BA2BC-7764-4BD4-AE0E-D95D70C0EDA2*
G04*
G04*
G04 #@! TF.FilePolarity,Positive*
G04*
G01*
G75*
%ADD11C,0.1524*%
%ADD13C,0.1000*%
%ADD44C,0.0500*%
G36*
X638211Y616633D02*
X647282D01*
Y586915D01*
X638211D01*
Y584248D01*
X619161D01*
Y596440D01*
X610090D01*
Y607108D01*
X619161D01*
Y619300D01*
X638211D01*
Y616633D01*
D02*
G37*
G36*
X748792Y588772D02*
X674624D01*
Y693928D01*
X748792D01*
Y588772D01*
D02*
G37*
G36*
X731901Y780796D02*
X717296D01*
Y829564D01*
X731901D01*
Y832739D01*
X776859D01*
Y829564D01*
X791464D01*
Y780796D01*
X776859D01*
Y777621D01*
X731901D01*
Y780796D01*
D02*
G37*
D11*
X717296D02*
X731901D01*
Y777621D02*
Y780796D01*
Y777621D02*
X776859D01*
Y780796D01*
X791464D01*
Y829564D01*
X776859D02*
X791464D01*
X776859D02*
Y832739D01*
X731901D02*
X776859D01*
X731901Y829564D02*
Y832739D01*
X717296Y829564D02*
X731901D01*
X717296Y780796D02*
Y829564D01*
X674624Y588772D02*
X748792D01*
Y693928D01*
X674624D02*
X748792D01*
X674624Y588772D02*
Y693928D01*
X647281Y586915D02*
Y616633D01*
X638211Y586915D02*
X647281D01*
X638211Y616633D02*
X647281D01*
X638211Y584248D02*
Y586915D01*
Y616633D02*
Y619300D01*
X619161D02*
X638211D01*
X619161Y607108D02*
Y619300D01*
X610090Y607108D02*
X619161D01*
X610090Y596440D02*
Y607108D01*
Y596440D02*
X619161D01*
Y584248D02*
Y596440D01*
Y584248D02*
X638211D01*
D13*
X732870Y725170D02*
X742870D01*
X737870Y720170D02*
Y730170D01*
X1024010Y760210D02*
X1029510Y765710D01*
X1024010Y753210D02*
Y765710D01*
Y753210D02*
X1041010D01*
Y765710D01*
X1024010D02*
X1041010D01*
X911940Y963930D02*
X921940D01*
X916940Y958930D02*
Y968930D01*
X673100Y710010D02*
Y720010D01*
X668100Y715010D02*
X678100D01*
X518240Y791210D02*
X528240D01*
X523240Y786210D02*
Y796210D01*
X546240Y735210D02*
Y847210D01*
X489240Y735210D02*
X546240D01*
X489240D02*
Y847210D01*
X546240D01*
X806450Y722710D02*
Y732710D01*
X801450Y727710D02*
X811450D01*
X780440Y654350D02*
Y664350D01*
X775440Y659350D02*
X785440D01*
X629920Y807800D02*
Y817800D01*
X624920Y812800D02*
X634920D01*
X958850Y496650D02*
Y506650D01*
X953850Y501650D02*
X963850D01*
X869950Y833200D02*
Y843200D01*
X864950Y838200D02*
X874950D01*
X1021080Y908130D02*
Y918130D01*
X1016080Y913130D02*
X1026080D01*
D44*
X751570Y725170D02*
G03*
X751570Y725170I-13700J0D01*
G01*
X930640Y963930D02*
G03*
X930640Y963930I-13700J0D01*
G01*
X686800Y715010D02*
G03*
X686800Y715010I-13700J0D01*
G01*
X820150Y727710D02*
G03*
X820150Y727710I-13700J0D01*
G01*
X643620Y812800D02*
G03*
X643620Y812800I-13700J0D01*
G01*
X972550Y501650D02*
G03*
X972550Y501650I-13700J0D01*
G01*
X883650Y838200D02*
G03*
X883650Y838200I-13700J0D01*
G01*
X1034780Y913130D02*
G03*
X1034780Y913130I-13700J0D01*
G01*
X755170Y967310D02*
X822170D01*
Y1072310D01*
X755170D02*
X822170D01*
X755170Y967310D02*
Y1072310D01*
X762440Y680350D02*
X798440D01*
X762440Y638350D02*
X798440D01*
Y680350D01*
X762440Y638350D02*
Y680350D01*
M02*
