M48
;Layer_Color=9474304
;FILE_FORMAT=2:5
INCH
;TYPE=PLATED
T01F00S00C0.01575
T02F00S00C0.03100
T03F00S00C0.03937
T04F00S00C0.04724
T05F00S00C0.05472
%
T01
X0359800Y0197500
X0338837Y0241000
X0365300Y0260600
X0364626Y0269926
X0380937Y0244963
X0383000Y0301300
X0303400Y0291700
X0311000Y0258100
X0186000Y0254600
X0171717Y0261483
X0178400Y0328000
X0225700Y0341500
X0241700Y0325500
X0362400Y0321900
X0367900Y0354000
X0326800Y0383300
X0319400Y0403500
T02
X0193500Y0188500
X0203500
X0213500
X0223500
X0233500
X0243500
X0253500
X0263500
Y0218500
X0253500
X0243500
X0233500
X0223500
X0213500
X0203500
X0193500
T03
X0377500Y0197500
X0317500Y0286500
X0265000Y0281500
X0256532Y0302500
X0247516
X0238500
X0290500Y0212000
X0168000Y0230500
X0248000Y0320000
X0342500Y0330000
X0361000Y0379500
X0402000Y0359500
T04
X0169500Y0192500
Y0202500
T05
X0206000Y0301500
Y0311500
Y0321500
M30
