G04*
G04 #@! TF.GenerationSoftware,Altium Limited,Altium Designer,26.5.0 (11)*
G04*
G04 Layer_Color=8388736*
G04 Board_Origin=0|0*
%FSLAX25Y25*%
%MOIN*%
G70*
G04*
G04 #@! TF.SameCoordinates,85A04A5B-9063-4CFE-8B0A-0147A1E52AD9*
G04*
G04*
G04 #@! TF.FilePolarity,Negative*
G04*
G01*
G75*
%ADD17R,0.02362X0.03937*%
%ADD20R,0.05750X0.02200*%
%ADD23R,0.05131X0.06312*%
%ADD24R,0.06312X0.05131*%
%ADD25R,0.05131X0.02769*%
%ADD26R,0.06000X0.03000*%
%ADD27R,0.07496X0.07890*%
%ADD28O,0.07493X0.08674*%
%ADD29C,0.06706*%
%ADD30R,0.07493X0.08674*%
%ADD31C,0.07835*%
%ADD32R,0.07835X0.07835*%
%ADD33C,0.03359*%
D17*
X307260Y265000D02*
D03*
Y254173D02*
D03*
X303520Y265000D02*
D03*
X311000Y254173D02*
D03*
X303520D02*
D03*
X311000Y265000D02*
D03*
D20*
X268775Y338500D02*
D03*
X290225Y353500D02*
D03*
Y348500D02*
D03*
Y343500D02*
D03*
Y338500D02*
D03*
X268775Y343500D02*
D03*
Y348500D02*
D03*
Y353500D02*
D03*
D23*
X372000Y248000D02*
D03*
X342437Y406500D02*
D03*
X391500Y262000D02*
D03*
X177000Y298000D02*
D03*
X401937Y220500D02*
D03*
X390874Y283500D02*
D03*
X281437Y221500D02*
D03*
X341626Y234500D02*
D03*
X400563Y274000D02*
D03*
X408437D02*
D03*
X298063Y192500D02*
D03*
X305937D02*
D03*
X349500Y234500D02*
D03*
X273563Y221500D02*
D03*
X250063Y258500D02*
D03*
X257937D02*
D03*
X381937Y421000D02*
D03*
X374063D02*
D03*
X383000Y283500D02*
D03*
X214563Y277500D02*
D03*
X222437D02*
D03*
X372500Y265000D02*
D03*
X364626D02*
D03*
X250937Y279500D02*
D03*
X243063D02*
D03*
X380937Y219500D02*
D03*
X373063D02*
D03*
X394063Y220500D02*
D03*
X169126Y298000D02*
D03*
X383626Y262000D02*
D03*
X226437Y230000D02*
D03*
X218563D02*
D03*
X333937Y264500D02*
D03*
X326063D02*
D03*
X302000Y222500D02*
D03*
X309874D02*
D03*
X334563Y406500D02*
D03*
X364126Y248000D02*
D03*
D24*
X335000Y349563D02*
D03*
X351500Y288626D02*
D03*
X351000Y254063D02*
D03*
Y261937D02*
D03*
X351500Y296500D02*
D03*
X387000Y387063D02*
D03*
Y394937D02*
D03*
X364000Y317374D02*
D03*
Y309500D02*
D03*
X335000Y357437D02*
D03*
X172000Y322563D02*
D03*
Y330437D02*
D03*
X191000Y237000D02*
D03*
Y229126D02*
D03*
X187000Y260437D02*
D03*
Y252563D02*
D03*
X214000Y390874D02*
D03*
Y383000D02*
D03*
X198000Y389500D02*
D03*
Y381626D02*
D03*
D25*
X409028Y304500D02*
D03*
X399972D02*
D03*
D26*
X244178Y236919D02*
D03*
X251235Y240669D02*
D03*
Y233169D02*
D03*
D27*
X301642Y385358D02*
D03*
X319358D02*
D03*
Y417642D02*
D03*
X301642D02*
D03*
D28*
X198500Y422000D02*
D03*
D29*
X290500Y285500D02*
D03*
X361000Y379500D02*
D03*
X265000Y281500D02*
D03*
X317500Y286500D02*
D03*
X248000Y320000D02*
D03*
X377500Y197500D02*
D03*
X342500Y330000D02*
D03*
X402000Y359500D02*
D03*
D30*
X188500Y422000D02*
D03*
D31*
X206000Y321500D02*
D03*
Y311500D02*
D03*
D32*
Y301500D02*
D03*
D33*
X177000Y241000D02*
D03*
X333300D02*
D03*
X356000Y334000D02*
D03*
X235500Y341700D02*
D03*
X274200Y291800D02*
D03*
X333937Y277547D02*
D03*
X300100Y291900D02*
D03*
X262572Y196572D02*
D03*
X316358Y403500D02*
D03*
X408437Y267700D02*
D03*
X183300Y335800D02*
D03*
X278000Y351878D02*
D03*
X221000Y361900D02*
D03*
X295500Y343500D02*
D03*
X246100Y361900D02*
D03*
X248000Y306500D02*
D03*
X244100Y263600D02*
D03*
X364626Y286500D02*
D03*
X365300Y260600D02*
D03*
X380937Y244963D02*
D03*
X171717Y261483D02*
D03*
X311000Y258100D02*
D03*
X278400Y255600D02*
D03*
X297600D02*
D03*
X326800Y383300D02*
D03*
M02*
