G04*
G04 #@! TF.GenerationSoftware,Altium Limited,Altium Designer,26.5.0 (11)*
G04*
G04 Layer_Color=16711935*
G04 Board_Origin=0|0*
%FSLAX25Y25*%
%MOIN*%
G70*
G04*
G04 #@! TF.SameCoordinates,A3810AA2-BE36-4E54-B971-4CCF84F77904*
G04*
G04*
G04 #@! TF.FilePolarity,Negative*
G04*
G01*
G75*
%ADD26O,0.08674X0.07493*%
%ADD27R,0.08674X0.07493*%
%ADD28C,0.06706*%
%ADD29C,0.07835*%
%ADD30R,0.07835X0.07835*%
%ADD31C,0.07099*%
%ADD32R,0.07099X0.07099*%
%ADD33C,0.03359*%
D26*
X169500Y192500D02*
D03*
D27*
Y202500D02*
D03*
D28*
X290500Y212000D02*
D03*
X168000Y230500D02*
D03*
X361000Y379500D02*
D03*
X265000Y281500D02*
D03*
X317500Y286500D02*
D03*
X248000Y320000D02*
D03*
X377500Y197500D02*
D03*
X342500Y330000D02*
D03*
X402000Y359500D02*
D03*
D29*
X206000Y321500D02*
D03*
Y311500D02*
D03*
D30*
Y301500D02*
D03*
D31*
X256532Y302500D02*
D03*
X247516D02*
D03*
D32*
X238500D02*
D03*
D33*
X241700Y325500D02*
D03*
X225700Y341500D02*
D03*
X186000Y254600D02*
D03*
X365300Y260600D02*
D03*
X380937Y244963D02*
D03*
X364626Y269926D02*
D03*
X178400Y328000D02*
D03*
X338837Y241000D02*
D03*
X326800Y383300D02*
D03*
X319400Y403500D02*
D03*
X359800Y197500D02*
D03*
X367900Y354000D02*
D03*
X303400Y291700D02*
D03*
X362400Y321900D02*
D03*
X383000Y301300D02*
D03*
X171717Y261483D02*
D03*
X311000Y258100D02*
D03*
M02*
