G04*
G04 #@! TF.GenerationSoftware,Altium Limited,Altium Designer,26.5.0 (11)*
G04*
G04 Layer_Color=65535*
G04 Board_Origin=0|0*
%FSLAX25Y25*%
%MOIN*%
G70*
G04*
G04 #@! TF.SameCoordinates,A3810AA2-BE36-4E54-B971-4CCF84F77904*
G04*
G04*
G04 #@! TF.FilePolarity,Positive*
G04*
G01*
G75*
%ADD10C,0.00787*%
%ADD11C,0.00600*%
%ADD12C,0.00984*%
%ADD13C,0.01000*%
%ADD14C,0.00394*%
%ADD15C,0.00300*%
D10*
X295500Y212000D02*
G03*
X295500Y212000I-5000J0D01*
G01*
X173000Y230500D02*
G03*
X173000Y230500I-5000J0D01*
G01*
X302035Y379059D02*
G03*
X302035Y379059I-394J0D01*
G01*
X366000Y379500D02*
G03*
X366000Y379500I-5000J0D01*
G01*
X270000Y281500D02*
G03*
X270000Y281500I-5000J0D01*
G01*
X322500Y286500D02*
G03*
X322500Y286500I-5000J0D01*
G01*
X253000Y320000D02*
G03*
X253000Y320000I-5000J0D01*
G01*
X382500Y197500D02*
G03*
X382500Y197500I-5000J0D01*
G01*
X347500Y330000D02*
G03*
X347500Y330000I-5000J0D01*
G01*
X407000Y359500D02*
G03*
X407000Y359500I-5000J0D01*
G01*
X306248Y389689D02*
X314752D01*
X322311Y390161D02*
Y412839D01*
X306248Y413311D02*
X314752D01*
X298689Y390161D02*
Y412839D01*
X194583Y291421D02*
Y331579D01*
X213087Y291421D02*
Y331579D01*
X194583D02*
X213087D01*
X194583Y291421D02*
X213087D01*
X301157Y257618D02*
Y261457D01*
X313362Y257618D02*
Y266181D01*
X232161Y307224D02*
X262870D01*
X232161Y308445D02*
X262870D01*
X232161Y296634D02*
X262870D01*
Y308445D01*
X232161Y296634D02*
Y308445D01*
D11*
X189750Y202300D02*
G03*
X189750Y204700I0J1200D01*
G01*
X267250Y190500D02*
Y216500D01*
X256801D02*
X260199D01*
X189750Y191575D02*
Y216500D01*
X197360Y190500D02*
X200199D01*
X206801D02*
X210199D01*
X216801D02*
X220199D01*
X226801D02*
X230199D01*
X236801D02*
X240199D01*
X246801D02*
X250199D01*
X256801D02*
X260199D01*
X246801Y216500D02*
X250199D01*
X236801D02*
X240199D01*
X226801D02*
X230199D01*
X216801D02*
X220199D01*
X206801D02*
X210199D01*
X196801D02*
X200199D01*
X218650Y338650D02*
X235350D01*
X218650Y359350D02*
X235350D01*
X363150Y361850D02*
X379850D01*
X363150Y341150D02*
X379850D01*
D12*
X206492Y288864D02*
G03*
X206492Y288864I-492J0D01*
G01*
X230095Y302500D02*
G03*
X230095Y302500I-492J0D01*
G01*
D13*
X177374Y186909D02*
Y208091D01*
X157059D02*
X179500D01*
Y186909D02*
Y208091D01*
X157059Y186909D02*
X179500D01*
X157059D02*
Y208091D01*
X161499Y216598D02*
X160499Y217598D01*
X158500D01*
X157500Y216598D01*
Y212600D01*
X158500Y211600D01*
X160499D01*
X161499Y212600D01*
X166497Y217598D02*
X164498D01*
X163498Y216598D01*
Y212600D01*
X164498Y211600D01*
X166497D01*
X167497Y212600D01*
Y216598D01*
X166497Y217598D01*
X169496Y211600D02*
Y217598D01*
X173495Y211600D01*
Y217598D01*
X175494Y216598D02*
X176494Y217598D01*
X178493D01*
X179493Y216598D01*
Y215599D01*
X177494Y213599D01*
Y212600D02*
Y211600D01*
X286000Y228498D02*
Y224499D01*
X287999Y222500D01*
X289999Y224499D01*
Y228498D01*
X291998Y222500D02*
X294997D01*
X295997Y223500D01*
X294997Y224499D01*
X292998D01*
X291998Y225499D01*
X292998Y226499D01*
X295997D01*
X297996D02*
Y223500D01*
X298996Y222500D01*
X301995D01*
Y226499D01*
X303994Y220501D02*
Y226499D01*
X306993D01*
X307993Y225499D01*
Y223500D01*
X306993Y222500D01*
X303994D01*
X312991D02*
X310992D01*
X309992Y223500D01*
Y225499D01*
X310992Y226499D01*
X312991D01*
X313991Y225499D01*
Y224499D01*
X309992D01*
X315990Y226499D02*
Y222500D01*
Y224499D01*
X316990Y225499D01*
X317990Y226499D01*
X318989D01*
X325987D02*
X322988D01*
X321988Y225499D01*
Y223500D01*
X322988Y222500D01*
X325987D01*
X328986Y226499D02*
X330985D01*
X331985Y225499D01*
Y222500D01*
X328986D01*
X327986Y223500D01*
X328986Y224499D01*
X331985D01*
X333984Y220501D02*
Y226499D01*
X336983D01*
X337983Y225499D01*
Y223500D01*
X336983Y222500D01*
X333984D01*
X163500Y246998D02*
Y242999D01*
X165499Y241000D01*
X167499Y242999D01*
Y246998D01*
X173497Y244999D02*
X170498D01*
X169498Y243999D01*
Y242000D01*
X170498Y241000D01*
X173497D01*
X176496D02*
X178495D01*
X179495Y242000D01*
Y243999D01*
X178495Y244999D01*
X176496D01*
X175496Y243999D01*
Y242000D01*
X176496Y241000D01*
X181494D02*
Y244999D01*
X182494D01*
X183493Y243999D01*
Y241000D01*
Y243999D01*
X184493Y244999D01*
X185493Y243999D01*
Y241000D01*
X187492Y239001D02*
Y244999D01*
X190491D01*
X191491Y243999D01*
Y242000D01*
X190491Y241000D01*
X187492D01*
X278299Y217798D02*
X277299Y218798D01*
X275300D01*
X274300Y217798D01*
Y213800D01*
X275300Y212800D01*
X277299D01*
X278299Y213800D01*
X280298Y218798D02*
X284297D01*
Y217798D01*
X280298Y213800D01*
Y212800D01*
X286296Y218798D02*
X290295D01*
Y217798D01*
X286296Y213800D01*
Y212800D01*
X355799Y218798D02*
X354799Y219798D01*
X352800D01*
X351800Y218798D01*
Y214800D01*
X352800Y213800D01*
X354799D01*
X355799Y214800D01*
X361797Y219798D02*
X357798D01*
Y216799D01*
X359797Y217799D01*
X360797D01*
X361797Y216799D01*
Y214800D01*
X360797Y213800D01*
X358798D01*
X357798Y214800D01*
X367795Y219798D02*
X363796D01*
Y216799D01*
X365795Y217799D01*
X366795D01*
X367795Y216799D01*
Y214800D01*
X366795Y213800D01*
X364796D01*
X363796Y214800D01*
X334299Y219798D02*
X333299Y220798D01*
X331300D01*
X330300Y219798D01*
Y215800D01*
X331300Y214800D01*
X333299D01*
X334299Y215800D01*
X340297Y220798D02*
X336298D01*
Y217799D01*
X338297Y218799D01*
X339297D01*
X340297Y217799D01*
Y215800D01*
X339297Y214800D01*
X337298D01*
X336298Y215800D01*
X345295Y214800D02*
Y220798D01*
X342296Y217799D01*
X346295D01*
X187000Y236498D02*
Y231500D01*
X188000Y230500D01*
X189999D01*
X190999Y231500D01*
Y236498D01*
X196997D02*
X192998D01*
Y233499D01*
X194997Y234499D01*
X195997D01*
X196997Y233499D01*
Y231500D01*
X195997Y230500D01*
X193998D01*
X192998Y231500D01*
X302199Y430298D02*
X301199Y431298D01*
X299200D01*
X298200Y430298D01*
Y429299D01*
X299200Y428299D01*
X301199D01*
X302199Y427299D01*
Y426300D01*
X301199Y425300D01*
X299200D01*
X298200Y426300D01*
X308197Y425300D02*
X304198D01*
X308197Y429299D01*
Y430298D01*
X307197Y431298D01*
X305198D01*
X304198Y430298D01*
X348300Y268300D02*
Y274298D01*
X351299D01*
X352299Y273298D01*
Y271299D01*
X351299Y270299D01*
X348300D01*
X350299D02*
X352299Y268300D01*
X358297D02*
X354298D01*
X358297Y272299D01*
Y273298D01*
X357297Y274298D01*
X355298D01*
X354298Y273298D01*
X364295Y268300D02*
X360296D01*
X364295Y272299D01*
Y273298D01*
X363295Y274298D01*
X361296D01*
X360296Y273298D01*
X352799Y307798D02*
X351799Y308798D01*
X349800D01*
X348800Y307798D01*
Y303800D01*
X349800Y302800D01*
X351799D01*
X352799Y303800D01*
X354798Y302800D02*
X356797D01*
X355798D01*
Y308798D01*
X354798Y307798D01*
X359796D02*
X360796Y308798D01*
X362795D01*
X363795Y307798D01*
Y303800D01*
X362795Y302800D01*
X360796D01*
X359796Y303800D01*
Y307798D01*
X356500Y393998D02*
Y389999D01*
X358499Y388000D01*
X360499Y389999D01*
Y393998D01*
X362498Y391999D02*
Y388000D01*
Y389999D01*
X363498Y390999D01*
X364497Y391999D01*
X365497D01*
X371495Y388000D02*
X369496D01*
X368496Y389000D01*
Y390999D01*
X369496Y391999D01*
X371495D01*
X372495Y390999D01*
Y389999D01*
X368496D01*
X375494Y388000D02*
Y392998D01*
Y390999D01*
X374494D01*
X376494D01*
X375494D01*
Y392998D01*
X376494Y393998D01*
X313000Y300998D02*
Y296999D01*
X314999Y295000D01*
X316999Y296999D01*
Y300998D01*
X321997D02*
X319998D01*
X318998Y299998D01*
Y296000D01*
X319998Y295000D01*
X321997D01*
X322997Y296000D01*
Y299998D01*
X321997Y300998D01*
X243500Y334498D02*
Y330499D01*
X245499Y328500D01*
X247499Y330499D01*
Y334498D01*
X253497Y333498D02*
X252497Y334498D01*
X250498D01*
X249498Y333498D01*
Y329500D01*
X250498Y328500D01*
X252497D01*
X253497Y329500D01*
Y331499D01*
X251497D01*
X373000Y211998D02*
Y207999D01*
X374999Y206000D01*
X376999Y207999D01*
Y211998D01*
X382997D02*
X378998D01*
Y208999D01*
X380997D01*
X378998D01*
Y206000D01*
X397500Y373998D02*
Y369999D01*
X399499Y368000D01*
X401499Y369999D01*
Y373998D01*
X407497D02*
X403498D01*
Y368000D01*
X407497D01*
X403498Y370999D02*
X405497D01*
X260500Y295998D02*
Y291999D01*
X262499Y290000D01*
X264499Y291999D01*
Y295998D01*
X266498D02*
Y290000D01*
X269497D01*
X270497Y291000D01*
Y291999D01*
X269497Y292999D01*
X266498D01*
X269497D01*
X270497Y293999D01*
Y294998D01*
X269497Y295998D01*
X266498D01*
X357600Y374198D02*
Y369200D01*
X358600Y368200D01*
X360599D01*
X361599Y369200D01*
Y374198D01*
X363598D02*
X367597D01*
Y373198D01*
X363598Y369200D01*
Y368200D01*
X301100Y276998D02*
Y272000D01*
X302100Y271000D01*
X304099D01*
X305099Y272000D01*
Y276998D01*
X311097D02*
X309097Y275998D01*
X307098Y273999D01*
Y272000D01*
X308098Y271000D01*
X310097D01*
X311097Y272000D01*
Y272999D01*
X310097Y273999D01*
X307098D01*
X213100Y369198D02*
Y364200D01*
X214100Y363200D01*
X216099D01*
X217099Y364200D01*
Y369198D01*
X219098Y363200D02*
X221097D01*
X220098D01*
Y369198D01*
X219098Y368198D01*
X169300Y336800D02*
Y342798D01*
X172299D01*
X173299Y341798D01*
Y339799D01*
X172299Y338799D01*
X169300D01*
X171299D02*
X173299Y336800D01*
X179297D02*
X175298D01*
X179297Y340799D01*
Y341798D01*
X178297Y342798D01*
X176298D01*
X175298Y341798D01*
X181296Y342798D02*
X185295D01*
Y341798D01*
X181296Y337800D01*
Y336800D01*
X332200Y413200D02*
Y419198D01*
X335199D01*
X336199Y418198D01*
Y416199D01*
X335199Y415199D01*
X332200D01*
X334199D02*
X336199Y413200D01*
X342197D02*
X338198D01*
X342197Y417199D01*
Y418198D01*
X341197Y419198D01*
X339198D01*
X338198Y418198D01*
X348195Y419198D02*
X346196Y418198D01*
X344196Y416199D01*
Y414200D01*
X345196Y413200D01*
X347195D01*
X348195Y414200D01*
Y415199D01*
X347195Y416199D01*
X344196D01*
X331700Y387200D02*
Y393198D01*
X334699D01*
X335699Y392198D01*
Y390199D01*
X334699Y389199D01*
X331700D01*
X333699D02*
X335699Y387200D01*
X341697D02*
X337698D01*
X341697Y391199D01*
Y392198D01*
X340697Y393198D01*
X338698D01*
X337698Y392198D01*
X347695Y393198D02*
X343696D01*
Y390199D01*
X345695Y391199D01*
X346695D01*
X347695Y390199D01*
Y388200D01*
X346695Y387200D01*
X344696D01*
X343696Y388200D01*
X361800Y254700D02*
Y260698D01*
X364799D01*
X365799Y259698D01*
Y257699D01*
X364799Y256699D01*
X361800D01*
X363799D02*
X365799Y254700D01*
X371797D02*
X367798D01*
X371797Y258699D01*
Y259698D01*
X370797Y260698D01*
X368798D01*
X367798Y259698D01*
X376795Y254700D02*
Y260698D01*
X373796Y257699D01*
X377795D01*
X323700Y271200D02*
Y277198D01*
X326699D01*
X327699Y276198D01*
Y274199D01*
X326699Y273199D01*
X323700D01*
X325699D02*
X327699Y271200D01*
X333697D02*
X329698D01*
X333697Y275199D01*
Y276198D01*
X332697Y277198D01*
X330698D01*
X329698Y276198D01*
X335696D02*
X336696Y277198D01*
X338695D01*
X339695Y276198D01*
Y275199D01*
X338695Y274199D01*
X337696D01*
X338695D01*
X339695Y273199D01*
Y272200D01*
X338695Y271200D01*
X336696D01*
X335696Y272200D01*
X299700Y229200D02*
Y235198D01*
X302699D01*
X303699Y234198D01*
Y232199D01*
X302699Y231199D01*
X299700D01*
X301699D02*
X303699Y229200D01*
X309697Y235198D02*
X305698D01*
Y232199D01*
X307697Y233199D01*
X308697D01*
X309697Y232199D01*
Y230200D01*
X308697Y229200D01*
X306698D01*
X305698Y230200D01*
X311696Y234198D02*
X312696Y235198D01*
X314695D01*
X315695Y234198D01*
Y230200D01*
X314695Y229200D01*
X312696D01*
X311696Y230200D01*
Y234198D01*
X247200Y386700D02*
Y392698D01*
X250199D01*
X251199Y391698D01*
Y389699D01*
X250199Y388699D01*
X247200D01*
X249199D02*
X251199Y386700D01*
X253198D02*
X255197D01*
X254198D01*
Y392698D01*
X253198Y391698D01*
X258196D02*
X259196Y392698D01*
X261195D01*
X262195Y391698D01*
Y390699D01*
X261195Y389699D01*
X260196D01*
X261195D01*
X262195Y388699D01*
Y387700D01*
X261195Y386700D01*
X259196D01*
X258196Y387700D01*
X240700Y286200D02*
Y292198D01*
X243699D01*
X244699Y291198D01*
Y289199D01*
X243699Y288199D01*
X240700D01*
X242699D02*
X244699Y286200D01*
X246698D02*
X248697D01*
X247698D01*
Y292198D01*
X246698Y291198D01*
X255695Y286200D02*
X251696D01*
X255695Y290199D01*
Y291198D01*
X254696Y292198D01*
X252696D01*
X251696Y291198D01*
X370700Y226200D02*
Y232198D01*
X373699D01*
X374699Y231198D01*
Y229199D01*
X373699Y228199D01*
X370700D01*
X372699D02*
X374699Y226200D01*
X376698D02*
X378697D01*
X377698D01*
Y232198D01*
X376698Y231198D01*
X381696D02*
X382696Y232198D01*
X384696D01*
X385695Y231198D01*
Y227200D01*
X384696Y226200D01*
X382696D01*
X381696Y227200D01*
Y231198D01*
X381300Y268700D02*
Y274698D01*
X384299D01*
X385299Y273698D01*
Y271699D01*
X384299Y270699D01*
X381300D01*
X383299D02*
X385299Y268700D01*
X387298Y269700D02*
X388298Y268700D01*
X390297D01*
X391297Y269700D01*
Y273698D01*
X390297Y274698D01*
X388298D01*
X387298Y273698D01*
Y272699D01*
X388298Y271699D01*
X391297D01*
X188800Y277800D02*
Y283798D01*
X191799D01*
X192799Y282798D01*
Y280799D01*
X191799Y279799D01*
X188800D01*
X190799D02*
X192799Y277800D01*
X194798Y282798D02*
X195798Y283798D01*
X197797D01*
X198797Y282798D01*
Y281799D01*
X197797Y280799D01*
X198797Y279799D01*
Y278800D01*
X197797Y277800D01*
X195798D01*
X194798Y278800D01*
Y279799D01*
X195798Y280799D01*
X194798Y281799D01*
Y282798D01*
X195798Y280799D02*
X197797D01*
X217200Y255700D02*
Y261698D01*
X220199D01*
X221199Y260698D01*
Y258699D01*
X220199Y257699D01*
X217200D01*
X219199D02*
X221199Y255700D01*
X223198Y261698D02*
X227197D01*
Y260698D01*
X223198Y256700D01*
Y255700D01*
X212200Y284200D02*
Y290198D01*
X215199D01*
X216199Y289198D01*
Y287199D01*
X215199Y286199D01*
X212200D01*
X214199D02*
X216199Y284200D01*
X222197Y290198D02*
X220197Y289198D01*
X218198Y287199D01*
Y285200D01*
X219198Y284200D01*
X221197D01*
X222197Y285200D01*
Y286199D01*
X221197Y287199D01*
X218198D01*
X361300Y323700D02*
Y329698D01*
X364299D01*
X365299Y328698D01*
Y326699D01*
X364299Y325699D01*
X361300D01*
X363299D02*
X365299Y323700D01*
X370297D02*
Y329698D01*
X367298Y326699D01*
X371297D01*
X371700Y427700D02*
Y433698D01*
X374699D01*
X375699Y432698D01*
Y430699D01*
X374699Y429699D01*
X371700D01*
X373699D02*
X375699Y427700D01*
X377698Y432698D02*
X378698Y433698D01*
X380697D01*
X381697Y432698D01*
Y431699D01*
X380697Y430699D01*
X379697D01*
X380697D01*
X381697Y429699D01*
Y428700D01*
X380697Y427700D01*
X378698D01*
X377698Y428700D01*
X211300Y397200D02*
Y403198D01*
X214299D01*
X215299Y402198D01*
Y400199D01*
X214299Y399199D01*
X211300D01*
X213299D02*
X215299Y397200D01*
X221297D02*
X217298D01*
X221297Y401199D01*
Y402198D01*
X220297Y403198D01*
X218298D01*
X217298Y402198D01*
X384300Y401300D02*
Y407298D01*
X387299D01*
X388299Y406298D01*
Y404299D01*
X387299Y403299D01*
X384300D01*
X386299D02*
X388299Y401300D01*
X390298D02*
X392297D01*
X391298D01*
Y407298D01*
X390298Y406298D01*
X197399Y337700D02*
Y341698D01*
X196399Y342698D01*
X194400D01*
X193400Y341698D01*
Y337700D01*
X194400Y336700D01*
X196399D01*
X195399Y338699D02*
X197399Y336700D01*
X196399D02*
X197399Y337700D01*
X199398Y341698D02*
X200398Y342698D01*
X202397D01*
X203397Y341698D01*
Y340699D01*
X202397Y339699D01*
X201397D01*
X202397D01*
X203397Y338699D01*
Y337700D01*
X202397Y336700D01*
X200398D01*
X199398Y337700D01*
X233599Y313500D02*
Y317498D01*
X232599Y318498D01*
X230600D01*
X229600Y317498D01*
Y313500D01*
X230600Y312500D01*
X232599D01*
X231599Y314499D02*
X233599Y312500D01*
X232599D02*
X233599Y313500D01*
X235598Y312500D02*
X237597D01*
X236598D01*
Y318498D01*
X235598Y317498D01*
X358400Y417998D02*
Y412000D01*
X361399D01*
X362399Y413000D01*
Y416998D01*
X361399Y417998D01*
X358400D01*
X364398Y412000D02*
X366397D01*
X365398D01*
Y417998D01*
X364398Y416998D01*
X170799Y309698D02*
X169799Y310698D01*
X167800D01*
X166800Y309698D01*
Y305700D01*
X167800Y304700D01*
X169799D01*
X170799Y305700D01*
X176797Y304700D02*
X172798D01*
X176797Y308699D01*
Y309698D01*
X175797Y310698D01*
X173798D01*
X172798Y309698D01*
X178796D02*
X179796Y310698D01*
X181795D01*
X182795Y309698D01*
Y305700D01*
X181795Y304700D01*
X179796D01*
X178796Y305700D01*
Y309698D01*
X184794D02*
X185794Y310698D01*
X187793D01*
X188793Y309698D01*
Y305700D01*
X187793Y304700D01*
X185794D01*
X184794Y305700D01*
Y309698D01*
X336299Y368798D02*
X335299Y369798D01*
X333300D01*
X332300Y368798D01*
Y364800D01*
X333300Y363800D01*
X335299D01*
X336299Y364800D01*
X342297Y363800D02*
X338298D01*
X342297Y367799D01*
Y368798D01*
X341297Y369798D01*
X339298D01*
X338298Y368798D01*
X344296D02*
X345296Y369798D01*
X347295D01*
X348295Y368798D01*
Y364800D01*
X347295Y363800D01*
X345296D01*
X344296Y364800D01*
Y368798D01*
X384699Y295198D02*
X383699Y296198D01*
X381700D01*
X380700Y295198D01*
Y291200D01*
X381700Y290200D01*
X383699D01*
X384699Y291200D01*
X390697Y296198D02*
X386698D01*
Y293199D01*
X388697Y294199D01*
X389697D01*
X390697Y293199D01*
Y291200D01*
X389697Y290200D01*
X387698D01*
X386698Y291200D01*
X366299Y276698D02*
X365299Y277698D01*
X363300D01*
X362300Y276698D01*
Y272700D01*
X363300Y271700D01*
X365299D01*
X366299Y272700D01*
X371297Y271700D02*
Y277698D01*
X368298Y274699D01*
X372297D01*
X395699Y232198D02*
X394699Y233198D01*
X392700D01*
X391700Y232198D01*
Y228200D01*
X392700Y227200D01*
X394699D01*
X395699Y228200D01*
X397698Y232198D02*
X398698Y233198D01*
X400697D01*
X401697Y232198D01*
Y231199D01*
X400697Y230199D01*
X399697D01*
X400697D01*
X401697Y229199D01*
Y228200D01*
X400697Y227200D01*
X398698D01*
X397698Y228200D01*
X192299Y248298D02*
X191299Y249298D01*
X189300D01*
X188300Y248298D01*
Y244300D01*
X189300Y243300D01*
X191299D01*
X192299Y244300D01*
X198297Y243300D02*
X194298D01*
X198297Y247299D01*
Y248298D01*
X197297Y249298D01*
X195298D01*
X194298Y248298D01*
X341999Y344498D02*
X338000D01*
Y341499D01*
X339999Y342499D01*
X340999D01*
X341999Y341499D01*
Y339500D01*
X340999Y338500D01*
X339000D01*
X338000Y339500D01*
X343998Y344498D02*
Y340499D01*
X345997Y338500D01*
X347997Y340499D01*
Y344498D01*
D14*
X329457Y197413D02*
X336543D01*
Y211587D01*
X329457D02*
X336543D01*
X329457Y197413D02*
Y211587D01*
X273457Y195413D02*
X280543D01*
Y209587D01*
X273457D02*
X280543D01*
X273457Y195413D02*
Y209587D01*
X350957Y196413D02*
X358043D01*
Y210587D01*
X350957D02*
X358043D01*
X350957Y196413D02*
Y210587D01*
X347457Y250913D02*
X354543D01*
Y265087D01*
X347457D02*
X354543D01*
X347457Y250913D02*
Y265087D01*
X355043Y285476D02*
Y299650D01*
X347957Y285476D02*
X355043D01*
X347957D02*
Y299650D01*
X355043D01*
X383457Y398087D02*
X390543D01*
X383457Y383913D02*
Y398087D01*
Y383913D02*
X390543D01*
Y398087D01*
X370913Y417457D02*
Y424543D01*
Y417457D02*
X385087D01*
Y424543D01*
X370913D02*
X385087D01*
X360457Y306350D02*
X367543D01*
Y320524D01*
X360457D02*
X367543D01*
X360457Y306350D02*
Y320524D01*
X331457Y360587D02*
X338543D01*
X331457Y346413D02*
Y360587D01*
Y346413D02*
X338543D01*
Y360587D01*
X379850Y279957D02*
Y287043D01*
Y279957D02*
X394024D01*
Y287043D01*
X379850D02*
X394024D01*
X357563Y401366D02*
X365437D01*
X364650Y405303D02*
X365437D01*
Y393492D02*
Y405303D01*
X364650Y393492D02*
X365437D01*
X357563D02*
X358350D01*
X357563Y405303D02*
X358350D01*
X357563Y393492D02*
Y405303D01*
X168457Y333587D02*
X175543D01*
X168457Y319413D02*
Y333587D01*
Y319413D02*
X175543D01*
Y333587D01*
X225587Y273957D02*
Y281043D01*
X211413D02*
X225587D01*
X211413Y273957D02*
Y281043D01*
Y273957D02*
X225587D01*
X361476Y261457D02*
Y268543D01*
Y261457D02*
X375650D01*
Y268543D01*
X361476D02*
X375650D01*
X187457Y225976D02*
X194543D01*
Y240150D01*
X187457D02*
X194543D01*
X187457Y225976D02*
Y240150D01*
X187957Y260413D02*
X195043D01*
Y274587D01*
X187957D02*
X195043D01*
X187957Y260413D02*
Y274587D01*
X239913Y275957D02*
Y283043D01*
Y275957D02*
X254087D01*
Y283043D01*
X239913D02*
X254087D01*
X369913Y215957D02*
Y223043D01*
Y215957D02*
X384087D01*
Y223043D01*
X369913D02*
X384087D01*
X390913Y216957D02*
Y224043D01*
Y216957D02*
X405087D01*
Y224043D01*
X390913D02*
X405087D01*
X165976Y294457D02*
Y301543D01*
Y294457D02*
X180150D01*
Y301543D01*
X165976D02*
X180150D01*
X210457Y379850D02*
X217543D01*
Y394024D01*
X210457D02*
X217543D01*
X210457Y379850D02*
Y394024D01*
X394650Y258457D02*
Y265543D01*
X380476D02*
X394650D01*
X380476Y258457D02*
Y265543D01*
Y258457D02*
X394650D01*
X216350Y245457D02*
Y252543D01*
Y245457D02*
X230524D01*
Y252543D01*
X216350D02*
X230524D01*
X246350Y376457D02*
Y383543D01*
Y376457D02*
X260524D01*
Y383543D01*
X246350D02*
X260524D01*
X345024Y376957D02*
Y384043D01*
X330850D02*
X345024D01*
X330850Y376957D02*
Y384043D01*
Y376957D02*
X345024D01*
X322913Y260957D02*
Y268043D01*
Y260957D02*
X337087D01*
Y268043D01*
X322913D02*
X337087D01*
X313024Y218957D02*
Y226043D01*
X298850D02*
X313024D01*
X298850Y218957D02*
Y226043D01*
Y218957D02*
X313024D01*
X345587Y402957D02*
Y410043D01*
X331413D02*
X345587D01*
X331413Y402957D02*
Y410043D01*
Y402957D02*
X345587D01*
X375150Y244457D02*
Y251543D01*
X360976D02*
X375150D01*
X360976Y244457D02*
Y251543D01*
Y244457D02*
X375150D01*
D15*
X186285Y187250D02*
X189617Y190582D01*
Y187250D02*
X186285Y190582D01*
X187951Y187250D02*
Y190582D01*
X189617Y188916D02*
X186285D01*
X231000Y196000D02*
X226002D01*
Y198499D01*
X226835Y199332D01*
X228501D01*
X229334Y198499D01*
Y196000D01*
Y197666D02*
X231000Y199332D01*
Y203498D02*
Y201831D01*
X230167Y200998D01*
X228501D01*
X227668Y201831D01*
Y203498D01*
X228501Y204331D01*
X229334D01*
Y200998D01*
X231000Y206830D02*
X226835D01*
X228501D01*
Y205997D01*
Y207663D01*
Y206830D01*
X226835D01*
X226002Y207663D01*
Y210162D02*
X231000D01*
Y212661D01*
X230167Y213494D01*
X226835D01*
X226002Y212661D01*
Y210162D01*
X231000Y217660D02*
Y215993D01*
X230167Y215160D01*
X228501D01*
X227668Y215993D01*
Y217660D01*
X228501Y218493D01*
X229334D01*
Y215160D01*
X231000Y220159D02*
Y222658D01*
X230167Y223491D01*
X229334Y222658D01*
Y220992D01*
X228501Y220159D01*
X227668Y220992D01*
Y223491D01*
X231000Y194750D02*
X226002D01*
Y197249D01*
X226835Y198082D01*
X228501D01*
X229334Y197249D01*
Y194750D01*
Y196416D02*
X231000Y198082D01*
X226002Y203081D02*
Y199748D01*
X231000D01*
Y203081D01*
X228501Y199748D02*
Y201414D01*
X226002Y208079D02*
Y204747D01*
X228501D01*
Y206413D01*
Y204747D01*
X231000D01*
X226002Y209745D02*
X231000D01*
Y212244D01*
X230167Y213077D01*
X226835D01*
X226002Y212244D01*
Y209745D01*
Y218076D02*
Y214743D01*
X231000D01*
Y218076D01*
X228501Y214743D02*
Y216410D01*
X226835Y223074D02*
X226002Y222241D01*
Y220575D01*
X226835Y219742D01*
X227668D01*
X228501Y220575D01*
Y222241D01*
X229334Y223074D01*
X230167D01*
X231000Y222241D01*
Y220575D01*
X230167Y219742D01*
X309758Y273337D02*
X305593D01*
X304760Y272504D01*
Y270837D01*
X305593Y270004D01*
X309758D01*
Y265006D02*
X308925Y266672D01*
X307259Y268338D01*
X305593D01*
X304760Y267505D01*
Y265839D01*
X305593Y265006D01*
X306426D01*
X307259Y265839D01*
Y268338D01*
X239975Y335635D02*
X236643Y338967D01*
X239975D02*
X236643Y335635D01*
X239975Y337301D02*
X236643D01*
X238309Y338967D02*
Y335635D01*
X240750Y346502D02*
Y350667D01*
X239917Y351500D01*
X238251D01*
X237418Y350667D01*
Y346502D01*
X235752Y351500D02*
X234085D01*
X234919D01*
Y346502D01*
X235752Y347335D01*
X358525Y364865D02*
X361857Y361533D01*
X358525D02*
X361857Y364865D01*
X358525Y363199D02*
X361857D01*
X360191Y361533D02*
Y364865D01*
X357750Y353998D02*
Y349833D01*
X358583Y349000D01*
X360249D01*
X361082Y349833D01*
Y353998D01*
X362748D02*
X366081D01*
Y353165D01*
X362748Y349833D01*
Y349000D01*
M02*
