G04*
G04 #@! TF.GenerationSoftware,Altium Limited,Altium Designer,26.5.0 (11)*
G04*
G04 Layer_Physical_Order=1*
G04 Layer_Color=255*
G04 Board_Origin=0|0*
%FSLAX25Y25*%
%MOIN*%
G70*
G04*
G04 #@! TF.SameCoordinates,A3810AA2-BE36-4E54-B971-4CCF84F77904*
G04*
G04*
G04 #@! TF.FilePolarity,Positive*
G04*
G01*
G75*
%ADD16R,0.05512X0.04331*%
%ADD17R,0.06693X0.07087*%
%ADD18R,0.04331X0.05512*%
%ADD19R,0.04724X0.06299*%
%ADD20R,0.02362X0.03937*%
%ADD21R,0.05750X0.02200*%
%ADD29C,0.07835*%
%ADD30R,0.07835X0.07835*%
%ADD34C,0.02000*%
%ADD35O,0.07874X0.06693*%
%ADD36R,0.07874X0.06693*%
%ADD37C,0.05906*%
%ADD38R,0.05100X0.05100*%
%ADD39C,0.05100*%
%ADD40C,0.06299*%
%ADD41R,0.06299X0.06299*%
%ADD42C,0.02559*%
G36*
X409528Y444837D02*
X410996Y444392D01*
X412350Y443668D01*
X413537Y442694D01*
X414511Y441508D01*
X415000Y440592D01*
Y185144D01*
X414385Y183992D01*
X413411Y182806D01*
X412224Y181832D01*
X410871Y181108D01*
X409402Y180663D01*
X408365Y180561D01*
X407874Y180539D01*
Y180539D01*
X229568D01*
X229416Y181039D01*
X230102Y181498D01*
X233055Y184450D01*
X234033D01*
X235063Y184726D01*
X235987Y185259D01*
X236741Y186013D01*
X237274Y186937D01*
X237550Y187967D01*
Y189033D01*
X237274Y190063D01*
X236741Y190987D01*
X235987Y191741D01*
X235063Y192274D01*
X234033Y192550D01*
X232967D01*
X231937Y192274D01*
X231107Y191795D01*
X230800Y192195D01*
X236056Y197451D01*
X261744D01*
X262719Y197645D01*
X263546Y198198D01*
X268689Y203340D01*
X269151Y203149D01*
Y197756D01*
X263945Y192550D01*
X262967D01*
X261937Y192274D01*
X261013Y191741D01*
X260259Y190987D01*
X259726Y190063D01*
X259450Y189033D01*
Y187967D01*
X259726Y186937D01*
X260259Y186013D01*
X261013Y185259D01*
X261937Y184726D01*
X262967Y184450D01*
X264033D01*
X265063Y184726D01*
X265987Y185259D01*
X266679Y185951D01*
X364000D01*
X364976Y186145D01*
X365802Y186698D01*
X370102Y190998D01*
X370655Y191824D01*
X370670Y191901D01*
X371149Y192046D01*
X372998Y190198D01*
X373825Y189645D01*
X374800Y189451D01*
X384400D01*
X385375Y189645D01*
X386202Y190198D01*
X403739Y207735D01*
X404292Y208561D01*
X404486Y209537D01*
Y216244D01*
X405602D01*
Y224756D01*
X404486D01*
Y229700D01*
X404292Y230676D01*
X403739Y231502D01*
X394049Y241193D01*
Y257744D01*
X395165D01*
Y266256D01*
X393818D01*
X393423Y273396D01*
Y279244D01*
X394539D01*
Y287756D01*
X393423D01*
Y340000D01*
X393229Y340975D01*
X392676Y341802D01*
X388676Y345802D01*
X387849Y346355D01*
X386874Y346549D01*
X386600D01*
Y351400D01*
Y356451D01*
X391800D01*
X392776Y356645D01*
X393233Y356951D01*
X398330D01*
X398437Y356766D01*
X399266Y355937D01*
X400281Y355351D01*
X401414Y355047D01*
X402586D01*
X403719Y355351D01*
X404734Y355937D01*
X405563Y356766D01*
X406149Y357781D01*
X406453Y358914D01*
Y360086D01*
X406149Y361219D01*
X405563Y362234D01*
X404734Y363063D01*
X403719Y363649D01*
X402586Y363953D01*
X401414D01*
X400281Y363649D01*
X399266Y363063D01*
X398437Y362234D01*
X398330Y362049D01*
X392300D01*
X391324Y361855D01*
X390867Y361549D01*
X389000D01*
X388853Y362049D01*
X389355Y362800D01*
X389549Y363775D01*
Y383398D01*
X391256D01*
Y390728D01*
X382744D01*
Y383398D01*
X384451D01*
Y364831D01*
X381220Y361600D01*
X377850D01*
X377649Y362017D01*
Y376100D01*
X377455Y377076D01*
X376902Y377902D01*
X365362Y389443D01*
Y396751D01*
X380981D01*
X382744Y394988D01*
Y391272D01*
X391256D01*
Y398602D01*
X389549D01*
Y426000D01*
X389355Y426975D01*
X388802Y427802D01*
X386602Y430002D01*
X385775Y430555D01*
X384800Y430749D01*
X378263D01*
X377288Y430555D01*
X376461Y430002D01*
X372261Y425802D01*
X371895Y425256D01*
X370398D01*
Y416744D01*
X377728D01*
Y423634D01*
X377772Y423663D01*
X378272Y423396D01*
Y416744D01*
X378423D01*
X378614Y416282D01*
X376081Y413749D01*
X361356D01*
X360852Y414252D01*
X345702Y429402D01*
X344876Y429955D01*
X343900Y430149D01*
X288300D01*
X287325Y429955D01*
X286498Y429402D01*
X255572Y398476D01*
X255019Y397649D01*
X254825Y396674D01*
Y384256D01*
X253709D01*
Y375744D01*
X261039D01*
Y384256D01*
X259923D01*
Y395618D01*
X289356Y425051D01*
X310593D01*
X310784Y424589D01*
X308698Y422502D01*
X308145Y421675D01*
X307951Y420700D01*
Y412156D01*
X284598Y388802D01*
X284045Y387976D01*
X283851Y387000D01*
Y354733D01*
X283389Y354542D01*
X279628Y358302D01*
X278801Y358855D01*
X277826Y359049D01*
X242100D01*
Y359100D01*
X233350D01*
Y359049D01*
X220650D01*
Y359100D01*
X213449D01*
Y379335D01*
X218256D01*
Y386665D01*
X209744D01*
Y385234D01*
X209098Y384802D01*
X208545Y383976D01*
X208351Y383000D01*
Y342600D01*
X208545Y341624D01*
X209098Y340798D01*
X210198Y339698D01*
X211024Y339145D01*
X211900Y338971D01*
Y338900D01*
X220650D01*
Y338951D01*
X224556D01*
X224627Y338910D01*
X225050Y338796D01*
X225283Y338254D01*
X225282Y338242D01*
X225019Y337849D01*
X224825Y336874D01*
Y306889D01*
X224325Y306737D01*
X224239Y306865D01*
X211185Y319920D01*
X211417Y320787D01*
Y322213D01*
X211048Y323591D01*
X210335Y324826D01*
X209326Y325835D01*
X208091Y326548D01*
X206713Y326917D01*
X205287D01*
X204420Y326685D01*
X195249Y335856D01*
Y382944D01*
X200630Y388325D01*
X209744D01*
Y387209D01*
X218256D01*
Y393051D01*
X242944D01*
X246951Y389044D01*
Y384256D01*
X245835D01*
Y375744D01*
X253165D01*
Y384256D01*
X252049D01*
Y390100D01*
X251855Y391075D01*
X251302Y391902D01*
X245802Y397402D01*
X244975Y397955D01*
X244000Y398149D01*
X192000D01*
X191024Y397955D01*
X190198Y397402D01*
X180398Y387602D01*
X179845Y386775D01*
X179651Y385800D01*
Y331061D01*
X179151Y330854D01*
X177765Y332239D01*
X176938Y332792D01*
X176256Y332928D01*
Y334102D01*
X167744D01*
Y326772D01*
X175372D01*
X175397Y326728D01*
X175109Y326228D01*
X167744D01*
Y321912D01*
X167324Y321491D01*
X166771Y320664D01*
X166577Y319689D01*
Y302256D01*
X165461D01*
Y293744D01*
X166577D01*
Y264074D01*
X166771Y263099D01*
X167324Y262272D01*
X169106Y260489D01*
X169127Y260410D01*
X169493Y259776D01*
X170010Y259259D01*
X170644Y258893D01*
X171351Y258703D01*
X172083D01*
X172790Y258893D01*
X173424Y259259D01*
X173941Y259776D01*
X173951Y259793D01*
X174451Y259659D01*
Y228656D01*
X161198Y215402D01*
X160645Y214576D01*
X160451Y213600D01*
Y193500D01*
X160645Y192525D01*
X161198Y191698D01*
X162198Y190698D01*
X163024Y190145D01*
X164000Y189951D01*
X164757D01*
X165453Y189043D01*
X166465Y188267D01*
X167644Y187778D01*
X168909Y187612D01*
X170091D01*
X171356Y187778D01*
X172535Y188267D01*
X173547Y189043D01*
X174324Y190056D01*
X174812Y191235D01*
X174979Y192500D01*
X174812Y193765D01*
X174324Y194944D01*
X173547Y195957D01*
X172535Y196733D01*
X171520Y197153D01*
X171620Y197653D01*
X174937D01*
Y199951D01*
X177500D01*
X178475Y200145D01*
X179302Y200698D01*
X185389Y206784D01*
X185851Y206593D01*
Y184900D01*
X186045Y183924D01*
X186598Y183098D01*
X188198Y181498D01*
X188884Y181039D01*
X188732Y180539D01*
X160339D01*
X159843Y180539D01*
X159351Y180561D01*
X158315Y180663D01*
X156912Y181088D01*
X154539Y183461D01*
Y436661D01*
X154539Y437157D01*
X154561Y437649D01*
X154663Y438685D01*
X155108Y440154D01*
X155832Y441508D01*
X156806Y442694D01*
X157992Y443668D01*
X159346Y444392D01*
X160815Y444837D01*
X161851Y444939D01*
X162343Y444961D01*
X162343Y444961D01*
X162343D01*
X162841Y444961D01*
X408000D01*
X408090Y444979D01*
X409528Y444837D01*
D02*
G37*
G36*
X314512Y420454D02*
Y412599D01*
X316809D01*
Y411142D01*
X317003Y410166D01*
X317556Y409339D01*
X320220Y406676D01*
X319961Y406227D01*
X319766Y406280D01*
X319034D01*
X318327Y406090D01*
X317693Y405724D01*
X317176Y405207D01*
X316810Y404573D01*
X316620Y403866D01*
Y403134D01*
X316809Y402430D01*
Y391295D01*
Y390402D01*
X314512D01*
Y380315D01*
X324205D01*
Y381282D01*
X324705Y381465D01*
X325093Y381076D01*
X325727Y380710D01*
X326434Y380521D01*
X327166D01*
X327873Y380710D01*
X328507Y381076D01*
X329024Y381593D01*
X329390Y382227D01*
X329411Y382307D01*
X329873Y382768D01*
X330335Y382577D01*
Y376244D01*
X331451D01*
Y369056D01*
X328381Y365986D01*
X310180D01*
X304191Y371976D01*
Y380315D01*
X306488D01*
Y390402D01*
X296795D01*
Y380315D01*
X299093D01*
Y370920D01*
X299287Y369944D01*
X299839Y369117D01*
X307322Y361635D01*
X308149Y361082D01*
X309125Y360888D01*
X329437D01*
X330244Y361049D01*
X330660Y360799D01*
X330744Y360702D01*
Y353772D01*
X339256D01*
Y354888D01*
X339951D01*
Y333670D01*
X339766Y333563D01*
X338937Y332734D01*
X338351Y331719D01*
X338047Y330586D01*
Y329414D01*
X338351Y328281D01*
X338937Y327266D01*
X339766Y326437D01*
X340781Y325851D01*
X341914Y325547D01*
X343086D01*
X344219Y325851D01*
X345234Y326437D01*
X346063Y327266D01*
X346649Y328281D01*
X346953Y329414D01*
Y330586D01*
X346649Y331719D01*
X346063Y332734D01*
X345234Y333563D01*
X345049Y333670D01*
Y357037D01*
X344855Y358012D01*
X344302Y358839D01*
X343902Y359239D01*
X343075Y359792D01*
X342100Y359986D01*
X339256D01*
Y361102D01*
X336549D01*
Y368000D01*
Y376244D01*
X337665D01*
Y383251D01*
X338209D01*
Y376244D01*
X339325D01*
Y371826D01*
X339519Y370851D01*
X340072Y370024D01*
X352898Y357198D01*
X353542Y356767D01*
X353590Y356232D01*
X353576Y356189D01*
X352998Y355802D01*
X349698Y352502D01*
X349145Y351676D01*
X348951Y350700D01*
Y314000D01*
Y300165D01*
X347244D01*
Y292835D01*
X355756D01*
Y300165D01*
X354049D01*
Y307196D01*
X354549Y307463D01*
X355025Y307145D01*
X356000Y306951D01*
X359744D01*
Y305835D01*
X366751D01*
Y281293D01*
X351061Y265602D01*
X346744D01*
Y264486D01*
X337602D01*
Y268756D01*
X330272D01*
Y260244D01*
X331388D01*
Y256654D01*
X308072Y233337D01*
X307519Y232510D01*
X307325Y231535D01*
Y226756D01*
X306209D01*
Y218244D01*
X307325D01*
Y206689D01*
X307519Y205714D01*
X308072Y204887D01*
X314198Y198761D01*
X315024Y198208D01*
X316000Y198014D01*
X328744D01*
Y196898D01*
X334303D01*
X334494Y196436D01*
X329107Y191049D01*
X270307D01*
X270116Y191511D01*
X273502Y194898D01*
X273502Y194898D01*
X281256D01*
Y196395D01*
X281802Y196761D01*
X284102Y199061D01*
X284655Y199888D01*
X284849Y200863D01*
Y210000D01*
X284655Y210976D01*
X284102Y211802D01*
X283000Y212905D01*
X282173Y213457D01*
X281198Y213651D01*
X272846D01*
X271871Y213457D01*
X271044Y212905D01*
X260940Y202800D01*
X260785Y202831D01*
X260620Y203374D01*
X291202Y233956D01*
X291755Y234783D01*
X291949Y235758D01*
Y249825D01*
X303656Y261531D01*
X304711D01*
Y259698D01*
X304671Y259500D01*
Y257642D01*
X300838D01*
Y251849D01*
X300000D01*
X299025Y251655D01*
X298198Y251102D01*
X293898Y246802D01*
X293345Y245975D01*
X293151Y245000D01*
Y218256D01*
X291293Y216397D01*
X291086Y216453D01*
X289914D01*
X288781Y216149D01*
X287766Y215563D01*
X286937Y214734D01*
X286351Y213719D01*
X286047Y212586D01*
Y211414D01*
X286351Y210281D01*
X286937Y209266D01*
X287766Y208437D01*
X288781Y207851D01*
X289914Y207547D01*
X291086D01*
X292219Y207851D01*
X293234Y208437D01*
X294063Y209266D01*
X294649Y210281D01*
X294953Y211414D01*
Y212586D01*
X294897Y212793D01*
X297502Y215398D01*
X298055Y216225D01*
X298249Y217200D01*
Y217780D01*
X298335Y218244D01*
X305665D01*
Y226756D01*
X304549D01*
Y233734D01*
X317013Y246198D01*
X317565Y247024D01*
X317760Y248000D01*
Y260139D01*
X317680Y260539D01*
X317629Y260944D01*
X317584Y261024D01*
X317565Y261115D01*
X317339Y261454D01*
X317261Y261590D01*
X317421Y262108D01*
X317483Y262173D01*
X317623Y262213D01*
X317724Y262145D01*
X318700Y261951D01*
X322398D01*
Y260244D01*
X329728D01*
Y268756D01*
X322398D01*
Y267049D01*
X319633D01*
X319176Y267355D01*
X318200Y267549D01*
X313681D01*
Y268468D01*
X313549D01*
Y278944D01*
X316707Y282103D01*
X316914Y282047D01*
X318086D01*
X319219Y282351D01*
X320234Y282937D01*
X321063Y283766D01*
X321649Y284781D01*
X321953Y285914D01*
Y287086D01*
X321649Y288219D01*
X321238Y288931D01*
X321527Y289431D01*
X341290D01*
X343898Y286824D01*
X344724Y286271D01*
X345700Y286077D01*
X347244D01*
Y284961D01*
X355756D01*
Y292291D01*
X347244D01*
Y291203D01*
X346744Y291187D01*
X344148Y293782D01*
X343321Y294335D01*
X342346Y294529D01*
X314680D01*
X313705Y294335D01*
X312878Y293782D01*
X310271Y291176D01*
X309809Y291367D01*
Y323891D01*
X310184Y324142D01*
X331939Y345898D01*
X339256D01*
Y353228D01*
X330744D01*
Y351731D01*
X330198Y351365D01*
X308382Y329549D01*
X288949Y348982D01*
Y385944D01*
X312302Y409298D01*
X312855Y410124D01*
X313049Y411100D01*
Y419644D01*
X314050Y420645D01*
X314512Y420454D01*
D02*
G37*
G36*
X384451Y414363D02*
Y401144D01*
X383989Y400953D01*
X383839Y401102D01*
X383012Y401655D01*
X382037Y401849D01*
X365362D01*
Y408651D01*
X377137D01*
X378112Y408845D01*
X378939Y409398D01*
X383739Y414198D01*
X383951Y414514D01*
X384451Y414363D01*
D02*
G37*
G36*
X339888Y413644D02*
Y410756D01*
X338772D01*
Y402244D01*
X339888D01*
Y390200D01*
X340082Y389225D01*
X340350Y388824D01*
X340310Y388651D01*
X340251Y388528D01*
X340074Y388349D01*
X329300D01*
X328325Y388155D01*
X327498Y387602D01*
X325807Y385911D01*
X325727Y385890D01*
X325093Y385524D01*
X324705Y385136D01*
X324205Y385318D01*
Y390402D01*
X322723D01*
X322531Y390863D01*
X333912Y402244D01*
X338228D01*
Y410756D01*
X330898D01*
Y409049D01*
X325056D01*
X322006Y412099D01*
X322147Y412599D01*
X324205D01*
Y421151D01*
X332381D01*
X339888Y413644D01*
D02*
G37*
G36*
X355445Y412450D02*
X354798Y411802D01*
X354245Y410976D01*
X354051Y410000D01*
Y383900D01*
X354245Y382925D01*
X354689Y382259D01*
X354301Y381941D01*
X344986Y391256D01*
Y402244D01*
X346102D01*
Y410756D01*
X344986D01*
Y414700D01*
X344792Y415675D01*
X344239Y416502D01*
X336153Y424589D01*
X336344Y425051D01*
X342844D01*
X355445Y412450D01*
D02*
G37*
G36*
X359698Y387898D02*
X372551Y375044D01*
Y364344D01*
X372089Y364153D01*
X361672Y374570D01*
X361835Y375114D01*
X362719Y375351D01*
X363734Y375937D01*
X364563Y376766D01*
X365149Y377781D01*
X365453Y378914D01*
Y380086D01*
X365149Y381219D01*
X364563Y382234D01*
X363734Y383063D01*
X362719Y383649D01*
X361586Y383953D01*
X360414D01*
X360207Y383897D01*
X359149Y384956D01*
Y387819D01*
X359649Y387970D01*
X359698Y387898D01*
D02*
G37*
G36*
X372551Y356481D02*
Y349056D01*
X370044Y346549D01*
X365150D01*
Y351451D01*
X366756D01*
X366827Y351410D01*
X367534Y351220D01*
X368266D01*
X368973Y351410D01*
X369607Y351776D01*
X370124Y352293D01*
X370490Y352927D01*
X370679Y353634D01*
Y354366D01*
X370490Y355073D01*
X370124Y355707D01*
X369607Y356224D01*
X368973Y356590D01*
X368266Y356780D01*
X367534D01*
X366827Y356590D01*
X366756Y356549D01*
X365150D01*
Y361600D01*
X356400D01*
Y361549D01*
X355756D01*
X344423Y372882D01*
Y376244D01*
X345539D01*
Y382840D01*
X346001Y383031D01*
X372551Y356481D01*
D02*
G37*
G36*
X233350Y348900D02*
Y344049D01*
X232000D01*
X231025Y343855D01*
X230198Y343302D01*
X228947Y342052D01*
X228390Y342201D01*
X228290Y342573D01*
X227924Y343207D01*
X227407Y343724D01*
X226773Y344090D01*
X226066Y344280D01*
X225334D01*
X224627Y344090D01*
X224556Y344049D01*
X220650D01*
Y348900D01*
Y353951D01*
X233350D01*
Y348900D01*
D02*
G37*
G36*
X240551Y337556D02*
X230998Y328002D01*
X230445Y327175D01*
X230423Y327064D01*
X229923Y327114D01*
Y335818D01*
X232895Y338790D01*
X233350Y338900D01*
X233350Y338900D01*
X233350Y338900D01*
X240551D01*
Y337556D01*
D02*
G37*
G36*
X366751Y322944D02*
Y321039D01*
X365458D01*
X365153Y321436D01*
X365179Y321534D01*
Y322266D01*
X364990Y322973D01*
X364624Y323607D01*
X364107Y324124D01*
X363473Y324490D01*
X362766Y324679D01*
X362034D01*
X361327Y324490D01*
X360693Y324124D01*
X360176Y323607D01*
X359810Y322973D01*
X359620Y322266D01*
Y321534D01*
X359751Y321048D01*
X359744Y321039D01*
X359744D01*
Y313709D01*
X366751D01*
Y313165D01*
X359744D01*
Y312049D01*
X357056D01*
X354049Y315056D01*
Y334993D01*
X354511Y335184D01*
X366751Y322944D01*
D02*
G37*
G36*
X300789Y290707D02*
X300810Y290627D01*
X301176Y289993D01*
X301693Y289476D01*
X302327Y289110D01*
X303034Y288920D01*
X303766D01*
X304211Y289040D01*
X304711Y288710D01*
Y284560D01*
Y268468D01*
X300838D01*
Y265924D01*
X287598Y252683D01*
X287045Y251856D01*
X286851Y250880D01*
Y236814D01*
X268050Y218013D01*
X267550Y218220D01*
Y219033D01*
X267274Y220063D01*
X266741Y220987D01*
X265987Y221741D01*
X265063Y222274D01*
X264033Y222550D01*
X262967D01*
X261937Y222274D01*
X261013Y221741D01*
X260259Y220987D01*
X259726Y220063D01*
X259450Y219033D01*
Y217967D01*
X259726Y216937D01*
X260259Y216013D01*
X261013Y215259D01*
X261937Y214726D01*
X262967Y214450D01*
X263780D01*
X263987Y213950D01*
X257286Y207249D01*
X219700D01*
X218724Y207055D01*
X217898Y206502D01*
X203945Y192550D01*
X202967D01*
X201937Y192274D01*
X201013Y191741D01*
X200259Y190987D01*
X199726Y190063D01*
X199450Y189033D01*
Y187967D01*
X199726Y186937D01*
X200065Y186349D01*
X199777Y185849D01*
X197550D01*
Y192550D01*
X190949D01*
Y212344D01*
X193055Y214450D01*
X194033D01*
X195063Y214726D01*
X195987Y215259D01*
X196741Y216013D01*
X197274Y216937D01*
X197550Y217967D01*
Y218945D01*
X199805Y221200D01*
X200205Y220893D01*
X199726Y220063D01*
X199450Y219033D01*
Y217967D01*
X199726Y216937D01*
X200259Y216013D01*
X201013Y215259D01*
X201937Y214726D01*
X202967Y214450D01*
X204033D01*
X205063Y214726D01*
X205987Y215259D01*
X206741Y216013D01*
X207274Y216937D01*
X207550Y217967D01*
Y219033D01*
X207274Y220063D01*
X206741Y220987D01*
X206276Y221451D01*
X206484Y221951D01*
X210516D01*
X210723Y221451D01*
X210259Y220987D01*
X209726Y220063D01*
X209450Y219033D01*
Y217967D01*
X209726Y216937D01*
X210259Y216013D01*
X211013Y215259D01*
X211937Y214726D01*
X212967Y214450D01*
X214033D01*
X215063Y214726D01*
X215987Y215259D01*
X216741Y216013D01*
X217274Y216937D01*
X217550Y217967D01*
Y219033D01*
X217274Y220063D01*
X216741Y220987D01*
X216277Y221451D01*
X216484Y221951D01*
X220516D01*
X220724Y221451D01*
X220259Y220987D01*
X219726Y220063D01*
X219450Y219033D01*
Y217967D01*
X219726Y216937D01*
X220259Y216013D01*
X221013Y215259D01*
X221937Y214726D01*
X222967Y214450D01*
X224033D01*
X225063Y214726D01*
X225987Y215259D01*
X226741Y216013D01*
X227274Y216937D01*
X227550Y217967D01*
Y219033D01*
X227274Y220063D01*
X226741Y220987D01*
X226276Y221451D01*
X226484Y221951D01*
X230516D01*
X230724Y221451D01*
X230259Y220987D01*
X229726Y220063D01*
X229450Y219033D01*
Y217967D01*
X229726Y216937D01*
X230259Y216013D01*
X231013Y215259D01*
X231937Y214726D01*
X232967Y214450D01*
X234033D01*
X235063Y214726D01*
X235987Y215259D01*
X236741Y216013D01*
X237274Y216937D01*
X237550Y217967D01*
Y219033D01*
X237274Y220063D01*
X236741Y220987D01*
X236277Y221451D01*
X236484Y221951D01*
X238700D01*
X239675Y222145D01*
X240502Y222698D01*
X244865Y227061D01*
X245418Y227888D01*
X245612Y228863D01*
Y275244D01*
X246728D01*
Y283756D01*
X245612D01*
Y297679D01*
X246018Y298046D01*
X246096Y298067D01*
X246904Y297850D01*
X248066D01*
X248179Y297791D01*
X248493Y297430D01*
X248388Y296905D01*
Y283756D01*
X247272D01*
Y275244D01*
X254602D01*
Y276951D01*
X256900D01*
X257875Y277145D01*
X258702Y277698D01*
X259956Y278951D01*
X261330D01*
X261437Y278766D01*
X262266Y277937D01*
X263281Y277351D01*
X264414Y277047D01*
X265586D01*
X266719Y277351D01*
X267734Y277937D01*
X268563Y278766D01*
X269149Y279781D01*
X269453Y280914D01*
Y282086D01*
X269149Y283219D01*
X268563Y284234D01*
X267734Y285063D01*
X266719Y285649D01*
X265586Y285953D01*
X264414D01*
X263281Y285649D01*
X262266Y285063D01*
X261437Y284234D01*
X261330Y284049D01*
X258900D01*
X257925Y283855D01*
X257098Y283302D01*
X255844Y282049D01*
X254602D01*
Y283756D01*
X253486D01*
Y295850D01*
X255578Y297942D01*
X255920Y297850D01*
X257144D01*
X258326Y298167D01*
X259386Y298779D01*
X260252Y299645D01*
X260864Y300705D01*
X261181Y301888D01*
Y303112D01*
X260864Y304295D01*
X260252Y305355D01*
X259386Y306221D01*
X258326Y306833D01*
X257144Y307150D01*
X255920D01*
X254737Y306833D01*
X253677Y306221D01*
X252811Y305355D01*
X252298Y304467D01*
X252274Y304458D01*
X251774D01*
X251749Y304467D01*
X251236Y305355D01*
X250371Y306221D01*
X250065Y306397D01*
Y310074D01*
X250355Y310509D01*
X250549Y311484D01*
Y316330D01*
X250734Y316437D01*
X251563Y317266D01*
X252149Y318281D01*
X252453Y319414D01*
Y320586D01*
X252149Y321719D01*
X251563Y322734D01*
X250734Y323563D01*
X249719Y324149D01*
X248586Y324453D01*
X247414D01*
X246281Y324149D01*
X245266Y323563D01*
X244437Y322734D01*
X243851Y321719D01*
X243547Y320586D01*
Y319414D01*
X243851Y318281D01*
X244437Y317266D01*
X245266Y316437D01*
X245451Y316330D01*
Y312410D01*
X245161Y311976D01*
X244967Y311000D01*
Y306397D01*
X244661Y306221D01*
X243795Y305355D01*
X243650Y305103D01*
X243150Y305237D01*
Y307150D01*
X241049D01*
Y321244D01*
X242693Y322889D01*
X242773Y322910D01*
X243407Y323276D01*
X243924Y323793D01*
X244290Y324427D01*
X244479Y325134D01*
Y325866D01*
X244290Y326573D01*
X243924Y327207D01*
X243407Y327724D01*
X242773Y328090D01*
X242066Y328279D01*
X241334D01*
X240627Y328090D01*
X239993Y327724D01*
X239476Y327207D01*
X239110Y326573D01*
X239089Y326493D01*
X236698Y324102D01*
X236145Y323275D01*
X235951Y322300D01*
Y307150D01*
X235349D01*
Y325144D01*
X244902Y334698D01*
X245455Y335525D01*
X245649Y336500D01*
Y345139D01*
X246149Y345346D01*
X300789Y290707D01*
D02*
G37*
G36*
X284598Y346124D02*
X304711Y326010D01*
Y294701D01*
X304211Y294494D01*
X245402Y353302D01*
X245180Y353451D01*
X245332Y353951D01*
X276770D01*
X284598Y346124D01*
D02*
G37*
G36*
X197646Y392551D02*
X190898Y385802D01*
X190345Y384976D01*
X190151Y384000D01*
Y334800D01*
X190345Y333824D01*
X190898Y332998D01*
X200815Y323080D01*
X200583Y322213D01*
Y320787D01*
X200952Y319409D01*
X201665Y318174D01*
X202674Y317165D01*
X203393Y316750D01*
Y316250D01*
X202674Y315835D01*
X201665Y314826D01*
X200952Y313591D01*
X200583Y312213D01*
Y310787D01*
X200952Y309409D01*
X201665Y308174D01*
X202421Y307417D01*
X202214Y306917D01*
X200583D01*
Y296083D01*
X207812D01*
X212014Y291881D01*
Y281756D01*
X210898D01*
Y276560D01*
X210436Y276369D01*
X207502Y279302D01*
X206676Y279855D01*
X205700Y280049D01*
X187700D01*
X186724Y279855D01*
X185898Y279302D01*
X185211Y278616D01*
X184749Y278807D01*
Y384744D01*
X193056Y393051D01*
X197469D01*
X197646Y392551D01*
D02*
G37*
G36*
X177327Y325410D02*
X178034Y325220D01*
X178766D01*
X179151Y325324D01*
X179651Y324964D01*
Y302256D01*
X173335D01*
Y293744D01*
X174451D01*
Y263600D01*
Y263307D01*
X173951Y263173D01*
X173941Y263190D01*
X173424Y263707D01*
X172790Y264073D01*
X172711Y264094D01*
X171675Y265130D01*
Y293744D01*
X172791D01*
Y302256D01*
X171675D01*
Y318633D01*
X171940Y318898D01*
X176256D01*
Y325587D01*
X176756Y325740D01*
X177327Y325410D01*
D02*
G37*
G36*
X377298Y342198D02*
X377850Y341828D01*
Y341400D01*
X385869D01*
X388325Y338944D01*
Y287756D01*
X387209D01*
Y279244D01*
X388325D01*
Y273326D01*
X388339Y273256D01*
X388329Y273185D01*
X388692Y266619D01*
X388348Y266256D01*
X387835D01*
Y257744D01*
X388951D01*
Y240137D01*
X389145Y239161D01*
X389698Y238335D01*
X399388Y228644D01*
Y224756D01*
X398272D01*
Y216244D01*
X399388D01*
Y210593D01*
X383344Y194549D01*
X381515D01*
X381226Y195049D01*
X381649Y195781D01*
X381953Y196914D01*
Y198086D01*
X381649Y199219D01*
X381063Y200234D01*
X380234Y201063D01*
X379219Y201649D01*
X378086Y201953D01*
X376914D01*
X376707Y201897D01*
X375612Y202993D01*
Y215244D01*
X376728D01*
Y223756D01*
X375612D01*
Y230607D01*
X377926Y232921D01*
X378388Y232730D01*
Y223756D01*
X377272D01*
Y215244D01*
X384602D01*
Y216951D01*
X387000D01*
X387976Y217145D01*
X388802Y217698D01*
X389056Y217951D01*
X390398D01*
Y216244D01*
X397728D01*
Y224756D01*
X390398D01*
Y223049D01*
X388000D01*
X387024Y222855D01*
X386198Y222302D01*
X385944Y222049D01*
X384602D01*
Y223756D01*
X383486D01*
Y243819D01*
X383527Y243890D01*
X383717Y244597D01*
Y245329D01*
X383527Y246036D01*
X383161Y246670D01*
X382644Y247187D01*
X382010Y247553D01*
X381303Y247743D01*
X380571D01*
X380149Y247629D01*
X379649Y247970D01*
Y251900D01*
X379455Y252875D01*
X378902Y253702D01*
X375049Y257556D01*
Y259147D01*
X375435Y259464D01*
X375500Y259451D01*
X379961D01*
Y257744D01*
X387291D01*
Y266256D01*
X379961D01*
Y264549D01*
X376556D01*
X376165Y264939D01*
Y269256D01*
X368835D01*
Y260744D01*
X369951D01*
Y256900D01*
X369600Y256612D01*
X355256D01*
Y257728D01*
X346744D01*
Y256612D01*
X346600D01*
X345624Y256418D01*
X344798Y255865D01*
X337035Y248102D01*
X336964Y247997D01*
X336486Y248143D01*
Y255598D01*
Y259377D01*
X336500Y259388D01*
X346744D01*
Y258272D01*
X355256D01*
Y262588D01*
X360499Y267831D01*
X360961Y267640D01*
Y260744D01*
X362182D01*
X362271Y260298D01*
X362659Y259718D01*
X362710Y259527D01*
X363076Y258893D01*
X363593Y258376D01*
X364227Y258010D01*
X364934Y257821D01*
X365666D01*
X366373Y258010D01*
X367007Y258376D01*
X367524Y258893D01*
X367890Y259527D01*
X368079Y260234D01*
Y260744D01*
X368291D01*
Y269256D01*
X367639D01*
X367406Y269560D01*
Y270292D01*
X367216Y270999D01*
X366850Y271633D01*
X366333Y272150D01*
X365821Y272446D01*
X365655Y272988D01*
X371102Y278435D01*
X371655Y279261D01*
X371849Y280237D01*
Y324000D01*
X371655Y324975D01*
X371102Y325802D01*
X357949Y338956D01*
Y341400D01*
X365150D01*
Y341451D01*
X371100D01*
X372076Y341645D01*
X372902Y342198D01*
X375100Y344395D01*
X377298Y342198D01*
D02*
G37*
G36*
X216951Y262244D02*
Y253256D01*
X215835D01*
Y247923D01*
X215373Y247732D01*
X212549Y250556D01*
Y265939D01*
X213049Y266146D01*
X216951Y262244D01*
D02*
G37*
G36*
X219888Y304007D02*
Y281756D01*
X218772D01*
Y273244D01*
X224825D01*
Y253256D01*
X223709D01*
Y246249D01*
X223165D01*
Y253256D01*
X222049D01*
Y263300D01*
X221855Y264276D01*
X221302Y265102D01*
X217112Y269293D01*
Y273244D01*
X218228D01*
Y281756D01*
X217112D01*
Y292937D01*
X216918Y293912D01*
X216365Y294739D01*
X211417Y299688D01*
Y306917D01*
X209786D01*
X209579Y307417D01*
X210335Y308174D01*
X211048Y309409D01*
X211417Y310787D01*
Y311771D01*
X211917Y311978D01*
X219888Y304007D01*
D02*
G37*
G36*
X197039Y263157D02*
Y245056D01*
X192648Y240665D01*
X188877D01*
X188670Y241165D01*
X191602Y244098D01*
X192155Y244924D01*
X192349Y245900D01*
Y256800D01*
X192155Y257775D01*
X191602Y258602D01*
X190769Y259436D01*
X190960Y259898D01*
X195756D01*
Y263786D01*
X196218Y263977D01*
X197039Y263157D01*
D02*
G37*
G36*
X360461Y243744D02*
X361577D01*
Y239282D01*
X350844Y228549D01*
X340993D01*
X336486Y233056D01*
Y238713D01*
X336986Y238920D01*
X337130Y238776D01*
X337764Y238410D01*
X338471Y238221D01*
X339203D01*
X339910Y238410D01*
X340544Y238776D01*
X341061Y239293D01*
X341427Y239927D01*
X341617Y240634D01*
Y241366D01*
X341427Y242073D01*
X341386Y242144D01*
Y245244D01*
X346329Y250187D01*
X346744Y250398D01*
Y250398D01*
X346744Y250398D01*
X355256D01*
Y251514D01*
X360461D01*
Y243744D01*
D02*
G37*
G36*
X207451Y272144D02*
Y249500D01*
X207645Y248524D01*
X208198Y247698D01*
X213998Y241898D01*
X214825Y241345D01*
X215800Y241151D01*
X225074D01*
X226049Y241345D01*
X226876Y241898D01*
X229176Y244198D01*
X229542Y244744D01*
X230251D01*
Y241056D01*
X220870Y231675D01*
X195256D01*
Y232791D01*
X188249D01*
Y233335D01*
X195256D01*
Y236064D01*
X201390Y242198D01*
X201943Y243024D01*
X202137Y244000D01*
Y264212D01*
X201943Y265188D01*
X201390Y266015D01*
X195756Y271649D01*
Y274951D01*
X204644D01*
X207451Y272144D01*
D02*
G37*
G36*
X240514Y296881D02*
Y283756D01*
X239398D01*
Y275244D01*
X240514D01*
Y229919D01*
X237644Y227049D01*
X224161D01*
X223954Y227549D01*
X234602Y238198D01*
X235155Y239024D01*
X235349Y240000D01*
Y297850D01*
X239545D01*
X240514Y296881D01*
D02*
G37*
G36*
X309857Y246251D02*
X300198Y236592D01*
X299645Y235765D01*
X299451Y234789D01*
Y226756D01*
X298335D01*
X298249Y227220D01*
Y243944D01*
X301056Y246751D01*
X309650D01*
X309857Y246251D01*
D02*
G37*
G36*
X368335Y243744D02*
X369451D01*
Y236656D01*
X366498Y233702D01*
X365945Y232875D01*
X365751Y231900D01*
Y198500D01*
Y193856D01*
X362944Y191049D01*
X336970D01*
X336779Y191511D01*
X349744Y204476D01*
X350244Y204269D01*
Y203772D01*
X358756D01*
Y211102D01*
X350244D01*
Y209986D01*
X344314D01*
X337256Y210616D01*
Y212102D01*
X328744D01*
Y204772D01*
X337256D01*
Y205128D01*
X337625Y205465D01*
X342452Y205034D01*
X342622Y204564D01*
X337718Y199660D01*
X337256Y199851D01*
Y204228D01*
X328744D01*
Y203112D01*
X317056D01*
X312423Y207745D01*
Y218244D01*
X313539D01*
Y226756D01*
X312423D01*
Y230479D01*
X330926Y248982D01*
X331388Y248791D01*
Y232000D01*
X331582Y231025D01*
X332135Y230198D01*
X338135Y224198D01*
X338962Y223645D01*
X339937Y223451D01*
X351900D01*
X352875Y223645D01*
X353702Y224198D01*
X365928Y236424D01*
X366481Y237251D01*
X366675Y238226D01*
Y243744D01*
X367791D01*
Y251514D01*
X368335D01*
Y243744D01*
D02*
G37*
G36*
X183389Y253607D02*
X183410Y253527D01*
X183776Y252893D01*
X184293Y252376D01*
X184927Y252010D01*
X185634Y251820D01*
X186366D01*
X186751Y251924D01*
X187251Y251564D01*
Y246956D01*
X183898Y243602D01*
X183345Y242776D01*
X183151Y241800D01*
Y231426D01*
X183345Y230451D01*
X183898Y229624D01*
X186198Y227324D01*
X186744Y226958D01*
Y225461D01*
X195256D01*
Y226577D01*
X197265D01*
X197472Y226077D01*
X193945Y222550D01*
X192967D01*
X191937Y222274D01*
X191013Y221741D01*
X190259Y220987D01*
X189726Y220063D01*
X189450Y219033D01*
Y218055D01*
X186598Y215202D01*
X176444Y205049D01*
X174937D01*
Y207347D01*
X165549D01*
Y212544D01*
X178802Y225798D01*
X179355Y226624D01*
X179549Y227600D01*
Y256793D01*
X180011Y256984D01*
X183389Y253607D01*
D02*
G37*
G36*
X233046Y201651D02*
X223945Y192550D01*
X222967D01*
X221937Y192274D01*
X221013Y191741D01*
X220259Y190987D01*
X219726Y190063D01*
X219450Y189033D01*
Y187967D01*
X219726Y186937D01*
X220065Y186349D01*
X219777Y185849D01*
X217223D01*
X216935Y186349D01*
X217274Y186937D01*
X217550Y187967D01*
Y189033D01*
X217274Y190063D01*
X216741Y190987D01*
X215987Y191741D01*
X215063Y192274D01*
X214033Y192550D01*
X212967D01*
X211937Y192274D01*
X211107Y191795D01*
X210800Y192195D01*
X220756Y202151D01*
X232839D01*
X233046Y201651D01*
D02*
G37*
%LPC*%
G36*
X306488Y422685D02*
X296795D01*
Y412599D01*
X306488D01*
Y422685D01*
D02*
G37*
G36*
X168586Y234953D02*
X167414D01*
X166281Y234649D01*
X165266Y234063D01*
X164437Y233234D01*
X163851Y232219D01*
X163547Y231086D01*
Y229914D01*
X163851Y228781D01*
X164437Y227766D01*
X165266Y226937D01*
X166281Y226351D01*
X167414Y226047D01*
X168586D01*
X169719Y226351D01*
X170734Y226937D01*
X171563Y227766D01*
X172149Y228781D01*
X172453Y229914D01*
Y231086D01*
X172149Y232219D01*
X171563Y233234D01*
X170734Y234063D01*
X169719Y234649D01*
X168586Y234953D01*
D02*
G37*
G36*
X254033Y192550D02*
X252967D01*
X251937Y192274D01*
X251013Y191741D01*
X250259Y190987D01*
X249726Y190063D01*
X249450Y189033D01*
Y187967D01*
X249726Y186937D01*
X250259Y186013D01*
X251013Y185259D01*
X251937Y184726D01*
X252967Y184450D01*
X254033D01*
X255063Y184726D01*
X255987Y185259D01*
X256741Y186013D01*
X257274Y186937D01*
X257550Y187967D01*
Y189033D01*
X257274Y190063D01*
X256741Y190987D01*
X255987Y191741D01*
X255063Y192274D01*
X254033Y192550D01*
D02*
G37*
G36*
X244033D02*
X242967D01*
X241937Y192274D01*
X241013Y191741D01*
X240259Y190987D01*
X239726Y190063D01*
X239450Y189033D01*
Y187967D01*
X239726Y186937D01*
X240259Y186013D01*
X241013Y185259D01*
X241937Y184726D01*
X242967Y184450D01*
X244033D01*
X245063Y184726D01*
X245987Y185259D01*
X246741Y186013D01*
X247274Y186937D01*
X247550Y187967D01*
Y189033D01*
X247274Y190063D01*
X246741Y190987D01*
X245987Y191741D01*
X245063Y192274D01*
X244033Y192550D01*
D02*
G37*
G36*
X254033Y222550D02*
X252967D01*
X251937Y222274D01*
X251013Y221741D01*
X250259Y220987D01*
X249726Y220063D01*
X249450Y219033D01*
Y217967D01*
X249726Y216937D01*
X250259Y216013D01*
X251013Y215259D01*
X251937Y214726D01*
X252967Y214450D01*
X254033D01*
X255063Y214726D01*
X255987Y215259D01*
X256741Y216013D01*
X257274Y216937D01*
X257550Y217967D01*
Y219033D01*
X257274Y220063D01*
X256741Y220987D01*
X255987Y221741D01*
X255063Y222274D01*
X254033Y222550D01*
D02*
G37*
G36*
X244033D02*
X242967D01*
X241937Y222274D01*
X241013Y221741D01*
X240259Y220987D01*
X239726Y220063D01*
X239450Y219033D01*
Y217967D01*
X239726Y216937D01*
X240259Y216013D01*
X241013Y215259D01*
X241937Y214726D01*
X242967Y214450D01*
X244033D01*
X245063Y214726D01*
X245987Y215259D01*
X246741Y216013D01*
X247274Y216937D01*
X247550Y217967D01*
Y219033D01*
X247274Y220063D01*
X246741Y220987D01*
X245987Y221741D01*
X245063Y222274D01*
X244033Y222550D01*
D02*
G37*
G36*
X383366Y304080D02*
X382634D01*
X381927Y303890D01*
X381293Y303524D01*
X380776Y303007D01*
X380410Y302373D01*
X380221Y301666D01*
Y300934D01*
X380410Y300227D01*
X380451Y300156D01*
Y287756D01*
X379335D01*
Y279244D01*
X386665D01*
Y287756D01*
X385549D01*
Y300156D01*
X385590Y300227D01*
X385780Y300934D01*
Y301666D01*
X385590Y302373D01*
X385224Y303007D01*
X384707Y303524D01*
X384073Y303890D01*
X383366Y304080D01*
D02*
G37*
G36*
X358756Y203228D02*
X350244D01*
Y195898D01*
X357516D01*
X357576Y195793D01*
X358093Y195276D01*
X358727Y194910D01*
X359434Y194720D01*
X360166D01*
X360873Y194910D01*
X361507Y195276D01*
X362024Y195793D01*
X362390Y196427D01*
X362579Y197134D01*
Y197866D01*
X362390Y198573D01*
X362024Y199207D01*
X361507Y199724D01*
X360873Y200090D01*
X360793Y200111D01*
X359539Y201365D01*
X358756Y201889D01*
Y203228D01*
D02*
G37*
%LPD*%
D16*
X333000Y208437D02*
D03*
Y200563D02*
D03*
X277000Y206437D02*
D03*
Y198563D02*
D03*
X354500Y207437D02*
D03*
Y199563D02*
D03*
X351000Y261937D02*
D03*
Y254063D02*
D03*
X351500Y296500D02*
D03*
Y288626D02*
D03*
X387000Y387063D02*
D03*
Y394937D02*
D03*
X364000Y317374D02*
D03*
Y309500D02*
D03*
X335000Y349563D02*
D03*
Y357437D02*
D03*
X172000Y322563D02*
D03*
Y330437D02*
D03*
X191000Y237000D02*
D03*
Y229126D02*
D03*
X191500Y271437D02*
D03*
Y263563D02*
D03*
X214000Y390874D02*
D03*
Y383000D02*
D03*
D17*
X301642Y385358D02*
D03*
X319358D02*
D03*
Y417642D02*
D03*
X301642D02*
D03*
D18*
X381937Y421000D02*
D03*
X374063D02*
D03*
X390874Y283500D02*
D03*
X383000D02*
D03*
X214563Y277500D02*
D03*
X222437D02*
D03*
X372500Y265000D02*
D03*
X364626D02*
D03*
X250937Y279500D02*
D03*
X243063D02*
D03*
X380937Y219500D02*
D03*
X373063D02*
D03*
X401937Y220500D02*
D03*
X394063D02*
D03*
X177000Y298000D02*
D03*
X169126D02*
D03*
X383626Y262000D02*
D03*
X391500D02*
D03*
X227374Y249000D02*
D03*
X219500D02*
D03*
X257374Y380000D02*
D03*
X249500D02*
D03*
X334000Y380500D02*
D03*
X341874D02*
D03*
X333937Y264500D02*
D03*
X326063D02*
D03*
X302000Y222500D02*
D03*
X309874D02*
D03*
X334563Y406500D02*
D03*
X342437D02*
D03*
X364126Y248000D02*
D03*
X372000D02*
D03*
D19*
X361500Y392902D02*
D03*
Y405500D02*
D03*
D20*
X311000Y254173D02*
D03*
X307260D02*
D03*
X303520D02*
D03*
Y265000D02*
D03*
X307260D02*
D03*
X311000D02*
D03*
D21*
X216275Y341500D02*
D03*
Y346500D02*
D03*
Y351500D02*
D03*
Y356500D02*
D03*
X237725D02*
D03*
Y351500D02*
D03*
Y346500D02*
D03*
Y341500D02*
D03*
X382225Y359000D02*
D03*
Y354000D02*
D03*
Y349000D02*
D03*
Y344000D02*
D03*
X360775D02*
D03*
Y349000D02*
D03*
Y354000D02*
D03*
Y359000D02*
D03*
D29*
X206000Y321500D02*
D03*
Y311500D02*
D03*
D30*
Y301500D02*
D03*
D34*
X334000Y368000D02*
Y380500D01*
Y357437D02*
Y368000D01*
X210900Y342600D02*
Y383000D01*
X188400Y213400D02*
X193500Y218500D01*
X177500Y202500D02*
X188400Y213400D01*
X375100Y357537D02*
Y376100D01*
Y348000D02*
Y357537D01*
X368300Y198500D02*
Y231900D01*
Y192800D02*
Y198500D01*
X349100Y207437D02*
X354500D01*
X344200D02*
X349100D01*
X307260Y265000D02*
Y284560D01*
X277826Y356500D02*
X286400Y347926D01*
X307260Y327066D02*
X308382Y325944D01*
X286400Y347926D02*
X307260Y327066D01*
Y325944D02*
Y327066D01*
Y284560D02*
Y325944D01*
X330163Y188500D02*
X364000D01*
X177000Y227600D02*
Y263600D01*
X359050Y412450D02*
X360300Y411200D01*
X343900Y427600D02*
X359050Y412450D01*
X351500Y314000D02*
Y350700D01*
X362400Y317374D02*
Y321900D01*
X333937Y255598D02*
Y264500D01*
Y232000D02*
Y255598D01*
X319358Y391295D02*
Y403458D01*
X301642Y370920D02*
Y385358D01*
Y370920D02*
X309125Y363437D01*
X329437D01*
X334000Y368000D01*
X193500Y218500D02*
X199500Y224500D01*
X238700D01*
X243063Y228863D01*
Y279500D01*
X238500Y302500D02*
Y322300D01*
X241700Y325500D01*
X212000Y341500D02*
X216275D01*
X210900Y342600D02*
X212000Y341500D01*
X210900Y383000D02*
X214000D01*
X333000Y208437D02*
X344200Y207437D01*
X263500Y188500D02*
X271700Y196700D01*
Y204300D01*
X277000Y206437D01*
X364000Y188500D02*
X368300Y192800D01*
Y231900D02*
X372000Y235600D01*
X401937Y220500D02*
Y229700D01*
X391500Y240137D02*
X401937Y229700D01*
X391500Y240137D02*
Y262000D01*
X379100Y344000D02*
X382225D01*
X375100Y348000D02*
X379100Y344000D01*
X237725Y356500D02*
X277826D01*
X342437Y406500D02*
Y414700D01*
X333437Y423700D02*
X342437Y414700D01*
X313500Y423700D02*
X333437D01*
X310500Y420700D02*
X313500Y423700D01*
X310500Y411100D02*
Y420700D01*
X286400Y387000D02*
X310500Y411100D01*
X286400Y347926D02*
Y387000D01*
X307260Y325944D02*
X308382D01*
X332000Y349563D01*
X335000D01*
X177000Y263600D02*
Y298000D01*
Y263600D02*
X186000Y254600D01*
X356000Y309500D02*
X364000D01*
X351500Y314000D02*
X356000Y309500D01*
X351500Y350700D02*
X354800Y354000D01*
X351500Y296500D02*
Y314000D01*
X354800Y354000D02*
X360775D01*
X356600Y383900D02*
X361000Y379500D01*
X356600Y383900D02*
Y410000D01*
X359050Y412450D01*
X302000Y222500D02*
Y234789D01*
X315211Y248000D01*
Y260139D01*
X311000Y265000D02*
X315211Y260139D01*
X364626Y261274D02*
Y265000D01*
Y261274D02*
X365300Y260600D01*
X380937Y219500D02*
Y244963D01*
X364626Y265000D02*
Y269926D01*
X203500Y188500D02*
X219700Y204700D01*
X258342D01*
X289400Y235758D01*
Y250880D01*
X303520Y265000D01*
X223500Y188500D02*
X235000Y200000D01*
X261744D01*
X272846Y211102D01*
X281198D01*
X282300Y210000D01*
Y200863D02*
Y210000D01*
X280000Y198563D02*
X282300Y200863D01*
X277000Y198563D02*
X280000D01*
X188000Y229126D02*
X191000D01*
X185700Y231426D02*
X188000Y229126D01*
X185700Y231426D02*
Y241800D01*
X189800Y245900D01*
Y256800D01*
X182200Y264400D02*
X189800Y256800D01*
X182200Y264400D02*
Y385800D01*
X192000Y395600D01*
X244000D01*
X249500Y390100D01*
Y380000D02*
Y390100D01*
X175963Y330437D02*
X178400Y328000D01*
X172000Y330437D02*
X175963D01*
X164000Y192500D02*
X169500D01*
X163000Y193500D02*
X164000Y192500D01*
X163000Y193500D02*
Y213600D01*
X177000Y227600D01*
X188637Y263563D02*
X191500D01*
X186200Y266000D02*
X188637Y263563D01*
X186200Y266000D02*
Y276000D01*
X187700Y277500D01*
X205700D01*
X210000Y273200D01*
Y249500D02*
Y273200D01*
Y249500D02*
X215800Y243700D01*
X225074D01*
X227374Y246000D01*
Y249000D01*
X338837Y241000D02*
Y246300D01*
X346600Y254063D01*
X351000D01*
X263500Y188500D02*
X330163D01*
X349100Y207437D01*
X216275Y341500D02*
X225700D01*
X169500Y202500D02*
X177500D01*
X309874Y222500D02*
Y231535D01*
X333937Y255598D01*
X326800Y383300D02*
X329300Y385800D01*
X340074D01*
X341874Y380500D01*
X319358Y403458D02*
X319400Y403500D01*
X222437Y277500D02*
Y305063D01*
X206000Y321500D02*
X222437Y305063D01*
X199574Y390874D02*
X214000D01*
X192700Y384000D02*
X199574Y390874D01*
X192700Y334800D02*
Y384000D01*
Y334800D02*
X206000Y321500D01*
X354500Y199563D02*
X357737D01*
X359800Y197500D01*
X316000Y200563D02*
X333000D01*
X309874Y206689D02*
X316000Y200563D01*
X309874Y206689D02*
Y222500D01*
X290500Y212000D02*
X295700Y217200D01*
Y245000D01*
X300000Y249300D01*
X310000D01*
X311000Y250300D01*
Y254173D01*
X364126Y238226D02*
Y248000D01*
X351900Y226000D02*
X364126Y238226D01*
X339937Y226000D02*
X351900D01*
X333937Y232000D02*
X339937Y226000D01*
X334000Y357437D02*
X335000D01*
X342100D01*
X342500Y357037D01*
Y330000D02*
Y357037D01*
X392300Y359500D02*
X402000D01*
X391800Y359000D02*
X392300Y359500D01*
X382225Y359000D02*
X391800D01*
X382225D02*
X387000Y363775D01*
Y387063D01*
X228300Y183300D02*
X233500Y188500D01*
X190000Y183300D02*
X228300D01*
X188400Y184900D02*
X190000Y183300D01*
X188400Y184900D02*
Y213400D01*
X243063Y279500D02*
Y297937D01*
X238500Y302500D02*
X243063Y297937D01*
X401937Y209537D02*
Y220500D01*
X384400Y192000D02*
X401937Y209537D01*
X374800Y192000D02*
X384400D01*
X368300Y198500D02*
X374800Y192000D01*
X372000Y235600D02*
Y248000D01*
X390874Y273326D02*
X391500Y262000D01*
X390874Y273326D02*
Y283500D01*
X372000Y248000D02*
Y251663D01*
X369600Y254063D02*
X372000Y251663D01*
X351000Y254063D02*
X369600D01*
X390874Y283500D02*
Y340000D01*
X386874Y344000D02*
X390874Y340000D01*
X382225Y344000D02*
X386874D01*
X382225D02*
Y349000D01*
X360775Y344000D02*
X371100D01*
X375100Y348000D01*
X361500Y389700D02*
Y392902D01*
X342437Y390200D02*
Y406500D01*
Y390200D02*
X375100Y357537D01*
X361500Y389700D02*
X375100Y376100D01*
X216275Y356500D02*
X237725D01*
X216275Y351500D02*
Y356500D01*
X345700Y288626D02*
X351500D01*
X342346Y291980D02*
X345700Y288626D01*
X314680Y291980D02*
X342346D01*
X307260Y284560D02*
X314680Y291980D01*
X307260Y259539D02*
Y265000D01*
X307220Y259500D02*
X307260Y259539D01*
X307220Y254360D02*
Y259500D01*
Y254360D02*
X307260Y254320D01*
Y254173D02*
Y254320D01*
X360775Y354000D02*
X367900D01*
X257374Y380000D02*
Y396674D01*
X288300Y427600D01*
X343900D01*
X360300Y411200D02*
X377137D01*
X381937Y416000D01*
Y421000D01*
X250937Y296905D02*
X256532Y302500D01*
X250937Y279500D02*
Y296905D01*
Y279500D02*
X256900D01*
X258900Y281500D01*
X265000D01*
X214563Y277500D02*
Y292937D01*
X206000Y301500D02*
X214563Y292937D01*
Y268237D02*
Y277500D01*
Y268237D02*
X219500Y263300D01*
Y249000D02*
Y263300D01*
X247516Y302500D02*
Y311000D01*
X248000Y311484D01*
Y320000D01*
X372500Y265000D02*
X375500Y262000D01*
X383626D01*
X372500Y256500D02*
Y265000D01*
Y256500D02*
X377100Y251900D01*
Y235700D02*
Y251900D01*
X373063Y231663D02*
X377100Y235700D01*
X373063Y219500D02*
Y231663D01*
Y201937D02*
Y219500D01*
Y201937D02*
X377500Y197500D01*
X243600Y351500D02*
X303400Y291700D01*
X237725Y351500D02*
X243600D01*
X191000Y237000D02*
X192588D01*
X199588Y244000D01*
Y264212D01*
X192363Y271437D02*
X199588Y264212D01*
X191500Y271437D02*
X192363D01*
X361500Y401800D02*
Y405500D01*
Y401800D02*
X364000Y399300D01*
X382037D01*
X386400Y394937D01*
X387000D01*
Y426000D01*
X384800Y428200D02*
X387000Y426000D01*
X378263Y428200D02*
X384800D01*
X374063Y424000D02*
X378263Y428200D01*
X374063Y421000D02*
Y424000D01*
X311000Y265000D02*
Y280000D01*
X317500Y286500D01*
X311000Y265000D02*
X318200D01*
X318700Y264500D01*
X326063D01*
X380937Y219500D02*
X387000D01*
X388000Y220500D01*
X394063D01*
X362400Y317374D02*
X364000D01*
X383000Y283500D02*
Y301300D01*
X191000Y229126D02*
X221926D01*
X232800Y240000D01*
Y326200D01*
X243100Y336500D01*
Y345400D01*
X242000Y346500D02*
X243100Y345400D01*
X237725Y346500D02*
X242000D01*
X227374Y249000D02*
Y336874D01*
X232000Y341500D01*
X237725D01*
X333937Y264500D02*
X336500Y261937D01*
X351000D01*
X369300Y280237D01*
Y324000D01*
X355400Y337900D02*
X369300Y324000D01*
X355400Y337900D02*
Y348000D01*
X360775Y349000D01*
X169126Y298000D02*
Y319689D01*
X172000Y322563D01*
X169126Y264074D02*
Y298000D01*
Y264074D02*
X171717Y261483D01*
X311000Y254173D02*
Y258100D01*
X319358Y385358D02*
Y391295D01*
X334563Y406500D01*
X324000D02*
X334563D01*
X319358Y411142D02*
X324000Y406500D01*
X319358Y411142D02*
Y417642D01*
X341874Y371826D02*
Y380500D01*
Y371826D02*
X354700Y359000D01*
X360775D01*
D35*
X169500Y192500D02*
D03*
D36*
Y202500D02*
D03*
D37*
X290500Y212000D02*
D03*
X168000Y230500D02*
D03*
X361000Y379500D02*
D03*
X265000Y281500D02*
D03*
X317500Y286500D02*
D03*
X248000Y320000D02*
D03*
X377500Y197500D02*
D03*
X342500Y330000D02*
D03*
X402000Y359500D02*
D03*
D38*
X193500Y188500D02*
D03*
D39*
X203500D02*
D03*
X213500D02*
D03*
X223500D02*
D03*
X233500D02*
D03*
X243500D02*
D03*
X253500D02*
D03*
X263500D02*
D03*
Y218500D02*
D03*
X253500D02*
D03*
X243500D02*
D03*
X233500D02*
D03*
X223500D02*
D03*
X213500D02*
D03*
X203500D02*
D03*
X193500D02*
D03*
D40*
X256532Y302500D02*
D03*
X247516D02*
D03*
D41*
X238500D02*
D03*
D42*
X241700Y325500D02*
D03*
X225700Y341500D02*
D03*
X186000Y254600D02*
D03*
X365300Y260600D02*
D03*
X380937Y244963D02*
D03*
X364626Y269926D02*
D03*
X178400Y328000D02*
D03*
X338837Y241000D02*
D03*
X326800Y383300D02*
D03*
X319400Y403500D02*
D03*
X359800Y197500D02*
D03*
X367900Y354000D02*
D03*
X303400Y291700D02*
D03*
X362400Y321900D02*
D03*
X383000Y301300D02*
D03*
X171717Y261483D02*
D03*
X311000Y258100D02*
D03*
M02*
