G04*
G04 #@! TF.GenerationSoftware,Altium Limited,Altium Designer,26.5.0 (11)*
G04*
G04 Layer_Color=8388736*
G04 Board_Origin=0|0*
%FSLAX25Y25*%
%MOIN*%
G70*
G04*
G04 #@! TF.SameCoordinates,A3810AA2-BE36-4E54-B971-4CCF84F77904*
G04*
G04*
G04 #@! TF.FilePolarity,Negative*
G04*
G01*
G75*
%ADD20R,0.02362X0.03937*%
%ADD21R,0.05750X0.02200*%
%ADD22R,0.06312X0.05131*%
%ADD23R,0.07496X0.07890*%
%ADD24R,0.05131X0.06312*%
%ADD25R,0.05524X0.07099*%
%ADD26O,0.08674X0.07493*%
%ADD27R,0.08674X0.07493*%
%ADD28C,0.06706*%
%ADD29C,0.07835*%
%ADD30R,0.07835X0.07835*%
%ADD31C,0.07099*%
%ADD32R,0.07099X0.07099*%
%ADD33C,0.03359*%
D20*
X311000Y254173D02*
D03*
X307260D02*
D03*
X303520D02*
D03*
Y265000D02*
D03*
X307260D02*
D03*
X311000D02*
D03*
D21*
X216275Y341500D02*
D03*
Y346500D02*
D03*
Y351500D02*
D03*
Y356500D02*
D03*
X237725D02*
D03*
Y351500D02*
D03*
Y346500D02*
D03*
Y341500D02*
D03*
X382225Y359000D02*
D03*
Y354000D02*
D03*
Y349000D02*
D03*
Y344000D02*
D03*
X360775D02*
D03*
Y349000D02*
D03*
Y354000D02*
D03*
Y359000D02*
D03*
D22*
X333000Y208437D02*
D03*
Y200563D02*
D03*
X277000Y206437D02*
D03*
Y198563D02*
D03*
X354500Y207437D02*
D03*
Y199563D02*
D03*
X351000Y261937D02*
D03*
Y254063D02*
D03*
X351500Y296500D02*
D03*
Y288626D02*
D03*
X387000Y387063D02*
D03*
Y394937D02*
D03*
X364000Y317374D02*
D03*
Y309500D02*
D03*
X335000Y349563D02*
D03*
Y357437D02*
D03*
X172000Y322563D02*
D03*
Y330437D02*
D03*
X191000Y237000D02*
D03*
Y229126D02*
D03*
X191500Y271437D02*
D03*
Y263563D02*
D03*
X214000Y390874D02*
D03*
Y383000D02*
D03*
D23*
X301642Y385358D02*
D03*
X319358D02*
D03*
Y417642D02*
D03*
X301642D02*
D03*
D24*
X381937Y421000D02*
D03*
X374063D02*
D03*
X390874Y283500D02*
D03*
X383000D02*
D03*
X214563Y277500D02*
D03*
X222437D02*
D03*
X372500Y265000D02*
D03*
X364626D02*
D03*
X250937Y279500D02*
D03*
X243063D02*
D03*
X380937Y219500D02*
D03*
X373063D02*
D03*
X401937Y220500D02*
D03*
X394063D02*
D03*
X177000Y298000D02*
D03*
X169126D02*
D03*
X383626Y262000D02*
D03*
X391500D02*
D03*
X227374Y249000D02*
D03*
X219500D02*
D03*
X257374Y380000D02*
D03*
X249500D02*
D03*
X334000Y380500D02*
D03*
X341874D02*
D03*
X333937Y264500D02*
D03*
X326063D02*
D03*
X302000Y222500D02*
D03*
X309874D02*
D03*
X334563Y406500D02*
D03*
X342437D02*
D03*
X364126Y248000D02*
D03*
X372000D02*
D03*
D25*
X361500Y392902D02*
D03*
Y405500D02*
D03*
D26*
X169500Y192500D02*
D03*
D27*
Y202500D02*
D03*
D28*
X290500Y212000D02*
D03*
X168000Y230500D02*
D03*
X361000Y379500D02*
D03*
X265000Y281500D02*
D03*
X317500Y286500D02*
D03*
X248000Y320000D02*
D03*
X377500Y197500D02*
D03*
X342500Y330000D02*
D03*
X402000Y359500D02*
D03*
D29*
X206000Y321500D02*
D03*
Y311500D02*
D03*
D30*
Y301500D02*
D03*
D31*
X256532Y302500D02*
D03*
X247516D02*
D03*
D32*
X238500D02*
D03*
D33*
X241700Y325500D02*
D03*
X225700Y341500D02*
D03*
X186000Y254600D02*
D03*
X365300Y260600D02*
D03*
X380937Y244963D02*
D03*
X364626Y269926D02*
D03*
X178400Y328000D02*
D03*
X338837Y241000D02*
D03*
X326800Y383300D02*
D03*
X319400Y403500D02*
D03*
X359800Y197500D02*
D03*
X367900Y354000D02*
D03*
X303400Y291700D02*
D03*
X362400Y321900D02*
D03*
X383000Y301300D02*
D03*
X171717Y261483D02*
D03*
X311000Y258100D02*
D03*
M02*
